*
%FSLAX26Y26*%
%MOIN*%
%ADD10C,0.010000*%
%ADD11C,0.125000*%
%ADD12C,0.020000*%
%ADD13C,0.050000*%
%ADD14C,0.015000*%
%ADD15C,0.017000*%
%ADD16C,0.008000*%
%ADD17C,0.024000*%
%IPPOS*%
%LNarray-dwg.gbr*%
%LPD*%
G75*
G54D10*
X0Y0D02*
X4000000D01*
Y4500000D01*
X0D01*
Y0D01*
X400000Y431000D02*
Y1569000D01*
G02X431000Y1600000I31000J0D01*
G01X925000D01*
G02X925000Y1500000I0J-50000D01*
G01X500000D01*
Y1400000D01*
X519000D01*
G02X550000Y1369000I0J-31000D01*
G01Y631000D01*
G02X519000Y600000I-31000J0D01*
G01X500000D01*
Y500000D01*
X925000D01*
G02X925000Y400000I0J-50000D01*
G01X431000D01*
G02X400000Y431000I0J31000D01*
Y1681000D02*
G01Y2819000D01*
G02X431000Y2850000I31000J0D01*
G01X925000D01*
G02X925000Y2750000I0J-50000D01*
G01X500000D01*
Y2650000D01*
X519000D01*
G02X550000Y2619000I0J-31000D01*
G01Y1881000D01*
G02X519000Y1850000I-31000J0D01*
G01X500000D01*
Y1750000D01*
X925000D01*
G02X925000Y1650000I0J-50000D01*
G01X431000D01*
G02X400000Y1681000I0J31000D01*
Y2931000D02*
G01Y4069000D01*
G02X431000Y4100000I31000J0D01*
G01X925000D01*
G02X925000Y4000000I0J-50000D01*
G01X500000D01*
Y3900000D01*
X519000D01*
G02X550000Y3869000I0J-31000D01*
G01Y3131000D01*
G02X519000Y3100000I-31000J0D01*
G01X500000D01*
Y3000000D01*
X925000D01*
G02X925000Y2900000I0J-50000D01*
G01X431000D01*
G02X400000Y2931000I0J31000D01*
X1125000Y400000D02*
G02X1125000Y500000I0J50000D01*
G01X1750000D01*
Y900000D01*
G02X1850000Y900000I50000J0D01*
G01Y431000D01*
G02X1819000Y400000I-31000J0D01*
G01X1125000D01*
Y1500000D02*
G02X1125000Y1600000I0J50000D01*
G01X1819000D01*
G02X1850000Y1569000I0J-31000D01*
G01Y1100000D01*
G02X1750000Y1100000I-50000J0D01*
G01Y1500000D01*
X1125000D01*
Y1650000D02*
G02X1125000Y1750000I0J50000D01*
G01X1750000D01*
Y2150000D01*
G02X1850000Y2150000I50000J0D01*
G01Y1681000D01*
G02X1819000Y1650000I-31000J0D01*
G01X1125000D01*
Y2750000D02*
G02X1125000Y2850000I0J50000D01*
G01X1819000D01*
G02X1850000Y2819000I0J-31000D01*
G01Y2350000D01*
G02X1750000Y2350000I-50000J0D01*
G01Y2750000D01*
X1125000D01*
Y2900000D02*
G02X1125000Y3000000I0J50000D01*
G01X1750000D01*
Y3400000D01*
G02X1850000Y3400000I50000J0D01*
G01Y2931000D01*
G02X1819000Y2900000I-31000J0D01*
G01X1125000D01*
Y4000000D02*
G02X1125000Y4100000I0J50000D01*
G01X1819000D01*
G02X1850000Y4069000I0J-31000D01*
G01Y3600000D01*
G02X1750000Y3600000I-50000J0D01*
G01Y4000000D01*
X1125000D01*
X2150000Y431000D02*
Y1569000D01*
G02X2181000Y1600000I31000J0D01*
G01X2675000D01*
G02X2675000Y1500000I0J-50000D01*
G01X2250000D01*
Y1400000D01*
X2269000D01*
G02X2300000Y1369000I0J-31000D01*
G01Y631000D01*
G02X2269000Y600000I-31000J0D01*
G01X2250000D01*
Y500000D01*
X2675000D01*
G02X2675000Y400000I0J-50000D01*
G01X2181000D01*
G02X2150000Y431000I0J31000D01*
Y1681000D02*
G01Y2819000D01*
G02X2181000Y2850000I31000J0D01*
G01X2675000D01*
G02X2675000Y2750000I0J-50000D01*
G01X2250000D01*
Y2650000D01*
X2269000D01*
G02X2300000Y2619000I0J-31000D01*
G01Y1881000D01*
G02X2269000Y1850000I-31000J0D01*
G01X2250000D01*
Y1750000D01*
X2675000D01*
G02X2675000Y1650000I0J-50000D01*
G01X2181000D01*
G02X2150000Y1681000I0J31000D01*
Y2931000D02*
G01Y4069000D01*
G02X2181000Y4100000I31000J0D01*
G01X2675000D01*
G02X2675000Y4000000I0J-50000D01*
G01X2250000D01*
Y3900000D01*
X2269000D01*
G02X2300000Y3869000I0J-31000D01*
G01Y3131000D01*
G02X2269000Y3100000I-31000J0D01*
G01X2250000D01*
Y3000000D01*
X2675000D01*
G02X2675000Y2900000I0J-50000D01*
G01X2181000D01*
G02X2150000Y2931000I0J31000D01*
X2875000Y400000D02*
G02X2875000Y500000I0J50000D01*
G01X3500000D01*
Y900000D01*
G02X3600000Y900000I50000J0D01*
G01Y431000D01*
G02X3569000Y400000I-31000J0D01*
G01X2875000D01*
Y1500000D02*
G02X2875000Y1600000I0J50000D01*
G01X3569000D01*
G02X3600000Y1569000I0J-31000D01*
G01Y1100000D01*
G02X3500000Y1100000I-50000J0D01*
G01Y1500000D01*
X2875000D01*
Y1650000D02*
G02X2875000Y1750000I0J50000D01*
G01X3500000D01*
Y2150000D01*
G02X3600000Y2150000I50000J0D01*
G01Y1681000D01*
G02X3569000Y1650000I-31000J0D01*
G01X2875000D01*
Y2750000D02*
G02X2875000Y2850000I0J50000D01*
G01X3569000D01*
G02X3600000Y2819000I0J-31000D01*
G01Y2350000D01*
G02X3500000Y2350000I-50000J0D01*
G01Y2750000D01*
X2875000D01*
Y2900000D02*
G02X2875000Y3000000I0J50000D01*
G01X3500000D01*
Y3400000D01*
G02X3600000Y3400000I50000J0D01*
G01Y2931000D01*
G02X3569000Y2900000I-31000J0D01*
G01X2875000D01*
Y4000000D02*
G02X2875000Y4100000I0J50000D01*
G01X3569000D01*
G02X3600000Y4069000I0J-31000D01*
G01Y3600000D01*
G02X3500000Y3600000I-50000J0D01*
G01Y4000000D01*
X2875000D01*
G54D11*
X250000Y250000D03*
G54D11*
X3750000D03*
G54D11*
X250000Y4250000D03*
X3750000D03*
G54D12*
X1025000Y490000D03*
G54D12*
X995000D03*
G54D12*
X965000D03*
G54D12*
X1055000D03*
G54D12*
X1085000D03*
G54D12*
X1025000Y1510000D03*
G54D12*
X1055000D03*
G54D12*
X1085000D03*
G54D12*
X995000D03*
G54D12*
X965000D03*
X1760000Y1000000D03*
Y970000D03*
Y940000D03*
Y1030000D03*
Y1060000D03*
G54D12*
X1025000Y1740000D03*
G54D12*
X995000D03*
G54D12*
X965000D03*
G54D12*
X1055000D03*
G54D12*
X1085000D03*
G54D12*
X1025000Y2760000D03*
G54D12*
X1055000D03*
G54D12*
X1085000D03*
G54D12*
X995000D03*
G54D12*
X965000D03*
X1760000Y2250000D03*
Y2220000D03*
Y2190000D03*
Y2280000D03*
Y2310000D03*
G54D12*
X1025000Y2990000D03*
G54D12*
X995000D03*
G54D12*
X965000D03*
G54D12*
X1055000D03*
G54D12*
X1085000D03*
G54D12*
X1025000Y4010000D03*
G54D12*
X1055000D03*
G54D12*
X1085000D03*
G54D12*
X995000D03*
G54D12*
X965000D03*
X1760000Y3500000D03*
Y3470000D03*
Y3440000D03*
Y3530000D03*
Y3560000D03*
G54D12*
X2775000Y490000D03*
G54D12*
X2745000D03*
G54D12*
X2715000D03*
G54D12*
X2805000D03*
G54D12*
X2835000D03*
G54D12*
X2775000Y1510000D03*
G54D12*
X2805000D03*
G54D12*
X2835000D03*
G54D12*
X2745000D03*
G54D12*
X2715000D03*
X3510000Y1000000D03*
Y970000D03*
Y940000D03*
Y1030000D03*
Y1060000D03*
G54D12*
X2775000Y1740000D03*
G54D12*
X2745000D03*
G54D12*
X2715000D03*
G54D12*
X2805000D03*
G54D12*
X2835000D03*
G54D12*
X2775000Y2760000D03*
G54D12*
X2805000D03*
G54D12*
X2835000D03*
G54D12*
X2745000D03*
G54D12*
X2715000D03*
X3510000Y2250000D03*
Y2220000D03*
Y2190000D03*
Y2280000D03*
Y2310000D03*
G54D12*
X2775000Y2990000D03*
G54D12*
X2745000D03*
G54D12*
X2715000D03*
G54D12*
X2805000D03*
G54D12*
X2835000D03*
G54D12*
X2775000Y4010000D03*
G54D12*
X2805000D03*
G54D12*
X2835000D03*
G54D12*
X2745000D03*
G54D12*
X2715000D03*
X3510000Y3500000D03*
Y3470000D03*
Y3440000D03*
Y3530000D03*
Y3560000D03*
X500000Y380000D03*
Y350000D03*
Y320000D03*
Y290000D03*
Y260000D03*
Y230000D03*
Y200000D03*
Y170000D03*
Y140000D03*
Y110000D03*
Y80000D03*
Y50000D03*
Y20000D03*
Y4120000D03*
Y4150000D03*
Y4180000D03*
Y4210000D03*
Y4240000D03*
Y4270000D03*
Y4300000D03*
Y4330000D03*
Y4360000D03*
Y4390000D03*
Y4420000D03*
Y4450000D03*
Y4480000D03*
X3500000Y380000D03*
Y350000D03*
Y320000D03*
Y290000D03*
Y260000D03*
Y230000D03*
Y200000D03*
Y170000D03*
Y140000D03*
Y110000D03*
Y80000D03*
Y50000D03*
Y20000D03*
X3504896Y4120000D03*
Y4150000D03*
Y4180000D03*
Y4210000D03*
Y4240000D03*
Y4270000D03*
Y4300000D03*
Y4330000D03*
Y4360000D03*
Y4390000D03*
Y4420000D03*
Y4450000D03*
Y4480000D03*
G54D13*
X250000Y750000D03*
G54D13*
X3750000D03*
G54D13*
X250000Y3750000D03*
X3750000D03*
G54D11*
X250000Y250000D03*
G54D14*
X1630240Y-843674D02*
Y-734402D01*
X1588022Y-807250D01*
X1644313D01*
X1788022Y-843674D02*
Y-734402D01*
X1830240D01*
X1844313Y-752614D01*
Y-770826D01*
X1830240Y-789038D01*
X1788022D01*
X1888022Y-734402D02*
Y-843674D01*
X1944313D01*
X1988022D02*
Y-752614D01*
X2002095Y-734402D01*
X2030240D01*
X2044313Y-752614D01*
Y-843674D01*
X1988022Y-789038D02*
X2044313D01*
X2144313Y-825462D02*
X2130240Y-843674D01*
X2102095D01*
X2088022Y-825462D01*
Y-752614D01*
X2102095Y-734402D01*
X2130240D01*
X2144313Y-752614D01*
X2188022Y-734402D02*
X2244313D01*
X2188022Y-843674D02*
X2244313D01*
X2188022Y-789038D02*
X2230240D01*
X2188022Y-734402D02*
Y-843674D01*
X2288022Y-825462D02*
X2302095Y-843674D01*
X2330240D01*
X2344313Y-825462D01*
Y-807250D01*
X2330240Y-789038D01*
X2302095D01*
X2288022Y-770826D01*
Y-752614D01*
X2302095Y-734402D01*
X2330240D01*
X2344313Y-752614D01*
X2488022Y-734402D02*
X2544313D01*
X2516168D02*
Y-843674D01*
X2588022Y-734402D02*
X2616168Y-789038D01*
X2644313Y-734402D01*
X2616168Y-789038D02*
Y-843674D01*
X2688022D02*
Y-734402D01*
X2730240D01*
X2744313Y-752614D01*
Y-770826D01*
X2730240Y-789038D01*
X2688022D01*
X1440293Y-1088491D03*
X1505111Y-1079385D02*
X1519184Y-1097597D01*
X1547330D01*
X1561403Y-1079385D01*
Y-1006537D01*
X1547330Y-988325D01*
X1519184D01*
X1505111Y-1006537D01*
Y-1079385D01*
X1561403Y-1006537D01*
X1661403Y-988325D02*
X1605111D01*
Y-1024749D01*
X1647330D01*
X1661403Y-1042961D01*
Y-1079385D01*
X1647330Y-1097597D01*
X1619184D01*
X1605111Y-1079385D01*
X1705111D02*
X1719184Y-1097597D01*
X1747330D01*
X1761403Y-1079385D01*
Y-1006537D01*
X1747330Y-988325D01*
X1719184D01*
X1705111Y-1006537D01*
Y-1079385D01*
X1761403Y-1006537D01*
X1905111Y-988325D02*
X1961403D01*
X1905111Y-1042961D02*
X1947330D01*
X1905111Y-988325D02*
Y-1097597D01*
X2019184Y-988325D02*
X2047330D01*
X2019184Y-1097597D02*
X2047330D01*
X2033257Y-988325D02*
Y-1097597D01*
X2105111Y-988325D02*
X2147330D01*
X2161403Y-1006537D01*
Y-1079385D01*
X2147330Y-1097597D01*
X2105111D01*
X2119184D02*
Y-988325D01*
X2205111D02*
Y-1079385D01*
X2219184Y-1097597D01*
X2247330D01*
X2261403Y-1079385D01*
Y-988325D01*
X2361403Y-1079385D02*
X2347330Y-1097597D01*
X2319184D01*
X2305111Y-1079385D01*
Y-1006537D01*
X2319184Y-988325D01*
X2347330D01*
X2361403Y-1006537D01*
X2419184Y-988325D02*
X2447330D01*
X2419184Y-1097597D02*
X2447330D01*
X2433257Y-988325D02*
Y-1097597D01*
X2505111D02*
Y-1006537D01*
X2519184Y-988325D01*
X2547330D01*
X2561403Y-1006537D01*
Y-1097597D01*
X2505111Y-1042961D02*
X2561403D01*
X2605111Y-988325D02*
Y-1097597D01*
X2661403D01*
X2705111Y-1079385D02*
X2719184Y-1097597D01*
X2747330D01*
X2761403Y-1079385D01*
Y-1061173D01*
X2747330Y-1042961D01*
X2719184D01*
X2705111Y-1024749D01*
Y-1006537D01*
X2719184Y-988325D01*
X2747330D01*
X2761403Y-1006537D01*
X1298269Y-1292920D03*
X1377159Y-1210967D02*
X1391232Y-1192755D01*
Y-1302026D01*
X1377159D02*
X1405305D01*
X1463087Y-1210967D02*
X1477159Y-1192755D01*
X1505305D01*
X1519378Y-1210967D01*
Y-1229178D01*
X1505305Y-1247390D01*
X1491232D01*
X1463087Y-1302026D01*
X1519378D01*
X1563087Y-1283814D02*
X1577159Y-1302026D01*
X1605305D01*
X1619378Y-1283814D01*
Y-1210967D01*
X1605305Y-1192755D01*
X1577159D01*
X1563087Y-1210967D01*
Y-1283814D01*
X1619378Y-1210967D01*
X1763087Y-1283814D02*
X1777159Y-1302026D01*
X1805305D01*
X1819378Y-1283814D01*
Y-1265602D01*
X1805305Y-1247390D01*
X1777159D01*
X1763087Y-1229178D01*
Y-1210967D01*
X1777159Y-1192755D01*
X1805305D01*
X1819378Y-1210967D01*
X1863087Y-1283814D02*
Y-1210967D01*
X1877159Y-1192755D01*
X1905305D01*
X1919378Y-1210967D01*
Y-1283814D01*
X1905305Y-1302026D01*
X1877159D01*
X1863087Y-1283814D01*
X1963087Y-1192755D02*
Y-1302026D01*
X2019378D01*
X2063087Y-1192755D02*
X2105305D01*
X2119378Y-1210967D01*
Y-1283814D01*
X2105305Y-1302026D01*
X2063087D01*
X2077159D02*
Y-1192755D01*
X2163087D02*
X2219378D01*
X2163087Y-1302026D02*
X2219378D01*
X2163087Y-1247390D02*
X2205305D01*
X2163087Y-1192755D02*
Y-1302026D01*
X2263087D02*
Y-1192755D01*
X2305305D01*
X2319378Y-1210967D01*
Y-1229178D01*
X2305305Y-1247390D01*
X2263087D01*
X2277159D02*
X2319378Y-1302026D01*
X2363087D02*
Y-1192755D01*
X2391232Y-1247390D01*
X2419378Y-1192755D01*
Y-1302026D01*
X2463087D02*
Y-1210967D01*
X2477159Y-1192755D01*
X2505305D01*
X2519378Y-1210967D01*
Y-1302026D01*
X2463087Y-1247390D02*
X2519378D01*
X2563087Y-1283814D02*
X2577159Y-1302026D01*
X2605305D01*
X2619378Y-1283814D01*
Y-1265602D01*
X2605305Y-1247390D01*
X2577159D01*
X2563087Y-1229178D01*
Y-1210967D01*
X2577159Y-1192755D01*
X2605305D01*
X2619378Y-1210967D01*
X2663087Y-1192755D02*
Y-1302026D01*
X2719378Y-1192755D02*
X2663087Y-1247390D01*
X2719378Y-1302026D01*
X2919378Y-1283814D02*
X2905305Y-1302026D01*
X2877159D01*
X2863087Y-1283814D01*
Y-1210967D01*
X2877159Y-1192755D01*
X2905305D01*
X2919378Y-1210967D01*
X2963087Y-1192755D02*
Y-1302026D01*
X3019378D01*
X3063087D02*
Y-1192755D01*
X3105305D01*
X3119378Y-1210967D01*
Y-1229178D01*
X3105305Y-1247390D01*
X3063087D01*
X3077159D02*
X3119378Y-1302026D01*
G54D10*
X250000Y250000D02*
X-593662D01*
G54D15*
X3866477Y-969167D02*
X3848596Y-991186D01*
X3812835D01*
X3794954Y-969167D01*
Y-881087D01*
X3812835Y-859067D01*
X3848596D01*
X3866477Y-881087D01*
X3919954Y-859067D02*
Y-969167D01*
X3937835Y-991186D01*
X3973596D01*
X3991477Y-969167D01*
Y-859067D01*
X4044954Y-969167D02*
X4062835Y-991186D01*
X4098596D01*
X4116477Y-969167D01*
Y-947147D01*
X4098596Y-925127D01*
X4062835D01*
X4044954Y-903107D01*
Y-881087D01*
X4062835Y-859067D01*
X4098596D01*
X4116477Y-881087D01*
X4169954Y-859067D02*
X4241477D01*
X4205716D02*
Y-991186D01*
X4294954Y-969167D02*
Y-881087D01*
X4312835Y-859067D01*
X4348596D01*
X4366477Y-881087D01*
Y-969167D01*
X4348596Y-991186D01*
X4312835D01*
X4294954Y-969167D01*
X4419954Y-991186D02*
Y-859067D01*
X4455716Y-925127D01*
X4491477Y-859067D01*
Y-991186D01*
X4544954Y-859067D02*
X4616477D01*
X4544954Y-991186D02*
X4616477D01*
X4544954Y-925127D02*
X4598596D01*
X4544954Y-859067D02*
Y-991186D01*
X4669954D02*
Y-859067D01*
X4723596D01*
X4741477Y-881087D01*
Y-903107D01*
X4723596Y-925127D01*
X4669954D01*
X4687835D02*
X4741477Y-991186D01*
X4919954D02*
Y-859067D01*
X4991477Y-991186D01*
Y-859067D01*
X5044954Y-991186D02*
Y-881087D01*
X5062835Y-859067D01*
X5098596D01*
X5116477Y-881087D01*
Y-991186D01*
X5044954Y-925127D02*
X5116477D01*
X5169954Y-991186D02*
Y-859067D01*
X5205716Y-925127D01*
X5241477Y-859067D01*
Y-991186D01*
X5294954Y-859067D02*
X5366477D01*
X5294954Y-991186D02*
X5366477D01*
X5294954Y-925127D02*
X5348596D01*
X5294954Y-859067D02*
Y-991186D01*
X5455716Y-969167D03*
Y-881087D03*
X4799347Y-1252734D02*
Y-1120615D01*
X4852990D01*
X4870870Y-1142635D01*
Y-1164654D01*
X4852990Y-1186674D01*
X4799347D01*
X4924347Y-1252734D02*
Y-1142635D01*
X4942228Y-1120615D01*
X4977990D01*
X4995870Y-1142635D01*
Y-1252734D01*
X4924347Y-1186674D02*
X4995870D01*
X5049347Y-1252734D02*
Y-1120615D01*
X5102990D01*
X5120870Y-1142635D01*
Y-1164654D01*
X5102990Y-1186674D01*
X5049347D01*
X5067228D02*
X5120870Y-1252734D01*
X5174347Y-1120615D02*
X5245870D01*
X5210109D02*
Y-1252734D01*
X5442228D02*
Y-1120615D01*
X5477990Y-1252734D02*
Y-1120615D01*
X5424347Y-1208694D02*
X5495870D01*
X5424347Y-1164654D02*
X5495870D01*
X4937004Y-1514282D02*
Y-1382162D01*
X4990646D01*
X5008527Y-1404182D01*
Y-1426202D01*
X4990646Y-1448222D01*
X4937004D01*
X4954885D02*
X5008527Y-1514282D01*
X5062004Y-1382162D02*
X5133527D01*
X5062004Y-1514282D02*
X5133527D01*
X5062004Y-1448222D02*
X5115646D01*
X5062004Y-1382162D02*
Y-1514282D01*
X5187004Y-1382162D02*
X5222765Y-1514282D01*
X5258527Y-1382162D01*
X5472765Y-1492262D03*
Y-1404182D03*
X4963181Y-510726D02*
Y-620826D01*
X4945300Y-642845D01*
X4909539D01*
X4891658Y-620826D01*
X5016658D02*
Y-532746D01*
X5034539Y-510726D01*
X5070300D01*
X5088181Y-532746D01*
Y-620826D01*
X5070300Y-642845D01*
X5034539D01*
X5016658Y-620826D01*
X5141658Y-510726D02*
X5195300D01*
X5213181Y-532746D01*
Y-554766D01*
X5195300Y-576786D01*
X5213181Y-598806D01*
Y-620826D01*
X5195300Y-642845D01*
X5141658D01*
X5159539D02*
Y-510726D01*
Y-576786D02*
X5195300D01*
X5409539Y-642845D02*
Y-510726D01*
X5445300Y-642845D02*
Y-510726D01*
X5391658Y-598806D02*
X5463181D01*
X5391658Y-554766D02*
X5463181D01*
X5686102Y-494837D02*
X5757626D01*
X5703983Y-626957D01*
X5882626Y-494837D02*
X5811102D01*
Y-538877D01*
X5864745D01*
X5882626Y-560897D01*
Y-604937D01*
X5864745Y-626957D01*
X5828983D01*
X5811102Y-604937D01*
X5953983Y-494837D02*
X5989745D01*
X5953983Y-560897D02*
X5989745D01*
X5953983Y-626957D02*
X5989745D01*
X5936102Y-516857D02*
Y-538877D01*
X6007626Y-516857D02*
Y-538877D01*
X5936102Y-582917D02*
Y-604937D01*
X6007626Y-582917D02*
Y-604937D01*
X5989745Y-494837D02*
X6007626Y-516857D01*
X5953983Y-494837D02*
X5936102Y-516857D01*
X5989745Y-560897D02*
X6007626Y-538877D01*
X5953983Y-560897D02*
X5936102Y-538877D01*
X5989745Y-560897D02*
X6007626Y-582917D01*
X5953983Y-560897D02*
X5936102Y-582917D01*
X5989745Y-626957D02*
X6007626Y-604937D01*
X5953983Y-626957D02*
X5936102Y-604937D01*
X6061102D02*
X6078983Y-626957D01*
X6114745D01*
X6132626Y-604937D01*
Y-516857D01*
X6114745Y-494837D01*
X6078983D01*
X6061102Y-516857D01*
Y-604937D01*
X6132626Y-516857D01*
X6257626Y-494837D02*
X6221864D01*
X6186102Y-538877D01*
Y-604937D01*
X6203983Y-626957D01*
X6239745D01*
X6257626Y-604937D01*
Y-582917D01*
X6239745Y-560897D01*
X6186102D01*
X5733769Y-828504D02*
Y-960623D01*
X5805292D01*
X5876650Y-828504D02*
X5912411D01*
X5876650Y-960623D02*
X5912411D01*
X5894531Y-828504D02*
Y-960623D01*
X5983769D02*
Y-828504D01*
X6055292Y-960623D01*
Y-828504D01*
X6108769D02*
X6180292D01*
X6108769Y-960623D02*
X6180292D01*
X6108769Y-894564D02*
X6162411D01*
X6108769Y-828504D02*
Y-960623D01*
X6233769D02*
Y-850524D01*
X6251650Y-828504D01*
X6287411D01*
X6305292Y-850524D01*
Y-960623D01*
X6233769Y-894564D02*
X6305292D01*
X6358769Y-960623D02*
Y-828504D01*
X6412411D01*
X6430292Y-850524D01*
Y-872544D01*
X6412411Y-894564D01*
X6358769D01*
X6376650D02*
X6430292Y-960623D01*
X6680292Y-938603D02*
X6662411Y-960623D01*
X6626650D01*
X6608769Y-938603D01*
Y-850524D01*
X6626650Y-828504D01*
X6662411D01*
X6680292Y-850524D01*
X6733769Y-960623D02*
Y-850524D01*
X6751650Y-828504D01*
X6787411D01*
X6805292Y-850524D01*
Y-960623D01*
X6733769Y-894564D02*
X6805292D01*
X5701991Y-1082726D02*
X5755634D01*
X5773514Y-1104746D01*
Y-1192826D01*
X5755634Y-1214845D01*
X5701991D01*
X5719872D02*
Y-1082726D01*
X5898514Y-1192826D02*
X5880634Y-1214845D01*
X5844872D01*
X5826991Y-1192826D01*
Y-1104746D01*
X5844872Y-1082726D01*
X5880634D01*
X5898514Y-1104746D01*
X5951991Y-1082726D02*
X6023514D01*
Y-1126766D01*
X6005634Y-1148786D01*
X5987753D01*
X6005634D02*
X6023514Y-1170806D01*
Y-1192826D01*
X6005634Y-1214845D01*
X5969872D01*
X5951991Y-1192826D01*
X6076991Y-1214845D02*
X6112753D01*
X6148514Y-1170806D01*
Y-1104746D01*
X6130634Y-1082726D01*
X6094872D01*
X6076991Y-1104746D01*
Y-1126766D01*
X6094872Y-1148786D01*
X6148514D01*
X6219872Y-1104746D02*
X6237753Y-1082726D01*
Y-1214845D01*
X6219872D02*
X6255634D01*
X6326991D02*
Y-1104746D01*
X6344872Y-1082726D01*
X6380634D01*
X6398514Y-1104746D01*
Y-1214845D01*
X6326991Y-1148786D02*
X6398514D01*
X5733769Y-1484957D02*
Y-1374857D01*
X5751650Y-1352837D01*
X5787411D01*
X5805292Y-1374857D01*
Y-1484957D01*
X5733769Y-1418897D02*
X5805292D01*
G54D16*
X-263969Y-114375D02*
X-281188Y-97156D01*
Y-79938D01*
X-263969Y-62719D01*
X-229797Y-105765D02*
X-221188Y-114375D01*
X-203969D01*
X-195360Y-105765D01*
Y-71328D01*
X-203969Y-62719D01*
X-221188D01*
X-229797Y-71328D01*
Y-105765D01*
X-195360Y-71328D01*
X-152579Y-114375D02*
X-143969Y-97156D01*
X-148274Y-92852D03*
X-109797Y-105765D02*
X-101188Y-114375D01*
X-83969D01*
X-75360Y-105765D01*
Y-71328D01*
X-83969Y-62719D01*
X-101188D01*
X-109797Y-71328D01*
Y-105765D01*
X-75360Y-71328D01*
X-41188Y-114375D02*
X-23969Y-97156D01*
Y-79938D01*
X-41188Y-62719D01*
G54D10*
X250000Y250000D02*
Y-201701D01*
G54D16*
X245548Y-558297D02*
X254157Y-549687D01*
Y-532469D01*
X245548Y-523860D01*
X211110D01*
X202501Y-532469D01*
Y-549687D01*
X211110Y-558297D01*
X245548D01*
X211110Y-523860D01*
X249852Y-476774D03*
X211110Y-438297D02*
X202501Y-429687D01*
Y-412469D01*
X211110Y-403860D01*
X219720D01*
X228329Y-412469D01*
Y-421078D01*
X254157Y-438297D01*
Y-403860D01*
X202501Y-343860D02*
Y-378297D01*
X219720D01*
Y-352469D01*
X228329Y-343860D01*
X245548D01*
X254157Y-352469D01*
Y-369687D01*
X245548Y-378297D01*
Y-318297D02*
X254157Y-309687D01*
Y-292469D01*
X245548Y-283860D01*
X211110D01*
X202501Y-292469D01*
Y-309687D01*
X211110Y-318297D01*
X245548D01*
X211110Y-283860D01*
X219720Y-249687D02*
X202501D01*
X219720Y-232469D02*
X202501D01*
G54D13*
X250000Y750000D03*
G54D10*
X291768Y706876D02*
X1633519Y-676642D01*
X293983Y705049D02*
X283262Y656714D01*
X293983Y705049D02*
X345509Y690431D01*
X299621Y176187D02*
X478580Y-835322D01*
X299621Y176187D02*
X286653Y111347D01*
X304808Y168406D02*
X348899Y121721D01*
X250000Y750000D02*
X-593662D01*
X250000D02*
Y250000D01*
G54D14*
X-273391Y-1018720D02*
Y-909449D01*
X-315610Y-982296D01*
X-259318D01*
X-115610Y-1018720D02*
Y-909449D01*
X-73391D01*
X-59318Y-927661D01*
Y-945872D01*
X-73391Y-964084D01*
X-115610D01*
X-15610Y-909449D02*
Y-1018720D01*
X40682D01*
X84390D02*
Y-927661D01*
X98463Y-909449D01*
X126609D01*
X140682Y-927661D01*
Y-1018720D01*
X84390Y-964084D02*
X140682D01*
X240682Y-1000508D02*
X226609Y-1018720D01*
X198463D01*
X184390Y-1000508D01*
Y-927661D01*
X198463Y-909449D01*
X226609D01*
X240682Y-927661D01*
X284390Y-909449D02*
X340682D01*
X284390Y-1018720D02*
X340682D01*
X284390Y-964084D02*
X326609D01*
X284390Y-909449D02*
Y-1018720D01*
X384390Y-1000508D02*
X398463Y-1018720D01*
X426609D01*
X440682Y-1000508D01*
Y-982296D01*
X426609Y-964084D01*
X398463D01*
X384390Y-945872D01*
Y-927661D01*
X398463Y-909449D01*
X426609D01*
X440682Y-927661D01*
X584390Y-909449D02*
X640682D01*
X612536D02*
Y-1018720D01*
X684390Y-909449D02*
X712536Y-964084D01*
X740682Y-909449D01*
X712536Y-964084D02*
Y-1018720D01*
X784390D02*
Y-909449D01*
X826609D01*
X840682Y-927661D01*
Y-945872D01*
X826609Y-964084D01*
X784390D01*
X-572742Y-1189143D03*
X-493852Y-1107189D02*
X-479779Y-1088977D01*
Y-1198248D01*
X-493852D02*
X-465706D01*
X-407925Y-1107189D02*
X-393852Y-1088977D01*
X-365706D01*
X-351633Y-1107189D01*
Y-1125401D01*
X-365706Y-1143613D01*
X-379779D01*
X-407925Y-1198248D01*
X-351633D01*
X-251633Y-1088977D02*
X-307925D01*
Y-1125401D01*
X-265706D01*
X-251633Y-1143613D01*
Y-1180037D01*
X-265706Y-1198248D01*
X-293852D01*
X-307925Y-1180037D01*
X-107925Y-1088977D02*
X-51633D01*
X-79779D02*
Y-1198248D01*
X-7925Y-1180037D02*
Y-1107189D01*
X6148Y-1088977D01*
X34294D01*
X48367Y-1107189D01*
Y-1180037D01*
X34294Y-1198248D01*
X6148D01*
X-7925Y-1180037D01*
X92075D02*
Y-1107189D01*
X106148Y-1088977D01*
X134294D01*
X148367Y-1107189D01*
Y-1180037D01*
X134294Y-1198248D01*
X106148D01*
X92075Y-1180037D01*
X192075Y-1088977D02*
Y-1198248D01*
X248367D01*
X306148Y-1088977D02*
X334294D01*
X306148Y-1198248D02*
X334294D01*
X320221Y-1088977D02*
Y-1198248D01*
X392075D02*
Y-1088977D01*
X448367Y-1198248D01*
Y-1088977D01*
X506148D02*
X548367D01*
X506148D02*
X492075Y-1107189D01*
Y-1180037D01*
X506148Y-1198248D01*
X548367D01*
Y-1143613D01*
X534294D01*
X692075Y-1088977D02*
Y-1198248D01*
X748367Y-1088977D02*
Y-1198248D01*
X692075Y-1143613D02*
X748367D01*
X792075Y-1180037D02*
Y-1107189D01*
X806148Y-1088977D01*
X834294D01*
X848367Y-1107189D01*
Y-1180037D01*
X834294Y-1198248D01*
X806148D01*
X792075Y-1180037D01*
X892075Y-1088977D02*
Y-1198248D01*
X948367D01*
X992075Y-1088977D02*
X1048367D01*
X992075Y-1198248D02*
X1048367D01*
X992075Y-1143613D02*
X1034294D01*
X992075Y-1088977D02*
Y-1198248D01*
G54D16*
X-948441Y758366D02*
X-939831Y749757D01*
X-922613D01*
X-914004Y758366D01*
Y792803D01*
X-922613Y801413D01*
X-939831D01*
X-948441Y792803D01*
Y758366D01*
X-914004Y792803D01*
X-866918Y754062D03*
X-828441Y801413D02*
X-794004D01*
X-819831Y749757D01*
X-734004Y801413D02*
X-768441D01*
Y784194D01*
X-742613D01*
X-734004Y775585D01*
Y758366D01*
X-742613Y749757D01*
X-759831D01*
X-768441Y758366D01*
X-708441D02*
X-699831Y749757D01*
X-682613D01*
X-674004Y758366D01*
Y792803D01*
X-682613Y801413D01*
X-699831D01*
X-708441Y792803D01*
Y758366D01*
X-674004Y792803D01*
X-639831Y784194D02*
Y801413D01*
X-622613Y784194D02*
Y801413D01*
X-927172Y252184D02*
X-918563Y243575D01*
X-901345D01*
X-892735Y252184D01*
Y286621D01*
X-901345Y295231D01*
X-918563D01*
X-927172Y286621D01*
Y252184D01*
X-892735Y286621D01*
X-845649Y247880D03*
X-807172Y286621D02*
X-798563Y295231D01*
X-781345D01*
X-772735Y286621D01*
Y278012D01*
X-781345Y269403D01*
X-789954D01*
X-807172Y243575D01*
X-772735D01*
X-712735Y295231D02*
X-747172D01*
Y278012D01*
X-721345D01*
X-712735Y269403D01*
Y252184D01*
X-721345Y243575D01*
X-738563D01*
X-747172Y252184D01*
X-687172D02*
X-678563Y243575D01*
X-661345D01*
X-652735Y252184D01*
Y286621D01*
X-661345Y295231D01*
X-678563D01*
X-687172Y286621D01*
Y252184D01*
X-652735Y286621D01*
X-618563Y278012D02*
Y295231D01*
X-601345Y278012D02*
Y295231D01*
G54D10*
X241417Y1522318D02*
X256317Y1537219D01*
Y1567020D01*
X241417Y1581921D01*
X181814D01*
X166913Y1567020D01*
Y1537219D01*
X181814Y1522318D01*
X241417D01*
X181814Y1581921D01*
X248867Y1659570D03*
X166913Y1781921D02*
Y1722318D01*
X196715D01*
Y1767020D01*
X211615Y1781921D01*
X241417D01*
X256317Y1767020D01*
Y1737219D01*
X241417Y1722318D01*
Y1822318D02*
X256317Y1837219D01*
Y1867020D01*
X241417Y1881921D01*
X181814D01*
X166913Y1867020D01*
Y1837219D01*
X181814Y1822318D01*
X241417D01*
X181814Y1881921D01*
X241417Y1922318D02*
X256317Y1937219D01*
Y1967020D01*
X241417Y1981921D01*
X181814D01*
X166913Y1967020D01*
Y1937219D01*
X181814Y1922318D01*
X241417D01*
X181814Y1981921D01*
X196715Y2037219D02*
X166913D01*
X196715Y2067020D02*
X166913D01*
X256317Y2222318D02*
X166913D01*
Y2267020D01*
X181814Y2281921D01*
X196715D01*
X211615Y2267020D01*
Y2222318D01*
Y2237219D02*
X256317Y2281921D01*
Y2322318D02*
X181814D01*
X166913Y2337219D01*
Y2367020D01*
X181814Y2381921D01*
X256317D01*
X211615Y2322318D02*
Y2381921D01*
X166913Y2437219D02*
Y2467020D01*
X256317Y2437219D02*
Y2467020D01*
X166913Y2452120D02*
X256317D01*
X166913Y2522318D02*
X256317D01*
Y2581921D01*
X1479672Y183747D02*
X1494573Y168847D01*
X1524374D01*
X1539275Y183747D01*
Y243350D01*
X1524374Y258251D01*
X1494573D01*
X1479672Y243350D01*
Y183747D01*
X1539275Y243350D01*
X1616924Y176297D03*
X1739275Y258251D02*
X1679672D01*
Y228449D01*
X1724374D01*
X1739275Y213549D01*
Y183747D01*
X1724374Y168847D01*
X1694573D01*
X1679672Y183747D01*
X1779672D02*
X1794573Y168847D01*
X1824374D01*
X1839275Y183747D01*
Y243350D01*
X1824374Y258251D01*
X1794573D01*
X1779672Y243350D01*
Y183747D01*
X1839275Y243350D01*
X1879672Y183747D02*
X1894573Y168847D01*
X1924374D01*
X1939275Y183747D01*
Y243350D01*
X1924374Y258251D01*
X1894573D01*
X1879672Y243350D01*
Y183747D01*
X1939275Y243350D01*
X1994573Y228449D02*
Y258251D01*
X2024374Y228449D02*
Y258251D01*
X2179672Y168847D02*
Y258251D01*
X2224374D01*
X2239275Y243350D01*
Y228449D01*
X2224374Y213549D01*
X2179672D01*
X2194573D02*
X2239275Y168847D01*
X2279672D02*
Y243350D01*
X2294573Y258251D01*
X2324374D01*
X2339275Y243350D01*
Y168847D01*
X2279672Y213549D02*
X2339275D01*
X2394573Y258251D02*
X2424374D01*
X2394573Y168847D02*
X2424374D01*
X2409474Y258251D02*
Y168847D01*
X2479672Y258251D02*
Y168847D01*
X2539275D01*
X0Y-201701D02*
Y0D01*
X-137082D01*
G54D14*
X-1125678Y-1707280D02*
X-1111605Y-1725492D01*
X-1083460D01*
X-1069387Y-1707280D01*
Y-1689069D01*
X-1083460Y-1670857D01*
X-1111605D01*
X-1125678Y-1652645D01*
Y-1634433D01*
X-1111605Y-1616221D01*
X-1083460D01*
X-1069387Y-1634433D01*
X-1025678Y-1725492D02*
Y-1616221D01*
X-983460D01*
X-969387Y-1634433D01*
Y-1652645D01*
X-983460Y-1670857D01*
X-1025678D01*
X-925678Y-1725492D02*
Y-1634433D01*
X-911605Y-1616221D01*
X-883460D01*
X-869387Y-1634433D01*
Y-1725492D01*
X-925678Y-1670857D02*
X-869387D01*
X-769387Y-1707280D02*
X-783460Y-1725492D01*
X-811605D01*
X-825678Y-1707280D01*
Y-1634433D01*
X-811605Y-1616221D01*
X-783460D01*
X-769387Y-1634433D01*
X-711605Y-1616221D02*
X-683460D01*
X-711605Y-1725492D02*
X-683460D01*
X-697532Y-1616221D02*
Y-1725492D01*
X-625678D02*
Y-1616221D01*
X-569387Y-1725492D01*
Y-1616221D01*
X-511605D02*
X-469387D01*
X-511605D02*
X-525678Y-1634433D01*
Y-1707280D01*
X-511605Y-1725492D01*
X-469387D01*
Y-1670857D01*
X-483460D01*
X-325678Y-1616221D02*
X-283460D01*
X-269387Y-1634433D01*
Y-1652645D01*
X-283460Y-1670857D01*
X-269387Y-1689069D01*
Y-1707280D01*
X-283460Y-1725492D01*
X-325678D01*
X-311605D02*
Y-1616221D01*
Y-1670857D02*
X-283460D01*
X-225678Y-1616221D02*
X-169387D01*
X-225678Y-1725492D02*
X-169387D01*
X-225678Y-1670857D02*
X-183460D01*
X-225678Y-1616221D02*
Y-1725492D01*
X-125678Y-1616221D02*
X-69387D01*
X-97532D02*
Y-1725492D01*
X-25678Y-1616221D02*
Y-1725492D01*
X2468Y-1670857D01*
X30613Y-1725492D01*
Y-1616221D01*
X74322D02*
X130613D01*
X74322Y-1725492D02*
X130613D01*
X74322Y-1670857D02*
X116540D01*
X74322Y-1616221D02*
Y-1725492D01*
X174322Y-1616221D02*
X230613D01*
X174322Y-1725492D02*
X230613D01*
X174322Y-1670857D02*
X216540D01*
X174322Y-1616221D02*
Y-1725492D01*
X274322D02*
Y-1616221D01*
X330613Y-1725492D01*
Y-1616221D01*
X474322D02*
X516540D01*
X530613Y-1634433D01*
Y-1652645D01*
X516540Y-1670857D01*
X530613Y-1689069D01*
Y-1707280D01*
X516540Y-1725492D01*
X474322D01*
X488395D02*
Y-1616221D01*
Y-1670857D02*
X516540D01*
X574322Y-1707280D02*
Y-1634433D01*
X588395Y-1616221D01*
X616540D01*
X630613Y-1634433D01*
Y-1707280D01*
X616540Y-1725492D01*
X588395D01*
X574322Y-1707280D01*
X674322Y-1725492D02*
Y-1634433D01*
X688395Y-1616221D01*
X716540D01*
X730613Y-1634433D01*
Y-1725492D01*
X674322Y-1670857D02*
X730613D01*
X774322Y-1725492D02*
Y-1616221D01*
X816540D01*
X830613Y-1634433D01*
Y-1652645D01*
X816540Y-1670857D01*
X774322D01*
X788395D02*
X830613Y-1725492D01*
X874322Y-1616221D02*
X916540D01*
X930613Y-1634433D01*
Y-1707280D01*
X916540Y-1725492D01*
X874322D01*
X888395D02*
Y-1616221D01*
X1002468Y-1707280D03*
Y-1634433D03*
X1074322Y-1652645D02*
X1130613Y-1725492D01*
X1074322D02*
X1130613Y-1652645D01*
X1302468D02*
Y-1707280D01*
X1316540Y-1725492D01*
X1302468Y-1616221D03*
X1374322Y-1725492D02*
X1416540D01*
X1430613Y-1707280D01*
X1416540Y-1689069D01*
X1388395D01*
X1374322Y-1670857D01*
X1388395Y-1652645D01*
X1430613D01*
X1574322Y-1707280D02*
X1588395Y-1725492D01*
X1616540D01*
X1630613Y-1707280D01*
Y-1634433D01*
X1616540Y-1616221D01*
X1588395D01*
X1574322Y-1634433D01*
Y-1707280D01*
X1630613Y-1634433D01*
X1709504Y-1716386D03*
X1830613Y-1616221D02*
X1774322D01*
Y-1652645D01*
X1816540D01*
X1830613Y-1670857D01*
Y-1707280D01*
X1816540Y-1725492D01*
X1788395D01*
X1774322Y-1707280D01*
X1874322D02*
X1888395Y-1725492D01*
X1916540D01*
X1930613Y-1707280D01*
Y-1634433D01*
X1916540Y-1616221D01*
X1888395D01*
X1874322Y-1634433D01*
Y-1707280D01*
X1930613Y-1634433D01*
X1974322Y-1707280D02*
X1988395Y-1725492D01*
X2016540D01*
X2030613Y-1707280D01*
Y-1634433D01*
X2016540Y-1616221D01*
X1988395D01*
X1974322Y-1634433D01*
Y-1707280D01*
X2030613Y-1634433D01*
X2088395Y-1652645D02*
Y-1616221D01*
X2116540Y-1652645D02*
Y-1616221D01*
X2288395Y-1652645D02*
X2316540D01*
X2330613Y-1670857D01*
Y-1725492D01*
X2288395D01*
X2274322Y-1707280D01*
X2288395Y-1689069D01*
X2330613D01*
X2374322Y-1652645D02*
Y-1725492D01*
Y-1689069D02*
X2402468Y-1652645D01*
X2416540D01*
X2430613Y-1670857D01*
Y-1725492D01*
X2530613Y-1616221D02*
Y-1725492D01*
X2488395D01*
X2474322Y-1707280D01*
Y-1670857D01*
X2488395Y-1652645D01*
X2502468D01*
X2530613Y-1670857D01*
X2674322Y-1652645D02*
Y-1689069D01*
X2688395Y-1707280D01*
X2730613D01*
Y-1652645D02*
Y-1725492D01*
X2716540Y-1743704D01*
X2688395D01*
X2902468Y-1652645D02*
Y-1707280D01*
X2916540Y-1725492D01*
X2902468Y-1616221D03*
X2974322Y-1725492D02*
X3016540D01*
X3030613Y-1707280D01*
X3016540Y-1689069D01*
X2988395D01*
X2974322Y-1670857D01*
X2988395Y-1652645D01*
X3030613D01*
X3174322Y-1707280D02*
X3188395Y-1725492D01*
X3216540D01*
X3230613Y-1707280D01*
Y-1634433D01*
X3216540Y-1616221D01*
X3188395D01*
X3174322Y-1634433D01*
Y-1707280D01*
X3230613Y-1634433D01*
X3309504Y-1716386D03*
X3374322Y-1634433D02*
X3388395Y-1616221D01*
X3416540D01*
X3430613Y-1634433D01*
Y-1652645D01*
X3416540Y-1670857D01*
X3402468D01*
X3374322Y-1725492D01*
X3430613D01*
X3530613Y-1616221D02*
X3474322D01*
Y-1652645D01*
X3516540D01*
X3530613Y-1670857D01*
Y-1707280D01*
X3516540Y-1725492D01*
X3488395D01*
X3474322Y-1707280D01*
X3574322D02*
X3588395Y-1725492D01*
X3616540D01*
X3630613Y-1707280D01*
Y-1634433D01*
X3616540Y-1616221D01*
X3588395D01*
X3574322Y-1634433D01*
Y-1707280D01*
X3630613Y-1634433D01*
X3688395Y-1652645D02*
Y-1616221D01*
X3716540Y-1652645D02*
Y-1616221D01*
G54D17*
X4099417Y4512000D02*
Y4686834D01*
X4012000Y4570278D01*
X4128556D01*
X4470278Y4512000D02*
X4499417Y4570278D01*
X4484848Y4584848D03*
X4899417Y4512000D02*
Y4686834D01*
X4812000Y4570278D01*
X4928556D01*
X5084848Y4526570D03*
X5328556Y4686834D02*
X5212000D01*
Y4628556D01*
X5299417D01*
X5328556Y4599417D01*
Y4541139D01*
X5299417Y4512000D01*
X5241139D01*
X5212000Y4541139D01*
M02*
