*
%FSLAX26Y26*%
%MOIN*%
%ADD10C,0.010000*%
%ADD11C,0.020000*%
%ADD12C,0.008000*%
%ADD13C,0.009000*%
%ADD14R,0.032500X0.048500*%
%ADD15R,0.108500X0.058500*%
%ADD16R,0.048500X0.048500*%
%ADD17R,0.168500X0.038500*%
%ADD18C,0.133500*%
%ADD19C,0.032500*%
%IPPOS*%
%LNcss.gbr*%
%LPD*%
G75*
G36*
X1110000Y617500D02*
Y677500D01*
G02X1112500Y680000I2500J0D01*
G01X1177500D01*
G02X1180000Y677500I0J-2500D01*
G01Y617500D01*
G02X1177500Y615000I-2500J0D01*
G01X1112500D01*
G02X1110000Y617500I0J2500D01*
G37*
G36*
Y692500D02*
G01Y772500D01*
G02X1112500Y775000I2500J0D01*
G01X1187500D01*
G02X1190000Y772500I0J-2500D01*
G01Y692500D01*
G02X1187500Y690000I-2500J0D01*
G01X1112500D01*
G02X1110000Y692500I0J2500D01*
G37*
G54D10*
X973500Y931250D02*
G01X1098500D01*
Y868750D01*
X973500D01*
Y931250D01*
X1037500Y1025000D02*
Y1150000D01*
X1100000D01*
Y1025000D01*
X1037500D01*
X1106250D02*
Y1150000D01*
X1168750D01*
Y1025000D01*
X1106250D01*
X1312500Y1106250D02*
X1437500D01*
Y1043750D01*
X1312500D01*
Y1106250D01*
X961250Y994500D02*
Y869500D01*
X898750D01*
Y994500D01*
X961250D01*
X1375000Y968750D02*
X1250000D01*
Y1031250D01*
X1375000D01*
Y968750D01*
X1306250D02*
Y843750D01*
X1243750D01*
Y968750D01*
X1306250D01*
G54D11*
X1323750Y762500D03*
G54D10*
X1298750Y577500D02*
X1538750D01*
Y847500D01*
X1328750D01*
X1298750Y817500D01*
Y577500D01*
X575000Y675000D02*
X725000D01*
G03X725000Y787490I-6210J56245D01*
Y787500D02*
G01X675000D01*
Y1012500D01*
X725000D01*
G03X725000Y1125000I-6600J56250D01*
G01X575000D01*
X882500Y868750D02*
X757500D01*
Y931250D01*
X882500D01*
Y868750D01*
G54D12*
X1112500Y970000D02*
X1232500D01*
Y930000D01*
X1112500D01*
Y970000D01*
X1032950Y842500D02*
X1031590Y846250D01*
X1028860Y850000D01*
X1026130Y851870D01*
X1020680D01*
X1017950Y850000D01*
X1015220Y846250D01*
X1013860Y842500D01*
X1012500Y836870D01*
Y827500D01*
X1013860Y821870D01*
X1015220Y818120D01*
X1017950Y814370D01*
X1020680Y812500D01*
X1026130D01*
X1028860Y814370D01*
X1031590Y818120D01*
X1032950Y821870D01*
X1045220Y844370D02*
X1047950Y846250D01*
X1052040Y851870D01*
Y812500D01*
X1051240Y1189200D02*
X1047490Y1187840D01*
X1043740Y1185110D01*
X1041870Y1182380D01*
Y1176930D01*
X1043740Y1174200D01*
X1047490Y1171470D01*
X1051240Y1170110D01*
X1056870Y1168750D01*
X1066240D01*
X1071870Y1170110D01*
X1075620Y1171470D01*
X1079370Y1174200D01*
X1081240Y1176930D01*
Y1182380D01*
X1079370Y1185110D01*
X1075620Y1187840D01*
X1071870Y1189200D01*
X1051240Y1202840D02*
X1049370D01*
X1045620Y1204200D01*
X1043740Y1205560D01*
X1041870Y1208290D01*
Y1213750D01*
X1043740Y1216470D01*
X1045620Y1217840D01*
X1049370Y1219200D01*
X1053120D01*
X1056870Y1217840D01*
X1062490Y1215110D01*
X1081240Y1201470D01*
Y1220560D01*
X1126240Y1189200D02*
X1122490Y1187840D01*
X1118740Y1185110D01*
X1116870Y1182380D01*
Y1176930D01*
X1118740Y1174200D01*
X1122490Y1171470D01*
X1126240Y1170110D01*
X1131870Y1168750D01*
X1141240D01*
X1146870Y1170110D01*
X1150620Y1171470D01*
X1154370Y1174200D01*
X1156240Y1176930D01*
Y1182380D01*
X1154370Y1185110D01*
X1150620Y1187840D01*
X1146870Y1189200D01*
X1116870Y1204200D02*
Y1219200D01*
X1131870Y1211020D01*
Y1215110D01*
X1133740Y1217840D01*
X1135620Y1219200D01*
X1141240Y1220560D01*
X1144990D01*
X1150620Y1219200D01*
X1154370Y1216470D01*
X1156240Y1212380D01*
Y1208290D01*
X1154370Y1204200D01*
X1152490Y1202840D01*
X1148740Y1201470D01*
X1348450Y1149000D02*
X1347090Y1152750D01*
X1344360Y1156500D01*
X1341630Y1158370D01*
X1336180D01*
X1333450Y1156500D01*
X1330720Y1152750D01*
X1329360Y1149000D01*
X1328000Y1143370D01*
Y1134000D01*
X1329360Y1128370D01*
X1330720Y1124620D01*
X1333450Y1120870D01*
X1336180Y1119000D01*
X1341630D01*
X1344360Y1120870D01*
X1347090Y1124620D01*
X1348450Y1128370D01*
X1378450Y1158370D02*
X1364810D01*
X1363450Y1141500D01*
X1364810Y1143370D01*
X1368900Y1145250D01*
X1373000D01*
X1377090Y1143370D01*
X1379810Y1139620D01*
X1381180Y1134000D01*
X1379810Y1130250D01*
X1378450Y1124620D01*
X1375720Y1120870D01*
X1371630Y1119000D01*
X1367540D01*
X1363450Y1120870D01*
X1362090Y1122750D01*
X1360720Y1126500D01*
X911620Y813000D02*
X951000D01*
X911620D02*
Y825270D01*
X913500Y829360D01*
X915370Y830720D01*
X919120Y832090D01*
X922870D01*
X926620Y830720D01*
X928500Y829360D01*
X930370Y825270D01*
Y813000D01*
Y822540D02*
X951000Y832090D01*
X919120Y844360D02*
X917250Y847090D01*
X911620Y851180D01*
X951000D01*
X1393750Y1020620D02*
Y981250D01*
Y1020620D02*
X1406020D01*
X1410110Y1018750D01*
X1411470Y1016870D01*
X1412840Y1013120D01*
Y1009370D01*
X1411470Y1005620D01*
X1410110Y1003750D01*
X1406020Y1001870D01*
X1393750D01*
X1403290D02*
X1412840Y981250D01*
X1426470Y1011250D02*
Y1013120D01*
X1427840Y1016870D01*
X1429200Y1018750D01*
X1431930Y1020620D01*
X1437380D01*
X1440110Y1018750D01*
X1441470Y1016870D01*
X1442840Y1013120D01*
Y1009370D01*
X1441470Y1005620D01*
X1438750Y1000000D01*
X1425110Y981250D01*
X1444200D01*
X1320620Y865000D02*
X1360000D01*
X1320620D02*
Y877270D01*
X1322500Y881360D01*
X1324370Y882720D01*
X1328120Y884090D01*
X1331870D01*
X1335620Y882720D01*
X1337500Y881360D01*
X1339370Y877270D01*
Y865000D01*
Y874540D02*
X1360000Y884090D01*
X1320620Y899090D02*
Y914090D01*
X1335620Y905900D01*
Y910000D01*
X1337500Y912720D01*
X1339370Y914090D01*
X1345000Y915450D01*
X1348750D01*
X1354370Y914090D01*
X1358120Y911360D01*
X1360000Y907270D01*
Y903180D01*
X1358120Y899090D01*
X1356250Y897720D01*
X1352500Y896360D01*
X1434090Y895750D02*
X1431360Y899500D01*
X1427270Y901370D01*
X1421810D01*
X1417720Y899500D01*
X1415000Y895750D01*
Y892000D01*
X1416360Y888250D01*
X1417720Y886370D01*
X1420450Y884500D01*
X1428630Y880750D01*
X1431360Y878870D01*
X1432720Y877000D01*
X1434090Y873250D01*
Y867620D01*
X1431360Y863870D01*
X1427270Y862000D01*
X1421810D01*
X1417720Y863870D01*
X1415000Y867620D01*
X1446360Y901370D02*
X1453180Y862000D01*
X1460000Y901370D02*
X1453180Y862000D01*
X1460000Y901370D02*
X1466810Y862000D01*
X1473630Y901370D02*
X1466810Y862000D01*
X1485900Y893870D02*
X1488630Y895750D01*
X1492720Y901370D01*
Y862000D01*
X1055000Y983370D02*
Y955250D01*
X1056360Y949620D01*
X1059090Y945870D01*
X1063180Y944000D01*
X1065900D01*
X1070000Y945870D01*
X1072720Y949620D01*
X1074090Y955250D01*
Y983370D01*
X1086360Y975870D02*
X1089090Y977750D01*
X1093180Y983370D01*
Y944000D01*
X649530Y1253670D02*
Y1223670D01*
X648170Y1218050D01*
X646800Y1216170D01*
X644080Y1214300D01*
X641350D01*
X638620Y1216170D01*
X637260Y1218050D01*
X635890Y1223670D01*
Y1227420D01*
X661800Y1246170D02*
X664530Y1248050D01*
X668620Y1253670D01*
Y1214300D01*
X795000Y979370D02*
Y939990D01*
Y979370D02*
X807270D01*
X811360Y977490D01*
X812720Y975620D01*
X814090Y971870D01*
Y968120D01*
X812720Y964370D01*
X811360Y962490D01*
X807270Y960620D01*
X795000D01*
X804540D02*
X814090Y939990D01*
X840000Y979370D02*
X826360Y953120D01*
X846810D01*
X840000Y979370D02*
Y939990D01*
X1559090Y1163750D02*
X1556360Y1167500D01*
X1552270Y1169370D01*
X1546810D01*
X1542720Y1167500D01*
X1540000Y1163750D01*
Y1160000D01*
X1541360Y1156250D01*
X1542720Y1154370D01*
X1545450Y1152500D01*
X1553630Y1148750D01*
X1556360Y1146870D01*
X1557720Y1145000D01*
X1559090Y1141250D01*
Y1135620D01*
X1556360Y1131870D01*
X1552270Y1130000D01*
X1546810D01*
X1542720Y1131870D01*
X1540000Y1135620D01*
X1571360Y1169370D02*
Y1130000D01*
X1590450Y1169370D02*
Y1130000D01*
X1571360Y1150620D02*
X1590450D01*
X1602720Y1169370D02*
Y1130000D01*
Y1169370D02*
X1612270D01*
X1616360Y1167500D01*
X1619090Y1163750D01*
X1620450Y1160000D01*
X1621810Y1154370D01*
Y1145000D01*
X1620450Y1139370D01*
X1619090Y1135620D01*
X1616360Y1131870D01*
X1612270Y1130000D01*
X1602720D01*
X1634090Y1169370D02*
Y1130000D01*
Y1169370D02*
X1653180Y1130000D01*
Y1169370D02*
Y1130000D01*
X950000Y1424370D02*
X960900Y1385000D01*
X971810Y1424370D02*
X960900Y1385000D01*
X1004540Y1415000D02*
X1003180Y1418750D01*
X1000450Y1422500D01*
X997720Y1424370D01*
X992270D01*
X989540Y1422500D01*
X986810Y1418750D01*
X985450Y1415000D01*
X984090Y1409370D01*
Y1400000D01*
X985450Y1394370D01*
X986810Y1390620D01*
X989540Y1386870D01*
X992270Y1385000D01*
X997720D01*
X1000450Y1386870D01*
X1003180Y1390620D01*
X1004540Y1394370D01*
X1037270Y1415000D02*
X1035900Y1418750D01*
X1033180Y1422500D01*
X1030450Y1424370D01*
X1025000D01*
X1022270Y1422500D01*
X1019540Y1418750D01*
X1018180Y1415000D01*
X1016810Y1409370D01*
Y1400000D01*
X1018180Y1394370D01*
X1019540Y1390620D01*
X1022270Y1386870D01*
X1025000Y1385000D01*
X1030450D01*
X1033180Y1386870D01*
X1035900Y1390620D01*
X1037270Y1394370D01*
X1515000Y1429370D02*
Y1390000D01*
Y1429370D02*
X1524540D01*
X1528630Y1427500D01*
X1531360Y1423750D01*
X1532720Y1420000D01*
X1534090Y1414370D01*
Y1405000D01*
X1532720Y1399370D01*
X1531360Y1395620D01*
X1528630Y1391870D01*
X1524540Y1390000D01*
X1515000D01*
X1546360Y1405000D02*
X1562720D01*
Y1408750D01*
X1561360Y1412500D01*
X1560000Y1414370D01*
X1557270Y1416250D01*
X1553180D01*
X1550450Y1414370D01*
X1547720Y1410620D01*
X1546360Y1405000D01*
Y1401250D01*
X1547720Y1395620D01*
X1550450Y1391870D01*
X1553180Y1390000D01*
X1557270D01*
X1560000Y1391870D01*
X1562720Y1395620D01*
X1579090Y1429370D02*
Y1397500D01*
X1580450Y1391870D01*
X1583180Y1390000D01*
X1585900D01*
X1575000Y1416250D02*
X1584540D01*
X1598180Y1405000D02*
X1614540D01*
Y1408750D01*
X1613180Y1412500D01*
X1611810Y1414370D01*
X1609090Y1416250D01*
X1605000D01*
X1602270Y1414370D01*
X1599540Y1410620D01*
X1598180Y1405000D01*
Y1401250D01*
X1599540Y1395620D01*
X1602270Y1391870D01*
X1605000Y1390000D01*
X1609090D01*
X1611810Y1391870D01*
X1614540Y1395620D01*
X1643180Y1410620D02*
X1640450Y1414370D01*
X1637720Y1416250D01*
X1633630D01*
X1630900Y1414370D01*
X1628180Y1410620D01*
X1626810Y1405000D01*
Y1401250D01*
X1628180Y1395620D01*
X1630900Y1391870D01*
X1633630Y1390000D01*
X1637720D01*
X1640450Y1391870D01*
X1643180Y1395620D01*
X1659540Y1429370D02*
Y1397500D01*
X1660900Y1391870D01*
X1663630Y1390000D01*
X1666360D01*
X1655450Y1416250D02*
X1665000D01*
X1685450D02*
X1682720Y1414370D01*
X1680000Y1410620D01*
X1678630Y1405000D01*
Y1401250D01*
X1680000Y1395620D01*
X1682720Y1391870D01*
X1685450Y1390000D01*
X1689540D01*
X1692270Y1391870D01*
X1695000Y1395620D01*
X1696360Y1401250D01*
Y1405000D01*
X1695000Y1410620D01*
X1692270Y1414370D01*
X1689540Y1416250D01*
X1685450D01*
X1708630D02*
Y1390000D01*
Y1405000D02*
X1710000Y1410620D01*
X1712720Y1414370D01*
X1715450Y1416250D01*
X1719540D01*
X1556000Y1376370D02*
X1566900Y1337000D01*
X1577810Y1376370D02*
X1566900Y1337000D01*
X1596900Y1363250D02*
X1594180Y1361370D01*
X1591450Y1357620D01*
X1590090Y1352000D01*
Y1348250D01*
X1591450Y1342620D01*
X1594180Y1338870D01*
X1596900Y1337000D01*
X1601000D01*
X1603720Y1338870D01*
X1606450Y1342620D01*
X1607810Y1348250D01*
Y1352000D01*
X1606450Y1357620D01*
X1603720Y1361370D01*
X1601000Y1363250D01*
X1596900D01*
X1620090D02*
Y1344500D01*
X1621450Y1338870D01*
X1624180Y1337000D01*
X1628270D01*
X1631000Y1338870D01*
X1635090Y1344500D01*
Y1363250D02*
Y1337000D01*
X1651450Y1376370D02*
Y1344500D01*
X1652810Y1338870D01*
X1655540Y1337000D01*
X1658270D01*
X1647360Y1363250D02*
X1656900D01*
X630450Y1415000D02*
X629090Y1418750D01*
X626360Y1422500D01*
X623630Y1424370D01*
X618180D01*
X615450Y1422500D01*
X612720Y1418750D01*
X611360Y1415000D01*
X610000Y1409370D01*
Y1400000D01*
X611360Y1394370D01*
X612720Y1390620D01*
X615450Y1386870D01*
X618180Y1385000D01*
X623630D01*
X626360Y1386870D01*
X629090Y1390620D01*
X630450Y1394370D01*
Y1400000D01*
X623630D02*
X630450D01*
X642720Y1424370D02*
Y1385000D01*
Y1424370D02*
X661810Y1385000D01*
Y1424370D02*
Y1385000D01*
X674090Y1424370D02*
Y1385000D01*
Y1424370D02*
X683630D01*
X687720Y1422500D01*
X690450Y1418750D01*
X691810Y1415000D01*
X693180Y1409370D01*
Y1400000D01*
X691810Y1394370D01*
X690450Y1390620D01*
X687720Y1386870D01*
X683630Y1385000D01*
X674090D01*
X630000Y1200370D02*
Y1161000D01*
Y1200370D02*
X642270D01*
X646360Y1198500D01*
X647720Y1196620D01*
X649090Y1192870D01*
Y1189120D01*
X647720Y1185370D01*
X646360Y1183500D01*
X642270Y1181620D01*
X630000D01*
X639540D02*
X649090Y1161000D01*
X661360Y1200370D02*
Y1161000D01*
Y1200370D02*
X679090D01*
X661360Y1181620D02*
X672270D01*
X691360Y1200370D02*
X692720Y1198500D01*
X694090Y1200370D01*
X692720Y1202250D01*
X691360Y1200370D01*
X692720Y1187250D02*
Y1161000D01*
X706360Y1187250D02*
Y1161000D01*
Y1179750D02*
X710450Y1185370D01*
X713180Y1187250D01*
X717270D01*
X720000Y1185370D01*
X721360Y1179750D01*
Y1161000D01*
X825000Y757500D02*
Y705000D01*
Y757500D02*
X837720D01*
X843180Y755000D01*
X846810Y750000D01*
X848630Y745000D01*
X850450Y737500D01*
Y725000D01*
X848630Y717500D01*
X846810Y712500D01*
X843180Y707500D01*
X837720Y705000D01*
X825000D01*
X894090Y745000D02*
X892270Y750000D01*
X888630Y755000D01*
X885000Y757500D01*
X877720D01*
X874090Y755000D01*
X870450Y750000D01*
X868630Y745000D01*
X866810Y737500D01*
Y725000D01*
X868630Y717500D01*
X870450Y712500D01*
X874090Y707500D01*
X877720Y705000D01*
X885000D01*
X888630Y707500D01*
X892270Y712500D01*
X894090Y717500D01*
X914090Y757500D02*
X934090D01*
X923180Y737500D01*
X928630D01*
X932270Y735000D01*
X934090Y732500D01*
X935900Y725000D01*
Y720000D01*
X934090Y712500D01*
X930450Y707500D01*
X925000Y705000D01*
X919540D01*
X914090Y707500D01*
X912270Y710000D01*
X910450Y715000D01*
X975900Y740000D02*
X974090Y732500D01*
X970450Y727500D01*
X965000Y725000D01*
X963180D01*
X957720Y727500D01*
X954090Y732500D01*
X952270Y740000D01*
Y742500D01*
X954090Y750000D01*
X957720Y755000D01*
X963180Y757500D01*
X965000D01*
X970450Y755000D01*
X974090Y750000D01*
X975900Y740000D01*
Y727500D01*
X974090Y715000D01*
X970450Y707500D01*
X965000Y705000D01*
X961360D01*
X955900Y707500D01*
X954090Y712500D01*
X992270Y747500D02*
X995900Y750000D01*
X1001360Y757500D01*
Y705000D01*
X1032270Y757500D02*
X1017720Y705000D01*
X1032270Y757500D02*
X1046810Y705000D01*
X1023180Y722500D02*
X1041360D01*
X1063180Y727500D02*
X1095900D01*
X845000Y669370D02*
Y630000D01*
X861360D01*
X883180Y669370D02*
Y630000D01*
X873630Y669370D02*
X892720D01*
X925450Y660000D02*
X924090Y663750D01*
X921360Y667500D01*
X918630Y669370D01*
X913180D01*
X910450Y667500D01*
X907720Y663750D01*
X906360Y660000D01*
X905000Y654370D01*
Y645000D01*
X906360Y639370D01*
X907720Y635620D01*
X910450Y631870D01*
X913180Y630000D01*
X918630D01*
X921360Y631870D01*
X924090Y635620D01*
X925450Y639370D01*
X955450Y669370D02*
X941810D01*
X940450Y652500D01*
X941810Y654370D01*
X945900Y656250D01*
X950000D01*
X954090Y654370D01*
X956810Y650620D01*
X958180Y645000D01*
X956810Y641250D01*
X955450Y635620D01*
X952720Y631870D01*
X948630Y630000D01*
X944540D01*
X940450Y631870D01*
X939090Y633750D01*
X937720Y637500D01*
X988180Y669370D02*
X974540D01*
X973180Y652500D01*
X974540Y654370D01*
X978630Y656250D01*
X982720D01*
X986810Y654370D01*
X989540Y650620D01*
X990900Y645000D01*
X989540Y641250D01*
X988180Y635620D01*
X985450Y631870D01*
X981360Y630000D01*
X977270D01*
X973180Y631870D01*
X971810Y633750D01*
X970450Y637500D01*
X1011360Y669370D02*
X1007270Y667500D01*
X1004540Y661870D01*
X1003180Y652500D01*
Y646870D01*
X1004540Y637500D01*
X1007270Y631870D01*
X1011360Y630000D01*
X1014090D01*
X1018180Y631870D01*
X1020900Y637500D01*
X1022270Y646870D01*
Y652500D01*
X1020900Y661870D01*
X1018180Y667500D01*
X1014090Y669370D01*
X1011360D01*
X1052270D02*
X1038630D01*
X1037270Y652500D01*
X1038630Y654370D01*
X1042720Y656250D01*
X1046810D01*
X1050900Y654370D01*
X1053630Y650620D01*
X1055000Y645000D01*
X1053630Y641250D01*
X1052270Y635620D01*
X1049540Y631870D01*
X1045450Y630000D01*
X1041360D01*
X1037270Y631870D01*
X1035900Y633750D01*
X1034540Y637500D01*
X1067270Y646870D02*
X1091810D01*
X682000Y595370D02*
Y556000D01*
Y595370D02*
X694270D01*
X698360Y593500D01*
X699720Y591620D01*
X701090Y587870D01*
Y584120D01*
X699720Y580370D01*
X698360Y578500D01*
X694270Y576620D01*
X682000D01*
X691540D02*
X701090Y556000D01*
X713360Y595370D02*
Y556000D01*
Y595370D02*
X731090D01*
X713360Y576620D02*
X724270D01*
X767900Y595370D02*
Y556000D01*
Y595370D02*
X780180D01*
X784270Y593500D01*
X785630Y591620D01*
X787000Y587870D01*
Y582250D01*
X785630Y578500D01*
X784270Y576620D01*
X780180Y574750D01*
X767900D01*
X807450Y595370D02*
X804720Y593500D01*
X802000Y589750D01*
X800630Y586000D01*
X799270Y580370D01*
Y571000D01*
X800630Y565370D01*
X802000Y561620D01*
X804720Y557870D01*
X807450Y556000D01*
X812900D01*
X815630Y557870D01*
X818360Y561620D01*
X819720Y565370D01*
X821090Y571000D01*
Y580370D01*
X819720Y586000D01*
X818360Y589750D01*
X815630Y593500D01*
X812900Y595370D01*
X807450D01*
X833360D02*
X840180Y556000D01*
X847000Y595370D02*
X840180Y556000D01*
X847000Y595370D02*
X853810Y556000D01*
X860630Y595370D02*
X853810Y556000D01*
X872900Y595370D02*
Y556000D01*
Y595370D02*
X890630D01*
X872900Y576620D02*
X883810D01*
X872900Y556000D02*
X890630D01*
X902900Y595370D02*
Y556000D01*
Y595370D02*
X915180D01*
X919270Y593500D01*
X920630Y591620D01*
X922000Y587870D01*
Y584120D01*
X920630Y580370D01*
X919270Y578500D01*
X915180Y576620D01*
X902900D01*
X912450D02*
X922000Y556000D01*
X958810Y595370D02*
Y556000D01*
Y595370D02*
X968360D01*
X972450Y593500D01*
X975180Y589750D01*
X976540Y586000D01*
X977900Y580370D01*
Y571000D01*
X976540Y565370D01*
X975180Y561620D01*
X972450Y557870D01*
X968360Y556000D01*
X958810D01*
X990180Y595370D02*
Y556000D01*
Y595370D02*
X1007900D01*
X990180Y576620D02*
X1001090D01*
X990180Y556000D02*
X1007900D01*
X1029720Y595370D02*
Y556000D01*
X1020180Y595370D02*
X1039270D01*
X1051540D02*
Y556000D01*
Y595370D02*
X1069270D01*
X1051540Y576620D02*
X1062450D01*
X1051540Y556000D02*
X1069270D01*
X1102000Y586000D02*
X1100630Y589750D01*
X1097900Y593500D01*
X1095180Y595370D01*
X1089720D01*
X1087000Y593500D01*
X1084270Y589750D01*
X1082900Y586000D01*
X1081540Y580370D01*
Y571000D01*
X1082900Y565370D01*
X1084270Y561620D01*
X1087000Y557870D01*
X1089720Y556000D01*
X1095180D01*
X1097900Y557870D01*
X1100630Y561620D01*
X1102000Y565370D01*
X1123810Y595370D02*
Y556000D01*
X1114270Y595370D02*
X1133360D01*
X1153810D02*
X1151090Y593500D01*
X1148360Y589750D01*
X1147000Y586000D01*
X1145630Y580370D01*
Y571000D01*
X1147000Y565370D01*
X1148360Y561620D01*
X1151090Y557870D01*
X1153810Y556000D01*
X1159270D01*
X1162000Y557870D01*
X1164720Y561620D01*
X1166090Y565370D01*
X1167450Y571000D01*
Y580370D01*
X1166090Y586000D01*
X1164720Y589750D01*
X1162000Y593500D01*
X1159270Y595370D01*
X1153810D01*
X1179720D02*
Y556000D01*
Y595370D02*
X1192000D01*
X1196090Y593500D01*
X1197450Y591620D01*
X1198810Y587870D01*
Y584120D01*
X1197450Y580370D01*
X1196090Y578500D01*
X1192000Y576620D01*
X1179720D01*
X1189270D02*
X1198810Y556000D01*
G54D13*
X980000Y1349370D02*
Y1310000D01*
Y1349370D02*
X997720D01*
X980000Y1330620D02*
X990900D01*
X980000Y1310000D02*
X997720D01*
X1010000Y1341870D02*
X1012720Y1343750D01*
X1016810Y1349370D01*
Y1310000D01*
X1510000Y1309370D02*
Y1270000D01*
Y1309370D02*
X1527720D01*
X1510000Y1290620D02*
X1520900D01*
X1510000Y1270000D02*
X1527720D01*
X1541360Y1300000D02*
Y1301870D01*
X1542720Y1305620D01*
X1544090Y1307500D01*
X1546810Y1309370D01*
X1552270D01*
X1555000Y1307500D01*
X1556360Y1305620D01*
X1557720Y1301870D01*
Y1298120D01*
X1556360Y1294370D01*
X1553630Y1288750D01*
X1540000Y1270000D01*
X1559090D01*
X635000Y1349370D02*
Y1310000D01*
Y1349370D02*
X652720D01*
X635000Y1330620D02*
X645900D01*
X635000Y1310000D02*
X652720D01*
X667720Y1349370D02*
X682720D01*
X674540Y1334370D01*
X678630D01*
X681360Y1332500D01*
X682720Y1330620D01*
X684090Y1325000D01*
Y1321250D01*
X682720Y1315620D01*
X680000Y1311870D01*
X675900Y1310000D01*
X671810D01*
X667720Y1311870D01*
X666360Y1313750D01*
X665000Y1317500D01*
X1585000Y974370D02*
Y935000D01*
Y974370D02*
X1602720D01*
X1585000Y955620D02*
X1595900D01*
X1585000Y935000D02*
X1602720D01*
X1628630Y974370D02*
X1615000Y948120D01*
X1635450D01*
X1628630Y974370D02*
Y935000D01*
%LPC*%
G75*
X1628630Y935000D02*
G54D14*
X1135500Y900000D03*
X1172500D03*
X1209500D03*
Y1000000D03*
X1135500D03*
G54D15*
X1248750Y762500D03*
Y662500D03*
X1588750D03*
Y762500D03*
G54D16*
X1004000Y900000D03*
X1068000D03*
X1068750Y1055500D03*
Y1119500D03*
X1137500Y1055500D03*
Y1119500D03*
X1343000Y1075000D03*
X1407000D03*
X930000Y964000D03*
Y900000D03*
X1344500Y1000000D03*
X1280500D03*
X1275000Y938250D03*
Y874250D03*
X852000Y900000D03*
X788000D03*
G54D17*
X637000D03*
G36*
X515750Y760564D02*
X516813Y761769D01*
G02X550000Y776750I33188J-29269D01*
G01X720000D01*
G02X720000Y688250I0J-44250D01*
G01X550000D01*
G02X516813Y703231I0J44250D01*
G01X515750Y704436D01*
Y760564D01*
G37*
G36*
Y1095564D02*
X516813Y1096769D01*
G02X550000Y1111750I33188J-29269D01*
G01X720000D01*
G02X720000Y1023250I0J-44250D01*
G01X550000D01*
G02X516813Y1038231I0J44250D01*
G01X515750Y1039436D01*
Y1095564D01*
G37*
G54D18*
X1100000Y1350000D03*
X1450000D03*
X750000D03*
X1600000Y1050000D03*
G54D19*
X590000Y540000D03*
Y590000D03*
X715000Y540000D03*
X865000D03*
X1015000D03*
X1155000D03*
X1300000D03*
X1440000D03*
X1570000D03*
X1705000D03*
X587500Y662500D03*
X637500D03*
X693750D03*
X743750D03*
X1675000D03*
X781250Y693750D03*
X787500Y737500D03*
X775000Y775000D03*
X1675000Y762500D03*
X637500Y793750D03*
X587500D03*
X737500D03*
X687500D03*
X815000Y795000D03*
X880000D03*
X1035000D03*
X960000D03*
X1100000Y805000D03*
X1140000Y845000D03*
X1700000Y880000D03*
X1137500Y950000D03*
X1209500Y949000D03*
X1172500Y935000D03*
X1331250Y937500D03*
X1700000Y985000D03*
X595000Y1010000D03*
X705000D03*
X650000D03*
X815000Y1005000D03*
X765000Y1020000D03*
X785000Y1065000D03*
X915000Y1005000D03*
X870000D03*
X945000D03*
X1000000D03*
X1055000D03*
X1293750Y1056250D03*
X1443750Y1075000D03*
X590000Y1130000D03*
X695000D03*
X640000D03*
X750000D03*
X920000Y1105000D03*
X1035000Y1120000D03*
X1137500Y1156250D03*
X1068750D03*
X1175000Y1118750D03*
X1285000Y1120000D03*
X1406250Y1118750D03*
X1700000Y1160000D03*
X590000Y1240000D03*
X920000Y1225000D03*
X1285000Y1240000D03*
X590000Y1355000D03*
X920000Y1340000D03*
X1285000Y1360000D03*
X1700000Y1330000D03*
X590000Y1455000D03*
X720000D03*
X845000D03*
X980000D03*
X1145000D03*
X1285000Y1460000D03*
X1395000D03*
X1520000D03*
X1700000D03*
%LPD*%
G75*
X1700000Y1460000D02*
G36*
X1110000Y1867500D02*
Y1927500D01*
G02X1112500Y1930000I2500J0D01*
G01X1177500D01*
G02X1180000Y1927500I0J-2500D01*
G01Y1867500D01*
G02X1177500Y1865000I-2500J0D01*
G01X1112500D01*
G02X1110000Y1867500I0J2500D01*
G37*
G36*
Y1942500D02*
G01Y2022500D01*
G02X1112500Y2025000I2500J0D01*
G01X1187500D01*
G02X1190000Y2022500I0J-2500D01*
G01Y1942500D01*
G02X1187500Y1940000I-2500J0D01*
G01X1112500D01*
G02X1110000Y1942500I0J2500D01*
G37*
G54D10*
X973500Y2181250D02*
G01X1098500D01*
Y2118750D01*
X973500D01*
Y2181250D01*
X1037500Y2275000D02*
Y2400000D01*
X1100000D01*
Y2275000D01*
X1037500D01*
X1106250D02*
Y2400000D01*
X1168750D01*
Y2275000D01*
X1106250D01*
X1312500Y2356250D02*
X1437500D01*
Y2293750D01*
X1312500D01*
Y2356250D01*
X961250Y2244500D02*
Y2119500D01*
X898750D01*
Y2244500D01*
X961250D01*
X1375000Y2218750D02*
X1250000D01*
Y2281250D01*
X1375000D01*
Y2218750D01*
X1306250D02*
Y2093750D01*
X1243750D01*
Y2218750D01*
X1306250D01*
G54D11*
X1323750Y2012500D03*
G54D10*
X1298750Y1827500D02*
X1538750D01*
Y2097500D01*
X1328750D01*
X1298750Y2067500D01*
Y1827500D01*
X575000Y1925000D02*
X725000D01*
G03X725000Y2037490I-6210J56245D01*
Y2037500D02*
G01X675000D01*
Y2262500D01*
X725000D01*
G03X725000Y2375000I-6600J56250D01*
G01X575000D01*
X882500Y2118750D02*
X757500D01*
Y2181250D01*
X882500D01*
Y2118750D01*
G54D12*
X1112500Y2220000D02*
X1232500D01*
Y2180000D01*
X1112500D01*
Y2220000D01*
X1032950Y2092500D02*
X1031590Y2096250D01*
X1028860Y2100000D01*
X1026130Y2101870D01*
X1020680D01*
X1017950Y2100000D01*
X1015220Y2096250D01*
X1013860Y2092500D01*
X1012500Y2086870D01*
Y2077500D01*
X1013860Y2071870D01*
X1015220Y2068120D01*
X1017950Y2064370D01*
X1020680Y2062500D01*
X1026130D01*
X1028860Y2064370D01*
X1031590Y2068120D01*
X1032950Y2071870D01*
X1045220Y2094370D02*
X1047950Y2096250D01*
X1052040Y2101870D01*
Y2062500D01*
X1051240Y2439200D02*
X1047490Y2437840D01*
X1043740Y2435110D01*
X1041870Y2432380D01*
Y2426930D01*
X1043740Y2424200D01*
X1047490Y2421470D01*
X1051240Y2420110D01*
X1056870Y2418750D01*
X1066240D01*
X1071870Y2420110D01*
X1075620Y2421470D01*
X1079370Y2424200D01*
X1081240Y2426930D01*
Y2432380D01*
X1079370Y2435110D01*
X1075620Y2437840D01*
X1071870Y2439200D01*
X1051240Y2452840D02*
X1049370D01*
X1045620Y2454200D01*
X1043740Y2455560D01*
X1041870Y2458290D01*
Y2463750D01*
X1043740Y2466470D01*
X1045620Y2467840D01*
X1049370Y2469200D01*
X1053120D01*
X1056870Y2467840D01*
X1062490Y2465110D01*
X1081240Y2451470D01*
Y2470560D01*
X1126240Y2439200D02*
X1122490Y2437840D01*
X1118740Y2435110D01*
X1116870Y2432380D01*
Y2426930D01*
X1118740Y2424200D01*
X1122490Y2421470D01*
X1126240Y2420110D01*
X1131870Y2418750D01*
X1141240D01*
X1146870Y2420110D01*
X1150620Y2421470D01*
X1154370Y2424200D01*
X1156240Y2426930D01*
Y2432380D01*
X1154370Y2435110D01*
X1150620Y2437840D01*
X1146870Y2439200D01*
X1116870Y2454200D02*
Y2469200D01*
X1131870Y2461020D01*
Y2465110D01*
X1133740Y2467840D01*
X1135620Y2469200D01*
X1141240Y2470560D01*
X1144990D01*
X1150620Y2469200D01*
X1154370Y2466470D01*
X1156240Y2462380D01*
Y2458290D01*
X1154370Y2454200D01*
X1152490Y2452840D01*
X1148740Y2451470D01*
X1348450Y2399000D02*
X1347090Y2402750D01*
X1344360Y2406500D01*
X1341630Y2408370D01*
X1336180D01*
X1333450Y2406500D01*
X1330720Y2402750D01*
X1329360Y2399000D01*
X1328000Y2393370D01*
Y2384000D01*
X1329360Y2378370D01*
X1330720Y2374620D01*
X1333450Y2370870D01*
X1336180Y2369000D01*
X1341630D01*
X1344360Y2370870D01*
X1347090Y2374620D01*
X1348450Y2378370D01*
X1378450Y2408370D02*
X1364810D01*
X1363450Y2391500D01*
X1364810Y2393370D01*
X1368900Y2395250D01*
X1373000D01*
X1377090Y2393370D01*
X1379810Y2389620D01*
X1381180Y2384000D01*
X1379810Y2380250D01*
X1378450Y2374620D01*
X1375720Y2370870D01*
X1371630Y2369000D01*
X1367540D01*
X1363450Y2370870D01*
X1362090Y2372750D01*
X1360720Y2376500D01*
X911620Y2063000D02*
X951000D01*
X911620D02*
Y2075270D01*
X913500Y2079360D01*
X915370Y2080720D01*
X919120Y2082090D01*
X922870D01*
X926620Y2080720D01*
X928500Y2079360D01*
X930370Y2075270D01*
Y2063000D01*
Y2072540D02*
X951000Y2082090D01*
X919120Y2094360D02*
X917250Y2097090D01*
X911620Y2101180D01*
X951000D01*
X1393750Y2270620D02*
Y2231250D01*
Y2270620D02*
X1406020D01*
X1410110Y2268750D01*
X1411470Y2266870D01*
X1412840Y2263120D01*
Y2259370D01*
X1411470Y2255620D01*
X1410110Y2253750D01*
X1406020Y2251870D01*
X1393750D01*
X1403290D02*
X1412840Y2231250D01*
X1426470Y2261250D02*
Y2263120D01*
X1427840Y2266870D01*
X1429200Y2268750D01*
X1431930Y2270620D01*
X1437380D01*
X1440110Y2268750D01*
X1441470Y2266870D01*
X1442840Y2263120D01*
Y2259370D01*
X1441470Y2255620D01*
X1438750Y2250000D01*
X1425110Y2231250D01*
X1444200D01*
X1320620Y2115000D02*
X1360000D01*
X1320620D02*
Y2127270D01*
X1322500Y2131360D01*
X1324370Y2132720D01*
X1328120Y2134090D01*
X1331870D01*
X1335620Y2132720D01*
X1337500Y2131360D01*
X1339370Y2127270D01*
Y2115000D01*
Y2124540D02*
X1360000Y2134090D01*
X1320620Y2149090D02*
Y2164090D01*
X1335620Y2155900D01*
Y2160000D01*
X1337500Y2162720D01*
X1339370Y2164090D01*
X1345000Y2165450D01*
X1348750D01*
X1354370Y2164090D01*
X1358120Y2161360D01*
X1360000Y2157270D01*
Y2153180D01*
X1358120Y2149090D01*
X1356250Y2147720D01*
X1352500Y2146360D01*
X1434090Y2145750D02*
X1431360Y2149500D01*
X1427270Y2151370D01*
X1421810D01*
X1417720Y2149500D01*
X1415000Y2145750D01*
Y2142000D01*
X1416360Y2138250D01*
X1417720Y2136370D01*
X1420450Y2134500D01*
X1428630Y2130750D01*
X1431360Y2128870D01*
X1432720Y2127000D01*
X1434090Y2123250D01*
Y2117620D01*
X1431360Y2113870D01*
X1427270Y2112000D01*
X1421810D01*
X1417720Y2113870D01*
X1415000Y2117620D01*
X1446360Y2151370D02*
X1453180Y2112000D01*
X1460000Y2151370D02*
X1453180Y2112000D01*
X1460000Y2151370D02*
X1466810Y2112000D01*
X1473630Y2151370D02*
X1466810Y2112000D01*
X1485900Y2143870D02*
X1488630Y2145750D01*
X1492720Y2151370D01*
Y2112000D01*
X1055000Y2233370D02*
Y2205250D01*
X1056360Y2199620D01*
X1059090Y2195870D01*
X1063180Y2194000D01*
X1065900D01*
X1070000Y2195870D01*
X1072720Y2199620D01*
X1074090Y2205250D01*
Y2233370D01*
X1086360Y2225870D02*
X1089090Y2227750D01*
X1093180Y2233370D01*
Y2194000D01*
X649530Y2503670D02*
Y2473670D01*
X648170Y2468050D01*
X646800Y2466170D01*
X644080Y2464300D01*
X641350D01*
X638620Y2466170D01*
X637260Y2468050D01*
X635890Y2473670D01*
Y2477420D01*
X661800Y2496170D02*
X664530Y2498050D01*
X668620Y2503670D01*
Y2464300D01*
X795000Y2229370D02*
Y2189990D01*
Y2229370D02*
X807270D01*
X811360Y2227490D01*
X812720Y2225620D01*
X814090Y2221870D01*
Y2218120D01*
X812720Y2214370D01*
X811360Y2212490D01*
X807270Y2210620D01*
X795000D01*
X804540D02*
X814090Y2189990D01*
X840000Y2229370D02*
X826360Y2203120D01*
X846810D01*
X840000Y2229370D02*
Y2189990D01*
X1559090Y2413750D02*
X1556360Y2417500D01*
X1552270Y2419370D01*
X1546810D01*
X1542720Y2417500D01*
X1540000Y2413750D01*
Y2410000D01*
X1541360Y2406250D01*
X1542720Y2404370D01*
X1545450Y2402500D01*
X1553630Y2398750D01*
X1556360Y2396870D01*
X1557720Y2395000D01*
X1559090Y2391250D01*
Y2385620D01*
X1556360Y2381870D01*
X1552270Y2380000D01*
X1546810D01*
X1542720Y2381870D01*
X1540000Y2385620D01*
X1571360Y2419370D02*
Y2380000D01*
X1590450Y2419370D02*
Y2380000D01*
X1571360Y2400620D02*
X1590450D01*
X1602720Y2419370D02*
Y2380000D01*
Y2419370D02*
X1612270D01*
X1616360Y2417500D01*
X1619090Y2413750D01*
X1620450Y2410000D01*
X1621810Y2404370D01*
Y2395000D01*
X1620450Y2389370D01*
X1619090Y2385620D01*
X1616360Y2381870D01*
X1612270Y2380000D01*
X1602720D01*
X1634090Y2419370D02*
Y2380000D01*
Y2419370D02*
X1653180Y2380000D01*
Y2419370D02*
Y2380000D01*
X950000Y2674370D02*
X960900Y2635000D01*
X971810Y2674370D02*
X960900Y2635000D01*
X1004540Y2665000D02*
X1003180Y2668750D01*
X1000450Y2672500D01*
X997720Y2674370D01*
X992270D01*
X989540Y2672500D01*
X986810Y2668750D01*
X985450Y2665000D01*
X984090Y2659370D01*
Y2650000D01*
X985450Y2644370D01*
X986810Y2640620D01*
X989540Y2636870D01*
X992270Y2635000D01*
X997720D01*
X1000450Y2636870D01*
X1003180Y2640620D01*
X1004540Y2644370D01*
X1037270Y2665000D02*
X1035900Y2668750D01*
X1033180Y2672500D01*
X1030450Y2674370D01*
X1025000D01*
X1022270Y2672500D01*
X1019540Y2668750D01*
X1018180Y2665000D01*
X1016810Y2659370D01*
Y2650000D01*
X1018180Y2644370D01*
X1019540Y2640620D01*
X1022270Y2636870D01*
X1025000Y2635000D01*
X1030450D01*
X1033180Y2636870D01*
X1035900Y2640620D01*
X1037270Y2644370D01*
X1515000Y2679370D02*
Y2640000D01*
Y2679370D02*
X1524540D01*
X1528630Y2677500D01*
X1531360Y2673750D01*
X1532720Y2670000D01*
X1534090Y2664370D01*
Y2655000D01*
X1532720Y2649370D01*
X1531360Y2645620D01*
X1528630Y2641870D01*
X1524540Y2640000D01*
X1515000D01*
X1546360Y2655000D02*
X1562720D01*
Y2658750D01*
X1561360Y2662500D01*
X1560000Y2664370D01*
X1557270Y2666250D01*
X1553180D01*
X1550450Y2664370D01*
X1547720Y2660620D01*
X1546360Y2655000D01*
Y2651250D01*
X1547720Y2645620D01*
X1550450Y2641870D01*
X1553180Y2640000D01*
X1557270D01*
X1560000Y2641870D01*
X1562720Y2645620D01*
X1579090Y2679370D02*
Y2647500D01*
X1580450Y2641870D01*
X1583180Y2640000D01*
X1585900D01*
X1575000Y2666250D02*
X1584540D01*
X1598180Y2655000D02*
X1614540D01*
Y2658750D01*
X1613180Y2662500D01*
X1611810Y2664370D01*
X1609090Y2666250D01*
X1605000D01*
X1602270Y2664370D01*
X1599540Y2660620D01*
X1598180Y2655000D01*
Y2651250D01*
X1599540Y2645620D01*
X1602270Y2641870D01*
X1605000Y2640000D01*
X1609090D01*
X1611810Y2641870D01*
X1614540Y2645620D01*
X1643180Y2660620D02*
X1640450Y2664370D01*
X1637720Y2666250D01*
X1633630D01*
X1630900Y2664370D01*
X1628180Y2660620D01*
X1626810Y2655000D01*
Y2651250D01*
X1628180Y2645620D01*
X1630900Y2641870D01*
X1633630Y2640000D01*
X1637720D01*
X1640450Y2641870D01*
X1643180Y2645620D01*
X1659540Y2679370D02*
Y2647500D01*
X1660900Y2641870D01*
X1663630Y2640000D01*
X1666360D01*
X1655450Y2666250D02*
X1665000D01*
X1685450D02*
X1682720Y2664370D01*
X1680000Y2660620D01*
X1678630Y2655000D01*
Y2651250D01*
X1680000Y2645620D01*
X1682720Y2641870D01*
X1685450Y2640000D01*
X1689540D01*
X1692270Y2641870D01*
X1695000Y2645620D01*
X1696360Y2651250D01*
Y2655000D01*
X1695000Y2660620D01*
X1692270Y2664370D01*
X1689540Y2666250D01*
X1685450D01*
X1708630D02*
Y2640000D01*
Y2655000D02*
X1710000Y2660620D01*
X1712720Y2664370D01*
X1715450Y2666250D01*
X1719540D01*
X1556000Y2626370D02*
X1566900Y2587000D01*
X1577810Y2626370D02*
X1566900Y2587000D01*
X1596900Y2613250D02*
X1594180Y2611370D01*
X1591450Y2607620D01*
X1590090Y2602000D01*
Y2598250D01*
X1591450Y2592620D01*
X1594180Y2588870D01*
X1596900Y2587000D01*
X1601000D01*
X1603720Y2588870D01*
X1606450Y2592620D01*
X1607810Y2598250D01*
Y2602000D01*
X1606450Y2607620D01*
X1603720Y2611370D01*
X1601000Y2613250D01*
X1596900D01*
X1620090D02*
Y2594500D01*
X1621450Y2588870D01*
X1624180Y2587000D01*
X1628270D01*
X1631000Y2588870D01*
X1635090Y2594500D01*
Y2613250D02*
Y2587000D01*
X1651450Y2626370D02*
Y2594500D01*
X1652810Y2588870D01*
X1655540Y2587000D01*
X1658270D01*
X1647360Y2613250D02*
X1656900D01*
X630450Y2665000D02*
X629090Y2668750D01*
X626360Y2672500D01*
X623630Y2674370D01*
X618180D01*
X615450Y2672500D01*
X612720Y2668750D01*
X611360Y2665000D01*
X610000Y2659370D01*
Y2650000D01*
X611360Y2644370D01*
X612720Y2640620D01*
X615450Y2636870D01*
X618180Y2635000D01*
X623630D01*
X626360Y2636870D01*
X629090Y2640620D01*
X630450Y2644370D01*
Y2650000D01*
X623630D02*
X630450D01*
X642720Y2674370D02*
Y2635000D01*
Y2674370D02*
X661810Y2635000D01*
Y2674370D02*
Y2635000D01*
X674090Y2674370D02*
Y2635000D01*
Y2674370D02*
X683630D01*
X687720Y2672500D01*
X690450Y2668750D01*
X691810Y2665000D01*
X693180Y2659370D01*
Y2650000D01*
X691810Y2644370D01*
X690450Y2640620D01*
X687720Y2636870D01*
X683630Y2635000D01*
X674090D01*
X630000Y2450370D02*
Y2411000D01*
Y2450370D02*
X642270D01*
X646360Y2448500D01*
X647720Y2446620D01*
X649090Y2442870D01*
Y2439120D01*
X647720Y2435370D01*
X646360Y2433500D01*
X642270Y2431620D01*
X630000D01*
X639540D02*
X649090Y2411000D01*
X661360Y2450370D02*
Y2411000D01*
Y2450370D02*
X679090D01*
X661360Y2431620D02*
X672270D01*
X691360Y2450370D02*
X692720Y2448500D01*
X694090Y2450370D01*
X692720Y2452250D01*
X691360Y2450370D01*
X692720Y2437250D02*
Y2411000D01*
X706360Y2437250D02*
Y2411000D01*
Y2429750D02*
X710450Y2435370D01*
X713180Y2437250D01*
X717270D01*
X720000Y2435370D01*
X721360Y2429750D01*
Y2411000D01*
X825000Y2007500D02*
Y1955000D01*
Y2007500D02*
X837720D01*
X843180Y2005000D01*
X846810Y2000000D01*
X848630Y1995000D01*
X850450Y1987500D01*
Y1975000D01*
X848630Y1967500D01*
X846810Y1962500D01*
X843180Y1957500D01*
X837720Y1955000D01*
X825000D01*
X894090Y1995000D02*
X892270Y2000000D01*
X888630Y2005000D01*
X885000Y2007500D01*
X877720D01*
X874090Y2005000D01*
X870450Y2000000D01*
X868630Y1995000D01*
X866810Y1987500D01*
Y1975000D01*
X868630Y1967500D01*
X870450Y1962500D01*
X874090Y1957500D01*
X877720Y1955000D01*
X885000D01*
X888630Y1957500D01*
X892270Y1962500D01*
X894090Y1967500D01*
X914090Y2007500D02*
X934090D01*
X923180Y1987500D01*
X928630D01*
X932270Y1985000D01*
X934090Y1982500D01*
X935900Y1975000D01*
Y1970000D01*
X934090Y1962500D01*
X930450Y1957500D01*
X925000Y1955000D01*
X919540D01*
X914090Y1957500D01*
X912270Y1960000D01*
X910450Y1965000D01*
X975900Y1990000D02*
X974090Y1982500D01*
X970450Y1977500D01*
X965000Y1975000D01*
X963180D01*
X957720Y1977500D01*
X954090Y1982500D01*
X952270Y1990000D01*
Y1992500D01*
X954090Y2000000D01*
X957720Y2005000D01*
X963180Y2007500D01*
X965000D01*
X970450Y2005000D01*
X974090Y2000000D01*
X975900Y1990000D01*
Y1977500D01*
X974090Y1965000D01*
X970450Y1957500D01*
X965000Y1955000D01*
X961360D01*
X955900Y1957500D01*
X954090Y1962500D01*
X992270Y1997500D02*
X995900Y2000000D01*
X1001360Y2007500D01*
Y1955000D01*
X1032270Y2007500D02*
X1017720Y1955000D01*
X1032270Y2007500D02*
X1046810Y1955000D01*
X1023180Y1972500D02*
X1041360D01*
X1063180Y1977500D02*
X1095900D01*
X845000Y1919370D02*
Y1880000D01*
X861360D01*
X883180Y1919370D02*
Y1880000D01*
X873630Y1919370D02*
X892720D01*
X925450Y1910000D02*
X924090Y1913750D01*
X921360Y1917500D01*
X918630Y1919370D01*
X913180D01*
X910450Y1917500D01*
X907720Y1913750D01*
X906360Y1910000D01*
X905000Y1904370D01*
Y1895000D01*
X906360Y1889370D01*
X907720Y1885620D01*
X910450Y1881870D01*
X913180Y1880000D01*
X918630D01*
X921360Y1881870D01*
X924090Y1885620D01*
X925450Y1889370D01*
X955450Y1919370D02*
X941810D01*
X940450Y1902500D01*
X941810Y1904370D01*
X945900Y1906250D01*
X950000D01*
X954090Y1904370D01*
X956810Y1900620D01*
X958180Y1895000D01*
X956810Y1891250D01*
X955450Y1885620D01*
X952720Y1881870D01*
X948630Y1880000D01*
X944540D01*
X940450Y1881870D01*
X939090Y1883750D01*
X937720Y1887500D01*
X988180Y1919370D02*
X974540D01*
X973180Y1902500D01*
X974540Y1904370D01*
X978630Y1906250D01*
X982720D01*
X986810Y1904370D01*
X989540Y1900620D01*
X990900Y1895000D01*
X989540Y1891250D01*
X988180Y1885620D01*
X985450Y1881870D01*
X981360Y1880000D01*
X977270D01*
X973180Y1881870D01*
X971810Y1883750D01*
X970450Y1887500D01*
X1011360Y1919370D02*
X1007270Y1917500D01*
X1004540Y1911870D01*
X1003180Y1902500D01*
Y1896870D01*
X1004540Y1887500D01*
X1007270Y1881870D01*
X1011360Y1880000D01*
X1014090D01*
X1018180Y1881870D01*
X1020900Y1887500D01*
X1022270Y1896870D01*
Y1902500D01*
X1020900Y1911870D01*
X1018180Y1917500D01*
X1014090Y1919370D01*
X1011360D01*
X1052270D02*
X1038630D01*
X1037270Y1902500D01*
X1038630Y1904370D01*
X1042720Y1906250D01*
X1046810D01*
X1050900Y1904370D01*
X1053630Y1900620D01*
X1055000Y1895000D01*
X1053630Y1891250D01*
X1052270Y1885620D01*
X1049540Y1881870D01*
X1045450Y1880000D01*
X1041360D01*
X1037270Y1881870D01*
X1035900Y1883750D01*
X1034540Y1887500D01*
X1067270Y1896870D02*
X1091810D01*
X682000Y1845370D02*
Y1806000D01*
Y1845370D02*
X694270D01*
X698360Y1843500D01*
X699720Y1841620D01*
X701090Y1837870D01*
Y1834120D01*
X699720Y1830370D01*
X698360Y1828500D01*
X694270Y1826620D01*
X682000D01*
X691540D02*
X701090Y1806000D01*
X713360Y1845370D02*
Y1806000D01*
Y1845370D02*
X731090D01*
X713360Y1826620D02*
X724270D01*
X767900Y1845370D02*
Y1806000D01*
Y1845370D02*
X780180D01*
X784270Y1843500D01*
X785630Y1841620D01*
X787000Y1837870D01*
Y1832250D01*
X785630Y1828500D01*
X784270Y1826620D01*
X780180Y1824750D01*
X767900D01*
X807450Y1845370D02*
X804720Y1843500D01*
X802000Y1839750D01*
X800630Y1836000D01*
X799270Y1830370D01*
Y1821000D01*
X800630Y1815370D01*
X802000Y1811620D01*
X804720Y1807870D01*
X807450Y1806000D01*
X812900D01*
X815630Y1807870D01*
X818360Y1811620D01*
X819720Y1815370D01*
X821090Y1821000D01*
Y1830370D01*
X819720Y1836000D01*
X818360Y1839750D01*
X815630Y1843500D01*
X812900Y1845370D01*
X807450D01*
X833360D02*
X840180Y1806000D01*
X847000Y1845370D02*
X840180Y1806000D01*
X847000Y1845370D02*
X853810Y1806000D01*
X860630Y1845370D02*
X853810Y1806000D01*
X872900Y1845370D02*
Y1806000D01*
Y1845370D02*
X890630D01*
X872900Y1826620D02*
X883810D01*
X872900Y1806000D02*
X890630D01*
X902900Y1845370D02*
Y1806000D01*
Y1845370D02*
X915180D01*
X919270Y1843500D01*
X920630Y1841620D01*
X922000Y1837870D01*
Y1834120D01*
X920630Y1830370D01*
X919270Y1828500D01*
X915180Y1826620D01*
X902900D01*
X912450D02*
X922000Y1806000D01*
X958810Y1845370D02*
Y1806000D01*
Y1845370D02*
X968360D01*
X972450Y1843500D01*
X975180Y1839750D01*
X976540Y1836000D01*
X977900Y1830370D01*
Y1821000D01*
X976540Y1815370D01*
X975180Y1811620D01*
X972450Y1807870D01*
X968360Y1806000D01*
X958810D01*
X990180Y1845370D02*
Y1806000D01*
Y1845370D02*
X1007900D01*
X990180Y1826620D02*
X1001090D01*
X990180Y1806000D02*
X1007900D01*
X1029720Y1845370D02*
Y1806000D01*
X1020180Y1845370D02*
X1039270D01*
X1051540D02*
Y1806000D01*
Y1845370D02*
X1069270D01*
X1051540Y1826620D02*
X1062450D01*
X1051540Y1806000D02*
X1069270D01*
X1102000Y1836000D02*
X1100630Y1839750D01*
X1097900Y1843500D01*
X1095180Y1845370D01*
X1089720D01*
X1087000Y1843500D01*
X1084270Y1839750D01*
X1082900Y1836000D01*
X1081540Y1830370D01*
Y1821000D01*
X1082900Y1815370D01*
X1084270Y1811620D01*
X1087000Y1807870D01*
X1089720Y1806000D01*
X1095180D01*
X1097900Y1807870D01*
X1100630Y1811620D01*
X1102000Y1815370D01*
X1123810Y1845370D02*
Y1806000D01*
X1114270Y1845370D02*
X1133360D01*
X1153810D02*
X1151090Y1843500D01*
X1148360Y1839750D01*
X1147000Y1836000D01*
X1145630Y1830370D01*
Y1821000D01*
X1147000Y1815370D01*
X1148360Y1811620D01*
X1151090Y1807870D01*
X1153810Y1806000D01*
X1159270D01*
X1162000Y1807870D01*
X1164720Y1811620D01*
X1166090Y1815370D01*
X1167450Y1821000D01*
Y1830370D01*
X1166090Y1836000D01*
X1164720Y1839750D01*
X1162000Y1843500D01*
X1159270Y1845370D01*
X1153810D01*
X1179720D02*
Y1806000D01*
Y1845370D02*
X1192000D01*
X1196090Y1843500D01*
X1197450Y1841620D01*
X1198810Y1837870D01*
Y1834120D01*
X1197450Y1830370D01*
X1196090Y1828500D01*
X1192000Y1826620D01*
X1179720D01*
X1189270D02*
X1198810Y1806000D01*
G54D13*
X980000Y2599370D02*
Y2560000D01*
Y2599370D02*
X997720D01*
X980000Y2580620D02*
X990900D01*
X980000Y2560000D02*
X997720D01*
X1010000Y2591870D02*
X1012720Y2593750D01*
X1016810Y2599370D01*
Y2560000D01*
X1510000Y2559370D02*
Y2520000D01*
Y2559370D02*
X1527720D01*
X1510000Y2540620D02*
X1520900D01*
X1510000Y2520000D02*
X1527720D01*
X1541360Y2550000D02*
Y2551870D01*
X1542720Y2555620D01*
X1544090Y2557500D01*
X1546810Y2559370D01*
X1552270D01*
X1555000Y2557500D01*
X1556360Y2555620D01*
X1557720Y2551870D01*
Y2548120D01*
X1556360Y2544370D01*
X1553630Y2538750D01*
X1540000Y2520000D01*
X1559090D01*
X635000Y2599370D02*
Y2560000D01*
Y2599370D02*
X652720D01*
X635000Y2580620D02*
X645900D01*
X635000Y2560000D02*
X652720D01*
X667720Y2599370D02*
X682720D01*
X674540Y2584370D01*
X678630D01*
X681360Y2582500D01*
X682720Y2580620D01*
X684090Y2575000D01*
Y2571250D01*
X682720Y2565620D01*
X680000Y2561870D01*
X675900Y2560000D01*
X671810D01*
X667720Y2561870D01*
X666360Y2563750D01*
X665000Y2567500D01*
X1585000Y2224370D02*
Y2185000D01*
Y2224370D02*
X1602720D01*
X1585000Y2205620D02*
X1595900D01*
X1585000Y2185000D02*
X1602720D01*
X1628630Y2224370D02*
X1615000Y2198120D01*
X1635450D01*
X1628630Y2224370D02*
Y2185000D01*
%LPC*%
G75*
X1628630Y2185000D02*
G54D14*
X1135500Y2150000D03*
X1172500D03*
X1209500D03*
Y2250000D03*
X1135500D03*
G54D15*
X1248750Y2012500D03*
Y1912500D03*
X1588750D03*
Y2012500D03*
G54D16*
X1004000Y2150000D03*
X1068000D03*
X1068750Y2305500D03*
Y2369500D03*
X1137500Y2305500D03*
Y2369500D03*
X1343000Y2325000D03*
X1407000D03*
X930000Y2214000D03*
Y2150000D03*
X1344500Y2250000D03*
X1280500D03*
X1275000Y2188250D03*
Y2124250D03*
X852000Y2150000D03*
X788000D03*
G54D17*
X637000D03*
G36*
X515750Y2010564D02*
X516813Y2011769D01*
G02X550000Y2026750I33188J-29269D01*
G01X720000D01*
G02X720000Y1938250I0J-44250D01*
G01X550000D01*
G02X516813Y1953231I0J44250D01*
G01X515750Y1954436D01*
Y2010564D01*
G37*
G36*
Y2345564D02*
X516813Y2346769D01*
G02X550000Y2361750I33188J-29269D01*
G01X720000D01*
G02X720000Y2273250I0J-44250D01*
G01X550000D01*
G02X516813Y2288231I0J44250D01*
G01X515750Y2289436D01*
Y2345564D01*
G37*
G54D18*
X1100000Y2600000D03*
X1450000D03*
X750000D03*
X1600000Y2300000D03*
G54D19*
X590000Y1790000D03*
Y1840000D03*
X715000Y1790000D03*
X865000D03*
X1015000D03*
X1155000D03*
X1300000D03*
X1440000D03*
X1570000D03*
X1705000D03*
X587500Y1912500D03*
X637500D03*
X693750D03*
X743750D03*
X1675000D03*
X781250Y1943750D03*
X787500Y1987500D03*
X775000Y2025000D03*
X1675000Y2012500D03*
X637500Y2043750D03*
X587500D03*
X737500D03*
X687500D03*
X815000Y2045000D03*
X880000D03*
X1035000D03*
X960000D03*
X1100000Y2055000D03*
X1140000Y2095000D03*
X1700000Y2130000D03*
X1137500Y2200000D03*
X1209500Y2199000D03*
X1172500Y2185000D03*
X1331250Y2187500D03*
X1700000Y2235000D03*
X595000Y2260000D03*
X705000D03*
X650000D03*
X815000Y2255000D03*
X765000Y2270000D03*
X785000Y2315000D03*
X915000Y2255000D03*
X870000D03*
X945000D03*
X1000000D03*
X1055000D03*
X1293750Y2306250D03*
X1443750Y2325000D03*
X590000Y2380000D03*
X695000D03*
X640000D03*
X750000D03*
X920000Y2355000D03*
X1035000Y2370000D03*
X1137500Y2406250D03*
X1068750D03*
X1175000Y2368750D03*
X1285000Y2370000D03*
X1406250Y2368750D03*
X1700000Y2410000D03*
X590000Y2490000D03*
X920000Y2475000D03*
X1285000Y2490000D03*
X590000Y2605000D03*
X920000Y2590000D03*
X1285000Y2610000D03*
X1700000Y2580000D03*
X590000Y2705000D03*
X720000D03*
X845000D03*
X980000D03*
X1145000D03*
X1285000Y2710000D03*
X1395000D03*
X1520000D03*
X1700000D03*
%LPD*%
G75*
X1700000Y2710000D02*
G36*
X1110000Y3117500D02*
Y3177500D01*
G02X1112500Y3180000I2500J0D01*
G01X1177500D01*
G02X1180000Y3177500I0J-2500D01*
G01Y3117500D01*
G02X1177500Y3115000I-2500J0D01*
G01X1112500D01*
G02X1110000Y3117500I0J2500D01*
G37*
G36*
Y3192500D02*
G01Y3272500D01*
G02X1112500Y3275000I2500J0D01*
G01X1187500D01*
G02X1190000Y3272500I0J-2500D01*
G01Y3192500D01*
G02X1187500Y3190000I-2500J0D01*
G01X1112500D01*
G02X1110000Y3192500I0J2500D01*
G37*
G54D10*
X973500Y3431250D02*
G01X1098500D01*
Y3368750D01*
X973500D01*
Y3431250D01*
X1037500Y3525000D02*
Y3650000D01*
X1100000D01*
Y3525000D01*
X1037500D01*
X1106250D02*
Y3650000D01*
X1168750D01*
Y3525000D01*
X1106250D01*
X1312500Y3606250D02*
X1437500D01*
Y3543750D01*
X1312500D01*
Y3606250D01*
X961250Y3494500D02*
Y3369500D01*
X898750D01*
Y3494500D01*
X961250D01*
X1375000Y3468750D02*
X1250000D01*
Y3531250D01*
X1375000D01*
Y3468750D01*
X1306250D02*
Y3343750D01*
X1243750D01*
Y3468750D01*
X1306250D01*
G54D11*
X1323750Y3262500D03*
G54D10*
X1298750Y3077500D02*
X1538750D01*
Y3347500D01*
X1328750D01*
X1298750Y3317500D01*
Y3077500D01*
X575000Y3175000D02*
X725000D01*
G03X725000Y3287490I-6210J56245D01*
Y3287500D02*
G01X675000D01*
Y3512500D01*
X725000D01*
G03X725000Y3625000I-6600J56250D01*
G01X575000D01*
X882500Y3368750D02*
X757500D01*
Y3431250D01*
X882500D01*
Y3368750D01*
G54D12*
X1112500Y3470000D02*
X1232500D01*
Y3430000D01*
X1112500D01*
Y3470000D01*
X1032950Y3342500D02*
X1031590Y3346250D01*
X1028860Y3350000D01*
X1026130Y3351870D01*
X1020680D01*
X1017950Y3350000D01*
X1015220Y3346250D01*
X1013860Y3342500D01*
X1012500Y3336870D01*
Y3327500D01*
X1013860Y3321870D01*
X1015220Y3318120D01*
X1017950Y3314370D01*
X1020680Y3312500D01*
X1026130D01*
X1028860Y3314370D01*
X1031590Y3318120D01*
X1032950Y3321870D01*
X1045220Y3344370D02*
X1047950Y3346250D01*
X1052040Y3351870D01*
Y3312500D01*
X1051240Y3689200D02*
X1047490Y3687840D01*
X1043740Y3685110D01*
X1041870Y3682380D01*
Y3676930D01*
X1043740Y3674200D01*
X1047490Y3671470D01*
X1051240Y3670110D01*
X1056870Y3668750D01*
X1066240D01*
X1071870Y3670110D01*
X1075620Y3671470D01*
X1079370Y3674200D01*
X1081240Y3676930D01*
Y3682380D01*
X1079370Y3685110D01*
X1075620Y3687840D01*
X1071870Y3689200D01*
X1051240Y3702840D02*
X1049370D01*
X1045620Y3704200D01*
X1043740Y3705560D01*
X1041870Y3708290D01*
Y3713750D01*
X1043740Y3716470D01*
X1045620Y3717840D01*
X1049370Y3719200D01*
X1053120D01*
X1056870Y3717840D01*
X1062490Y3715110D01*
X1081240Y3701470D01*
Y3720560D01*
X1126240Y3689200D02*
X1122490Y3687840D01*
X1118740Y3685110D01*
X1116870Y3682380D01*
Y3676930D01*
X1118740Y3674200D01*
X1122490Y3671470D01*
X1126240Y3670110D01*
X1131870Y3668750D01*
X1141240D01*
X1146870Y3670110D01*
X1150620Y3671470D01*
X1154370Y3674200D01*
X1156240Y3676930D01*
Y3682380D01*
X1154370Y3685110D01*
X1150620Y3687840D01*
X1146870Y3689200D01*
X1116870Y3704200D02*
Y3719200D01*
X1131870Y3711020D01*
Y3715110D01*
X1133740Y3717840D01*
X1135620Y3719200D01*
X1141240Y3720560D01*
X1144990D01*
X1150620Y3719200D01*
X1154370Y3716470D01*
X1156240Y3712380D01*
Y3708290D01*
X1154370Y3704200D01*
X1152490Y3702840D01*
X1148740Y3701470D01*
X1348450Y3649000D02*
X1347090Y3652750D01*
X1344360Y3656500D01*
X1341630Y3658370D01*
X1336180D01*
X1333450Y3656500D01*
X1330720Y3652750D01*
X1329360Y3649000D01*
X1328000Y3643370D01*
Y3634000D01*
X1329360Y3628370D01*
X1330720Y3624620D01*
X1333450Y3620870D01*
X1336180Y3619000D01*
X1341630D01*
X1344360Y3620870D01*
X1347090Y3624620D01*
X1348450Y3628370D01*
X1378450Y3658370D02*
X1364810D01*
X1363450Y3641500D01*
X1364810Y3643370D01*
X1368900Y3645250D01*
X1373000D01*
X1377090Y3643370D01*
X1379810Y3639620D01*
X1381180Y3634000D01*
X1379810Y3630250D01*
X1378450Y3624620D01*
X1375720Y3620870D01*
X1371630Y3619000D01*
X1367540D01*
X1363450Y3620870D01*
X1362090Y3622750D01*
X1360720Y3626500D01*
X911620Y3313000D02*
X951000D01*
X911620D02*
Y3325270D01*
X913500Y3329360D01*
X915370Y3330720D01*
X919120Y3332090D01*
X922870D01*
X926620Y3330720D01*
X928500Y3329360D01*
X930370Y3325270D01*
Y3313000D01*
Y3322540D02*
X951000Y3332090D01*
X919120Y3344360D02*
X917250Y3347090D01*
X911620Y3351180D01*
X951000D01*
X1393750Y3520620D02*
Y3481250D01*
Y3520620D02*
X1406020D01*
X1410110Y3518750D01*
X1411470Y3516870D01*
X1412840Y3513120D01*
Y3509370D01*
X1411470Y3505620D01*
X1410110Y3503750D01*
X1406020Y3501870D01*
X1393750D01*
X1403290D02*
X1412840Y3481250D01*
X1426470Y3511250D02*
Y3513120D01*
X1427840Y3516870D01*
X1429200Y3518750D01*
X1431930Y3520620D01*
X1437380D01*
X1440110Y3518750D01*
X1441470Y3516870D01*
X1442840Y3513120D01*
Y3509370D01*
X1441470Y3505620D01*
X1438750Y3500000D01*
X1425110Y3481250D01*
X1444200D01*
X1320620Y3365000D02*
X1360000D01*
X1320620D02*
Y3377270D01*
X1322500Y3381360D01*
X1324370Y3382720D01*
X1328120Y3384090D01*
X1331870D01*
X1335620Y3382720D01*
X1337500Y3381360D01*
X1339370Y3377270D01*
Y3365000D01*
Y3374540D02*
X1360000Y3384090D01*
X1320620Y3399090D02*
Y3414090D01*
X1335620Y3405900D01*
Y3410000D01*
X1337500Y3412720D01*
X1339370Y3414090D01*
X1345000Y3415450D01*
X1348750D01*
X1354370Y3414090D01*
X1358120Y3411360D01*
X1360000Y3407270D01*
Y3403180D01*
X1358120Y3399090D01*
X1356250Y3397720D01*
X1352500Y3396360D01*
X1434090Y3395750D02*
X1431360Y3399500D01*
X1427270Y3401370D01*
X1421810D01*
X1417720Y3399500D01*
X1415000Y3395750D01*
Y3392000D01*
X1416360Y3388250D01*
X1417720Y3386370D01*
X1420450Y3384500D01*
X1428630Y3380750D01*
X1431360Y3378870D01*
X1432720Y3377000D01*
X1434090Y3373250D01*
Y3367620D01*
X1431360Y3363870D01*
X1427270Y3362000D01*
X1421810D01*
X1417720Y3363870D01*
X1415000Y3367620D01*
X1446360Y3401370D02*
X1453180Y3362000D01*
X1460000Y3401370D02*
X1453180Y3362000D01*
X1460000Y3401370D02*
X1466810Y3362000D01*
X1473630Y3401370D02*
X1466810Y3362000D01*
X1485900Y3393870D02*
X1488630Y3395750D01*
X1492720Y3401370D01*
Y3362000D01*
X1055000Y3483370D02*
Y3455250D01*
X1056360Y3449620D01*
X1059090Y3445870D01*
X1063180Y3444000D01*
X1065900D01*
X1070000Y3445870D01*
X1072720Y3449620D01*
X1074090Y3455250D01*
Y3483370D01*
X1086360Y3475870D02*
X1089090Y3477750D01*
X1093180Y3483370D01*
Y3444000D01*
X649530Y3753670D02*
Y3723670D01*
X648170Y3718050D01*
X646800Y3716170D01*
X644080Y3714300D01*
X641350D01*
X638620Y3716170D01*
X637260Y3718050D01*
X635890Y3723670D01*
Y3727420D01*
X661800Y3746170D02*
X664530Y3748050D01*
X668620Y3753670D01*
Y3714300D01*
X795000Y3479370D02*
Y3439990D01*
Y3479370D02*
X807270D01*
X811360Y3477490D01*
X812720Y3475620D01*
X814090Y3471870D01*
Y3468120D01*
X812720Y3464370D01*
X811360Y3462490D01*
X807270Y3460620D01*
X795000D01*
X804540D02*
X814090Y3439990D01*
X840000Y3479370D02*
X826360Y3453120D01*
X846810D01*
X840000Y3479370D02*
Y3439990D01*
X1559090Y3663750D02*
X1556360Y3667500D01*
X1552270Y3669370D01*
X1546810D01*
X1542720Y3667500D01*
X1540000Y3663750D01*
Y3660000D01*
X1541360Y3656250D01*
X1542720Y3654370D01*
X1545450Y3652500D01*
X1553630Y3648750D01*
X1556360Y3646870D01*
X1557720Y3645000D01*
X1559090Y3641250D01*
Y3635620D01*
X1556360Y3631870D01*
X1552270Y3630000D01*
X1546810D01*
X1542720Y3631870D01*
X1540000Y3635620D01*
X1571360Y3669370D02*
Y3630000D01*
X1590450Y3669370D02*
Y3630000D01*
X1571360Y3650620D02*
X1590450D01*
X1602720Y3669370D02*
Y3630000D01*
Y3669370D02*
X1612270D01*
X1616360Y3667500D01*
X1619090Y3663750D01*
X1620450Y3660000D01*
X1621810Y3654370D01*
Y3645000D01*
X1620450Y3639370D01*
X1619090Y3635620D01*
X1616360Y3631870D01*
X1612270Y3630000D01*
X1602720D01*
X1634090Y3669370D02*
Y3630000D01*
Y3669370D02*
X1653180Y3630000D01*
Y3669370D02*
Y3630000D01*
X950000Y3924370D02*
X960900Y3885000D01*
X971810Y3924370D02*
X960900Y3885000D01*
X1004540Y3915000D02*
X1003180Y3918750D01*
X1000450Y3922500D01*
X997720Y3924370D01*
X992270D01*
X989540Y3922500D01*
X986810Y3918750D01*
X985450Y3915000D01*
X984090Y3909370D01*
Y3900000D01*
X985450Y3894370D01*
X986810Y3890620D01*
X989540Y3886870D01*
X992270Y3885000D01*
X997720D01*
X1000450Y3886870D01*
X1003180Y3890620D01*
X1004540Y3894370D01*
X1037270Y3915000D02*
X1035900Y3918750D01*
X1033180Y3922500D01*
X1030450Y3924370D01*
X1025000D01*
X1022270Y3922500D01*
X1019540Y3918750D01*
X1018180Y3915000D01*
X1016810Y3909370D01*
Y3900000D01*
X1018180Y3894370D01*
X1019540Y3890620D01*
X1022270Y3886870D01*
X1025000Y3885000D01*
X1030450D01*
X1033180Y3886870D01*
X1035900Y3890620D01*
X1037270Y3894370D01*
X1515000Y3929370D02*
Y3890000D01*
Y3929370D02*
X1524540D01*
X1528630Y3927500D01*
X1531360Y3923750D01*
X1532720Y3920000D01*
X1534090Y3914370D01*
Y3905000D01*
X1532720Y3899370D01*
X1531360Y3895620D01*
X1528630Y3891870D01*
X1524540Y3890000D01*
X1515000D01*
X1546360Y3905000D02*
X1562720D01*
Y3908750D01*
X1561360Y3912500D01*
X1560000Y3914370D01*
X1557270Y3916250D01*
X1553180D01*
X1550450Y3914370D01*
X1547720Y3910620D01*
X1546360Y3905000D01*
Y3901250D01*
X1547720Y3895620D01*
X1550450Y3891870D01*
X1553180Y3890000D01*
X1557270D01*
X1560000Y3891870D01*
X1562720Y3895620D01*
X1579090Y3929370D02*
Y3897500D01*
X1580450Y3891870D01*
X1583180Y3890000D01*
X1585900D01*
X1575000Y3916250D02*
X1584540D01*
X1598180Y3905000D02*
X1614540D01*
Y3908750D01*
X1613180Y3912500D01*
X1611810Y3914370D01*
X1609090Y3916250D01*
X1605000D01*
X1602270Y3914370D01*
X1599540Y3910620D01*
X1598180Y3905000D01*
Y3901250D01*
X1599540Y3895620D01*
X1602270Y3891870D01*
X1605000Y3890000D01*
X1609090D01*
X1611810Y3891870D01*
X1614540Y3895620D01*
X1643180Y3910620D02*
X1640450Y3914370D01*
X1637720Y3916250D01*
X1633630D01*
X1630900Y3914370D01*
X1628180Y3910620D01*
X1626810Y3905000D01*
Y3901250D01*
X1628180Y3895620D01*
X1630900Y3891870D01*
X1633630Y3890000D01*
X1637720D01*
X1640450Y3891870D01*
X1643180Y3895620D01*
X1659540Y3929370D02*
Y3897500D01*
X1660900Y3891870D01*
X1663630Y3890000D01*
X1666360D01*
X1655450Y3916250D02*
X1665000D01*
X1685450D02*
X1682720Y3914370D01*
X1680000Y3910620D01*
X1678630Y3905000D01*
Y3901250D01*
X1680000Y3895620D01*
X1682720Y3891870D01*
X1685450Y3890000D01*
X1689540D01*
X1692270Y3891870D01*
X1695000Y3895620D01*
X1696360Y3901250D01*
Y3905000D01*
X1695000Y3910620D01*
X1692270Y3914370D01*
X1689540Y3916250D01*
X1685450D01*
X1708630D02*
Y3890000D01*
Y3905000D02*
X1710000Y3910620D01*
X1712720Y3914370D01*
X1715450Y3916250D01*
X1719540D01*
X1556000Y3876370D02*
X1566900Y3837000D01*
X1577810Y3876370D02*
X1566900Y3837000D01*
X1596900Y3863250D02*
X1594180Y3861370D01*
X1591450Y3857620D01*
X1590090Y3852000D01*
Y3848250D01*
X1591450Y3842620D01*
X1594180Y3838870D01*
X1596900Y3837000D01*
X1601000D01*
X1603720Y3838870D01*
X1606450Y3842620D01*
X1607810Y3848250D01*
Y3852000D01*
X1606450Y3857620D01*
X1603720Y3861370D01*
X1601000Y3863250D01*
X1596900D01*
X1620090D02*
Y3844500D01*
X1621450Y3838870D01*
X1624180Y3837000D01*
X1628270D01*
X1631000Y3838870D01*
X1635090Y3844500D01*
Y3863250D02*
Y3837000D01*
X1651450Y3876370D02*
Y3844500D01*
X1652810Y3838870D01*
X1655540Y3837000D01*
X1658270D01*
X1647360Y3863250D02*
X1656900D01*
X630450Y3915000D02*
X629090Y3918750D01*
X626360Y3922500D01*
X623630Y3924370D01*
X618180D01*
X615450Y3922500D01*
X612720Y3918750D01*
X611360Y3915000D01*
X610000Y3909370D01*
Y3900000D01*
X611360Y3894370D01*
X612720Y3890620D01*
X615450Y3886870D01*
X618180Y3885000D01*
X623630D01*
X626360Y3886870D01*
X629090Y3890620D01*
X630450Y3894370D01*
Y3900000D01*
X623630D02*
X630450D01*
X642720Y3924370D02*
Y3885000D01*
Y3924370D02*
X661810Y3885000D01*
Y3924370D02*
Y3885000D01*
X674090Y3924370D02*
Y3885000D01*
Y3924370D02*
X683630D01*
X687720Y3922500D01*
X690450Y3918750D01*
X691810Y3915000D01*
X693180Y3909370D01*
Y3900000D01*
X691810Y3894370D01*
X690450Y3890620D01*
X687720Y3886870D01*
X683630Y3885000D01*
X674090D01*
X630000Y3700370D02*
Y3661000D01*
Y3700370D02*
X642270D01*
X646360Y3698500D01*
X647720Y3696620D01*
X649090Y3692870D01*
Y3689120D01*
X647720Y3685370D01*
X646360Y3683500D01*
X642270Y3681620D01*
X630000D01*
X639540D02*
X649090Y3661000D01*
X661360Y3700370D02*
Y3661000D01*
Y3700370D02*
X679090D01*
X661360Y3681620D02*
X672270D01*
X691360Y3700370D02*
X692720Y3698500D01*
X694090Y3700370D01*
X692720Y3702250D01*
X691360Y3700370D01*
X692720Y3687250D02*
Y3661000D01*
X706360Y3687250D02*
Y3661000D01*
Y3679750D02*
X710450Y3685370D01*
X713180Y3687250D01*
X717270D01*
X720000Y3685370D01*
X721360Y3679750D01*
Y3661000D01*
X825000Y3257500D02*
Y3205000D01*
Y3257500D02*
X837720D01*
X843180Y3255000D01*
X846810Y3250000D01*
X848630Y3245000D01*
X850450Y3237500D01*
Y3225000D01*
X848630Y3217500D01*
X846810Y3212500D01*
X843180Y3207500D01*
X837720Y3205000D01*
X825000D01*
X894090Y3245000D02*
X892270Y3250000D01*
X888630Y3255000D01*
X885000Y3257500D01*
X877720D01*
X874090Y3255000D01*
X870450Y3250000D01*
X868630Y3245000D01*
X866810Y3237500D01*
Y3225000D01*
X868630Y3217500D01*
X870450Y3212500D01*
X874090Y3207500D01*
X877720Y3205000D01*
X885000D01*
X888630Y3207500D01*
X892270Y3212500D01*
X894090Y3217500D01*
X914090Y3257500D02*
X934090D01*
X923180Y3237500D01*
X928630D01*
X932270Y3235000D01*
X934090Y3232500D01*
X935900Y3225000D01*
Y3220000D01*
X934090Y3212500D01*
X930450Y3207500D01*
X925000Y3205000D01*
X919540D01*
X914090Y3207500D01*
X912270Y3210000D01*
X910450Y3215000D01*
X975900Y3240000D02*
X974090Y3232500D01*
X970450Y3227500D01*
X965000Y3225000D01*
X963180D01*
X957720Y3227500D01*
X954090Y3232500D01*
X952270Y3240000D01*
Y3242500D01*
X954090Y3250000D01*
X957720Y3255000D01*
X963180Y3257500D01*
X965000D01*
X970450Y3255000D01*
X974090Y3250000D01*
X975900Y3240000D01*
Y3227500D01*
X974090Y3215000D01*
X970450Y3207500D01*
X965000Y3205000D01*
X961360D01*
X955900Y3207500D01*
X954090Y3212500D01*
X992270Y3247500D02*
X995900Y3250000D01*
X1001360Y3257500D01*
Y3205000D01*
X1032270Y3257500D02*
X1017720Y3205000D01*
X1032270Y3257500D02*
X1046810Y3205000D01*
X1023180Y3222500D02*
X1041360D01*
X1063180Y3227500D02*
X1095900D01*
X845000Y3169370D02*
Y3130000D01*
X861360D01*
X883180Y3169370D02*
Y3130000D01*
X873630Y3169370D02*
X892720D01*
X925450Y3160000D02*
X924090Y3163750D01*
X921360Y3167500D01*
X918630Y3169370D01*
X913180D01*
X910450Y3167500D01*
X907720Y3163750D01*
X906360Y3160000D01*
X905000Y3154370D01*
Y3145000D01*
X906360Y3139370D01*
X907720Y3135620D01*
X910450Y3131870D01*
X913180Y3130000D01*
X918630D01*
X921360Y3131870D01*
X924090Y3135620D01*
X925450Y3139370D01*
X955450Y3169370D02*
X941810D01*
X940450Y3152500D01*
X941810Y3154370D01*
X945900Y3156250D01*
X950000D01*
X954090Y3154370D01*
X956810Y3150620D01*
X958180Y3145000D01*
X956810Y3141250D01*
X955450Y3135620D01*
X952720Y3131870D01*
X948630Y3130000D01*
X944540D01*
X940450Y3131870D01*
X939090Y3133750D01*
X937720Y3137500D01*
X988180Y3169370D02*
X974540D01*
X973180Y3152500D01*
X974540Y3154370D01*
X978630Y3156250D01*
X982720D01*
X986810Y3154370D01*
X989540Y3150620D01*
X990900Y3145000D01*
X989540Y3141250D01*
X988180Y3135620D01*
X985450Y3131870D01*
X981360Y3130000D01*
X977270D01*
X973180Y3131870D01*
X971810Y3133750D01*
X970450Y3137500D01*
X1011360Y3169370D02*
X1007270Y3167500D01*
X1004540Y3161870D01*
X1003180Y3152500D01*
Y3146870D01*
X1004540Y3137500D01*
X1007270Y3131870D01*
X1011360Y3130000D01*
X1014090D01*
X1018180Y3131870D01*
X1020900Y3137500D01*
X1022270Y3146870D01*
Y3152500D01*
X1020900Y3161870D01*
X1018180Y3167500D01*
X1014090Y3169370D01*
X1011360D01*
X1052270D02*
X1038630D01*
X1037270Y3152500D01*
X1038630Y3154370D01*
X1042720Y3156250D01*
X1046810D01*
X1050900Y3154370D01*
X1053630Y3150620D01*
X1055000Y3145000D01*
X1053630Y3141250D01*
X1052270Y3135620D01*
X1049540Y3131870D01*
X1045450Y3130000D01*
X1041360D01*
X1037270Y3131870D01*
X1035900Y3133750D01*
X1034540Y3137500D01*
X1067270Y3146870D02*
X1091810D01*
X682000Y3095370D02*
Y3056000D01*
Y3095370D02*
X694270D01*
X698360Y3093500D01*
X699720Y3091620D01*
X701090Y3087870D01*
Y3084120D01*
X699720Y3080370D01*
X698360Y3078500D01*
X694270Y3076620D01*
X682000D01*
X691540D02*
X701090Y3056000D01*
X713360Y3095370D02*
Y3056000D01*
Y3095370D02*
X731090D01*
X713360Y3076620D02*
X724270D01*
X767900Y3095370D02*
Y3056000D01*
Y3095370D02*
X780180D01*
X784270Y3093500D01*
X785630Y3091620D01*
X787000Y3087870D01*
Y3082250D01*
X785630Y3078500D01*
X784270Y3076620D01*
X780180Y3074750D01*
X767900D01*
X807450Y3095370D02*
X804720Y3093500D01*
X802000Y3089750D01*
X800630Y3086000D01*
X799270Y3080370D01*
Y3071000D01*
X800630Y3065370D01*
X802000Y3061620D01*
X804720Y3057870D01*
X807450Y3056000D01*
X812900D01*
X815630Y3057870D01*
X818360Y3061620D01*
X819720Y3065370D01*
X821090Y3071000D01*
Y3080370D01*
X819720Y3086000D01*
X818360Y3089750D01*
X815630Y3093500D01*
X812900Y3095370D01*
X807450D01*
X833360D02*
X840180Y3056000D01*
X847000Y3095370D02*
X840180Y3056000D01*
X847000Y3095370D02*
X853810Y3056000D01*
X860630Y3095370D02*
X853810Y3056000D01*
X872900Y3095370D02*
Y3056000D01*
Y3095370D02*
X890630D01*
X872900Y3076620D02*
X883810D01*
X872900Y3056000D02*
X890630D01*
X902900Y3095370D02*
Y3056000D01*
Y3095370D02*
X915180D01*
X919270Y3093500D01*
X920630Y3091620D01*
X922000Y3087870D01*
Y3084120D01*
X920630Y3080370D01*
X919270Y3078500D01*
X915180Y3076620D01*
X902900D01*
X912450D02*
X922000Y3056000D01*
X958810Y3095370D02*
Y3056000D01*
Y3095370D02*
X968360D01*
X972450Y3093500D01*
X975180Y3089750D01*
X976540Y3086000D01*
X977900Y3080370D01*
Y3071000D01*
X976540Y3065370D01*
X975180Y3061620D01*
X972450Y3057870D01*
X968360Y3056000D01*
X958810D01*
X990180Y3095370D02*
Y3056000D01*
Y3095370D02*
X1007900D01*
X990180Y3076620D02*
X1001090D01*
X990180Y3056000D02*
X1007900D01*
X1029720Y3095370D02*
Y3056000D01*
X1020180Y3095370D02*
X1039270D01*
X1051540D02*
Y3056000D01*
Y3095370D02*
X1069270D01*
X1051540Y3076620D02*
X1062450D01*
X1051540Y3056000D02*
X1069270D01*
X1102000Y3086000D02*
X1100630Y3089750D01*
X1097900Y3093500D01*
X1095180Y3095370D01*
X1089720D01*
X1087000Y3093500D01*
X1084270Y3089750D01*
X1082900Y3086000D01*
X1081540Y3080370D01*
Y3071000D01*
X1082900Y3065370D01*
X1084270Y3061620D01*
X1087000Y3057870D01*
X1089720Y3056000D01*
X1095180D01*
X1097900Y3057870D01*
X1100630Y3061620D01*
X1102000Y3065370D01*
X1123810Y3095370D02*
Y3056000D01*
X1114270Y3095370D02*
X1133360D01*
X1153810D02*
X1151090Y3093500D01*
X1148360Y3089750D01*
X1147000Y3086000D01*
X1145630Y3080370D01*
Y3071000D01*
X1147000Y3065370D01*
X1148360Y3061620D01*
X1151090Y3057870D01*
X1153810Y3056000D01*
X1159270D01*
X1162000Y3057870D01*
X1164720Y3061620D01*
X1166090Y3065370D01*
X1167450Y3071000D01*
Y3080370D01*
X1166090Y3086000D01*
X1164720Y3089750D01*
X1162000Y3093500D01*
X1159270Y3095370D01*
X1153810D01*
X1179720D02*
Y3056000D01*
Y3095370D02*
X1192000D01*
X1196090Y3093500D01*
X1197450Y3091620D01*
X1198810Y3087870D01*
Y3084120D01*
X1197450Y3080370D01*
X1196090Y3078500D01*
X1192000Y3076620D01*
X1179720D01*
X1189270D02*
X1198810Y3056000D01*
G54D13*
X980000Y3849370D02*
Y3810000D01*
Y3849370D02*
X997720D01*
X980000Y3830620D02*
X990900D01*
X980000Y3810000D02*
X997720D01*
X1010000Y3841870D02*
X1012720Y3843750D01*
X1016810Y3849370D01*
Y3810000D01*
X1510000Y3809370D02*
Y3770000D01*
Y3809370D02*
X1527720D01*
X1510000Y3790620D02*
X1520900D01*
X1510000Y3770000D02*
X1527720D01*
X1541360Y3800000D02*
Y3801870D01*
X1542720Y3805620D01*
X1544090Y3807500D01*
X1546810Y3809370D01*
X1552270D01*
X1555000Y3807500D01*
X1556360Y3805620D01*
X1557720Y3801870D01*
Y3798120D01*
X1556360Y3794370D01*
X1553630Y3788750D01*
X1540000Y3770000D01*
X1559090D01*
X635000Y3849370D02*
Y3810000D01*
Y3849370D02*
X652720D01*
X635000Y3830620D02*
X645900D01*
X635000Y3810000D02*
X652720D01*
X667720Y3849370D02*
X682720D01*
X674540Y3834370D01*
X678630D01*
X681360Y3832500D01*
X682720Y3830620D01*
X684090Y3825000D01*
Y3821250D01*
X682720Y3815620D01*
X680000Y3811870D01*
X675900Y3810000D01*
X671810D01*
X667720Y3811870D01*
X666360Y3813750D01*
X665000Y3817500D01*
X1585000Y3474370D02*
Y3435000D01*
Y3474370D02*
X1602720D01*
X1585000Y3455620D02*
X1595900D01*
X1585000Y3435000D02*
X1602720D01*
X1628630Y3474370D02*
X1615000Y3448120D01*
X1635450D01*
X1628630Y3474370D02*
Y3435000D01*
%LPC*%
G75*
X1628630Y3435000D02*
G54D14*
X1135500Y3400000D03*
X1172500D03*
X1209500D03*
Y3500000D03*
X1135500D03*
G54D15*
X1248750Y3262500D03*
Y3162500D03*
X1588750D03*
Y3262500D03*
G54D16*
X1004000Y3400000D03*
X1068000D03*
X1068750Y3555500D03*
Y3619500D03*
X1137500Y3555500D03*
Y3619500D03*
X1343000Y3575000D03*
X1407000D03*
X930000Y3464000D03*
Y3400000D03*
X1344500Y3500000D03*
X1280500D03*
X1275000Y3438250D03*
Y3374250D03*
X852000Y3400000D03*
X788000D03*
G54D17*
X637000D03*
G36*
X515750Y3260564D02*
X516813Y3261769D01*
G02X550000Y3276750I33188J-29269D01*
G01X720000D01*
G02X720000Y3188250I0J-44250D01*
G01X550000D01*
G02X516813Y3203231I0J44250D01*
G01X515750Y3204436D01*
Y3260564D01*
G37*
G36*
Y3595564D02*
X516813Y3596769D01*
G02X550000Y3611750I33188J-29269D01*
G01X720000D01*
G02X720000Y3523250I0J-44250D01*
G01X550000D01*
G02X516813Y3538231I0J44250D01*
G01X515750Y3539436D01*
Y3595564D01*
G37*
G54D18*
X1100000Y3850000D03*
X1450000D03*
X750000D03*
X1600000Y3550000D03*
G54D19*
X590000Y3040000D03*
Y3090000D03*
X715000Y3040000D03*
X865000D03*
X1015000D03*
X1155000D03*
X1300000D03*
X1440000D03*
X1570000D03*
X1705000D03*
X587500Y3162500D03*
X637500D03*
X693750D03*
X743750D03*
X1675000D03*
X781250Y3193750D03*
X787500Y3237500D03*
X775000Y3275000D03*
X1675000Y3262500D03*
X637500Y3293750D03*
X587500D03*
X737500D03*
X687500D03*
X815000Y3295000D03*
X880000D03*
X1035000D03*
X960000D03*
X1100000Y3305000D03*
X1140000Y3345000D03*
X1700000Y3380000D03*
X1137500Y3450000D03*
X1209500Y3449000D03*
X1172500Y3435000D03*
X1331250Y3437500D03*
X1700000Y3485000D03*
X595000Y3510000D03*
X705000D03*
X650000D03*
X815000Y3505000D03*
X765000Y3520000D03*
X785000Y3565000D03*
X915000Y3505000D03*
X870000D03*
X945000D03*
X1000000D03*
X1055000D03*
X1293750Y3556250D03*
X1443750Y3575000D03*
X590000Y3630000D03*
X695000D03*
X640000D03*
X750000D03*
X920000Y3605000D03*
X1035000Y3620000D03*
X1137500Y3656250D03*
X1068750D03*
X1175000Y3618750D03*
X1285000Y3620000D03*
X1406250Y3618750D03*
X1700000Y3660000D03*
X590000Y3740000D03*
X920000Y3725000D03*
X1285000Y3740000D03*
X590000Y3855000D03*
X920000Y3840000D03*
X1285000Y3860000D03*
X1700000Y3830000D03*
X590000Y3955000D03*
X720000D03*
X845000D03*
X980000D03*
X1145000D03*
X1285000Y3960000D03*
X1395000D03*
X1520000D03*
X1700000D03*
%LPD*%
G75*
X1700000Y3960000D02*
G36*
X2860000Y617500D02*
Y677500D01*
G02X2862500Y680000I2500J0D01*
G01X2927500D01*
G02X2930000Y677500I0J-2500D01*
G01Y617500D01*
G02X2927500Y615000I-2500J0D01*
G01X2862500D01*
G02X2860000Y617500I0J2500D01*
G37*
G36*
Y692500D02*
G01Y772500D01*
G02X2862500Y775000I2500J0D01*
G01X2937500D01*
G02X2940000Y772500I0J-2500D01*
G01Y692500D01*
G02X2937500Y690000I-2500J0D01*
G01X2862500D01*
G02X2860000Y692500I0J2500D01*
G37*
G54D10*
X2723500Y931250D02*
G01X2848500D01*
Y868750D01*
X2723500D01*
Y931250D01*
X2787500Y1025000D02*
Y1150000D01*
X2850000D01*
Y1025000D01*
X2787500D01*
X2856250D02*
Y1150000D01*
X2918750D01*
Y1025000D01*
X2856250D01*
X3062500Y1106250D02*
X3187500D01*
Y1043750D01*
X3062500D01*
Y1106250D01*
X2711250Y994500D02*
Y869500D01*
X2648750D01*
Y994500D01*
X2711250D01*
X3125000Y968750D02*
X3000000D01*
Y1031250D01*
X3125000D01*
Y968750D01*
X3056250D02*
Y843750D01*
X2993750D01*
Y968750D01*
X3056250D01*
G54D11*
X3073750Y762500D03*
G54D10*
X3048750Y577500D02*
X3288750D01*
Y847500D01*
X3078750D01*
X3048750Y817500D01*
Y577500D01*
X2325000Y675000D02*
X2475000D01*
G03X2475000Y787490I-6210J56245D01*
Y787500D02*
G01X2425000D01*
Y1012500D01*
X2475000D01*
G03X2475000Y1125000I-6600J56250D01*
G01X2325000D01*
X2632500Y868750D02*
X2507500D01*
Y931250D01*
X2632500D01*
Y868750D01*
G54D12*
X2862500Y970000D02*
X2982500D01*
Y930000D01*
X2862500D01*
Y970000D01*
X2782950Y842500D02*
X2781590Y846250D01*
X2778860Y850000D01*
X2776130Y851870D01*
X2770680D01*
X2767950Y850000D01*
X2765220Y846250D01*
X2763860Y842500D01*
X2762500Y836870D01*
Y827500D01*
X2763860Y821870D01*
X2765220Y818120D01*
X2767950Y814370D01*
X2770680Y812500D01*
X2776130D01*
X2778860Y814370D01*
X2781590Y818120D01*
X2782950Y821870D01*
X2795220Y844370D02*
X2797950Y846250D01*
X2802040Y851870D01*
Y812500D01*
X2801240Y1189200D02*
X2797490Y1187840D01*
X2793740Y1185110D01*
X2791870Y1182380D01*
Y1176930D01*
X2793740Y1174200D01*
X2797490Y1171470D01*
X2801240Y1170110D01*
X2806870Y1168750D01*
X2816240D01*
X2821870Y1170110D01*
X2825620Y1171470D01*
X2829370Y1174200D01*
X2831240Y1176930D01*
Y1182380D01*
X2829370Y1185110D01*
X2825620Y1187840D01*
X2821870Y1189200D01*
X2801240Y1202840D02*
X2799370D01*
X2795620Y1204200D01*
X2793740Y1205560D01*
X2791870Y1208290D01*
Y1213750D01*
X2793740Y1216470D01*
X2795620Y1217840D01*
X2799370Y1219200D01*
X2803120D01*
X2806870Y1217840D01*
X2812490Y1215110D01*
X2831240Y1201470D01*
Y1220560D01*
X2876240Y1189200D02*
X2872490Y1187840D01*
X2868740Y1185110D01*
X2866870Y1182380D01*
Y1176930D01*
X2868740Y1174200D01*
X2872490Y1171470D01*
X2876240Y1170110D01*
X2881870Y1168750D01*
X2891240D01*
X2896870Y1170110D01*
X2900620Y1171470D01*
X2904370Y1174200D01*
X2906240Y1176930D01*
Y1182380D01*
X2904370Y1185110D01*
X2900620Y1187840D01*
X2896870Y1189200D01*
X2866870Y1204200D02*
Y1219200D01*
X2881870Y1211020D01*
Y1215110D01*
X2883740Y1217840D01*
X2885620Y1219200D01*
X2891240Y1220560D01*
X2894990D01*
X2900620Y1219200D01*
X2904370Y1216470D01*
X2906240Y1212380D01*
Y1208290D01*
X2904370Y1204200D01*
X2902490Y1202840D01*
X2898740Y1201470D01*
X3098450Y1149000D02*
X3097090Y1152750D01*
X3094360Y1156500D01*
X3091630Y1158370D01*
X3086180D01*
X3083450Y1156500D01*
X3080720Y1152750D01*
X3079360Y1149000D01*
X3078000Y1143370D01*
Y1134000D01*
X3079360Y1128370D01*
X3080720Y1124620D01*
X3083450Y1120870D01*
X3086180Y1119000D01*
X3091630D01*
X3094360Y1120870D01*
X3097090Y1124620D01*
X3098450Y1128370D01*
X3128450Y1158370D02*
X3114810D01*
X3113450Y1141500D01*
X3114810Y1143370D01*
X3118900Y1145250D01*
X3123000D01*
X3127090Y1143370D01*
X3129810Y1139620D01*
X3131180Y1134000D01*
X3129810Y1130250D01*
X3128450Y1124620D01*
X3125720Y1120870D01*
X3121630Y1119000D01*
X3117540D01*
X3113450Y1120870D01*
X3112090Y1122750D01*
X3110720Y1126500D01*
X2661620Y813000D02*
X2701000D01*
X2661620D02*
Y825270D01*
X2663500Y829360D01*
X2665370Y830720D01*
X2669120Y832090D01*
X2672870D01*
X2676620Y830720D01*
X2678500Y829360D01*
X2680370Y825270D01*
Y813000D01*
Y822540D02*
X2701000Y832090D01*
X2669120Y844360D02*
X2667250Y847090D01*
X2661620Y851180D01*
X2701000D01*
X3143750Y1020620D02*
Y981250D01*
Y1020620D02*
X3156020D01*
X3160110Y1018750D01*
X3161470Y1016870D01*
X3162840Y1013120D01*
Y1009370D01*
X3161470Y1005620D01*
X3160110Y1003750D01*
X3156020Y1001870D01*
X3143750D01*
X3153290D02*
X3162840Y981250D01*
X3176470Y1011250D02*
Y1013120D01*
X3177840Y1016870D01*
X3179200Y1018750D01*
X3181930Y1020620D01*
X3187380D01*
X3190110Y1018750D01*
X3191470Y1016870D01*
X3192840Y1013120D01*
Y1009370D01*
X3191470Y1005620D01*
X3188750Y1000000D01*
X3175110Y981250D01*
X3194200D01*
X3070620Y865000D02*
X3110000D01*
X3070620D02*
Y877270D01*
X3072500Y881360D01*
X3074370Y882720D01*
X3078120Y884090D01*
X3081870D01*
X3085620Y882720D01*
X3087500Y881360D01*
X3089370Y877270D01*
Y865000D01*
Y874540D02*
X3110000Y884090D01*
X3070620Y899090D02*
Y914090D01*
X3085620Y905900D01*
Y910000D01*
X3087500Y912720D01*
X3089370Y914090D01*
X3095000Y915450D01*
X3098750D01*
X3104370Y914090D01*
X3108120Y911360D01*
X3110000Y907270D01*
Y903180D01*
X3108120Y899090D01*
X3106250Y897720D01*
X3102500Y896360D01*
X3184090Y895750D02*
X3181360Y899500D01*
X3177270Y901370D01*
X3171810D01*
X3167720Y899500D01*
X3165000Y895750D01*
Y892000D01*
X3166360Y888250D01*
X3167720Y886370D01*
X3170450Y884500D01*
X3178630Y880750D01*
X3181360Y878870D01*
X3182720Y877000D01*
X3184090Y873250D01*
Y867620D01*
X3181360Y863870D01*
X3177270Y862000D01*
X3171810D01*
X3167720Y863870D01*
X3165000Y867620D01*
X3196360Y901370D02*
X3203180Y862000D01*
X3210000Y901370D02*
X3203180Y862000D01*
X3210000Y901370D02*
X3216810Y862000D01*
X3223630Y901370D02*
X3216810Y862000D01*
X3235900Y893870D02*
X3238630Y895750D01*
X3242720Y901370D01*
Y862000D01*
X2805000Y983370D02*
Y955250D01*
X2806360Y949620D01*
X2809090Y945870D01*
X2813180Y944000D01*
X2815900D01*
X2820000Y945870D01*
X2822720Y949620D01*
X2824090Y955250D01*
Y983370D01*
X2836360Y975870D02*
X2839090Y977750D01*
X2843180Y983370D01*
Y944000D01*
X2399530Y1253670D02*
Y1223670D01*
X2398170Y1218050D01*
X2396800Y1216170D01*
X2394080Y1214300D01*
X2391350D01*
X2388620Y1216170D01*
X2387260Y1218050D01*
X2385890Y1223670D01*
Y1227420D01*
X2411800Y1246170D02*
X2414530Y1248050D01*
X2418620Y1253670D01*
Y1214300D01*
X2545000Y979370D02*
Y939990D01*
Y979370D02*
X2557270D01*
X2561360Y977490D01*
X2562720Y975620D01*
X2564090Y971870D01*
Y968120D01*
X2562720Y964370D01*
X2561360Y962490D01*
X2557270Y960620D01*
X2545000D01*
X2554540D02*
X2564090Y939990D01*
X2590000Y979370D02*
X2576360Y953120D01*
X2596810D01*
X2590000Y979370D02*
Y939990D01*
X3309090Y1163750D02*
X3306360Y1167500D01*
X3302270Y1169370D01*
X3296810D01*
X3292720Y1167500D01*
X3290000Y1163750D01*
Y1160000D01*
X3291360Y1156250D01*
X3292720Y1154370D01*
X3295450Y1152500D01*
X3303630Y1148750D01*
X3306360Y1146870D01*
X3307720Y1145000D01*
X3309090Y1141250D01*
Y1135620D01*
X3306360Y1131870D01*
X3302270Y1130000D01*
X3296810D01*
X3292720Y1131870D01*
X3290000Y1135620D01*
X3321360Y1169370D02*
Y1130000D01*
X3340450Y1169370D02*
Y1130000D01*
X3321360Y1150620D02*
X3340450D01*
X3352720Y1169370D02*
Y1130000D01*
Y1169370D02*
X3362270D01*
X3366360Y1167500D01*
X3369090Y1163750D01*
X3370450Y1160000D01*
X3371810Y1154370D01*
Y1145000D01*
X3370450Y1139370D01*
X3369090Y1135620D01*
X3366360Y1131870D01*
X3362270Y1130000D01*
X3352720D01*
X3384090Y1169370D02*
Y1130000D01*
Y1169370D02*
X3403180Y1130000D01*
Y1169370D02*
Y1130000D01*
X2700000Y1424370D02*
X2710900Y1385000D01*
X2721810Y1424370D02*
X2710900Y1385000D01*
X2754540Y1415000D02*
X2753180Y1418750D01*
X2750450Y1422500D01*
X2747720Y1424370D01*
X2742270D01*
X2739540Y1422500D01*
X2736810Y1418750D01*
X2735450Y1415000D01*
X2734090Y1409370D01*
Y1400000D01*
X2735450Y1394370D01*
X2736810Y1390620D01*
X2739540Y1386870D01*
X2742270Y1385000D01*
X2747720D01*
X2750450Y1386870D01*
X2753180Y1390620D01*
X2754540Y1394370D01*
X2787270Y1415000D02*
X2785900Y1418750D01*
X2783180Y1422500D01*
X2780450Y1424370D01*
X2775000D01*
X2772270Y1422500D01*
X2769540Y1418750D01*
X2768180Y1415000D01*
X2766810Y1409370D01*
Y1400000D01*
X2768180Y1394370D01*
X2769540Y1390620D01*
X2772270Y1386870D01*
X2775000Y1385000D01*
X2780450D01*
X2783180Y1386870D01*
X2785900Y1390620D01*
X2787270Y1394370D01*
X3265000Y1429370D02*
Y1390000D01*
Y1429370D02*
X3274540D01*
X3278630Y1427500D01*
X3281360Y1423750D01*
X3282720Y1420000D01*
X3284090Y1414370D01*
Y1405000D01*
X3282720Y1399370D01*
X3281360Y1395620D01*
X3278630Y1391870D01*
X3274540Y1390000D01*
X3265000D01*
X3296360Y1405000D02*
X3312720D01*
Y1408750D01*
X3311360Y1412500D01*
X3310000Y1414370D01*
X3307270Y1416250D01*
X3303180D01*
X3300450Y1414370D01*
X3297720Y1410620D01*
X3296360Y1405000D01*
Y1401250D01*
X3297720Y1395620D01*
X3300450Y1391870D01*
X3303180Y1390000D01*
X3307270D01*
X3310000Y1391870D01*
X3312720Y1395620D01*
X3329090Y1429370D02*
Y1397500D01*
X3330450Y1391870D01*
X3333180Y1390000D01*
X3335900D01*
X3325000Y1416250D02*
X3334540D01*
X3348180Y1405000D02*
X3364540D01*
Y1408750D01*
X3363180Y1412500D01*
X3361810Y1414370D01*
X3359090Y1416250D01*
X3355000D01*
X3352270Y1414370D01*
X3349540Y1410620D01*
X3348180Y1405000D01*
Y1401250D01*
X3349540Y1395620D01*
X3352270Y1391870D01*
X3355000Y1390000D01*
X3359090D01*
X3361810Y1391870D01*
X3364540Y1395620D01*
X3393180Y1410620D02*
X3390450Y1414370D01*
X3387720Y1416250D01*
X3383630D01*
X3380900Y1414370D01*
X3378180Y1410620D01*
X3376810Y1405000D01*
Y1401250D01*
X3378180Y1395620D01*
X3380900Y1391870D01*
X3383630Y1390000D01*
X3387720D01*
X3390450Y1391870D01*
X3393180Y1395620D01*
X3409540Y1429370D02*
Y1397500D01*
X3410900Y1391870D01*
X3413630Y1390000D01*
X3416360D01*
X3405450Y1416250D02*
X3415000D01*
X3435450D02*
X3432720Y1414370D01*
X3430000Y1410620D01*
X3428630Y1405000D01*
Y1401250D01*
X3430000Y1395620D01*
X3432720Y1391870D01*
X3435450Y1390000D01*
X3439540D01*
X3442270Y1391870D01*
X3445000Y1395620D01*
X3446360Y1401250D01*
Y1405000D01*
X3445000Y1410620D01*
X3442270Y1414370D01*
X3439540Y1416250D01*
X3435450D01*
X3458630D02*
Y1390000D01*
Y1405000D02*
X3460000Y1410620D01*
X3462720Y1414370D01*
X3465450Y1416250D01*
X3469540D01*
X3306000Y1376370D02*
X3316900Y1337000D01*
X3327810Y1376370D02*
X3316900Y1337000D01*
X3346900Y1363250D02*
X3344180Y1361370D01*
X3341450Y1357620D01*
X3340090Y1352000D01*
Y1348250D01*
X3341450Y1342620D01*
X3344180Y1338870D01*
X3346900Y1337000D01*
X3351000D01*
X3353720Y1338870D01*
X3356450Y1342620D01*
X3357810Y1348250D01*
Y1352000D01*
X3356450Y1357620D01*
X3353720Y1361370D01*
X3351000Y1363250D01*
X3346900D01*
X3370090D02*
Y1344500D01*
X3371450Y1338870D01*
X3374180Y1337000D01*
X3378270D01*
X3381000Y1338870D01*
X3385090Y1344500D01*
Y1363250D02*
Y1337000D01*
X3401450Y1376370D02*
Y1344500D01*
X3402810Y1338870D01*
X3405540Y1337000D01*
X3408270D01*
X3397360Y1363250D02*
X3406900D01*
X2380450Y1415000D02*
X2379090Y1418750D01*
X2376360Y1422500D01*
X2373630Y1424370D01*
X2368180D01*
X2365450Y1422500D01*
X2362720Y1418750D01*
X2361360Y1415000D01*
X2360000Y1409370D01*
Y1400000D01*
X2361360Y1394370D01*
X2362720Y1390620D01*
X2365450Y1386870D01*
X2368180Y1385000D01*
X2373630D01*
X2376360Y1386870D01*
X2379090Y1390620D01*
X2380450Y1394370D01*
Y1400000D01*
X2373630D02*
X2380450D01*
X2392720Y1424370D02*
Y1385000D01*
Y1424370D02*
X2411810Y1385000D01*
Y1424370D02*
Y1385000D01*
X2424090Y1424370D02*
Y1385000D01*
Y1424370D02*
X2433630D01*
X2437720Y1422500D01*
X2440450Y1418750D01*
X2441810Y1415000D01*
X2443180Y1409370D01*
Y1400000D01*
X2441810Y1394370D01*
X2440450Y1390620D01*
X2437720Y1386870D01*
X2433630Y1385000D01*
X2424090D01*
X2380000Y1200370D02*
Y1161000D01*
Y1200370D02*
X2392270D01*
X2396360Y1198500D01*
X2397720Y1196620D01*
X2399090Y1192870D01*
Y1189120D01*
X2397720Y1185370D01*
X2396360Y1183500D01*
X2392270Y1181620D01*
X2380000D01*
X2389540D02*
X2399090Y1161000D01*
X2411360Y1200370D02*
Y1161000D01*
Y1200370D02*
X2429090D01*
X2411360Y1181620D02*
X2422270D01*
X2441360Y1200370D02*
X2442720Y1198500D01*
X2444090Y1200370D01*
X2442720Y1202250D01*
X2441360Y1200370D01*
X2442720Y1187250D02*
Y1161000D01*
X2456360Y1187250D02*
Y1161000D01*
Y1179750D02*
X2460450Y1185370D01*
X2463180Y1187250D01*
X2467270D01*
X2470000Y1185370D01*
X2471360Y1179750D01*
Y1161000D01*
X2575000Y757500D02*
Y705000D01*
Y757500D02*
X2587720D01*
X2593180Y755000D01*
X2596810Y750000D01*
X2598630Y745000D01*
X2600450Y737500D01*
Y725000D01*
X2598630Y717500D01*
X2596810Y712500D01*
X2593180Y707500D01*
X2587720Y705000D01*
X2575000D01*
X2644090Y745000D02*
X2642270Y750000D01*
X2638630Y755000D01*
X2635000Y757500D01*
X2627720D01*
X2624090Y755000D01*
X2620450Y750000D01*
X2618630Y745000D01*
X2616810Y737500D01*
Y725000D01*
X2618630Y717500D01*
X2620450Y712500D01*
X2624090Y707500D01*
X2627720Y705000D01*
X2635000D01*
X2638630Y707500D01*
X2642270Y712500D01*
X2644090Y717500D01*
X2664090Y757500D02*
X2684090D01*
X2673180Y737500D01*
X2678630D01*
X2682270Y735000D01*
X2684090Y732500D01*
X2685900Y725000D01*
Y720000D01*
X2684090Y712500D01*
X2680450Y707500D01*
X2675000Y705000D01*
X2669540D01*
X2664090Y707500D01*
X2662270Y710000D01*
X2660450Y715000D01*
X2725900Y740000D02*
X2724090Y732500D01*
X2720450Y727500D01*
X2715000Y725000D01*
X2713180D01*
X2707720Y727500D01*
X2704090Y732500D01*
X2702270Y740000D01*
Y742500D01*
X2704090Y750000D01*
X2707720Y755000D01*
X2713180Y757500D01*
X2715000D01*
X2720450Y755000D01*
X2724090Y750000D01*
X2725900Y740000D01*
Y727500D01*
X2724090Y715000D01*
X2720450Y707500D01*
X2715000Y705000D01*
X2711360D01*
X2705900Y707500D01*
X2704090Y712500D01*
X2742270Y747500D02*
X2745900Y750000D01*
X2751360Y757500D01*
Y705000D01*
X2782270Y757500D02*
X2767720Y705000D01*
X2782270Y757500D02*
X2796810Y705000D01*
X2773180Y722500D02*
X2791360D01*
X2813180Y727500D02*
X2845900D01*
X2595000Y669370D02*
Y630000D01*
X2611360D01*
X2633180Y669370D02*
Y630000D01*
X2623630Y669370D02*
X2642720D01*
X2675450Y660000D02*
X2674090Y663750D01*
X2671360Y667500D01*
X2668630Y669370D01*
X2663180D01*
X2660450Y667500D01*
X2657720Y663750D01*
X2656360Y660000D01*
X2655000Y654370D01*
Y645000D01*
X2656360Y639370D01*
X2657720Y635620D01*
X2660450Y631870D01*
X2663180Y630000D01*
X2668630D01*
X2671360Y631870D01*
X2674090Y635620D01*
X2675450Y639370D01*
X2705450Y669370D02*
X2691810D01*
X2690450Y652500D01*
X2691810Y654370D01*
X2695900Y656250D01*
X2700000D01*
X2704090Y654370D01*
X2706810Y650620D01*
X2708180Y645000D01*
X2706810Y641250D01*
X2705450Y635620D01*
X2702720Y631870D01*
X2698630Y630000D01*
X2694540D01*
X2690450Y631870D01*
X2689090Y633750D01*
X2687720Y637500D01*
X2738180Y669370D02*
X2724540D01*
X2723180Y652500D01*
X2724540Y654370D01*
X2728630Y656250D01*
X2732720D01*
X2736810Y654370D01*
X2739540Y650620D01*
X2740900Y645000D01*
X2739540Y641250D01*
X2738180Y635620D01*
X2735450Y631870D01*
X2731360Y630000D01*
X2727270D01*
X2723180Y631870D01*
X2721810Y633750D01*
X2720450Y637500D01*
X2761360Y669370D02*
X2757270Y667500D01*
X2754540Y661870D01*
X2753180Y652500D01*
Y646870D01*
X2754540Y637500D01*
X2757270Y631870D01*
X2761360Y630000D01*
X2764090D01*
X2768180Y631870D01*
X2770900Y637500D01*
X2772270Y646870D01*
Y652500D01*
X2770900Y661870D01*
X2768180Y667500D01*
X2764090Y669370D01*
X2761360D01*
X2802270D02*
X2788630D01*
X2787270Y652500D01*
X2788630Y654370D01*
X2792720Y656250D01*
X2796810D01*
X2800900Y654370D01*
X2803630Y650620D01*
X2805000Y645000D01*
X2803630Y641250D01*
X2802270Y635620D01*
X2799540Y631870D01*
X2795450Y630000D01*
X2791360D01*
X2787270Y631870D01*
X2785900Y633750D01*
X2784540Y637500D01*
X2817270Y646870D02*
X2841810D01*
X2432000Y595370D02*
Y556000D01*
Y595370D02*
X2444270D01*
X2448360Y593500D01*
X2449720Y591620D01*
X2451090Y587870D01*
Y584120D01*
X2449720Y580370D01*
X2448360Y578500D01*
X2444270Y576620D01*
X2432000D01*
X2441540D02*
X2451090Y556000D01*
X2463360Y595370D02*
Y556000D01*
Y595370D02*
X2481090D01*
X2463360Y576620D02*
X2474270D01*
X2517900Y595370D02*
Y556000D01*
Y595370D02*
X2530180D01*
X2534270Y593500D01*
X2535630Y591620D01*
X2537000Y587870D01*
Y582250D01*
X2535630Y578500D01*
X2534270Y576620D01*
X2530180Y574750D01*
X2517900D01*
X2557450Y595370D02*
X2554720Y593500D01*
X2552000Y589750D01*
X2550630Y586000D01*
X2549270Y580370D01*
Y571000D01*
X2550630Y565370D01*
X2552000Y561620D01*
X2554720Y557870D01*
X2557450Y556000D01*
X2562900D01*
X2565630Y557870D01*
X2568360Y561620D01*
X2569720Y565370D01*
X2571090Y571000D01*
Y580370D01*
X2569720Y586000D01*
X2568360Y589750D01*
X2565630Y593500D01*
X2562900Y595370D01*
X2557450D01*
X2583360D02*
X2590180Y556000D01*
X2597000Y595370D02*
X2590180Y556000D01*
X2597000Y595370D02*
X2603810Y556000D01*
X2610630Y595370D02*
X2603810Y556000D01*
X2622900Y595370D02*
Y556000D01*
Y595370D02*
X2640630D01*
X2622900Y576620D02*
X2633810D01*
X2622900Y556000D02*
X2640630D01*
X2652900Y595370D02*
Y556000D01*
Y595370D02*
X2665180D01*
X2669270Y593500D01*
X2670630Y591620D01*
X2672000Y587870D01*
Y584120D01*
X2670630Y580370D01*
X2669270Y578500D01*
X2665180Y576620D01*
X2652900D01*
X2662450D02*
X2672000Y556000D01*
X2708810Y595370D02*
Y556000D01*
Y595370D02*
X2718360D01*
X2722450Y593500D01*
X2725180Y589750D01*
X2726540Y586000D01*
X2727900Y580370D01*
Y571000D01*
X2726540Y565370D01*
X2725180Y561620D01*
X2722450Y557870D01*
X2718360Y556000D01*
X2708810D01*
X2740180Y595370D02*
Y556000D01*
Y595370D02*
X2757900D01*
X2740180Y576620D02*
X2751090D01*
X2740180Y556000D02*
X2757900D01*
X2779720Y595370D02*
Y556000D01*
X2770180Y595370D02*
X2789270D01*
X2801540D02*
Y556000D01*
Y595370D02*
X2819270D01*
X2801540Y576620D02*
X2812450D01*
X2801540Y556000D02*
X2819270D01*
X2852000Y586000D02*
X2850630Y589750D01*
X2847900Y593500D01*
X2845180Y595370D01*
X2839720D01*
X2837000Y593500D01*
X2834270Y589750D01*
X2832900Y586000D01*
X2831540Y580370D01*
Y571000D01*
X2832900Y565370D01*
X2834270Y561620D01*
X2837000Y557870D01*
X2839720Y556000D01*
X2845180D01*
X2847900Y557870D01*
X2850630Y561620D01*
X2852000Y565370D01*
X2873810Y595370D02*
Y556000D01*
X2864270Y595370D02*
X2883360D01*
X2903810D02*
X2901090Y593500D01*
X2898360Y589750D01*
X2897000Y586000D01*
X2895630Y580370D01*
Y571000D01*
X2897000Y565370D01*
X2898360Y561620D01*
X2901090Y557870D01*
X2903810Y556000D01*
X2909270D01*
X2912000Y557870D01*
X2914720Y561620D01*
X2916090Y565370D01*
X2917450Y571000D01*
Y580370D01*
X2916090Y586000D01*
X2914720Y589750D01*
X2912000Y593500D01*
X2909270Y595370D01*
X2903810D01*
X2929720D02*
Y556000D01*
Y595370D02*
X2942000D01*
X2946090Y593500D01*
X2947450Y591620D01*
X2948810Y587870D01*
Y584120D01*
X2947450Y580370D01*
X2946090Y578500D01*
X2942000Y576620D01*
X2929720D01*
X2939270D02*
X2948810Y556000D01*
G54D13*
X2730000Y1349370D02*
Y1310000D01*
Y1349370D02*
X2747720D01*
X2730000Y1330620D02*
X2740900D01*
X2730000Y1310000D02*
X2747720D01*
X2760000Y1341870D02*
X2762720Y1343750D01*
X2766810Y1349370D01*
Y1310000D01*
X3260000Y1309370D02*
Y1270000D01*
Y1309370D02*
X3277720D01*
X3260000Y1290620D02*
X3270900D01*
X3260000Y1270000D02*
X3277720D01*
X3291360Y1300000D02*
Y1301870D01*
X3292720Y1305620D01*
X3294090Y1307500D01*
X3296810Y1309370D01*
X3302270D01*
X3305000Y1307500D01*
X3306360Y1305620D01*
X3307720Y1301870D01*
Y1298120D01*
X3306360Y1294370D01*
X3303630Y1288750D01*
X3290000Y1270000D01*
X3309090D01*
X2385000Y1349370D02*
Y1310000D01*
Y1349370D02*
X2402720D01*
X2385000Y1330620D02*
X2395900D01*
X2385000Y1310000D02*
X2402720D01*
X2417720Y1349370D02*
X2432720D01*
X2424540Y1334370D01*
X2428630D01*
X2431360Y1332500D01*
X2432720Y1330620D01*
X2434090Y1325000D01*
Y1321250D01*
X2432720Y1315620D01*
X2430000Y1311870D01*
X2425900Y1310000D01*
X2421810D01*
X2417720Y1311870D01*
X2416360Y1313750D01*
X2415000Y1317500D01*
X3335000Y974370D02*
Y935000D01*
Y974370D02*
X3352720D01*
X3335000Y955620D02*
X3345900D01*
X3335000Y935000D02*
X3352720D01*
X3378630Y974370D02*
X3365000Y948120D01*
X3385450D01*
X3378630Y974370D02*
Y935000D01*
%LPC*%
G75*
X3378630Y935000D02*
G54D14*
X2885500Y900000D03*
X2922500D03*
X2959500D03*
Y1000000D03*
X2885500D03*
G54D15*
X2998750Y762500D03*
Y662500D03*
X3338750D03*
Y762500D03*
G54D16*
X2754000Y900000D03*
X2818000D03*
X2818750Y1055500D03*
Y1119500D03*
X2887500Y1055500D03*
Y1119500D03*
X3093000Y1075000D03*
X3157000D03*
X2680000Y964000D03*
Y900000D03*
X3094500Y1000000D03*
X3030500D03*
X3025000Y938250D03*
Y874250D03*
X2602000Y900000D03*
X2538000D03*
G54D17*
X2387000D03*
G36*
X2265750Y760564D02*
X2266813Y761769D01*
G02X2300000Y776750I33188J-29269D01*
G01X2470000D01*
G02X2470000Y688250I0J-44250D01*
G01X2300000D01*
G02X2266813Y703231I0J44250D01*
G01X2265750Y704436D01*
Y760564D01*
G37*
G36*
Y1095564D02*
X2266813Y1096769D01*
G02X2300000Y1111750I33188J-29269D01*
G01X2470000D01*
G02X2470000Y1023250I0J-44250D01*
G01X2300000D01*
G02X2266813Y1038231I0J44250D01*
G01X2265750Y1039436D01*
Y1095564D01*
G37*
G54D18*
X2850000Y1350000D03*
X3200000D03*
X2500000D03*
X3350000Y1050000D03*
G54D19*
X2340000Y540000D03*
Y590000D03*
X2465000Y540000D03*
X2615000D03*
X2765000D03*
X2905000D03*
X3050000D03*
X3190000D03*
X3320000D03*
X3455000D03*
X2337500Y662500D03*
X2387500D03*
X2443750D03*
X2493750D03*
X3425000D03*
X2531250Y693750D03*
X2537500Y737500D03*
X2525000Y775000D03*
X3425000Y762500D03*
X2387500Y793750D03*
X2337500D03*
X2487500D03*
X2437500D03*
X2565000Y795000D03*
X2630000D03*
X2785000D03*
X2710000D03*
X2850000Y805000D03*
X2890000Y845000D03*
X3450000Y880000D03*
X2887500Y950000D03*
X2959500Y949000D03*
X2922500Y935000D03*
X3081250Y937500D03*
X3450000Y985000D03*
X2345000Y1010000D03*
X2455000D03*
X2400000D03*
X2565000Y1005000D03*
X2515000Y1020000D03*
X2535000Y1065000D03*
X2665000Y1005000D03*
X2620000D03*
X2695000D03*
X2750000D03*
X2805000D03*
X3043750Y1056250D03*
X3193750Y1075000D03*
X2340000Y1130000D03*
X2445000D03*
X2390000D03*
X2500000D03*
X2670000Y1105000D03*
X2785000Y1120000D03*
X2887500Y1156250D03*
X2818750D03*
X2925000Y1118750D03*
X3035000Y1120000D03*
X3156250Y1118750D03*
X3450000Y1160000D03*
X2340000Y1240000D03*
X2670000Y1225000D03*
X3035000Y1240000D03*
X2340000Y1355000D03*
X2670000Y1340000D03*
X3035000Y1360000D03*
X3450000Y1330000D03*
X2340000Y1455000D03*
X2470000D03*
X2595000D03*
X2730000D03*
X2895000D03*
X3035000Y1460000D03*
X3145000D03*
X3270000D03*
X3450000D03*
%LPD*%
G75*
X3450000Y1460000D02*
G36*
X2860000Y1867500D02*
Y1927500D01*
G02X2862500Y1930000I2500J0D01*
G01X2927500D01*
G02X2930000Y1927500I0J-2500D01*
G01Y1867500D01*
G02X2927500Y1865000I-2500J0D01*
G01X2862500D01*
G02X2860000Y1867500I0J2500D01*
G37*
G36*
Y1942500D02*
G01Y2022500D01*
G02X2862500Y2025000I2500J0D01*
G01X2937500D01*
G02X2940000Y2022500I0J-2500D01*
G01Y1942500D01*
G02X2937500Y1940000I-2500J0D01*
G01X2862500D01*
G02X2860000Y1942500I0J2500D01*
G37*
G54D10*
X2723500Y2181250D02*
G01X2848500D01*
Y2118750D01*
X2723500D01*
Y2181250D01*
X2787500Y2275000D02*
Y2400000D01*
X2850000D01*
Y2275000D01*
X2787500D01*
X2856250D02*
Y2400000D01*
X2918750D01*
Y2275000D01*
X2856250D01*
X3062500Y2356250D02*
X3187500D01*
Y2293750D01*
X3062500D01*
Y2356250D01*
X2711250Y2244500D02*
Y2119500D01*
X2648750D01*
Y2244500D01*
X2711250D01*
X3125000Y2218750D02*
X3000000D01*
Y2281250D01*
X3125000D01*
Y2218750D01*
X3056250D02*
Y2093750D01*
X2993750D01*
Y2218750D01*
X3056250D01*
G54D11*
X3073750Y2012500D03*
G54D10*
X3048750Y1827500D02*
X3288750D01*
Y2097500D01*
X3078750D01*
X3048750Y2067500D01*
Y1827500D01*
X2325000Y1925000D02*
X2475000D01*
G03X2475000Y2037490I-6210J56245D01*
Y2037500D02*
G01X2425000D01*
Y2262500D01*
X2475000D01*
G03X2475000Y2375000I-6600J56250D01*
G01X2325000D01*
X2632500Y2118750D02*
X2507500D01*
Y2181250D01*
X2632500D01*
Y2118750D01*
G54D12*
X2862500Y2220000D02*
X2982500D01*
Y2180000D01*
X2862500D01*
Y2220000D01*
X2782950Y2092500D02*
X2781590Y2096250D01*
X2778860Y2100000D01*
X2776130Y2101870D01*
X2770680D01*
X2767950Y2100000D01*
X2765220Y2096250D01*
X2763860Y2092500D01*
X2762500Y2086870D01*
Y2077500D01*
X2763860Y2071870D01*
X2765220Y2068120D01*
X2767950Y2064370D01*
X2770680Y2062500D01*
X2776130D01*
X2778860Y2064370D01*
X2781590Y2068120D01*
X2782950Y2071870D01*
X2795220Y2094370D02*
X2797950Y2096250D01*
X2802040Y2101870D01*
Y2062500D01*
X2801240Y2439200D02*
X2797490Y2437840D01*
X2793740Y2435110D01*
X2791870Y2432380D01*
Y2426930D01*
X2793740Y2424200D01*
X2797490Y2421470D01*
X2801240Y2420110D01*
X2806870Y2418750D01*
X2816240D01*
X2821870Y2420110D01*
X2825620Y2421470D01*
X2829370Y2424200D01*
X2831240Y2426930D01*
Y2432380D01*
X2829370Y2435110D01*
X2825620Y2437840D01*
X2821870Y2439200D01*
X2801240Y2452840D02*
X2799370D01*
X2795620Y2454200D01*
X2793740Y2455560D01*
X2791870Y2458290D01*
Y2463750D01*
X2793740Y2466470D01*
X2795620Y2467840D01*
X2799370Y2469200D01*
X2803120D01*
X2806870Y2467840D01*
X2812490Y2465110D01*
X2831240Y2451470D01*
Y2470560D01*
X2876240Y2439200D02*
X2872490Y2437840D01*
X2868740Y2435110D01*
X2866870Y2432380D01*
Y2426930D01*
X2868740Y2424200D01*
X2872490Y2421470D01*
X2876240Y2420110D01*
X2881870Y2418750D01*
X2891240D01*
X2896870Y2420110D01*
X2900620Y2421470D01*
X2904370Y2424200D01*
X2906240Y2426930D01*
Y2432380D01*
X2904370Y2435110D01*
X2900620Y2437840D01*
X2896870Y2439200D01*
X2866870Y2454200D02*
Y2469200D01*
X2881870Y2461020D01*
Y2465110D01*
X2883740Y2467840D01*
X2885620Y2469200D01*
X2891240Y2470560D01*
X2894990D01*
X2900620Y2469200D01*
X2904370Y2466470D01*
X2906240Y2462380D01*
Y2458290D01*
X2904370Y2454200D01*
X2902490Y2452840D01*
X2898740Y2451470D01*
X3098450Y2399000D02*
X3097090Y2402750D01*
X3094360Y2406500D01*
X3091630Y2408370D01*
X3086180D01*
X3083450Y2406500D01*
X3080720Y2402750D01*
X3079360Y2399000D01*
X3078000Y2393370D01*
Y2384000D01*
X3079360Y2378370D01*
X3080720Y2374620D01*
X3083450Y2370870D01*
X3086180Y2369000D01*
X3091630D01*
X3094360Y2370870D01*
X3097090Y2374620D01*
X3098450Y2378370D01*
X3128450Y2408370D02*
X3114810D01*
X3113450Y2391500D01*
X3114810Y2393370D01*
X3118900Y2395250D01*
X3123000D01*
X3127090Y2393370D01*
X3129810Y2389620D01*
X3131180Y2384000D01*
X3129810Y2380250D01*
X3128450Y2374620D01*
X3125720Y2370870D01*
X3121630Y2369000D01*
X3117540D01*
X3113450Y2370870D01*
X3112090Y2372750D01*
X3110720Y2376500D01*
X2661620Y2063000D02*
X2701000D01*
X2661620D02*
Y2075270D01*
X2663500Y2079360D01*
X2665370Y2080720D01*
X2669120Y2082090D01*
X2672870D01*
X2676620Y2080720D01*
X2678500Y2079360D01*
X2680370Y2075270D01*
Y2063000D01*
Y2072540D02*
X2701000Y2082090D01*
X2669120Y2094360D02*
X2667250Y2097090D01*
X2661620Y2101180D01*
X2701000D01*
X3143750Y2270620D02*
Y2231250D01*
Y2270620D02*
X3156020D01*
X3160110Y2268750D01*
X3161470Y2266870D01*
X3162840Y2263120D01*
Y2259370D01*
X3161470Y2255620D01*
X3160110Y2253750D01*
X3156020Y2251870D01*
X3143750D01*
X3153290D02*
X3162840Y2231250D01*
X3176470Y2261250D02*
Y2263120D01*
X3177840Y2266870D01*
X3179200Y2268750D01*
X3181930Y2270620D01*
X3187380D01*
X3190110Y2268750D01*
X3191470Y2266870D01*
X3192840Y2263120D01*
Y2259370D01*
X3191470Y2255620D01*
X3188750Y2250000D01*
X3175110Y2231250D01*
X3194200D01*
X3070620Y2115000D02*
X3110000D01*
X3070620D02*
Y2127270D01*
X3072500Y2131360D01*
X3074370Y2132720D01*
X3078120Y2134090D01*
X3081870D01*
X3085620Y2132720D01*
X3087500Y2131360D01*
X3089370Y2127270D01*
Y2115000D01*
Y2124540D02*
X3110000Y2134090D01*
X3070620Y2149090D02*
Y2164090D01*
X3085620Y2155900D01*
Y2160000D01*
X3087500Y2162720D01*
X3089370Y2164090D01*
X3095000Y2165450D01*
X3098750D01*
X3104370Y2164090D01*
X3108120Y2161360D01*
X3110000Y2157270D01*
Y2153180D01*
X3108120Y2149090D01*
X3106250Y2147720D01*
X3102500Y2146360D01*
X3184090Y2145750D02*
X3181360Y2149500D01*
X3177270Y2151370D01*
X3171810D01*
X3167720Y2149500D01*
X3165000Y2145750D01*
Y2142000D01*
X3166360Y2138250D01*
X3167720Y2136370D01*
X3170450Y2134500D01*
X3178630Y2130750D01*
X3181360Y2128870D01*
X3182720Y2127000D01*
X3184090Y2123250D01*
Y2117620D01*
X3181360Y2113870D01*
X3177270Y2112000D01*
X3171810D01*
X3167720Y2113870D01*
X3165000Y2117620D01*
X3196360Y2151370D02*
X3203180Y2112000D01*
X3210000Y2151370D02*
X3203180Y2112000D01*
X3210000Y2151370D02*
X3216810Y2112000D01*
X3223630Y2151370D02*
X3216810Y2112000D01*
X3235900Y2143870D02*
X3238630Y2145750D01*
X3242720Y2151370D01*
Y2112000D01*
X2805000Y2233370D02*
Y2205250D01*
X2806360Y2199620D01*
X2809090Y2195870D01*
X2813180Y2194000D01*
X2815900D01*
X2820000Y2195870D01*
X2822720Y2199620D01*
X2824090Y2205250D01*
Y2233370D01*
X2836360Y2225870D02*
X2839090Y2227750D01*
X2843180Y2233370D01*
Y2194000D01*
X2399530Y2503670D02*
Y2473670D01*
X2398170Y2468050D01*
X2396800Y2466170D01*
X2394080Y2464300D01*
X2391350D01*
X2388620Y2466170D01*
X2387260Y2468050D01*
X2385890Y2473670D01*
Y2477420D01*
X2411800Y2496170D02*
X2414530Y2498050D01*
X2418620Y2503670D01*
Y2464300D01*
X2545000Y2229370D02*
Y2189990D01*
Y2229370D02*
X2557270D01*
X2561360Y2227490D01*
X2562720Y2225620D01*
X2564090Y2221870D01*
Y2218120D01*
X2562720Y2214370D01*
X2561360Y2212490D01*
X2557270Y2210620D01*
X2545000D01*
X2554540D02*
X2564090Y2189990D01*
X2590000Y2229370D02*
X2576360Y2203120D01*
X2596810D01*
X2590000Y2229370D02*
Y2189990D01*
X3309090Y2413750D02*
X3306360Y2417500D01*
X3302270Y2419370D01*
X3296810D01*
X3292720Y2417500D01*
X3290000Y2413750D01*
Y2410000D01*
X3291360Y2406250D01*
X3292720Y2404370D01*
X3295450Y2402500D01*
X3303630Y2398750D01*
X3306360Y2396870D01*
X3307720Y2395000D01*
X3309090Y2391250D01*
Y2385620D01*
X3306360Y2381870D01*
X3302270Y2380000D01*
X3296810D01*
X3292720Y2381870D01*
X3290000Y2385620D01*
X3321360Y2419370D02*
Y2380000D01*
X3340450Y2419370D02*
Y2380000D01*
X3321360Y2400620D02*
X3340450D01*
X3352720Y2419370D02*
Y2380000D01*
Y2419370D02*
X3362270D01*
X3366360Y2417500D01*
X3369090Y2413750D01*
X3370450Y2410000D01*
X3371810Y2404370D01*
Y2395000D01*
X3370450Y2389370D01*
X3369090Y2385620D01*
X3366360Y2381870D01*
X3362270Y2380000D01*
X3352720D01*
X3384090Y2419370D02*
Y2380000D01*
Y2419370D02*
X3403180Y2380000D01*
Y2419370D02*
Y2380000D01*
X2700000Y2674370D02*
X2710900Y2635000D01*
X2721810Y2674370D02*
X2710900Y2635000D01*
X2754540Y2665000D02*
X2753180Y2668750D01*
X2750450Y2672500D01*
X2747720Y2674370D01*
X2742270D01*
X2739540Y2672500D01*
X2736810Y2668750D01*
X2735450Y2665000D01*
X2734090Y2659370D01*
Y2650000D01*
X2735450Y2644370D01*
X2736810Y2640620D01*
X2739540Y2636870D01*
X2742270Y2635000D01*
X2747720D01*
X2750450Y2636870D01*
X2753180Y2640620D01*
X2754540Y2644370D01*
X2787270Y2665000D02*
X2785900Y2668750D01*
X2783180Y2672500D01*
X2780450Y2674370D01*
X2775000D01*
X2772270Y2672500D01*
X2769540Y2668750D01*
X2768180Y2665000D01*
X2766810Y2659370D01*
Y2650000D01*
X2768180Y2644370D01*
X2769540Y2640620D01*
X2772270Y2636870D01*
X2775000Y2635000D01*
X2780450D01*
X2783180Y2636870D01*
X2785900Y2640620D01*
X2787270Y2644370D01*
X3265000Y2679370D02*
Y2640000D01*
Y2679370D02*
X3274540D01*
X3278630Y2677500D01*
X3281360Y2673750D01*
X3282720Y2670000D01*
X3284090Y2664370D01*
Y2655000D01*
X3282720Y2649370D01*
X3281360Y2645620D01*
X3278630Y2641870D01*
X3274540Y2640000D01*
X3265000D01*
X3296360Y2655000D02*
X3312720D01*
Y2658750D01*
X3311360Y2662500D01*
X3310000Y2664370D01*
X3307270Y2666250D01*
X3303180D01*
X3300450Y2664370D01*
X3297720Y2660620D01*
X3296360Y2655000D01*
Y2651250D01*
X3297720Y2645620D01*
X3300450Y2641870D01*
X3303180Y2640000D01*
X3307270D01*
X3310000Y2641870D01*
X3312720Y2645620D01*
X3329090Y2679370D02*
Y2647500D01*
X3330450Y2641870D01*
X3333180Y2640000D01*
X3335900D01*
X3325000Y2666250D02*
X3334540D01*
X3348180Y2655000D02*
X3364540D01*
Y2658750D01*
X3363180Y2662500D01*
X3361810Y2664370D01*
X3359090Y2666250D01*
X3355000D01*
X3352270Y2664370D01*
X3349540Y2660620D01*
X3348180Y2655000D01*
Y2651250D01*
X3349540Y2645620D01*
X3352270Y2641870D01*
X3355000Y2640000D01*
X3359090D01*
X3361810Y2641870D01*
X3364540Y2645620D01*
X3393180Y2660620D02*
X3390450Y2664370D01*
X3387720Y2666250D01*
X3383630D01*
X3380900Y2664370D01*
X3378180Y2660620D01*
X3376810Y2655000D01*
Y2651250D01*
X3378180Y2645620D01*
X3380900Y2641870D01*
X3383630Y2640000D01*
X3387720D01*
X3390450Y2641870D01*
X3393180Y2645620D01*
X3409540Y2679370D02*
Y2647500D01*
X3410900Y2641870D01*
X3413630Y2640000D01*
X3416360D01*
X3405450Y2666250D02*
X3415000D01*
X3435450D02*
X3432720Y2664370D01*
X3430000Y2660620D01*
X3428630Y2655000D01*
Y2651250D01*
X3430000Y2645620D01*
X3432720Y2641870D01*
X3435450Y2640000D01*
X3439540D01*
X3442270Y2641870D01*
X3445000Y2645620D01*
X3446360Y2651250D01*
Y2655000D01*
X3445000Y2660620D01*
X3442270Y2664370D01*
X3439540Y2666250D01*
X3435450D01*
X3458630D02*
Y2640000D01*
Y2655000D02*
X3460000Y2660620D01*
X3462720Y2664370D01*
X3465450Y2666250D01*
X3469540D01*
X3306000Y2626370D02*
X3316900Y2587000D01*
X3327810Y2626370D02*
X3316900Y2587000D01*
X3346900Y2613250D02*
X3344180Y2611370D01*
X3341450Y2607620D01*
X3340090Y2602000D01*
Y2598250D01*
X3341450Y2592620D01*
X3344180Y2588870D01*
X3346900Y2587000D01*
X3351000D01*
X3353720Y2588870D01*
X3356450Y2592620D01*
X3357810Y2598250D01*
Y2602000D01*
X3356450Y2607620D01*
X3353720Y2611370D01*
X3351000Y2613250D01*
X3346900D01*
X3370090D02*
Y2594500D01*
X3371450Y2588870D01*
X3374180Y2587000D01*
X3378270D01*
X3381000Y2588870D01*
X3385090Y2594500D01*
Y2613250D02*
Y2587000D01*
X3401450Y2626370D02*
Y2594500D01*
X3402810Y2588870D01*
X3405540Y2587000D01*
X3408270D01*
X3397360Y2613250D02*
X3406900D01*
X2380450Y2665000D02*
X2379090Y2668750D01*
X2376360Y2672500D01*
X2373630Y2674370D01*
X2368180D01*
X2365450Y2672500D01*
X2362720Y2668750D01*
X2361360Y2665000D01*
X2360000Y2659370D01*
Y2650000D01*
X2361360Y2644370D01*
X2362720Y2640620D01*
X2365450Y2636870D01*
X2368180Y2635000D01*
X2373630D01*
X2376360Y2636870D01*
X2379090Y2640620D01*
X2380450Y2644370D01*
Y2650000D01*
X2373630D02*
X2380450D01*
X2392720Y2674370D02*
Y2635000D01*
Y2674370D02*
X2411810Y2635000D01*
Y2674370D02*
Y2635000D01*
X2424090Y2674370D02*
Y2635000D01*
Y2674370D02*
X2433630D01*
X2437720Y2672500D01*
X2440450Y2668750D01*
X2441810Y2665000D01*
X2443180Y2659370D01*
Y2650000D01*
X2441810Y2644370D01*
X2440450Y2640620D01*
X2437720Y2636870D01*
X2433630Y2635000D01*
X2424090D01*
X2380000Y2450370D02*
Y2411000D01*
Y2450370D02*
X2392270D01*
X2396360Y2448500D01*
X2397720Y2446620D01*
X2399090Y2442870D01*
Y2439120D01*
X2397720Y2435370D01*
X2396360Y2433500D01*
X2392270Y2431620D01*
X2380000D01*
X2389540D02*
X2399090Y2411000D01*
X2411360Y2450370D02*
Y2411000D01*
Y2450370D02*
X2429090D01*
X2411360Y2431620D02*
X2422270D01*
X2441360Y2450370D02*
X2442720Y2448500D01*
X2444090Y2450370D01*
X2442720Y2452250D01*
X2441360Y2450370D01*
X2442720Y2437250D02*
Y2411000D01*
X2456360Y2437250D02*
Y2411000D01*
Y2429750D02*
X2460450Y2435370D01*
X2463180Y2437250D01*
X2467270D01*
X2470000Y2435370D01*
X2471360Y2429750D01*
Y2411000D01*
X2575000Y2007500D02*
Y1955000D01*
Y2007500D02*
X2587720D01*
X2593180Y2005000D01*
X2596810Y2000000D01*
X2598630Y1995000D01*
X2600450Y1987500D01*
Y1975000D01*
X2598630Y1967500D01*
X2596810Y1962500D01*
X2593180Y1957500D01*
X2587720Y1955000D01*
X2575000D01*
X2644090Y1995000D02*
X2642270Y2000000D01*
X2638630Y2005000D01*
X2635000Y2007500D01*
X2627720D01*
X2624090Y2005000D01*
X2620450Y2000000D01*
X2618630Y1995000D01*
X2616810Y1987500D01*
Y1975000D01*
X2618630Y1967500D01*
X2620450Y1962500D01*
X2624090Y1957500D01*
X2627720Y1955000D01*
X2635000D01*
X2638630Y1957500D01*
X2642270Y1962500D01*
X2644090Y1967500D01*
X2664090Y2007500D02*
X2684090D01*
X2673180Y1987500D01*
X2678630D01*
X2682270Y1985000D01*
X2684090Y1982500D01*
X2685900Y1975000D01*
Y1970000D01*
X2684090Y1962500D01*
X2680450Y1957500D01*
X2675000Y1955000D01*
X2669540D01*
X2664090Y1957500D01*
X2662270Y1960000D01*
X2660450Y1965000D01*
X2725900Y1990000D02*
X2724090Y1982500D01*
X2720450Y1977500D01*
X2715000Y1975000D01*
X2713180D01*
X2707720Y1977500D01*
X2704090Y1982500D01*
X2702270Y1990000D01*
Y1992500D01*
X2704090Y2000000D01*
X2707720Y2005000D01*
X2713180Y2007500D01*
X2715000D01*
X2720450Y2005000D01*
X2724090Y2000000D01*
X2725900Y1990000D01*
Y1977500D01*
X2724090Y1965000D01*
X2720450Y1957500D01*
X2715000Y1955000D01*
X2711360D01*
X2705900Y1957500D01*
X2704090Y1962500D01*
X2742270Y1997500D02*
X2745900Y2000000D01*
X2751360Y2007500D01*
Y1955000D01*
X2782270Y2007500D02*
X2767720Y1955000D01*
X2782270Y2007500D02*
X2796810Y1955000D01*
X2773180Y1972500D02*
X2791360D01*
X2813180Y1977500D02*
X2845900D01*
X2595000Y1919370D02*
Y1880000D01*
X2611360D01*
X2633180Y1919370D02*
Y1880000D01*
X2623630Y1919370D02*
X2642720D01*
X2675450Y1910000D02*
X2674090Y1913750D01*
X2671360Y1917500D01*
X2668630Y1919370D01*
X2663180D01*
X2660450Y1917500D01*
X2657720Y1913750D01*
X2656360Y1910000D01*
X2655000Y1904370D01*
Y1895000D01*
X2656360Y1889370D01*
X2657720Y1885620D01*
X2660450Y1881870D01*
X2663180Y1880000D01*
X2668630D01*
X2671360Y1881870D01*
X2674090Y1885620D01*
X2675450Y1889370D01*
X2705450Y1919370D02*
X2691810D01*
X2690450Y1902500D01*
X2691810Y1904370D01*
X2695900Y1906250D01*
X2700000D01*
X2704090Y1904370D01*
X2706810Y1900620D01*
X2708180Y1895000D01*
X2706810Y1891250D01*
X2705450Y1885620D01*
X2702720Y1881870D01*
X2698630Y1880000D01*
X2694540D01*
X2690450Y1881870D01*
X2689090Y1883750D01*
X2687720Y1887500D01*
X2738180Y1919370D02*
X2724540D01*
X2723180Y1902500D01*
X2724540Y1904370D01*
X2728630Y1906250D01*
X2732720D01*
X2736810Y1904370D01*
X2739540Y1900620D01*
X2740900Y1895000D01*
X2739540Y1891250D01*
X2738180Y1885620D01*
X2735450Y1881870D01*
X2731360Y1880000D01*
X2727270D01*
X2723180Y1881870D01*
X2721810Y1883750D01*
X2720450Y1887500D01*
X2761360Y1919370D02*
X2757270Y1917500D01*
X2754540Y1911870D01*
X2753180Y1902500D01*
Y1896870D01*
X2754540Y1887500D01*
X2757270Y1881870D01*
X2761360Y1880000D01*
X2764090D01*
X2768180Y1881870D01*
X2770900Y1887500D01*
X2772270Y1896870D01*
Y1902500D01*
X2770900Y1911870D01*
X2768180Y1917500D01*
X2764090Y1919370D01*
X2761360D01*
X2802270D02*
X2788630D01*
X2787270Y1902500D01*
X2788630Y1904370D01*
X2792720Y1906250D01*
X2796810D01*
X2800900Y1904370D01*
X2803630Y1900620D01*
X2805000Y1895000D01*
X2803630Y1891250D01*
X2802270Y1885620D01*
X2799540Y1881870D01*
X2795450Y1880000D01*
X2791360D01*
X2787270Y1881870D01*
X2785900Y1883750D01*
X2784540Y1887500D01*
X2817270Y1896870D02*
X2841810D01*
X2432000Y1845370D02*
Y1806000D01*
Y1845370D02*
X2444270D01*
X2448360Y1843500D01*
X2449720Y1841620D01*
X2451090Y1837870D01*
Y1834120D01*
X2449720Y1830370D01*
X2448360Y1828500D01*
X2444270Y1826620D01*
X2432000D01*
X2441540D02*
X2451090Y1806000D01*
X2463360Y1845370D02*
Y1806000D01*
Y1845370D02*
X2481090D01*
X2463360Y1826620D02*
X2474270D01*
X2517900Y1845370D02*
Y1806000D01*
Y1845370D02*
X2530180D01*
X2534270Y1843500D01*
X2535630Y1841620D01*
X2537000Y1837870D01*
Y1832250D01*
X2535630Y1828500D01*
X2534270Y1826620D01*
X2530180Y1824750D01*
X2517900D01*
X2557450Y1845370D02*
X2554720Y1843500D01*
X2552000Y1839750D01*
X2550630Y1836000D01*
X2549270Y1830370D01*
Y1821000D01*
X2550630Y1815370D01*
X2552000Y1811620D01*
X2554720Y1807870D01*
X2557450Y1806000D01*
X2562900D01*
X2565630Y1807870D01*
X2568360Y1811620D01*
X2569720Y1815370D01*
X2571090Y1821000D01*
Y1830370D01*
X2569720Y1836000D01*
X2568360Y1839750D01*
X2565630Y1843500D01*
X2562900Y1845370D01*
X2557450D01*
X2583360D02*
X2590180Y1806000D01*
X2597000Y1845370D02*
X2590180Y1806000D01*
X2597000Y1845370D02*
X2603810Y1806000D01*
X2610630Y1845370D02*
X2603810Y1806000D01*
X2622900Y1845370D02*
Y1806000D01*
Y1845370D02*
X2640630D01*
X2622900Y1826620D02*
X2633810D01*
X2622900Y1806000D02*
X2640630D01*
X2652900Y1845370D02*
Y1806000D01*
Y1845370D02*
X2665180D01*
X2669270Y1843500D01*
X2670630Y1841620D01*
X2672000Y1837870D01*
Y1834120D01*
X2670630Y1830370D01*
X2669270Y1828500D01*
X2665180Y1826620D01*
X2652900D01*
X2662450D02*
X2672000Y1806000D01*
X2708810Y1845370D02*
Y1806000D01*
Y1845370D02*
X2718360D01*
X2722450Y1843500D01*
X2725180Y1839750D01*
X2726540Y1836000D01*
X2727900Y1830370D01*
Y1821000D01*
X2726540Y1815370D01*
X2725180Y1811620D01*
X2722450Y1807870D01*
X2718360Y1806000D01*
X2708810D01*
X2740180Y1845370D02*
Y1806000D01*
Y1845370D02*
X2757900D01*
X2740180Y1826620D02*
X2751090D01*
X2740180Y1806000D02*
X2757900D01*
X2779720Y1845370D02*
Y1806000D01*
X2770180Y1845370D02*
X2789270D01*
X2801540D02*
Y1806000D01*
Y1845370D02*
X2819270D01*
X2801540Y1826620D02*
X2812450D01*
X2801540Y1806000D02*
X2819270D01*
X2852000Y1836000D02*
X2850630Y1839750D01*
X2847900Y1843500D01*
X2845180Y1845370D01*
X2839720D01*
X2837000Y1843500D01*
X2834270Y1839750D01*
X2832900Y1836000D01*
X2831540Y1830370D01*
Y1821000D01*
X2832900Y1815370D01*
X2834270Y1811620D01*
X2837000Y1807870D01*
X2839720Y1806000D01*
X2845180D01*
X2847900Y1807870D01*
X2850630Y1811620D01*
X2852000Y1815370D01*
X2873810Y1845370D02*
Y1806000D01*
X2864270Y1845370D02*
X2883360D01*
X2903810D02*
X2901090Y1843500D01*
X2898360Y1839750D01*
X2897000Y1836000D01*
X2895630Y1830370D01*
Y1821000D01*
X2897000Y1815370D01*
X2898360Y1811620D01*
X2901090Y1807870D01*
X2903810Y1806000D01*
X2909270D01*
X2912000Y1807870D01*
X2914720Y1811620D01*
X2916090Y1815370D01*
X2917450Y1821000D01*
Y1830370D01*
X2916090Y1836000D01*
X2914720Y1839750D01*
X2912000Y1843500D01*
X2909270Y1845370D01*
X2903810D01*
X2929720D02*
Y1806000D01*
Y1845370D02*
X2942000D01*
X2946090Y1843500D01*
X2947450Y1841620D01*
X2948810Y1837870D01*
Y1834120D01*
X2947450Y1830370D01*
X2946090Y1828500D01*
X2942000Y1826620D01*
X2929720D01*
X2939270D02*
X2948810Y1806000D01*
G54D13*
X2730000Y2599370D02*
Y2560000D01*
Y2599370D02*
X2747720D01*
X2730000Y2580620D02*
X2740900D01*
X2730000Y2560000D02*
X2747720D01*
X2760000Y2591870D02*
X2762720Y2593750D01*
X2766810Y2599370D01*
Y2560000D01*
X3260000Y2559370D02*
Y2520000D01*
Y2559370D02*
X3277720D01*
X3260000Y2540620D02*
X3270900D01*
X3260000Y2520000D02*
X3277720D01*
X3291360Y2550000D02*
Y2551870D01*
X3292720Y2555620D01*
X3294090Y2557500D01*
X3296810Y2559370D01*
X3302270D01*
X3305000Y2557500D01*
X3306360Y2555620D01*
X3307720Y2551870D01*
Y2548120D01*
X3306360Y2544370D01*
X3303630Y2538750D01*
X3290000Y2520000D01*
X3309090D01*
X2385000Y2599370D02*
Y2560000D01*
Y2599370D02*
X2402720D01*
X2385000Y2580620D02*
X2395900D01*
X2385000Y2560000D02*
X2402720D01*
X2417720Y2599370D02*
X2432720D01*
X2424540Y2584370D01*
X2428630D01*
X2431360Y2582500D01*
X2432720Y2580620D01*
X2434090Y2575000D01*
Y2571250D01*
X2432720Y2565620D01*
X2430000Y2561870D01*
X2425900Y2560000D01*
X2421810D01*
X2417720Y2561870D01*
X2416360Y2563750D01*
X2415000Y2567500D01*
X3335000Y2224370D02*
Y2185000D01*
Y2224370D02*
X3352720D01*
X3335000Y2205620D02*
X3345900D01*
X3335000Y2185000D02*
X3352720D01*
X3378630Y2224370D02*
X3365000Y2198120D01*
X3385450D01*
X3378630Y2224370D02*
Y2185000D01*
%LPC*%
G75*
X3378630Y2185000D02*
G54D14*
X2885500Y2150000D03*
X2922500D03*
X2959500D03*
Y2250000D03*
X2885500D03*
G54D15*
X2998750Y2012500D03*
Y1912500D03*
X3338750D03*
Y2012500D03*
G54D16*
X2754000Y2150000D03*
X2818000D03*
X2818750Y2305500D03*
Y2369500D03*
X2887500Y2305500D03*
Y2369500D03*
X3093000Y2325000D03*
X3157000D03*
X2680000Y2214000D03*
Y2150000D03*
X3094500Y2250000D03*
X3030500D03*
X3025000Y2188250D03*
Y2124250D03*
X2602000Y2150000D03*
X2538000D03*
G54D17*
X2387000D03*
G36*
X2265750Y2010564D02*
X2266813Y2011769D01*
G02X2300000Y2026750I33188J-29269D01*
G01X2470000D01*
G02X2470000Y1938250I0J-44250D01*
G01X2300000D01*
G02X2266813Y1953231I0J44250D01*
G01X2265750Y1954436D01*
Y2010564D01*
G37*
G36*
Y2345564D02*
X2266813Y2346769D01*
G02X2300000Y2361750I33188J-29269D01*
G01X2470000D01*
G02X2470000Y2273250I0J-44250D01*
G01X2300000D01*
G02X2266813Y2288231I0J44250D01*
G01X2265750Y2289436D01*
Y2345564D01*
G37*
G54D18*
X2850000Y2600000D03*
X3200000D03*
X2500000D03*
X3350000Y2300000D03*
G54D19*
X2340000Y1790000D03*
Y1840000D03*
X2465000Y1790000D03*
X2615000D03*
X2765000D03*
X2905000D03*
X3050000D03*
X3190000D03*
X3320000D03*
X3455000D03*
X2337500Y1912500D03*
X2387500D03*
X2443750D03*
X2493750D03*
X3425000D03*
X2531250Y1943750D03*
X2537500Y1987500D03*
X2525000Y2025000D03*
X3425000Y2012500D03*
X2387500Y2043750D03*
X2337500D03*
X2487500D03*
X2437500D03*
X2565000Y2045000D03*
X2630000D03*
X2785000D03*
X2710000D03*
X2850000Y2055000D03*
X2890000Y2095000D03*
X3450000Y2130000D03*
X2887500Y2200000D03*
X2959500Y2199000D03*
X2922500Y2185000D03*
X3081250Y2187500D03*
X3450000Y2235000D03*
X2345000Y2260000D03*
X2455000D03*
X2400000D03*
X2565000Y2255000D03*
X2515000Y2270000D03*
X2535000Y2315000D03*
X2665000Y2255000D03*
X2620000D03*
X2695000D03*
X2750000D03*
X2805000D03*
X3043750Y2306250D03*
X3193750Y2325000D03*
X2340000Y2380000D03*
X2445000D03*
X2390000D03*
X2500000D03*
X2670000Y2355000D03*
X2785000Y2370000D03*
X2887500Y2406250D03*
X2818750D03*
X2925000Y2368750D03*
X3035000Y2370000D03*
X3156250Y2368750D03*
X3450000Y2410000D03*
X2340000Y2490000D03*
X2670000Y2475000D03*
X3035000Y2490000D03*
X2340000Y2605000D03*
X2670000Y2590000D03*
X3035000Y2610000D03*
X3450000Y2580000D03*
X2340000Y2705000D03*
X2470000D03*
X2595000D03*
X2730000D03*
X2895000D03*
X3035000Y2710000D03*
X3145000D03*
X3270000D03*
X3450000D03*
%LPD*%
G75*
X3450000Y2710000D02*
G36*
X2860000Y3117500D02*
Y3177500D01*
G02X2862500Y3180000I2500J0D01*
G01X2927500D01*
G02X2930000Y3177500I0J-2500D01*
G01Y3117500D01*
G02X2927500Y3115000I-2500J0D01*
G01X2862500D01*
G02X2860000Y3117500I0J2500D01*
G37*
G36*
Y3192500D02*
G01Y3272500D01*
G02X2862500Y3275000I2500J0D01*
G01X2937500D01*
G02X2940000Y3272500I0J-2500D01*
G01Y3192500D01*
G02X2937500Y3190000I-2500J0D01*
G01X2862500D01*
G02X2860000Y3192500I0J2500D01*
G37*
G54D10*
X2723500Y3431250D02*
G01X2848500D01*
Y3368750D01*
X2723500D01*
Y3431250D01*
X2787500Y3525000D02*
Y3650000D01*
X2850000D01*
Y3525000D01*
X2787500D01*
X2856250D02*
Y3650000D01*
X2918750D01*
Y3525000D01*
X2856250D01*
X3062500Y3606250D02*
X3187500D01*
Y3543750D01*
X3062500D01*
Y3606250D01*
X2711250Y3494500D02*
Y3369500D01*
X2648750D01*
Y3494500D01*
X2711250D01*
X3125000Y3468750D02*
X3000000D01*
Y3531250D01*
X3125000D01*
Y3468750D01*
X3056250D02*
Y3343750D01*
X2993750D01*
Y3468750D01*
X3056250D01*
G54D11*
X3073750Y3262500D03*
G54D10*
X3048750Y3077500D02*
X3288750D01*
Y3347500D01*
X3078750D01*
X3048750Y3317500D01*
Y3077500D01*
X2325000Y3175000D02*
X2475000D01*
G03X2475000Y3287490I-6210J56245D01*
Y3287500D02*
G01X2425000D01*
Y3512500D01*
X2475000D01*
G03X2475000Y3625000I-6600J56250D01*
G01X2325000D01*
X2632500Y3368750D02*
X2507500D01*
Y3431250D01*
X2632500D01*
Y3368750D01*
G54D12*
X2862500Y3470000D02*
X2982500D01*
Y3430000D01*
X2862500D01*
Y3470000D01*
X2782950Y3342500D02*
X2781590Y3346250D01*
X2778860Y3350000D01*
X2776130Y3351870D01*
X2770680D01*
X2767950Y3350000D01*
X2765220Y3346250D01*
X2763860Y3342500D01*
X2762500Y3336870D01*
Y3327500D01*
X2763860Y3321870D01*
X2765220Y3318120D01*
X2767950Y3314370D01*
X2770680Y3312500D01*
X2776130D01*
X2778860Y3314370D01*
X2781590Y3318120D01*
X2782950Y3321870D01*
X2795220Y3344370D02*
X2797950Y3346250D01*
X2802040Y3351870D01*
Y3312500D01*
X2801240Y3689200D02*
X2797490Y3687840D01*
X2793740Y3685110D01*
X2791870Y3682380D01*
Y3676930D01*
X2793740Y3674200D01*
X2797490Y3671470D01*
X2801240Y3670110D01*
X2806870Y3668750D01*
X2816240D01*
X2821870Y3670110D01*
X2825620Y3671470D01*
X2829370Y3674200D01*
X2831240Y3676930D01*
Y3682380D01*
X2829370Y3685110D01*
X2825620Y3687840D01*
X2821870Y3689200D01*
X2801240Y3702840D02*
X2799370D01*
X2795620Y3704200D01*
X2793740Y3705560D01*
X2791870Y3708290D01*
Y3713750D01*
X2793740Y3716470D01*
X2795620Y3717840D01*
X2799370Y3719200D01*
X2803120D01*
X2806870Y3717840D01*
X2812490Y3715110D01*
X2831240Y3701470D01*
Y3720560D01*
X2876240Y3689200D02*
X2872490Y3687840D01*
X2868740Y3685110D01*
X2866870Y3682380D01*
Y3676930D01*
X2868740Y3674200D01*
X2872490Y3671470D01*
X2876240Y3670110D01*
X2881870Y3668750D01*
X2891240D01*
X2896870Y3670110D01*
X2900620Y3671470D01*
X2904370Y3674200D01*
X2906240Y3676930D01*
Y3682380D01*
X2904370Y3685110D01*
X2900620Y3687840D01*
X2896870Y3689200D01*
X2866870Y3704200D02*
Y3719200D01*
X2881870Y3711020D01*
Y3715110D01*
X2883740Y3717840D01*
X2885620Y3719200D01*
X2891240Y3720560D01*
X2894990D01*
X2900620Y3719200D01*
X2904370Y3716470D01*
X2906240Y3712380D01*
Y3708290D01*
X2904370Y3704200D01*
X2902490Y3702840D01*
X2898740Y3701470D01*
X3098450Y3649000D02*
X3097090Y3652750D01*
X3094360Y3656500D01*
X3091630Y3658370D01*
X3086180D01*
X3083450Y3656500D01*
X3080720Y3652750D01*
X3079360Y3649000D01*
X3078000Y3643370D01*
Y3634000D01*
X3079360Y3628370D01*
X3080720Y3624620D01*
X3083450Y3620870D01*
X3086180Y3619000D01*
X3091630D01*
X3094360Y3620870D01*
X3097090Y3624620D01*
X3098450Y3628370D01*
X3128450Y3658370D02*
X3114810D01*
X3113450Y3641500D01*
X3114810Y3643370D01*
X3118900Y3645250D01*
X3123000D01*
X3127090Y3643370D01*
X3129810Y3639620D01*
X3131180Y3634000D01*
X3129810Y3630250D01*
X3128450Y3624620D01*
X3125720Y3620870D01*
X3121630Y3619000D01*
X3117540D01*
X3113450Y3620870D01*
X3112090Y3622750D01*
X3110720Y3626500D01*
X2661620Y3313000D02*
X2701000D01*
X2661620D02*
Y3325270D01*
X2663500Y3329360D01*
X2665370Y3330720D01*
X2669120Y3332090D01*
X2672870D01*
X2676620Y3330720D01*
X2678500Y3329360D01*
X2680370Y3325270D01*
Y3313000D01*
Y3322540D02*
X2701000Y3332090D01*
X2669120Y3344360D02*
X2667250Y3347090D01*
X2661620Y3351180D01*
X2701000D01*
X3143750Y3520620D02*
Y3481250D01*
Y3520620D02*
X3156020D01*
X3160110Y3518750D01*
X3161470Y3516870D01*
X3162840Y3513120D01*
Y3509370D01*
X3161470Y3505620D01*
X3160110Y3503750D01*
X3156020Y3501870D01*
X3143750D01*
X3153290D02*
X3162840Y3481250D01*
X3176470Y3511250D02*
Y3513120D01*
X3177840Y3516870D01*
X3179200Y3518750D01*
X3181930Y3520620D01*
X3187380D01*
X3190110Y3518750D01*
X3191470Y3516870D01*
X3192840Y3513120D01*
Y3509370D01*
X3191470Y3505620D01*
X3188750Y3500000D01*
X3175110Y3481250D01*
X3194200D01*
X3070620Y3365000D02*
X3110000D01*
X3070620D02*
Y3377270D01*
X3072500Y3381360D01*
X3074370Y3382720D01*
X3078120Y3384090D01*
X3081870D01*
X3085620Y3382720D01*
X3087500Y3381360D01*
X3089370Y3377270D01*
Y3365000D01*
Y3374540D02*
X3110000Y3384090D01*
X3070620Y3399090D02*
Y3414090D01*
X3085620Y3405900D01*
Y3410000D01*
X3087500Y3412720D01*
X3089370Y3414090D01*
X3095000Y3415450D01*
X3098750D01*
X3104370Y3414090D01*
X3108120Y3411360D01*
X3110000Y3407270D01*
Y3403180D01*
X3108120Y3399090D01*
X3106250Y3397720D01*
X3102500Y3396360D01*
X3184090Y3395750D02*
X3181360Y3399500D01*
X3177270Y3401370D01*
X3171810D01*
X3167720Y3399500D01*
X3165000Y3395750D01*
Y3392000D01*
X3166360Y3388250D01*
X3167720Y3386370D01*
X3170450Y3384500D01*
X3178630Y3380750D01*
X3181360Y3378870D01*
X3182720Y3377000D01*
X3184090Y3373250D01*
Y3367620D01*
X3181360Y3363870D01*
X3177270Y3362000D01*
X3171810D01*
X3167720Y3363870D01*
X3165000Y3367620D01*
X3196360Y3401370D02*
X3203180Y3362000D01*
X3210000Y3401370D02*
X3203180Y3362000D01*
X3210000Y3401370D02*
X3216810Y3362000D01*
X3223630Y3401370D02*
X3216810Y3362000D01*
X3235900Y3393870D02*
X3238630Y3395750D01*
X3242720Y3401370D01*
Y3362000D01*
X2805000Y3483370D02*
Y3455250D01*
X2806360Y3449620D01*
X2809090Y3445870D01*
X2813180Y3444000D01*
X2815900D01*
X2820000Y3445870D01*
X2822720Y3449620D01*
X2824090Y3455250D01*
Y3483370D01*
X2836360Y3475870D02*
X2839090Y3477750D01*
X2843180Y3483370D01*
Y3444000D01*
X2399530Y3753670D02*
Y3723670D01*
X2398170Y3718050D01*
X2396800Y3716170D01*
X2394080Y3714300D01*
X2391350D01*
X2388620Y3716170D01*
X2387260Y3718050D01*
X2385890Y3723670D01*
Y3727420D01*
X2411800Y3746170D02*
X2414530Y3748050D01*
X2418620Y3753670D01*
Y3714300D01*
X2545000Y3479370D02*
Y3439990D01*
Y3479370D02*
X2557270D01*
X2561360Y3477490D01*
X2562720Y3475620D01*
X2564090Y3471870D01*
Y3468120D01*
X2562720Y3464370D01*
X2561360Y3462490D01*
X2557270Y3460620D01*
X2545000D01*
X2554540D02*
X2564090Y3439990D01*
X2590000Y3479370D02*
X2576360Y3453120D01*
X2596810D01*
X2590000Y3479370D02*
Y3439990D01*
X3309090Y3663750D02*
X3306360Y3667500D01*
X3302270Y3669370D01*
X3296810D01*
X3292720Y3667500D01*
X3290000Y3663750D01*
Y3660000D01*
X3291360Y3656250D01*
X3292720Y3654370D01*
X3295450Y3652500D01*
X3303630Y3648750D01*
X3306360Y3646870D01*
X3307720Y3645000D01*
X3309090Y3641250D01*
Y3635620D01*
X3306360Y3631870D01*
X3302270Y3630000D01*
X3296810D01*
X3292720Y3631870D01*
X3290000Y3635620D01*
X3321360Y3669370D02*
Y3630000D01*
X3340450Y3669370D02*
Y3630000D01*
X3321360Y3650620D02*
X3340450D01*
X3352720Y3669370D02*
Y3630000D01*
Y3669370D02*
X3362270D01*
X3366360Y3667500D01*
X3369090Y3663750D01*
X3370450Y3660000D01*
X3371810Y3654370D01*
Y3645000D01*
X3370450Y3639370D01*
X3369090Y3635620D01*
X3366360Y3631870D01*
X3362270Y3630000D01*
X3352720D01*
X3384090Y3669370D02*
Y3630000D01*
Y3669370D02*
X3403180Y3630000D01*
Y3669370D02*
Y3630000D01*
X2700000Y3924370D02*
X2710900Y3885000D01*
X2721810Y3924370D02*
X2710900Y3885000D01*
X2754540Y3915000D02*
X2753180Y3918750D01*
X2750450Y3922500D01*
X2747720Y3924370D01*
X2742270D01*
X2739540Y3922500D01*
X2736810Y3918750D01*
X2735450Y3915000D01*
X2734090Y3909370D01*
Y3900000D01*
X2735450Y3894370D01*
X2736810Y3890620D01*
X2739540Y3886870D01*
X2742270Y3885000D01*
X2747720D01*
X2750450Y3886870D01*
X2753180Y3890620D01*
X2754540Y3894370D01*
X2787270Y3915000D02*
X2785900Y3918750D01*
X2783180Y3922500D01*
X2780450Y3924370D01*
X2775000D01*
X2772270Y3922500D01*
X2769540Y3918750D01*
X2768180Y3915000D01*
X2766810Y3909370D01*
Y3900000D01*
X2768180Y3894370D01*
X2769540Y3890620D01*
X2772270Y3886870D01*
X2775000Y3885000D01*
X2780450D01*
X2783180Y3886870D01*
X2785900Y3890620D01*
X2787270Y3894370D01*
X3265000Y3929370D02*
Y3890000D01*
Y3929370D02*
X3274540D01*
X3278630Y3927500D01*
X3281360Y3923750D01*
X3282720Y3920000D01*
X3284090Y3914370D01*
Y3905000D01*
X3282720Y3899370D01*
X3281360Y3895620D01*
X3278630Y3891870D01*
X3274540Y3890000D01*
X3265000D01*
X3296360Y3905000D02*
X3312720D01*
Y3908750D01*
X3311360Y3912500D01*
X3310000Y3914370D01*
X3307270Y3916250D01*
X3303180D01*
X3300450Y3914370D01*
X3297720Y3910620D01*
X3296360Y3905000D01*
Y3901250D01*
X3297720Y3895620D01*
X3300450Y3891870D01*
X3303180Y3890000D01*
X3307270D01*
X3310000Y3891870D01*
X3312720Y3895620D01*
X3329090Y3929370D02*
Y3897500D01*
X3330450Y3891870D01*
X3333180Y3890000D01*
X3335900D01*
X3325000Y3916250D02*
X3334540D01*
X3348180Y3905000D02*
X3364540D01*
Y3908750D01*
X3363180Y3912500D01*
X3361810Y3914370D01*
X3359090Y3916250D01*
X3355000D01*
X3352270Y3914370D01*
X3349540Y3910620D01*
X3348180Y3905000D01*
Y3901250D01*
X3349540Y3895620D01*
X3352270Y3891870D01*
X3355000Y3890000D01*
X3359090D01*
X3361810Y3891870D01*
X3364540Y3895620D01*
X3393180Y3910620D02*
X3390450Y3914370D01*
X3387720Y3916250D01*
X3383630D01*
X3380900Y3914370D01*
X3378180Y3910620D01*
X3376810Y3905000D01*
Y3901250D01*
X3378180Y3895620D01*
X3380900Y3891870D01*
X3383630Y3890000D01*
X3387720D01*
X3390450Y3891870D01*
X3393180Y3895620D01*
X3409540Y3929370D02*
Y3897500D01*
X3410900Y3891870D01*
X3413630Y3890000D01*
X3416360D01*
X3405450Y3916250D02*
X3415000D01*
X3435450D02*
X3432720Y3914370D01*
X3430000Y3910620D01*
X3428630Y3905000D01*
Y3901250D01*
X3430000Y3895620D01*
X3432720Y3891870D01*
X3435450Y3890000D01*
X3439540D01*
X3442270Y3891870D01*
X3445000Y3895620D01*
X3446360Y3901250D01*
Y3905000D01*
X3445000Y3910620D01*
X3442270Y3914370D01*
X3439540Y3916250D01*
X3435450D01*
X3458630D02*
Y3890000D01*
Y3905000D02*
X3460000Y3910620D01*
X3462720Y3914370D01*
X3465450Y3916250D01*
X3469540D01*
X3306000Y3876370D02*
X3316900Y3837000D01*
X3327810Y3876370D02*
X3316900Y3837000D01*
X3346900Y3863250D02*
X3344180Y3861370D01*
X3341450Y3857620D01*
X3340090Y3852000D01*
Y3848250D01*
X3341450Y3842620D01*
X3344180Y3838870D01*
X3346900Y3837000D01*
X3351000D01*
X3353720Y3838870D01*
X3356450Y3842620D01*
X3357810Y3848250D01*
Y3852000D01*
X3356450Y3857620D01*
X3353720Y3861370D01*
X3351000Y3863250D01*
X3346900D01*
X3370090D02*
Y3844500D01*
X3371450Y3838870D01*
X3374180Y3837000D01*
X3378270D01*
X3381000Y3838870D01*
X3385090Y3844500D01*
Y3863250D02*
Y3837000D01*
X3401450Y3876370D02*
Y3844500D01*
X3402810Y3838870D01*
X3405540Y3837000D01*
X3408270D01*
X3397360Y3863250D02*
X3406900D01*
X2380450Y3915000D02*
X2379090Y3918750D01*
X2376360Y3922500D01*
X2373630Y3924370D01*
X2368180D01*
X2365450Y3922500D01*
X2362720Y3918750D01*
X2361360Y3915000D01*
X2360000Y3909370D01*
Y3900000D01*
X2361360Y3894370D01*
X2362720Y3890620D01*
X2365450Y3886870D01*
X2368180Y3885000D01*
X2373630D01*
X2376360Y3886870D01*
X2379090Y3890620D01*
X2380450Y3894370D01*
Y3900000D01*
X2373630D02*
X2380450D01*
X2392720Y3924370D02*
Y3885000D01*
Y3924370D02*
X2411810Y3885000D01*
Y3924370D02*
Y3885000D01*
X2424090Y3924370D02*
Y3885000D01*
Y3924370D02*
X2433630D01*
X2437720Y3922500D01*
X2440450Y3918750D01*
X2441810Y3915000D01*
X2443180Y3909370D01*
Y3900000D01*
X2441810Y3894370D01*
X2440450Y3890620D01*
X2437720Y3886870D01*
X2433630Y3885000D01*
X2424090D01*
X2380000Y3700370D02*
Y3661000D01*
Y3700370D02*
X2392270D01*
X2396360Y3698500D01*
X2397720Y3696620D01*
X2399090Y3692870D01*
Y3689120D01*
X2397720Y3685370D01*
X2396360Y3683500D01*
X2392270Y3681620D01*
X2380000D01*
X2389540D02*
X2399090Y3661000D01*
X2411360Y3700370D02*
Y3661000D01*
Y3700370D02*
X2429090D01*
X2411360Y3681620D02*
X2422270D01*
X2441360Y3700370D02*
X2442720Y3698500D01*
X2444090Y3700370D01*
X2442720Y3702250D01*
X2441360Y3700370D01*
X2442720Y3687250D02*
Y3661000D01*
X2456360Y3687250D02*
Y3661000D01*
Y3679750D02*
X2460450Y3685370D01*
X2463180Y3687250D01*
X2467270D01*
X2470000Y3685370D01*
X2471360Y3679750D01*
Y3661000D01*
X2575000Y3257500D02*
Y3205000D01*
Y3257500D02*
X2587720D01*
X2593180Y3255000D01*
X2596810Y3250000D01*
X2598630Y3245000D01*
X2600450Y3237500D01*
Y3225000D01*
X2598630Y3217500D01*
X2596810Y3212500D01*
X2593180Y3207500D01*
X2587720Y3205000D01*
X2575000D01*
X2644090Y3245000D02*
X2642270Y3250000D01*
X2638630Y3255000D01*
X2635000Y3257500D01*
X2627720D01*
X2624090Y3255000D01*
X2620450Y3250000D01*
X2618630Y3245000D01*
X2616810Y3237500D01*
Y3225000D01*
X2618630Y3217500D01*
X2620450Y3212500D01*
X2624090Y3207500D01*
X2627720Y3205000D01*
X2635000D01*
X2638630Y3207500D01*
X2642270Y3212500D01*
X2644090Y3217500D01*
X2664090Y3257500D02*
X2684090D01*
X2673180Y3237500D01*
X2678630D01*
X2682270Y3235000D01*
X2684090Y3232500D01*
X2685900Y3225000D01*
Y3220000D01*
X2684090Y3212500D01*
X2680450Y3207500D01*
X2675000Y3205000D01*
X2669540D01*
X2664090Y3207500D01*
X2662270Y3210000D01*
X2660450Y3215000D01*
X2725900Y3240000D02*
X2724090Y3232500D01*
X2720450Y3227500D01*
X2715000Y3225000D01*
X2713180D01*
X2707720Y3227500D01*
X2704090Y3232500D01*
X2702270Y3240000D01*
Y3242500D01*
X2704090Y3250000D01*
X2707720Y3255000D01*
X2713180Y3257500D01*
X2715000D01*
X2720450Y3255000D01*
X2724090Y3250000D01*
X2725900Y3240000D01*
Y3227500D01*
X2724090Y3215000D01*
X2720450Y3207500D01*
X2715000Y3205000D01*
X2711360D01*
X2705900Y3207500D01*
X2704090Y3212500D01*
X2742270Y3247500D02*
X2745900Y3250000D01*
X2751360Y3257500D01*
Y3205000D01*
X2782270Y3257500D02*
X2767720Y3205000D01*
X2782270Y3257500D02*
X2796810Y3205000D01*
X2773180Y3222500D02*
X2791360D01*
X2813180Y3227500D02*
X2845900D01*
X2595000Y3169370D02*
Y3130000D01*
X2611360D01*
X2633180Y3169370D02*
Y3130000D01*
X2623630Y3169370D02*
X2642720D01*
X2675450Y3160000D02*
X2674090Y3163750D01*
X2671360Y3167500D01*
X2668630Y3169370D01*
X2663180D01*
X2660450Y3167500D01*
X2657720Y3163750D01*
X2656360Y3160000D01*
X2655000Y3154370D01*
Y3145000D01*
X2656360Y3139370D01*
X2657720Y3135620D01*
X2660450Y3131870D01*
X2663180Y3130000D01*
X2668630D01*
X2671360Y3131870D01*
X2674090Y3135620D01*
X2675450Y3139370D01*
X2705450Y3169370D02*
X2691810D01*
X2690450Y3152500D01*
X2691810Y3154370D01*
X2695900Y3156250D01*
X2700000D01*
X2704090Y3154370D01*
X2706810Y3150620D01*
X2708180Y3145000D01*
X2706810Y3141250D01*
X2705450Y3135620D01*
X2702720Y3131870D01*
X2698630Y3130000D01*
X2694540D01*
X2690450Y3131870D01*
X2689090Y3133750D01*
X2687720Y3137500D01*
X2738180Y3169370D02*
X2724540D01*
X2723180Y3152500D01*
X2724540Y3154370D01*
X2728630Y3156250D01*
X2732720D01*
X2736810Y3154370D01*
X2739540Y3150620D01*
X2740900Y3145000D01*
X2739540Y3141250D01*
X2738180Y3135620D01*
X2735450Y3131870D01*
X2731360Y3130000D01*
X2727270D01*
X2723180Y3131870D01*
X2721810Y3133750D01*
X2720450Y3137500D01*
X2761360Y3169370D02*
X2757270Y3167500D01*
X2754540Y3161870D01*
X2753180Y3152500D01*
Y3146870D01*
X2754540Y3137500D01*
X2757270Y3131870D01*
X2761360Y3130000D01*
X2764090D01*
X2768180Y3131870D01*
X2770900Y3137500D01*
X2772270Y3146870D01*
Y3152500D01*
X2770900Y3161870D01*
X2768180Y3167500D01*
X2764090Y3169370D01*
X2761360D01*
X2802270D02*
X2788630D01*
X2787270Y3152500D01*
X2788630Y3154370D01*
X2792720Y3156250D01*
X2796810D01*
X2800900Y3154370D01*
X2803630Y3150620D01*
X2805000Y3145000D01*
X2803630Y3141250D01*
X2802270Y3135620D01*
X2799540Y3131870D01*
X2795450Y3130000D01*
X2791360D01*
X2787270Y3131870D01*
X2785900Y3133750D01*
X2784540Y3137500D01*
X2817270Y3146870D02*
X2841810D01*
X2432000Y3095370D02*
Y3056000D01*
Y3095370D02*
X2444270D01*
X2448360Y3093500D01*
X2449720Y3091620D01*
X2451090Y3087870D01*
Y3084120D01*
X2449720Y3080370D01*
X2448360Y3078500D01*
X2444270Y3076620D01*
X2432000D01*
X2441540D02*
X2451090Y3056000D01*
X2463360Y3095370D02*
Y3056000D01*
Y3095370D02*
X2481090D01*
X2463360Y3076620D02*
X2474270D01*
X2517900Y3095370D02*
Y3056000D01*
Y3095370D02*
X2530180D01*
X2534270Y3093500D01*
X2535630Y3091620D01*
X2537000Y3087870D01*
Y3082250D01*
X2535630Y3078500D01*
X2534270Y3076620D01*
X2530180Y3074750D01*
X2517900D01*
X2557450Y3095370D02*
X2554720Y3093500D01*
X2552000Y3089750D01*
X2550630Y3086000D01*
X2549270Y3080370D01*
Y3071000D01*
X2550630Y3065370D01*
X2552000Y3061620D01*
X2554720Y3057870D01*
X2557450Y3056000D01*
X2562900D01*
X2565630Y3057870D01*
X2568360Y3061620D01*
X2569720Y3065370D01*
X2571090Y3071000D01*
Y3080370D01*
X2569720Y3086000D01*
X2568360Y3089750D01*
X2565630Y3093500D01*
X2562900Y3095370D01*
X2557450D01*
X2583360D02*
X2590180Y3056000D01*
X2597000Y3095370D02*
X2590180Y3056000D01*
X2597000Y3095370D02*
X2603810Y3056000D01*
X2610630Y3095370D02*
X2603810Y3056000D01*
X2622900Y3095370D02*
Y3056000D01*
Y3095370D02*
X2640630D01*
X2622900Y3076620D02*
X2633810D01*
X2622900Y3056000D02*
X2640630D01*
X2652900Y3095370D02*
Y3056000D01*
Y3095370D02*
X2665180D01*
X2669270Y3093500D01*
X2670630Y3091620D01*
X2672000Y3087870D01*
Y3084120D01*
X2670630Y3080370D01*
X2669270Y3078500D01*
X2665180Y3076620D01*
X2652900D01*
X2662450D02*
X2672000Y3056000D01*
X2708810Y3095370D02*
Y3056000D01*
Y3095370D02*
X2718360D01*
X2722450Y3093500D01*
X2725180Y3089750D01*
X2726540Y3086000D01*
X2727900Y3080370D01*
Y3071000D01*
X2726540Y3065370D01*
X2725180Y3061620D01*
X2722450Y3057870D01*
X2718360Y3056000D01*
X2708810D01*
X2740180Y3095370D02*
Y3056000D01*
Y3095370D02*
X2757900D01*
X2740180Y3076620D02*
X2751090D01*
X2740180Y3056000D02*
X2757900D01*
X2779720Y3095370D02*
Y3056000D01*
X2770180Y3095370D02*
X2789270D01*
X2801540D02*
Y3056000D01*
Y3095370D02*
X2819270D01*
X2801540Y3076620D02*
X2812450D01*
X2801540Y3056000D02*
X2819270D01*
X2852000Y3086000D02*
X2850630Y3089750D01*
X2847900Y3093500D01*
X2845180Y3095370D01*
X2839720D01*
X2837000Y3093500D01*
X2834270Y3089750D01*
X2832900Y3086000D01*
X2831540Y3080370D01*
Y3071000D01*
X2832900Y3065370D01*
X2834270Y3061620D01*
X2837000Y3057870D01*
X2839720Y3056000D01*
X2845180D01*
X2847900Y3057870D01*
X2850630Y3061620D01*
X2852000Y3065370D01*
X2873810Y3095370D02*
Y3056000D01*
X2864270Y3095370D02*
X2883360D01*
X2903810D02*
X2901090Y3093500D01*
X2898360Y3089750D01*
X2897000Y3086000D01*
X2895630Y3080370D01*
Y3071000D01*
X2897000Y3065370D01*
X2898360Y3061620D01*
X2901090Y3057870D01*
X2903810Y3056000D01*
X2909270D01*
X2912000Y3057870D01*
X2914720Y3061620D01*
X2916090Y3065370D01*
X2917450Y3071000D01*
Y3080370D01*
X2916090Y3086000D01*
X2914720Y3089750D01*
X2912000Y3093500D01*
X2909270Y3095370D01*
X2903810D01*
X2929720D02*
Y3056000D01*
Y3095370D02*
X2942000D01*
X2946090Y3093500D01*
X2947450Y3091620D01*
X2948810Y3087870D01*
Y3084120D01*
X2947450Y3080370D01*
X2946090Y3078500D01*
X2942000Y3076620D01*
X2929720D01*
X2939270D02*
X2948810Y3056000D01*
G54D13*
X2730000Y3849370D02*
Y3810000D01*
Y3849370D02*
X2747720D01*
X2730000Y3830620D02*
X2740900D01*
X2730000Y3810000D02*
X2747720D01*
X2760000Y3841870D02*
X2762720Y3843750D01*
X2766810Y3849370D01*
Y3810000D01*
X3260000Y3809370D02*
Y3770000D01*
Y3809370D02*
X3277720D01*
X3260000Y3790620D02*
X3270900D01*
X3260000Y3770000D02*
X3277720D01*
X3291360Y3800000D02*
Y3801870D01*
X3292720Y3805620D01*
X3294090Y3807500D01*
X3296810Y3809370D01*
X3302270D01*
X3305000Y3807500D01*
X3306360Y3805620D01*
X3307720Y3801870D01*
Y3798120D01*
X3306360Y3794370D01*
X3303630Y3788750D01*
X3290000Y3770000D01*
X3309090D01*
X2385000Y3849370D02*
Y3810000D01*
Y3849370D02*
X2402720D01*
X2385000Y3830620D02*
X2395900D01*
X2385000Y3810000D02*
X2402720D01*
X2417720Y3849370D02*
X2432720D01*
X2424540Y3834370D01*
X2428630D01*
X2431360Y3832500D01*
X2432720Y3830620D01*
X2434090Y3825000D01*
Y3821250D01*
X2432720Y3815620D01*
X2430000Y3811870D01*
X2425900Y3810000D01*
X2421810D01*
X2417720Y3811870D01*
X2416360Y3813750D01*
X2415000Y3817500D01*
X3335000Y3474370D02*
Y3435000D01*
Y3474370D02*
X3352720D01*
X3335000Y3455620D02*
X3345900D01*
X3335000Y3435000D02*
X3352720D01*
X3378630Y3474370D02*
X3365000Y3448120D01*
X3385450D01*
X3378630Y3474370D02*
Y3435000D01*
%LPC*%
G75*
X3378630Y3435000D02*
G54D14*
X2885500Y3400000D03*
X2922500D03*
X2959500D03*
Y3500000D03*
X2885500D03*
G54D15*
X2998750Y3262500D03*
Y3162500D03*
X3338750D03*
Y3262500D03*
G54D16*
X2754000Y3400000D03*
X2818000D03*
X2818750Y3555500D03*
Y3619500D03*
X2887500Y3555500D03*
Y3619500D03*
X3093000Y3575000D03*
X3157000D03*
X2680000Y3464000D03*
Y3400000D03*
X3094500Y3500000D03*
X3030500D03*
X3025000Y3438250D03*
Y3374250D03*
X2602000Y3400000D03*
X2538000D03*
G54D17*
X2387000D03*
G36*
X2265750Y3260564D02*
X2266813Y3261769D01*
G02X2300000Y3276750I33188J-29269D01*
G01X2470000D01*
G02X2470000Y3188250I0J-44250D01*
G01X2300000D01*
G02X2266813Y3203231I0J44250D01*
G01X2265750Y3204436D01*
Y3260564D01*
G37*
G36*
Y3595564D02*
X2266813Y3596769D01*
G02X2300000Y3611750I33188J-29269D01*
G01X2470000D01*
G02X2470000Y3523250I0J-44250D01*
G01X2300000D01*
G02X2266813Y3538231I0J44250D01*
G01X2265750Y3539436D01*
Y3595564D01*
G37*
G54D18*
X2850000Y3850000D03*
X3200000D03*
X2500000D03*
X3350000Y3550000D03*
G54D19*
X2340000Y3040000D03*
Y3090000D03*
X2465000Y3040000D03*
X2615000D03*
X2765000D03*
X2905000D03*
X3050000D03*
X3190000D03*
X3320000D03*
X3455000D03*
X2337500Y3162500D03*
X2387500D03*
X2443750D03*
X2493750D03*
X3425000D03*
X2531250Y3193750D03*
X2537500Y3237500D03*
X2525000Y3275000D03*
X3425000Y3262500D03*
X2387500Y3293750D03*
X2337500D03*
X2487500D03*
X2437500D03*
X2565000Y3295000D03*
X2630000D03*
X2785000D03*
X2710000D03*
X2850000Y3305000D03*
X2890000Y3345000D03*
X3450000Y3380000D03*
X2887500Y3450000D03*
X2959500Y3449000D03*
X2922500Y3435000D03*
X3081250Y3437500D03*
X3450000Y3485000D03*
X2345000Y3510000D03*
X2455000D03*
X2400000D03*
X2565000Y3505000D03*
X2515000Y3520000D03*
X2535000Y3565000D03*
X2665000Y3505000D03*
X2620000D03*
X2695000D03*
X2750000D03*
X2805000D03*
X3043750Y3556250D03*
X3193750Y3575000D03*
X2340000Y3630000D03*
X2445000D03*
X2390000D03*
X2500000D03*
X2670000Y3605000D03*
X2785000Y3620000D03*
X2887500Y3656250D03*
X2818750D03*
X2925000Y3618750D03*
X3035000Y3620000D03*
X3156250Y3618750D03*
X3450000Y3660000D03*
X2340000Y3740000D03*
X2670000Y3725000D03*
X3035000Y3740000D03*
X2340000Y3855000D03*
X2670000Y3840000D03*
X3035000Y3860000D03*
X3450000Y3830000D03*
X2340000Y3955000D03*
X2470000D03*
X2595000D03*
X2730000D03*
X2895000D03*
X3035000Y3960000D03*
X3145000D03*
X3270000D03*
X3450000D03*
M02*
