*
%FSLAX26Y26*%
%MOIN*%
%ADD10C,0.020000*%
%ADD11C,0.125000*%
%ADD12C,0.024000*%
%ADD13C,0.004000*%
%IPPOS*%
%LNl2pp.gbr*%
%LPD*%
G75*
G36*
X550000Y670000D02*
Y937500D01*
X1307250D01*
G03X1355250Y937500I24000J0D01*
G01X1730000D01*
Y522500D01*
G02X1727500Y520000I-2500J0D01*
G01X567500D01*
G02X565000Y522500I0J2500D01*
G01Y670000D01*
X550000D01*
G37*
G36*
Y937500D02*
Y1056250D01*
X1269750D01*
G03X1316922Y1050000I24000J0D01*
G01X1525500D01*
G03X1674500Y1050000I74500J0D01*
G01X1730000D01*
Y937500D01*
X1355250D01*
G03X1307250Y937500I-24000J0D01*
G01X550000D01*
G37*
G36*
Y1056250D02*
Y1125000D01*
X565000D01*
Y1350000D01*
X1025500D01*
G03X1174500Y1350000I74500J0D01*
G01X1375500D01*
G03X1524500Y1350000I74500J0D01*
G01X1730000D01*
Y1050000D01*
X1674500D01*
G03X1525763Y1056250I-74500J0D01*
G01X1317750D01*
G03X1269750Y1056250I-24000J0D01*
G01X550000D01*
G37*
G36*
X565000Y1350000D02*
Y1477500D01*
G02X567500Y1480000I2500J0D01*
G01X1727500D01*
G02X1730000Y1477500I0J-2500D01*
G01Y1350000D01*
X1524500D01*
G03X1375500Y1350000I-74500J0D01*
G01X1174500D01*
G03X1025500Y1350000I-74500J0D01*
G01X565000D01*
G37*
G36*
X1316922Y1050000D02*
G03X1317750Y1056250I-23172J6250D01*
G01X1525763D01*
G03X1525500Y1050000I74237J-6250D01*
G01X1316922D01*
G37*
G36*
X566000Y1351000D02*
X1024500D01*
G02X1024500Y1349000I0J-1000D01*
G01X566000D01*
G02X566000Y1351000I0J1000D01*
G37*
G36*
X1175500D02*
G01X1374500D01*
G02X1374500Y1349000I0J-1000D01*
G01X1175500D01*
G02X1175500Y1351000I0J1000D01*
G37*
G36*
G01X1374500D01*
G02X1374500Y1349000I0J-1000D01*
G01X1175500D01*
G02X1175500Y1351000I0J1000D01*
G37*
G36*
X551000Y1057250D02*
G01X1268750D01*
G02X1268750Y1055250I0J-1000D01*
G01X551000D01*
G02X551000Y1057250I0J1000D01*
G37*
G36*
X1318750D02*
G01X1524759D01*
G02X1524759Y1055250I0J-1000D01*
G01X1318750D01*
G02X1318750Y1057250I0J1000D01*
G37*
G36*
X551000Y938500D02*
G01X1306250D01*
G02X1306250Y936500I0J-1000D01*
G01X551000D01*
G02X551000Y938500I0J1000D01*
G37*
G36*
X1356250D02*
G01X1729000D01*
G02X1729000Y936500I0J-1000D01*
G01X1356250D01*
G02X1356250Y938500I0J1000D01*
G37*
G36*
X1525500Y1351000D02*
G01X1729000D01*
G02X1729000Y1349000I0J-1000D01*
G01X1525500D01*
G02X1525500Y1351000I0J1000D01*
G37*
G36*
X1317956Y1051000D02*
G01X1524500D01*
G02X1524500Y1049000I0J-1000D01*
G01X1317956D01*
G02X1317956Y1051000I0J1000D01*
G37*
G36*
X1675500D02*
G01X1729000D01*
G02X1729000Y1049000I0J-1000D01*
G01X1675500D01*
G02X1675500Y1051000I0J1000D01*
G37*
G54D10*
X1675000Y762500D02*
G01Y855000D01*
X1700000Y880000D01*
Y985000D01*
X1175000Y1118750D02*
X1283750D01*
X1285000Y1120000D01*
Y1240000D01*
X1700000Y1160000D02*
Y1330000D01*
X1285000Y1240000D02*
Y1360000D01*
Y1460000D01*
X1700000Y1330000D02*
Y1460000D01*
X1285000D02*
X1395000D01*
X1520000D01*
X1700000D02*
X1520000D01*
G54D11*
X750000Y1350000D03*
G54D12*
X590000Y540000D03*
Y590000D03*
X715000Y540000D03*
X865000D03*
X1015000D03*
X1155000D03*
X1300000D03*
X1440000D03*
X1570000D03*
X1705000D03*
X587500Y662500D03*
X637500D03*
X693750D03*
X743750D03*
X1675000D03*
X781250Y693750D03*
X787500Y737500D03*
X775000Y775000D03*
X1675000Y762500D03*
X637500Y793750D03*
X587500D03*
X737500D03*
X687500D03*
X815000Y795000D03*
X880000D03*
X1035000D03*
X960000D03*
X1100000Y805000D03*
X1140000Y845000D03*
X1700000Y880000D03*
X1137500Y950000D03*
X1209500Y949000D03*
X1172500Y935000D03*
X1700000Y985000D03*
X595000Y1010000D03*
X705000D03*
X650000D03*
X815000Y1005000D03*
X765000Y1020000D03*
X785000Y1065000D03*
X915000Y1005000D03*
X870000D03*
X945000D03*
X1000000D03*
X1055000D03*
X1443750Y1075000D03*
X590000Y1130000D03*
X695000D03*
X640000D03*
X750000D03*
X920000Y1105000D03*
X1035000Y1120000D03*
X1137500Y1156250D03*
X1068750D03*
X1175000Y1118750D03*
X1285000Y1120000D03*
X1406250Y1118750D03*
X1700000Y1160000D03*
X590000Y1240000D03*
X920000Y1225000D03*
X1285000Y1240000D03*
X590000Y1355000D03*
X920000Y1340000D03*
X1285000Y1360000D03*
X1700000Y1330000D03*
X590000Y1455000D03*
X720000D03*
X845000D03*
X980000D03*
X1145000D03*
X1285000Y1460000D03*
X1395000D03*
X1520000D03*
X1700000D03*
%LPC*%
G75*
X1700000Y1460000D02*
G54D13*
X550000Y600000D02*
Y1400000D01*
%LPD*%
G75*
X550000Y1400000D02*
G36*
Y1920000D02*
Y2187500D01*
X1307250D01*
G03X1355250Y2187500I24000J0D01*
G01X1730000D01*
Y1772500D01*
G02X1727500Y1770000I-2500J0D01*
G01X567500D01*
G02X565000Y1772500I0J2500D01*
G01Y1920000D01*
X550000D01*
G37*
G36*
Y2187500D02*
Y2306250D01*
X1269750D01*
G03X1316922Y2300000I24000J0D01*
G01X1525500D01*
G03X1674500Y2300000I74500J0D01*
G01X1730000D01*
Y2187500D01*
X1355250D01*
G03X1307250Y2187500I-24000J0D01*
G01X550000D01*
G37*
G36*
Y2306250D02*
Y2375000D01*
X565000D01*
Y2600000D01*
X1025500D01*
G03X1174500Y2600000I74500J0D01*
G01X1375500D01*
G03X1524500Y2600000I74500J0D01*
G01X1730000D01*
Y2300000D01*
X1674500D01*
G03X1525763Y2306250I-74500J0D01*
G01X1317750D01*
G03X1269750Y2306250I-24000J0D01*
G01X550000D01*
G37*
G36*
X565000Y2600000D02*
Y2727500D01*
G02X567500Y2730000I2500J0D01*
G01X1727500D01*
G02X1730000Y2727500I0J-2500D01*
G01Y2600000D01*
X1524500D01*
G03X1375500Y2600000I-74500J0D01*
G01X1174500D01*
G03X1025500Y2600000I-74500J0D01*
G01X565000D01*
G37*
G36*
X1316922Y2300000D02*
G03X1317750Y2306250I-23172J6250D01*
G01X1525763D01*
G03X1525500Y2300000I74237J-6250D01*
G01X1316922D01*
G37*
G36*
X566000Y2601000D02*
X1024500D01*
G02X1024500Y2599000I0J-1000D01*
G01X566000D01*
G02X566000Y2601000I0J1000D01*
G37*
G36*
X1175500D02*
G01X1374500D01*
G02X1374500Y2599000I0J-1000D01*
G01X1175500D01*
G02X1175500Y2601000I0J1000D01*
G37*
G36*
G01X1374500D01*
G02X1374500Y2599000I0J-1000D01*
G01X1175500D01*
G02X1175500Y2601000I0J1000D01*
G37*
G36*
X551000Y2307250D02*
G01X1268750D01*
G02X1268750Y2305250I0J-1000D01*
G01X551000D01*
G02X551000Y2307250I0J1000D01*
G37*
G36*
X1318750D02*
G01X1524759D01*
G02X1524759Y2305250I0J-1000D01*
G01X1318750D01*
G02X1318750Y2307250I0J1000D01*
G37*
G36*
X551000Y2188500D02*
G01X1306250D01*
G02X1306250Y2186500I0J-1000D01*
G01X551000D01*
G02X551000Y2188500I0J1000D01*
G37*
G36*
X1356250D02*
G01X1729000D01*
G02X1729000Y2186500I0J-1000D01*
G01X1356250D01*
G02X1356250Y2188500I0J1000D01*
G37*
G36*
X1525500Y2601000D02*
G01X1729000D01*
G02X1729000Y2599000I0J-1000D01*
G01X1525500D01*
G02X1525500Y2601000I0J1000D01*
G37*
G36*
X1317956Y2301000D02*
G01X1524500D01*
G02X1524500Y2299000I0J-1000D01*
G01X1317956D01*
G02X1317956Y2301000I0J1000D01*
G37*
G36*
X1675500D02*
G01X1729000D01*
G02X1729000Y2299000I0J-1000D01*
G01X1675500D01*
G02X1675500Y2301000I0J1000D01*
G37*
G54D10*
X1675000Y2012500D02*
G01Y2105000D01*
X1700000Y2130000D01*
Y2235000D01*
X1175000Y2368750D02*
X1283750D01*
X1285000Y2370000D01*
Y2490000D01*
X1700000Y2410000D02*
Y2580000D01*
X1285000Y2490000D02*
Y2610000D01*
Y2710000D01*
X1700000Y2580000D02*
Y2710000D01*
X1285000D02*
X1395000D01*
X1520000D01*
X1700000D02*
X1520000D01*
G54D11*
X750000Y2600000D03*
G54D12*
X590000Y1790000D03*
Y1840000D03*
X715000Y1790000D03*
X865000D03*
X1015000D03*
X1155000D03*
X1300000D03*
X1440000D03*
X1570000D03*
X1705000D03*
X587500Y1912500D03*
X637500D03*
X693750D03*
X743750D03*
X1675000D03*
X781250Y1943750D03*
X787500Y1987500D03*
X775000Y2025000D03*
X1675000Y2012500D03*
X637500Y2043750D03*
X587500D03*
X737500D03*
X687500D03*
X815000Y2045000D03*
X880000D03*
X1035000D03*
X960000D03*
X1100000Y2055000D03*
X1140000Y2095000D03*
X1700000Y2130000D03*
X1137500Y2200000D03*
X1209500Y2199000D03*
X1172500Y2185000D03*
X1700000Y2235000D03*
X595000Y2260000D03*
X705000D03*
X650000D03*
X815000Y2255000D03*
X765000Y2270000D03*
X785000Y2315000D03*
X915000Y2255000D03*
X870000D03*
X945000D03*
X1000000D03*
X1055000D03*
X1443750Y2325000D03*
X590000Y2380000D03*
X695000D03*
X640000D03*
X750000D03*
X920000Y2355000D03*
X1035000Y2370000D03*
X1137500Y2406250D03*
X1068750D03*
X1175000Y2368750D03*
X1285000Y2370000D03*
X1406250Y2368750D03*
X1700000Y2410000D03*
X590000Y2490000D03*
X920000Y2475000D03*
X1285000Y2490000D03*
X590000Y2605000D03*
X920000Y2590000D03*
X1285000Y2610000D03*
X1700000Y2580000D03*
X590000Y2705000D03*
X720000D03*
X845000D03*
X980000D03*
X1145000D03*
X1285000Y2710000D03*
X1395000D03*
X1520000D03*
X1700000D03*
%LPC*%
G75*
X1700000Y2710000D02*
G54D13*
X550000Y1850000D02*
Y2650000D01*
%LPD*%
G75*
X550000Y2650000D02*
G36*
Y3170000D02*
Y3437500D01*
X1307250D01*
G03X1355250Y3437500I24000J0D01*
G01X1730000D01*
Y3022500D01*
G02X1727500Y3020000I-2500J0D01*
G01X567500D01*
G02X565000Y3022500I0J2500D01*
G01Y3170000D01*
X550000D01*
G37*
G36*
Y3437500D02*
Y3556250D01*
X1269750D01*
G03X1316922Y3550000I24000J0D01*
G01X1525500D01*
G03X1674500Y3550000I74500J0D01*
G01X1730000D01*
Y3437500D01*
X1355250D01*
G03X1307250Y3437500I-24000J0D01*
G01X550000D01*
G37*
G36*
Y3556250D02*
Y3625000D01*
X565000D01*
Y3850000D01*
X1025500D01*
G03X1174500Y3850000I74500J0D01*
G01X1375500D01*
G03X1524500Y3850000I74500J0D01*
G01X1730000D01*
Y3550000D01*
X1674500D01*
G03X1525763Y3556250I-74500J0D01*
G01X1317750D01*
G03X1269750Y3556250I-24000J0D01*
G01X550000D01*
G37*
G36*
X565000Y3850000D02*
Y3977500D01*
G02X567500Y3980000I2500J0D01*
G01X1727500D01*
G02X1730000Y3977500I0J-2500D01*
G01Y3850000D01*
X1524500D01*
G03X1375500Y3850000I-74500J0D01*
G01X1174500D01*
G03X1025500Y3850000I-74500J0D01*
G01X565000D01*
G37*
G36*
X1316922Y3550000D02*
G03X1317750Y3556250I-23172J6250D01*
G01X1525763D01*
G03X1525500Y3550000I74237J-6250D01*
G01X1316922D01*
G37*
G36*
X566000Y3851000D02*
X1024500D01*
G02X1024500Y3849000I0J-1000D01*
G01X566000D01*
G02X566000Y3851000I0J1000D01*
G37*
G36*
X1175500D02*
G01X1374500D01*
G02X1374500Y3849000I0J-1000D01*
G01X1175500D01*
G02X1175500Y3851000I0J1000D01*
G37*
G36*
G01X1374500D01*
G02X1374500Y3849000I0J-1000D01*
G01X1175500D01*
G02X1175500Y3851000I0J1000D01*
G37*
G36*
X551000Y3557250D02*
G01X1268750D01*
G02X1268750Y3555250I0J-1000D01*
G01X551000D01*
G02X551000Y3557250I0J1000D01*
G37*
G36*
X1318750D02*
G01X1524759D01*
G02X1524759Y3555250I0J-1000D01*
G01X1318750D01*
G02X1318750Y3557250I0J1000D01*
G37*
G36*
X551000Y3438500D02*
G01X1306250D01*
G02X1306250Y3436500I0J-1000D01*
G01X551000D01*
G02X551000Y3438500I0J1000D01*
G37*
G36*
X1356250D02*
G01X1729000D01*
G02X1729000Y3436500I0J-1000D01*
G01X1356250D01*
G02X1356250Y3438500I0J1000D01*
G37*
G36*
X1525500Y3851000D02*
G01X1729000D01*
G02X1729000Y3849000I0J-1000D01*
G01X1525500D01*
G02X1525500Y3851000I0J1000D01*
G37*
G36*
X1317956Y3551000D02*
G01X1524500D01*
G02X1524500Y3549000I0J-1000D01*
G01X1317956D01*
G02X1317956Y3551000I0J1000D01*
G37*
G36*
X1675500D02*
G01X1729000D01*
G02X1729000Y3549000I0J-1000D01*
G01X1675500D01*
G02X1675500Y3551000I0J1000D01*
G37*
G54D10*
X1675000Y3262500D02*
G01Y3355000D01*
X1700000Y3380000D01*
Y3485000D01*
X1175000Y3618750D02*
X1283750D01*
X1285000Y3620000D01*
Y3740000D01*
X1700000Y3660000D02*
Y3830000D01*
X1285000Y3740000D02*
Y3860000D01*
Y3960000D01*
X1700000Y3830000D02*
Y3960000D01*
X1285000D02*
X1395000D01*
X1520000D01*
X1700000D02*
X1520000D01*
G54D11*
X750000Y3850000D03*
G54D12*
X590000Y3040000D03*
Y3090000D03*
X715000Y3040000D03*
X865000D03*
X1015000D03*
X1155000D03*
X1300000D03*
X1440000D03*
X1570000D03*
X1705000D03*
X587500Y3162500D03*
X637500D03*
X693750D03*
X743750D03*
X1675000D03*
X781250Y3193750D03*
X787500Y3237500D03*
X775000Y3275000D03*
X1675000Y3262500D03*
X637500Y3293750D03*
X587500D03*
X737500D03*
X687500D03*
X815000Y3295000D03*
X880000D03*
X1035000D03*
X960000D03*
X1100000Y3305000D03*
X1140000Y3345000D03*
X1700000Y3380000D03*
X1137500Y3450000D03*
X1209500Y3449000D03*
X1172500Y3435000D03*
X1700000Y3485000D03*
X595000Y3510000D03*
X705000D03*
X650000D03*
X815000Y3505000D03*
X765000Y3520000D03*
X785000Y3565000D03*
X915000Y3505000D03*
X870000D03*
X945000D03*
X1000000D03*
X1055000D03*
X1443750Y3575000D03*
X590000Y3630000D03*
X695000D03*
X640000D03*
X750000D03*
X920000Y3605000D03*
X1035000Y3620000D03*
X1137500Y3656250D03*
X1068750D03*
X1175000Y3618750D03*
X1285000Y3620000D03*
X1406250Y3618750D03*
X1700000Y3660000D03*
X590000Y3740000D03*
X920000Y3725000D03*
X1285000Y3740000D03*
X590000Y3855000D03*
X920000Y3840000D03*
X1285000Y3860000D03*
X1700000Y3830000D03*
X590000Y3955000D03*
X720000D03*
X845000D03*
X980000D03*
X1145000D03*
X1285000Y3960000D03*
X1395000D03*
X1520000D03*
X1700000D03*
%LPC*%
G75*
X1700000Y3960000D02*
G54D13*
X550000Y3100000D02*
Y3900000D01*
%LPD*%
G75*
X550000Y3900000D02*
G36*
X2300000Y670000D02*
Y937500D01*
X3057250D01*
G03X3105250Y937500I24000J0D01*
G01X3480000D01*
Y522500D01*
G02X3477500Y520000I-2500J0D01*
G01X2317500D01*
G02X2315000Y522500I0J2500D01*
G01Y670000D01*
X2300000D01*
G37*
G36*
Y937500D02*
Y1056250D01*
X3019750D01*
G03X3066922Y1050000I24000J0D01*
G01X3275500D01*
G03X3424500Y1050000I74500J0D01*
G01X3480000D01*
Y937500D01*
X3105250D01*
G03X3057250Y937500I-24000J0D01*
G01X2300000D01*
G37*
G36*
Y1056250D02*
Y1125000D01*
X2315000D01*
Y1350000D01*
X2775500D01*
G03X2924500Y1350000I74500J0D01*
G01X3125500D01*
G03X3274500Y1350000I74500J0D01*
G01X3480000D01*
Y1050000D01*
X3424500D01*
G03X3275763Y1056250I-74500J0D01*
G01X3067750D01*
G03X3019750Y1056250I-24000J0D01*
G01X2300000D01*
G37*
G36*
X2315000Y1350000D02*
Y1477500D01*
G02X2317500Y1480000I2500J0D01*
G01X3477500D01*
G02X3480000Y1477500I0J-2500D01*
G01Y1350000D01*
X3274500D01*
G03X3125500Y1350000I-74500J0D01*
G01X2924500D01*
G03X2775500Y1350000I-74500J0D01*
G01X2315000D01*
G37*
G36*
X3066922Y1050000D02*
G03X3067750Y1056250I-23172J6250D01*
G01X3275763D01*
G03X3275500Y1050000I74237J-6250D01*
G01X3066922D01*
G37*
G36*
X2316000Y1351000D02*
X2774500D01*
G02X2774500Y1349000I0J-1000D01*
G01X2316000D01*
G02X2316000Y1351000I0J1000D01*
G37*
G36*
X2925500D02*
G01X3124500D01*
G02X3124500Y1349000I0J-1000D01*
G01X2925500D01*
G02X2925500Y1351000I0J1000D01*
G37*
G36*
G01X3124500D01*
G02X3124500Y1349000I0J-1000D01*
G01X2925500D01*
G02X2925500Y1351000I0J1000D01*
G37*
G36*
X2301000Y1057250D02*
G01X3018750D01*
G02X3018750Y1055250I0J-1000D01*
G01X2301000D01*
G02X2301000Y1057250I0J1000D01*
G37*
G36*
X3068750D02*
G01X3274759D01*
G02X3274759Y1055250I0J-1000D01*
G01X3068750D01*
G02X3068750Y1057250I0J1000D01*
G37*
G36*
X2301000Y938500D02*
G01X3056250D01*
G02X3056250Y936500I0J-1000D01*
G01X2301000D01*
G02X2301000Y938500I0J1000D01*
G37*
G36*
X3106250D02*
G01X3479000D01*
G02X3479000Y936500I0J-1000D01*
G01X3106250D01*
G02X3106250Y938500I0J1000D01*
G37*
G36*
X3275500Y1351000D02*
G01X3479000D01*
G02X3479000Y1349000I0J-1000D01*
G01X3275500D01*
G02X3275500Y1351000I0J1000D01*
G37*
G36*
X3067956Y1051000D02*
G01X3274500D01*
G02X3274500Y1049000I0J-1000D01*
G01X3067956D01*
G02X3067956Y1051000I0J1000D01*
G37*
G36*
X3425500D02*
G01X3479000D01*
G02X3479000Y1049000I0J-1000D01*
G01X3425500D01*
G02X3425500Y1051000I0J1000D01*
G37*
G54D10*
X3425000Y762500D02*
G01Y855000D01*
X3450000Y880000D01*
Y985000D01*
X2925000Y1118750D02*
X3033750D01*
X3035000Y1120000D01*
Y1240000D01*
X3450000Y1160000D02*
Y1330000D01*
X3035000Y1240000D02*
Y1360000D01*
Y1460000D01*
X3450000Y1330000D02*
Y1460000D01*
X3035000D02*
X3145000D01*
X3270000D01*
X3450000D02*
X3270000D01*
G54D11*
X2500000Y1350000D03*
G54D12*
X2340000Y540000D03*
Y590000D03*
X2465000Y540000D03*
X2615000D03*
X2765000D03*
X2905000D03*
X3050000D03*
X3190000D03*
X3320000D03*
X3455000D03*
X2337500Y662500D03*
X2387500D03*
X2443750D03*
X2493750D03*
X3425000D03*
X2531250Y693750D03*
X2537500Y737500D03*
X2525000Y775000D03*
X3425000Y762500D03*
X2387500Y793750D03*
X2337500D03*
X2487500D03*
X2437500D03*
X2565000Y795000D03*
X2630000D03*
X2785000D03*
X2710000D03*
X2850000Y805000D03*
X2890000Y845000D03*
X3450000Y880000D03*
X2887500Y950000D03*
X2959500Y949000D03*
X2922500Y935000D03*
X3450000Y985000D03*
X2345000Y1010000D03*
X2455000D03*
X2400000D03*
X2565000Y1005000D03*
X2515000Y1020000D03*
X2535000Y1065000D03*
X2665000Y1005000D03*
X2620000D03*
X2695000D03*
X2750000D03*
X2805000D03*
X3193750Y1075000D03*
X2340000Y1130000D03*
X2445000D03*
X2390000D03*
X2500000D03*
X2670000Y1105000D03*
X2785000Y1120000D03*
X2887500Y1156250D03*
X2818750D03*
X2925000Y1118750D03*
X3035000Y1120000D03*
X3156250Y1118750D03*
X3450000Y1160000D03*
X2340000Y1240000D03*
X2670000Y1225000D03*
X3035000Y1240000D03*
X2340000Y1355000D03*
X2670000Y1340000D03*
X3035000Y1360000D03*
X3450000Y1330000D03*
X2340000Y1455000D03*
X2470000D03*
X2595000D03*
X2730000D03*
X2895000D03*
X3035000Y1460000D03*
X3145000D03*
X3270000D03*
X3450000D03*
%LPC*%
G75*
X3450000Y1460000D02*
G54D13*
X2300000Y600000D02*
Y1400000D01*
%LPD*%
G75*
X2300000Y1400000D02*
G36*
Y1920000D02*
Y2187500D01*
X3057250D01*
G03X3105250Y2187500I24000J0D01*
G01X3480000D01*
Y1772500D01*
G02X3477500Y1770000I-2500J0D01*
G01X2317500D01*
G02X2315000Y1772500I0J2500D01*
G01Y1920000D01*
X2300000D01*
G37*
G36*
Y2187500D02*
Y2306250D01*
X3019750D01*
G03X3066922Y2300000I24000J0D01*
G01X3275500D01*
G03X3424500Y2300000I74500J0D01*
G01X3480000D01*
Y2187500D01*
X3105250D01*
G03X3057250Y2187500I-24000J0D01*
G01X2300000D01*
G37*
G36*
Y2306250D02*
Y2375000D01*
X2315000D01*
Y2600000D01*
X2775500D01*
G03X2924500Y2600000I74500J0D01*
G01X3125500D01*
G03X3274500Y2600000I74500J0D01*
G01X3480000D01*
Y2300000D01*
X3424500D01*
G03X3275763Y2306250I-74500J0D01*
G01X3067750D01*
G03X3019750Y2306250I-24000J0D01*
G01X2300000D01*
G37*
G36*
X2315000Y2600000D02*
Y2727500D01*
G02X2317500Y2730000I2500J0D01*
G01X3477500D01*
G02X3480000Y2727500I0J-2500D01*
G01Y2600000D01*
X3274500D01*
G03X3125500Y2600000I-74500J0D01*
G01X2924500D01*
G03X2775500Y2600000I-74500J0D01*
G01X2315000D01*
G37*
G36*
X3066922Y2300000D02*
G03X3067750Y2306250I-23172J6250D01*
G01X3275763D01*
G03X3275500Y2300000I74237J-6250D01*
G01X3066922D01*
G37*
G36*
X2316000Y2601000D02*
X2774500D01*
G02X2774500Y2599000I0J-1000D01*
G01X2316000D01*
G02X2316000Y2601000I0J1000D01*
G37*
G36*
X2925500D02*
G01X3124500D01*
G02X3124500Y2599000I0J-1000D01*
G01X2925500D01*
G02X2925500Y2601000I0J1000D01*
G37*
G36*
G01X3124500D01*
G02X3124500Y2599000I0J-1000D01*
G01X2925500D01*
G02X2925500Y2601000I0J1000D01*
G37*
G36*
X2301000Y2307250D02*
G01X3018750D01*
G02X3018750Y2305250I0J-1000D01*
G01X2301000D01*
G02X2301000Y2307250I0J1000D01*
G37*
G36*
X3068750D02*
G01X3274759D01*
G02X3274759Y2305250I0J-1000D01*
G01X3068750D01*
G02X3068750Y2307250I0J1000D01*
G37*
G36*
X2301000Y2188500D02*
G01X3056250D01*
G02X3056250Y2186500I0J-1000D01*
G01X2301000D01*
G02X2301000Y2188500I0J1000D01*
G37*
G36*
X3106250D02*
G01X3479000D01*
G02X3479000Y2186500I0J-1000D01*
G01X3106250D01*
G02X3106250Y2188500I0J1000D01*
G37*
G36*
X3275500Y2601000D02*
G01X3479000D01*
G02X3479000Y2599000I0J-1000D01*
G01X3275500D01*
G02X3275500Y2601000I0J1000D01*
G37*
G36*
X3067956Y2301000D02*
G01X3274500D01*
G02X3274500Y2299000I0J-1000D01*
G01X3067956D01*
G02X3067956Y2301000I0J1000D01*
G37*
G36*
X3425500D02*
G01X3479000D01*
G02X3479000Y2299000I0J-1000D01*
G01X3425500D01*
G02X3425500Y2301000I0J1000D01*
G37*
G54D10*
X3425000Y2012500D02*
G01Y2105000D01*
X3450000Y2130000D01*
Y2235000D01*
X2925000Y2368750D02*
X3033750D01*
X3035000Y2370000D01*
Y2490000D01*
X3450000Y2410000D02*
Y2580000D01*
X3035000Y2490000D02*
Y2610000D01*
Y2710000D01*
X3450000Y2580000D02*
Y2710000D01*
X3035000D02*
X3145000D01*
X3270000D01*
X3450000D02*
X3270000D01*
G54D11*
X2500000Y2600000D03*
G54D12*
X2340000Y1790000D03*
Y1840000D03*
X2465000Y1790000D03*
X2615000D03*
X2765000D03*
X2905000D03*
X3050000D03*
X3190000D03*
X3320000D03*
X3455000D03*
X2337500Y1912500D03*
X2387500D03*
X2443750D03*
X2493750D03*
X3425000D03*
X2531250Y1943750D03*
X2537500Y1987500D03*
X2525000Y2025000D03*
X3425000Y2012500D03*
X2387500Y2043750D03*
X2337500D03*
X2487500D03*
X2437500D03*
X2565000Y2045000D03*
X2630000D03*
X2785000D03*
X2710000D03*
X2850000Y2055000D03*
X2890000Y2095000D03*
X3450000Y2130000D03*
X2887500Y2200000D03*
X2959500Y2199000D03*
X2922500Y2185000D03*
X3450000Y2235000D03*
X2345000Y2260000D03*
X2455000D03*
X2400000D03*
X2565000Y2255000D03*
X2515000Y2270000D03*
X2535000Y2315000D03*
X2665000Y2255000D03*
X2620000D03*
X2695000D03*
X2750000D03*
X2805000D03*
X3193750Y2325000D03*
X2340000Y2380000D03*
X2445000D03*
X2390000D03*
X2500000D03*
X2670000Y2355000D03*
X2785000Y2370000D03*
X2887500Y2406250D03*
X2818750D03*
X2925000Y2368750D03*
X3035000Y2370000D03*
X3156250Y2368750D03*
X3450000Y2410000D03*
X2340000Y2490000D03*
X2670000Y2475000D03*
X3035000Y2490000D03*
X2340000Y2605000D03*
X2670000Y2590000D03*
X3035000Y2610000D03*
X3450000Y2580000D03*
X2340000Y2705000D03*
X2470000D03*
X2595000D03*
X2730000D03*
X2895000D03*
X3035000Y2710000D03*
X3145000D03*
X3270000D03*
X3450000D03*
%LPC*%
G75*
X3450000Y2710000D02*
G54D13*
X2300000Y1850000D02*
Y2650000D01*
%LPD*%
G75*
X2300000Y2650000D02*
G36*
Y3170000D02*
Y3437500D01*
X3057250D01*
G03X3105250Y3437500I24000J0D01*
G01X3480000D01*
Y3022500D01*
G02X3477500Y3020000I-2500J0D01*
G01X2317500D01*
G02X2315000Y3022500I0J2500D01*
G01Y3170000D01*
X2300000D01*
G37*
G36*
Y3437500D02*
Y3556250D01*
X3019750D01*
G03X3066922Y3550000I24000J0D01*
G01X3275500D01*
G03X3424500Y3550000I74500J0D01*
G01X3480000D01*
Y3437500D01*
X3105250D01*
G03X3057250Y3437500I-24000J0D01*
G01X2300000D01*
G37*
G36*
Y3556250D02*
Y3625000D01*
X2315000D01*
Y3850000D01*
X2775500D01*
G03X2924500Y3850000I74500J0D01*
G01X3125500D01*
G03X3274500Y3850000I74500J0D01*
G01X3480000D01*
Y3550000D01*
X3424500D01*
G03X3275763Y3556250I-74500J0D01*
G01X3067750D01*
G03X3019750Y3556250I-24000J0D01*
G01X2300000D01*
G37*
G36*
X2315000Y3850000D02*
Y3977500D01*
G02X2317500Y3980000I2500J0D01*
G01X3477500D01*
G02X3480000Y3977500I0J-2500D01*
G01Y3850000D01*
X3274500D01*
G03X3125500Y3850000I-74500J0D01*
G01X2924500D01*
G03X2775500Y3850000I-74500J0D01*
G01X2315000D01*
G37*
G36*
X3066922Y3550000D02*
G03X3067750Y3556250I-23172J6250D01*
G01X3275763D01*
G03X3275500Y3550000I74237J-6250D01*
G01X3066922D01*
G37*
G36*
X2316000Y3851000D02*
X2774500D01*
G02X2774500Y3849000I0J-1000D01*
G01X2316000D01*
G02X2316000Y3851000I0J1000D01*
G37*
G36*
X2925500D02*
G01X3124500D01*
G02X3124500Y3849000I0J-1000D01*
G01X2925500D01*
G02X2925500Y3851000I0J1000D01*
G37*
G36*
G01X3124500D01*
G02X3124500Y3849000I0J-1000D01*
G01X2925500D01*
G02X2925500Y3851000I0J1000D01*
G37*
G36*
X2301000Y3557250D02*
G01X3018750D01*
G02X3018750Y3555250I0J-1000D01*
G01X2301000D01*
G02X2301000Y3557250I0J1000D01*
G37*
G36*
X3068750D02*
G01X3274759D01*
G02X3274759Y3555250I0J-1000D01*
G01X3068750D01*
G02X3068750Y3557250I0J1000D01*
G37*
G36*
X2301000Y3438500D02*
G01X3056250D01*
G02X3056250Y3436500I0J-1000D01*
G01X2301000D01*
G02X2301000Y3438500I0J1000D01*
G37*
G36*
X3106250D02*
G01X3479000D01*
G02X3479000Y3436500I0J-1000D01*
G01X3106250D01*
G02X3106250Y3438500I0J1000D01*
G37*
G36*
X3275500Y3851000D02*
G01X3479000D01*
G02X3479000Y3849000I0J-1000D01*
G01X3275500D01*
G02X3275500Y3851000I0J1000D01*
G37*
G36*
X3067956Y3551000D02*
G01X3274500D01*
G02X3274500Y3549000I0J-1000D01*
G01X3067956D01*
G02X3067956Y3551000I0J1000D01*
G37*
G36*
X3425500D02*
G01X3479000D01*
G02X3479000Y3549000I0J-1000D01*
G01X3425500D01*
G02X3425500Y3551000I0J1000D01*
G37*
G54D10*
X3425000Y3262500D02*
G01Y3355000D01*
X3450000Y3380000D01*
Y3485000D01*
X2925000Y3618750D02*
X3033750D01*
X3035000Y3620000D01*
Y3740000D01*
X3450000Y3660000D02*
Y3830000D01*
X3035000Y3740000D02*
Y3860000D01*
Y3960000D01*
X3450000Y3830000D02*
Y3960000D01*
X3035000D02*
X3145000D01*
X3270000D01*
X3450000D02*
X3270000D01*
G54D11*
X2500000Y3850000D03*
G54D12*
X2340000Y3040000D03*
Y3090000D03*
X2465000Y3040000D03*
X2615000D03*
X2765000D03*
X2905000D03*
X3050000D03*
X3190000D03*
X3320000D03*
X3455000D03*
X2337500Y3162500D03*
X2387500D03*
X2443750D03*
X2493750D03*
X3425000D03*
X2531250Y3193750D03*
X2537500Y3237500D03*
X2525000Y3275000D03*
X3425000Y3262500D03*
X2387500Y3293750D03*
X2337500D03*
X2487500D03*
X2437500D03*
X2565000Y3295000D03*
X2630000D03*
X2785000D03*
X2710000D03*
X2850000Y3305000D03*
X2890000Y3345000D03*
X3450000Y3380000D03*
X2887500Y3450000D03*
X2959500Y3449000D03*
X2922500Y3435000D03*
X3450000Y3485000D03*
X2345000Y3510000D03*
X2455000D03*
X2400000D03*
X2565000Y3505000D03*
X2515000Y3520000D03*
X2535000Y3565000D03*
X2665000Y3505000D03*
X2620000D03*
X2695000D03*
X2750000D03*
X2805000D03*
X3193750Y3575000D03*
X2340000Y3630000D03*
X2445000D03*
X2390000D03*
X2500000D03*
X2670000Y3605000D03*
X2785000Y3620000D03*
X2887500Y3656250D03*
X2818750D03*
X2925000Y3618750D03*
X3035000Y3620000D03*
X3156250Y3618750D03*
X3450000Y3660000D03*
X2340000Y3740000D03*
X2670000Y3725000D03*
X3035000Y3740000D03*
X2340000Y3855000D03*
X2670000Y3840000D03*
X3035000Y3860000D03*
X3450000Y3830000D03*
X2340000Y3955000D03*
X2470000D03*
X2595000D03*
X2730000D03*
X2895000D03*
X3035000Y3960000D03*
X3145000D03*
X3270000D03*
X3450000D03*
%LPC*%
G75*
X3450000Y3960000D02*
G54D13*
X2300000Y3100000D02*
Y3900000D01*
%LPD*%
G75*
X2300000Y3900000D02*
G36*
X50000Y70000D02*
Y250000D01*
X132500D01*
G03X367500Y250000I117500J0D01*
G01X437799D01*
G03X438042Y248592I62201J10000D01*
G02X438026Y241322I-19675J-3592D01*
G03X438042Y218592I61974J-11322D01*
G02X438026Y211322I-19675J-3592D01*
G03X438042Y188592I61974J-11322D01*
G02X438026Y181322I-19675J-3592D01*
G03X438042Y158592I61974J-11322D01*
G02X438026Y151322I-19675J-3592D01*
G03X438039Y128604I61974J-11322D01*
G02X438035Y121372I-19673J-3603D01*
G03X438046Y98570I61965J-11372D01*
G02X438030Y91347I-19679J-3570D01*
G03X437466Y72351I61970J-11347D01*
G02X417612Y50000I-19861J-2350D01*
G01X69971Y50000D01*
G02X50000Y70000I29J20000D01*
G37*
G36*
Y250000D02*
G01Y4250000D01*
X132500D01*
G03X367500Y4250000I117500J0D01*
G01X437799D01*
G03X438042Y4228591I62201J-10001D01*
G02X438026Y4221321I-19675J-3592D01*
G03X438042Y4198591I61974J-11322D01*
G02X438026Y4191321I-19675J-3592D01*
G03X437556Y4171650I61974J-11322D01*
G02X420357Y4149298I-19840J-2527D01*
G03X350000Y4069000I10643J-80298D01*
G01Y3852448D01*
G02X317719Y3836684I-20000J22D01*
G03X317767Y3663353I-67719J-86684D01*
G02X350000Y3647552I12233J-15823D01*
G01Y2931030D01*
G03X363591Y2886089I81000J-30D01*
G02X363591Y2863911I-16644J-11089D01*
G03X350000Y2819000I67409J-44911D01*
G01Y1681030D01*
G03X363591Y1636089I81000J-30D01*
G02X363591Y1613911I-16644J-11089D01*
G03X350000Y1569000I67409J-44911D01*
G01Y852448D01*
G02X317719Y836684I-20000J22D01*
G03X317767Y663353I-67719J-86684D01*
G02X350000Y647552I12233J-15823D01*
G01Y431000D01*
G03X420424Y350693I81000J0D01*
G02X437546Y328277I-2709J-19816D01*
G03X438042Y308592I62454J-8277D01*
G02X438026Y301322I-19675J-3592D01*
G03X438042Y278592I61974J-11322D01*
G02X438026Y271322I-19675J-3592D01*
G03X437799Y250000I61974J-11322D01*
G01X367500D01*
G03X132500Y250000I-117500J0D01*
G01X50000D01*
G37*
G36*
Y4250000D02*
Y4430000D01*
G02X69971Y4450000I20000J0D01*
G01X417612Y4450000D01*
G02X437460Y4427601I-7J-20000D01*
G03X438042Y4408591I62540J-7601D01*
G02X438035Y4401371I-19675J-3592D01*
G03X438046Y4378567I61965J-11371D01*
G02X438027Y4371328I-19679J-3567D01*
G03X438042Y4348591I61973J-11328D01*
G02X438026Y4341321I-19675J-3592D01*
G03X438042Y4318591I61974J-11322D01*
G02X438026Y4311321I-19675J-3592D01*
G03X438042Y4288591I61974J-11322D01*
G02X438026Y4281321I-19675J-3592D01*
G03X438042Y4258591I61974J-11322D01*
G02X438026Y4251321I-19675J-3592D01*
G03X437799Y4250000I61974J-11322D01*
G01X367500D01*
G03X132500Y4250000I-117500J0D01*
G01X50000D01*
G37*
G36*
X51000Y251000D02*
X131500D01*
G02X131500Y249000I0J-1000D01*
G01X51000D01*
G02X51000Y251000I0J1000D01*
G37*
G36*
X368500D02*
G01X436786D01*
G02X436786Y249000I0J-1000D01*
G01X368500D01*
G02X368500Y251000I0J1000D01*
G37*
G36*
X51000Y4251000D02*
G01X131500D01*
G02X131500Y4249000I0J-1000D01*
G01X51000D01*
G02X51000Y4251000I0J1000D01*
G37*
G36*
X368500D02*
G01X436786D01*
G02X436786Y4249000I0J-1000D01*
G01X368500D01*
G02X368500Y4251000I0J1000D01*
G37*
G36*
X561969Y4198650D02*
G03X561958Y4221408I-61969J11350D01*
G02X561974Y4228678I19675J3592D01*
G03X561958Y4251408I-61974J11322D01*
G02X561974Y4258678I19675J3592D01*
G03X561958Y4281408I-61974J11322D01*
G02X561974Y4288678I19675J3592D01*
G03X561958Y4311408I-61974J11322D01*
G02X561974Y4318678I19675J3592D01*
G03X561958Y4341408I-61974J11322D01*
G02X561974Y4348678I19675J3592D01*
G03X561961Y4371396I-61974J11322D01*
G02X561965Y4378628I19673J3603D01*
G03X561954Y4401430I-61965J11372D01*
G02X561970Y4408653I19679J3570D01*
G03X562534Y4427649I-61970J11347D01*
G02X582366Y4450000I19861J2350D01*
G01X3422530D01*
G02X3442357Y4427601I-29J-20000D01*
G03X3442938Y4408591I62540J-7601D01*
G02X3442931Y4401371I-19675J-3592D01*
G03X3442943Y4378567I61965J-11371D01*
G02X3442923Y4371328I-19679J-3567D01*
G03X3442938Y4348591I61973J-11328D01*
G02X3442922Y4341321I-19675J-3592D01*
G03X3442938Y4318591I61974J-11322D01*
G02X3442922Y4311321I-19675J-3592D01*
G03X3442938Y4288591I61974J-11322D01*
G02X3442922Y4281321I-19675J-3592D01*
G03X3442938Y4258591I61974J-11322D01*
G02X3442922Y4251321I-19675J-3592D01*
G03X3442938Y4228591I61974J-11322D01*
G02X3442922Y4221321I-19675J-3592D01*
G03X3442936Y4198603I61974J-11322D01*
G02X3442931Y4191371I-19673J-3603D01*
G03X3442363Y4172351I61965J-11372D01*
G02X3422520Y4150000I-19861J-2351D01*
G01X2875000D01*
G03X2791667Y4105277I-0J-100000D01*
G02X2758333Y4105277I-16667J11055D01*
G03X2675000Y4150000I-83333J-55277D01*
G01X2181000D01*
G03X2100000Y4069000I0J-81000D01*
G01Y2931000D01*
G03X2113591Y2886089I81000J-0D01*
G02X2113591Y2863911I-16644J-11089D01*
G03X2100000Y2819000I67409J-44911D01*
G01Y1681000D01*
G03X2113591Y1636089I81000J-0D01*
G02X2113591Y1613911I-16644J-11089D01*
G03X2100000Y1569000I67409J-44911D01*
G01Y431000D01*
G03X2181000Y350000I81000J0D01*
G01X2675000D01*
G03X2758333Y394723I0J100000D01*
G02X2791667Y394723I16667J-11055D01*
G03X2875000Y350000I83333J55277D01*
G01X3417624D01*
G02X3437459Y327593I-19J-20000D01*
G03X3438046Y308568I62541J-7593D01*
G02X3438027Y301328I-19679J-3567D01*
G03X3438042Y278592I61973J-11328D01*
G02X3438026Y271322I-19675J-3592D01*
G03X3438042Y248592I61974J-11322D01*
G02X3438026Y241322I-19675J-3592D01*
G03X3438042Y218592I61974J-11322D01*
G02X3438026Y211322I-19675J-3592D01*
G03X3438042Y188592I61974J-11322D01*
G02X3438026Y181322I-19675J-3592D01*
G03X3438042Y158592I61974J-11322D01*
G02X3438026Y151322I-19675J-3592D01*
G03X3438039Y128604I61974J-11322D01*
G02X3438035Y121372I-19673J-3603D01*
G03X3438046Y98570I61965J-11372D01*
G02X3438030Y91347I-19679J-3570D01*
G03X3437466Y72351I61970J-11347D01*
G02X3417634Y50000I-19861J-2350D01*
G01X582366D01*
G02X562540Y72399I29J20000D01*
G03X561958Y91409I-62540J7601D01*
G02X561965Y98629I19675J3592D01*
G03X561954Y121433I-61965J11371D01*
G02X561973Y128672I19679J3567D01*
G03X561958Y151409I-61973J11328D01*
G02X561974Y158679I19675J3592D01*
G03X561958Y181409I-61974J11322D01*
G02X561974Y188679I19675J3592D01*
G03X561958Y211409I-61974J11322D01*
G02X561974Y218679I19675J3592D01*
G03X561958Y241409I-61974J11322D01*
G02X561974Y248679I19675J3592D01*
G03X561958Y271409I-61974J11322D01*
G02X561974Y278679I19675J3592D01*
G03X561961Y301397I-61974J11322D01*
G02X561965Y308629I19673J3603D01*
G03X562534Y327649I-61965J11372D01*
G02X582376Y350000I19861J2351D01*
G01X925000D01*
G03X1008333Y394723I0J100000D01*
G02X1041667Y394723I16667J-11055D01*
G03X1125000Y350000I83333J55277D01*
G01X1819000D01*
G03X1900000Y431000I0J81000D01*
G01Y900000D01*
G03X1855277Y983333I-100000J0D01*
G02X1855277Y1016667I11055J16667D01*
G03X1900000Y1100000I-55277J83333D01*
G01Y1569000D01*
G03X1886409Y1613911I-81000J0D01*
G02X1886409Y1636089I16644J11089D01*
G03X1900000Y1681000I-67410J44911D01*
G01Y2150000D01*
G03X1855277Y2233333I-100000J0D01*
G02X1855277Y2266667I11055J16667D01*
G03X1900000Y2350000I-55277J83333D01*
G01Y2819000D01*
G03X1886409Y2863911I-81000J0D01*
G02X1886409Y2886089I16644J11089D01*
G03X1900000Y2931000I-67410J44911D01*
G01Y3400000D01*
G03X1855277Y3483333I-100000J0D01*
G02X1855277Y3516667I11055J16667D01*
G03X1900000Y3600000I-55277J83333D01*
G01Y4069000D01*
G03X1819000Y4150000I-81000J0D01*
G01X1125000D01*
G03X1041667Y4105277I-0J-100000D01*
G02X1008333Y4105277I-16667J11055D01*
G03X925000Y4150000I-83333J-55277D01*
G01X582376D01*
G02X562541Y4172407I19J20000D01*
G03X561957Y4191415I-62541J7593D01*
G02X561969Y4198650I19676J3585D01*
G37*
G36*
X3561633Y155001D02*
G02X3561974Y158679I20000J0D01*
G03X3561958Y181409I-61974J11322D01*
G02X3561974Y188679I19675J3592D01*
G03X3561958Y211409I-61974J11322D01*
G02X3561974Y218679I19675J3592D01*
G03X3561958Y241409I-61974J11322D01*
G02X3561974Y248679I19675J3592D01*
G03X3562201Y250000I-61974J11322D01*
G01X3632500D01*
G03X3867500Y250000I117500J0D01*
G01X3950000D01*
Y70000D01*
G02X3930029Y50000I-20000J0D01*
G01X3582388Y50000D01*
G02X3562540Y72399I7J20000D01*
G03X3561958Y91409I-62540J7601D01*
G02X3561965Y98629I19675J3592D01*
G03X3561957Y121415I-61965J11371D01*
G02X3561973Y128672I19676J3585D01*
G03X3561958Y151409I-61973J11328D01*
G02X3561633Y155001I19675J3592D01*
G37*
G36*
Y275001D02*
G02X3561974Y278679I20000J0D01*
G03X3561958Y301409I-61974J11322D01*
G02X3561974Y308679I19675J3592D01*
G03X3562444Y328350I-61974J11322D01*
G02X3579643Y350702I19840J2527D01*
G03X3650000Y431000I-10643J80298D01*
G01Y647552D01*
G02X3682281Y663316I20000J-22D01*
G03X3682233Y836647I67719J86684D01*
G02X3650000Y852448I-12233J15823D01*
G01Y900000D01*
G03X3605277Y983333I-100000J0D01*
G02X3605277Y1016667I11055J16667D01*
G03X3650000Y1100000I-55277J83333D01*
G01Y1569000D01*
G03X3636409Y1613911I-81000J0D01*
G02X3636409Y1636089I16644J11089D01*
G03X3650000Y1681000I-67410J44911D01*
G01Y2150000D01*
G03X3605277Y2233333I-100000J0D01*
G02X3605277Y2266667I11055J16667D01*
G03X3650000Y2350000I-55277J83333D01*
G01Y2819000D01*
G03X3636409Y2863911I-81000J0D01*
G02X3636409Y2886089I16644J11089D01*
G03X3650000Y2931000I-67410J44911D01*
G01Y3400000D01*
G03X3605277Y3483333I-100000J0D01*
G02X3605277Y3516667I11055J16667D01*
G03X3650000Y3600000I-55277J83333D01*
G01Y3647552D01*
G02X3682281Y3663316I20000J-22D01*
G03X3682233Y3836647I67719J86684D01*
G02X3650000Y3852448I-12233J15823D01*
G01Y4069000D01*
G03X3583498Y4148699I-81004J4D01*
G02X3567286Y4171249I3580J19677D01*
G03X3566855Y4191408I-62389J8750D01*
G02X3566871Y4198678I19675J3592D01*
G03X3566855Y4221408I-61974J11322D01*
G02X3566871Y4228678I19675J3592D01*
G03X3567098Y4250000I-61974J11322D01*
G01X3632500D01*
G03X3867500Y4250000I117500J0D01*
G01X3950000D01*
Y250000D01*
X3867500D01*
G03X3632500Y250000I-117500J0D01*
G01X3562201D01*
G03X3561958Y271409I-62201J10001D01*
G02X3561633Y275001I19675J3592D01*
G37*
G36*
X3566530Y4255000D02*
G02X3566871Y4258678I20000J0D01*
G03X3566855Y4281408I-61974J11322D01*
G02X3566871Y4288678I19675J3592D01*
G03X3566855Y4311408I-61974J11322D01*
G02X3566871Y4318678I19675J3592D01*
G03X3566855Y4341408I-61974J11322D01*
G02X3566871Y4348678I19675J3592D01*
G03X3566857Y4371396I-61974J11322D01*
G02X3566862Y4378628I19673J3603D01*
G03X3566851Y4401430I-61965J11372D01*
G02X3566866Y4408653I19679J3570D01*
G03X3567430Y4427649I-61970J11347D01*
G02X3587286Y4450000I19861J2350D01*
G01X3930029Y4450000D01*
G02X3950000Y4430000I-29J-20000D01*
G01Y4250000D01*
X3867500D01*
G03X3632500Y4250000I-117500J0D01*
G01X3567098D01*
G03X3566855Y4251408I-62201J-10000D01*
G02X3566530Y4255000I19675J3592D01*
G37*
G36*
X3563214Y251000D02*
G01X3631500D01*
G02X3631500Y249000I0J-1000D01*
G01X3563214D01*
G02X3563214Y251000I0J1000D01*
G37*
G36*
X3868500D02*
G01X3949000D01*
G02X3949000Y249000I0J-1000D01*
G01X3868500D01*
G02X3868500Y251000I0J1000D01*
G37*
G36*
X3568110Y4251000D02*
G01X3631500D01*
G02X3631500Y4249000I0J-1000D01*
G01X3568110D01*
G02X3568110Y4251000I0J1000D01*
G37*
G36*
X3868500D02*
G01X3949000D01*
G02X3949000Y4249000I0J-1000D01*
G01X3868500D01*
G02X3868500Y4251000I0J1000D01*
G37*
M02*
