*
%FSLAX26Y26*%
%MOIN*%
%ADD10C,0.020750*%
%ADD11C,0.125750*%
%ADD12C,0.024750*%
%ADD13C,0.004000*%
%ADD14C,0.050750*%
%IPPOS*%
%LNl4sold.gbr*%
%LPD*%
G75*
G36*
X504680Y1420680D02*
Y1425220D01*
G02X515000Y1432270I9760J-3209D01*
G02X515000Y1427270I0J-2500D01*
G03X509680Y1424443I-585J-5318D01*
G01Y1421457D01*
G03X518703Y1419575I5424J3433D01*
G01X523081Y1421693D01*
X538517Y1432913D01*
G02X542500Y1430900I1483J-2013D01*
G01Y1415000D01*
G02X537500Y1415000I-2500J0D01*
G01Y1425992D01*
X525459Y1417290D01*
X517430Y1413786D01*
G02X505126Y1419254I-2575J10783D01*
G02X504680Y1420680I2054J1426D01*
G37*
G36*
Y1480900D02*
G02X504680Y1480901I2500J0D01*
G01X516542D01*
X526560Y1478126D01*
X531560D01*
Y1476742D01*
X540667Y1474219D01*
G02X539333Y1469401I-667J-2409D01*
G01X506533Y1478485D01*
G02X504680Y1480900I647J2415D01*
G37*
G36*
Y1480901D02*
G02X506512Y1483309I2500J-1D01*
G01X539332Y1492409D01*
G02X540668Y1487591I668J-2409D01*
G01X531560Y1485065D01*
Y1478126D01*
X526560D01*
Y1483679D01*
X516542Y1480901D01*
X504680D01*
G37*
G36*
X505680Y1481901D02*
X515542D01*
G02X515542Y1479901I0J-1000D01*
G01X505680D01*
G02X505680Y1481901I0J1000D01*
G37*
G36*
X527560Y1479126D02*
G01X530560D01*
G02X530560Y1477126I0J-1000D01*
G01X527560D01*
G02X527560Y1479126I0J1000D01*
G37*
G36*
X523430Y1441130D02*
G01Y1461590D01*
G02X528430Y1461590I2500J0D01*
G01Y1441130D01*
G02X523430Y1441130I-2500J0D01*
G37*
G36*
X565000Y1404135D02*
G02X565124Y1405241I5001J0D01*
G03X565430Y1407947I-11686J2693D01*
G01Y1475000D01*
G02X570430Y1480000I5000J0D01*
G01X1725000D01*
G02X1730000Y1475000I0J-5000D01*
G01Y1350000D01*
X1524500D01*
G03X1375500Y1350000I-74500J0D01*
G01X1174500D01*
G03X1025500Y1350000I-74500J0D01*
G01X565000D01*
Y1404105D01*
G02X565000Y1404135I5000J31D01*
G37*
G36*
X565000Y525000D02*
G01Y937500D01*
X1307250D01*
G03X1355250Y937500I24000J0D01*
G01X1730000D01*
Y525000D01*
G02X1725000Y520000I-5000J0D01*
G01X570000D01*
G02X568659Y520183I0J5000D01*
G02X565000Y525000I1341J4817D01*
G37*
G36*
Y937500D02*
G01Y1056250D01*
X1269750D01*
G03X1316922Y1050000I24000J0D01*
G01X1525500D01*
G03X1674500Y1050000I74500J0D01*
G01X1730000D01*
Y937500D01*
X1355250D01*
G03X1307250Y937500I-24000J0D01*
G01X565000D01*
G37*
G36*
Y1056250D02*
Y1350000D01*
X1025500D01*
G03X1174500Y1350000I74500J0D01*
G01X1375500D01*
G03X1524500Y1350000I74500J0D01*
G01X1730000D01*
Y1050000D01*
X1674500D01*
G03X1525763Y1056250I-74500J0D01*
G01X1317750D01*
G03X1269750Y1056250I-24000J0D01*
G01X565000D01*
G37*
G36*
X1316922Y1050000D02*
G03X1317750Y1056250I-23172J6250D01*
G01X1525763D01*
G03X1525500Y1050000I74237J-6250D01*
G01X1316922D01*
G37*
G36*
X1317956Y1051000D02*
X1524500D01*
G02X1524500Y1049000I0J-1000D01*
G01X1317956D01*
G02X1317956Y1051000I0J1000D01*
G37*
G36*
X1675500D02*
G01X1729000D01*
G02X1729000Y1049000I0J-1000D01*
G01X1675500D01*
G02X1675500Y1051000I0J1000D01*
G37*
G36*
X1175500Y1351000D02*
G01X1374500D01*
G02X1374500Y1349000I0J-1000D01*
G01X1175500D01*
G02X1175500Y1351000I0J1000D01*
G37*
G36*
X1525500D02*
G01X1729000D01*
G02X1729000Y1349000I0J-1000D01*
G01X1525500D01*
G02X1525500Y1351000I0J1000D01*
G37*
G36*
X566000Y938500D02*
G01X1306250D01*
G02X1306250Y936500I0J-1000D01*
G01X566000D01*
G02X566000Y938500I0J1000D01*
G37*
G36*
X1356250D02*
G01X1729000D01*
G02X1729000Y936500I0J-1000D01*
G01X1356250D01*
G02X1356250Y938500I0J1000D01*
G37*
G36*
X566000Y1057250D02*
G01X1268750D01*
G02X1268750Y1055250I0J-1000D01*
G01X566000D01*
G02X566000Y1057250I0J1000D01*
G37*
G36*
X1318750D02*
G01X1524759D01*
G02X1524759Y1055250I0J-1000D01*
G01X1318750D01*
G02X1318750Y1057250I0J1000D01*
G37*
G36*
X566000Y1351000D02*
G01X1024500D01*
G02X1024500Y1349000I0J-1000D01*
G01X566000D01*
G02X566000Y1351000I0J1000D01*
G37*
G54D10*
X587500Y662500D02*
G01X637500D01*
X693750D01*
X781250Y693750D02*
X743750Y662500D01*
X693750D01*
G36*
X550000Y722125D02*
Y742875D01*
X587500D01*
G02X587500Y722125I0J-10375D01*
G01X550000D01*
G37*
G54D10*
X587500Y732500D02*
Y793750D01*
X781250Y693750D02*
X787500Y737500D01*
X775000Y775000D01*
X737500Y793750D01*
X687500D02*
X637500D01*
X587500D01*
X687500D02*
X737500D01*
X595000Y1010000D02*
Y1067500D01*
G36*
X550000Y1057125D02*
Y1077875D01*
X595000D01*
G02X595000Y1057125I0J-10375D01*
G01X550000D01*
G37*
G36*
Y692125D02*
Y772875D01*
X720000D01*
G02X720000Y692125I0J-40375D01*
G01X550000D01*
G37*
G36*
Y1027125D02*
Y1107875D01*
X720000D01*
G02X720000Y1027125I0J-40375D01*
G01X550000D01*
G37*
G54D11*
X1100000Y1350000D03*
X1450000D03*
X750000D03*
X1600000Y1050000D03*
G54D12*
X590000Y540000D03*
Y590000D03*
X715000Y540000D03*
X865000D03*
X1015000D03*
X1155000D03*
X1300000D03*
X1440000D03*
X1570000D03*
X1705000D03*
X587500Y662500D03*
X637500D03*
X693750D03*
X743750D03*
X1675000D03*
X781250Y693750D03*
X787500Y737500D03*
X775000Y775000D03*
X1675000Y762500D03*
X637500Y793750D03*
X587500D03*
X737500D03*
X687500D03*
X815000Y795000D03*
X880000D03*
X1035000D03*
X960000D03*
X1100000Y805000D03*
X1140000Y845000D03*
X1700000Y880000D03*
X1137500Y950000D03*
X1209500Y949000D03*
X1172500Y935000D03*
X1331250Y937500D03*
X1700000Y985000D03*
X595000Y1010000D03*
X705000D03*
X650000D03*
X815000Y1005000D03*
X765000Y1020000D03*
X785000Y1065000D03*
X915000Y1005000D03*
X870000D03*
X945000D03*
X1000000D03*
X1055000D03*
X1293750Y1056250D03*
X1443750Y1075000D03*
X590000Y1130000D03*
X695000D03*
X640000D03*
X750000D03*
X920000Y1105000D03*
X1035000Y1120000D03*
X1137500Y1156250D03*
X1068750D03*
X1175000Y1118750D03*
X1285000Y1120000D03*
X1406250Y1118750D03*
X1700000Y1160000D03*
X590000Y1240000D03*
X920000Y1225000D03*
X1285000Y1240000D03*
X590000Y1355000D03*
X920000Y1340000D03*
X1285000Y1360000D03*
X1700000Y1330000D03*
X590000Y1455000D03*
X720000D03*
X845000D03*
X980000D03*
X1145000D03*
X1285000Y1460000D03*
X1395000D03*
X1520000D03*
X1700000D03*
%LPC*%
G75*
X1700000Y1460000D02*
G54D13*
X550000Y600000D02*
Y1400000D01*
%LPD*%
G75*
X550000Y1400000D02*
G36*
X504680Y2670680D02*
Y2675220D01*
G02X515000Y2682270I9760J-3209D01*
G02X515000Y2677270I0J-2500D01*
G03X509680Y2674443I-585J-5318D01*
G01Y2671457D01*
G03X518703Y2669575I5424J3433D01*
G01X523081Y2671693D01*
X538517Y2682913D01*
G02X542500Y2680900I1483J-2013D01*
G01Y2665000D01*
G02X537500Y2665000I-2500J0D01*
G01Y2675992D01*
X525459Y2667290D01*
X517430Y2663786D01*
G02X505126Y2669254I-2575J10783D01*
G02X504680Y2670680I2054J1426D01*
G37*
G36*
Y2730900D02*
G02X504680Y2730901I2500J0D01*
G01X516542D01*
X526560Y2728126D01*
X531560D01*
Y2726742D01*
X540667Y2724219D01*
G02X539333Y2719401I-667J-2409D01*
G01X506533Y2728485D01*
G02X504680Y2730900I647J2415D01*
G37*
G36*
Y2730901D02*
G02X506512Y2733309I2500J-1D01*
G01X539332Y2742409D01*
G02X540668Y2737591I668J-2409D01*
G01X531560Y2735065D01*
Y2728126D01*
X526560D01*
Y2733679D01*
X516542Y2730901D01*
X504680D01*
G37*
G36*
X505680Y2731901D02*
X515542D01*
G02X515542Y2729901I0J-1000D01*
G01X505680D01*
G02X505680Y2731901I0J1000D01*
G37*
G36*
X527560Y2729126D02*
G01X530560D01*
G02X530560Y2727126I0J-1000D01*
G01X527560D01*
G02X527560Y2729126I0J1000D01*
G37*
G36*
X523430Y2691130D02*
G01Y2711590D01*
G02X528430Y2711590I2500J0D01*
G01Y2691130D01*
G02X523430Y2691130I-2500J0D01*
G37*
G36*
X565000Y2654135D02*
G02X565124Y2655241I5001J0D01*
G03X565430Y2657947I-11686J2693D01*
G01Y2725000D01*
G02X570430Y2730000I5000J0D01*
G01X1725000D01*
G02X1730000Y2725000I0J-5000D01*
G01Y2600000D01*
X1524500D01*
G03X1375500Y2600000I-74500J0D01*
G01X1174500D01*
G03X1025500Y2600000I-74500J0D01*
G01X565000D01*
Y2654105D01*
G02X565000Y2654135I5000J31D01*
G37*
G36*
X565000Y1775000D02*
G01Y2187500D01*
X1307250D01*
G03X1355250Y2187500I24000J0D01*
G01X1730000D01*
Y1775000D01*
G02X1725000Y1770000I-5000J0D01*
G01X570000D01*
G02X568659Y1770183I0J5000D01*
G02X565000Y1775000I1341J4817D01*
G37*
G36*
Y2187500D02*
G01Y2306250D01*
X1269750D01*
G03X1316922Y2300000I24000J0D01*
G01X1525500D01*
G03X1674500Y2300000I74500J0D01*
G01X1730000D01*
Y2187500D01*
X1355250D01*
G03X1307250Y2187500I-24000J0D01*
G01X565000D01*
G37*
G36*
Y2306250D02*
Y2600000D01*
X1025500D01*
G03X1174500Y2600000I74500J0D01*
G01X1375500D01*
G03X1524500Y2600000I74500J0D01*
G01X1730000D01*
Y2300000D01*
X1674500D01*
G03X1525763Y2306250I-74500J0D01*
G01X1317750D01*
G03X1269750Y2306250I-24000J0D01*
G01X565000D01*
G37*
G36*
X1316922Y2300000D02*
G03X1317750Y2306250I-23172J6250D01*
G01X1525763D01*
G03X1525500Y2300000I74237J-6250D01*
G01X1316922D01*
G37*
G36*
X1317956Y2301000D02*
X1524500D01*
G02X1524500Y2299000I0J-1000D01*
G01X1317956D01*
G02X1317956Y2301000I0J1000D01*
G37*
G36*
X1675500D02*
G01X1729000D01*
G02X1729000Y2299000I0J-1000D01*
G01X1675500D01*
G02X1675500Y2301000I0J1000D01*
G37*
G36*
X1175500Y2601000D02*
G01X1374500D01*
G02X1374500Y2599000I0J-1000D01*
G01X1175500D01*
G02X1175500Y2601000I0J1000D01*
G37*
G36*
X1525500D02*
G01X1729000D01*
G02X1729000Y2599000I0J-1000D01*
G01X1525500D01*
G02X1525500Y2601000I0J1000D01*
G37*
G36*
X566000Y2188500D02*
G01X1306250D01*
G02X1306250Y2186500I0J-1000D01*
G01X566000D01*
G02X566000Y2188500I0J1000D01*
G37*
G36*
X1356250D02*
G01X1729000D01*
G02X1729000Y2186500I0J-1000D01*
G01X1356250D01*
G02X1356250Y2188500I0J1000D01*
G37*
G36*
X566000Y2307250D02*
G01X1268750D01*
G02X1268750Y2305250I0J-1000D01*
G01X566000D01*
G02X566000Y2307250I0J1000D01*
G37*
G36*
X1318750D02*
G01X1524759D01*
G02X1524759Y2305250I0J-1000D01*
G01X1318750D01*
G02X1318750Y2307250I0J1000D01*
G37*
G36*
X566000Y2601000D02*
G01X1024500D01*
G02X1024500Y2599000I0J-1000D01*
G01X566000D01*
G02X566000Y2601000I0J1000D01*
G37*
G54D10*
X587500Y1912500D02*
G01X637500D01*
X693750D01*
X781250Y1943750D02*
X743750Y1912500D01*
X693750D01*
G36*
X550000Y1972125D02*
Y1992875D01*
X587500D01*
G02X587500Y1972125I0J-10375D01*
G01X550000D01*
G37*
G54D10*
X587500Y1982500D02*
Y2043750D01*
X781250Y1943750D02*
X787500Y1987500D01*
X775000Y2025000D01*
X737500Y2043750D01*
X687500D02*
X637500D01*
X587500D01*
X687500D02*
X737500D01*
X595000Y2260000D02*
Y2317500D01*
G36*
X550000Y2307125D02*
Y2327875D01*
X595000D01*
G02X595000Y2307125I0J-10375D01*
G01X550000D01*
G37*
G36*
Y1942125D02*
Y2022875D01*
X720000D01*
G02X720000Y1942125I0J-40375D01*
G01X550000D01*
G37*
G36*
Y2277125D02*
Y2357875D01*
X720000D01*
G02X720000Y2277125I0J-40375D01*
G01X550000D01*
G37*
G54D11*
X1100000Y2600000D03*
X1450000D03*
X750000D03*
X1600000Y2300000D03*
G54D12*
X590000Y1790000D03*
Y1840000D03*
X715000Y1790000D03*
X865000D03*
X1015000D03*
X1155000D03*
X1300000D03*
X1440000D03*
X1570000D03*
X1705000D03*
X587500Y1912500D03*
X637500D03*
X693750D03*
X743750D03*
X1675000D03*
X781250Y1943750D03*
X787500Y1987500D03*
X775000Y2025000D03*
X1675000Y2012500D03*
X637500Y2043750D03*
X587500D03*
X737500D03*
X687500D03*
X815000Y2045000D03*
X880000D03*
X1035000D03*
X960000D03*
X1100000Y2055000D03*
X1140000Y2095000D03*
X1700000Y2130000D03*
X1137500Y2200000D03*
X1209500Y2199000D03*
X1172500Y2185000D03*
X1331250Y2187500D03*
X1700000Y2235000D03*
X595000Y2260000D03*
X705000D03*
X650000D03*
X815000Y2255000D03*
X765000Y2270000D03*
X785000Y2315000D03*
X915000Y2255000D03*
X870000D03*
X945000D03*
X1000000D03*
X1055000D03*
X1293750Y2306250D03*
X1443750Y2325000D03*
X590000Y2380000D03*
X695000D03*
X640000D03*
X750000D03*
X920000Y2355000D03*
X1035000Y2370000D03*
X1137500Y2406250D03*
X1068750D03*
X1175000Y2368750D03*
X1285000Y2370000D03*
X1406250Y2368750D03*
X1700000Y2410000D03*
X590000Y2490000D03*
X920000Y2475000D03*
X1285000Y2490000D03*
X590000Y2605000D03*
X920000Y2590000D03*
X1285000Y2610000D03*
X1700000Y2580000D03*
X590000Y2705000D03*
X720000D03*
X845000D03*
X980000D03*
X1145000D03*
X1285000Y2710000D03*
X1395000D03*
X1520000D03*
X1700000D03*
%LPC*%
G75*
X1700000Y2710000D02*
G54D13*
X550000Y1850000D02*
Y2650000D01*
%LPD*%
G75*
X550000Y2650000D02*
G36*
X504680Y3920680D02*
Y3925220D01*
G02X515000Y3932270I9760J-3209D01*
G02X515000Y3927270I0J-2500D01*
G03X509680Y3924443I-585J-5318D01*
G01Y3921457D01*
G03X518703Y3919575I5424J3433D01*
G01X523081Y3921693D01*
X538517Y3932913D01*
G02X542500Y3930900I1483J-2013D01*
G01Y3915000D01*
G02X537500Y3915000I-2500J0D01*
G01Y3925992D01*
X525459Y3917290D01*
X517430Y3913786D01*
G02X505126Y3919254I-2575J10783D01*
G02X504680Y3920680I2054J1426D01*
G37*
G36*
Y3980900D02*
G02X504680Y3980901I2500J0D01*
G01X516542D01*
X526560Y3978126D01*
X531560D01*
Y3976742D01*
X540667Y3974219D01*
G02X539333Y3969401I-667J-2409D01*
G01X506533Y3978485D01*
G02X504680Y3980900I647J2415D01*
G37*
G36*
Y3980901D02*
G02X506512Y3983309I2500J-1D01*
G01X539332Y3992409D01*
G02X540668Y3987591I668J-2409D01*
G01X531560Y3985065D01*
Y3978126D01*
X526560D01*
Y3983679D01*
X516542Y3980901D01*
X504680D01*
G37*
G36*
X505680Y3981901D02*
X515542D01*
G02X515542Y3979901I0J-1000D01*
G01X505680D01*
G02X505680Y3981901I0J1000D01*
G37*
G36*
X527560Y3979126D02*
G01X530560D01*
G02X530560Y3977126I0J-1000D01*
G01X527560D01*
G02X527560Y3979126I0J1000D01*
G37*
G36*
X523430Y3941130D02*
G01Y3961590D01*
G02X528430Y3961590I2500J0D01*
G01Y3941130D01*
G02X523430Y3941130I-2500J0D01*
G37*
G36*
X565000Y3904135D02*
G02X565124Y3905241I5001J0D01*
G03X565430Y3907947I-11686J2693D01*
G01Y3975000D01*
G02X570430Y3980000I5000J0D01*
G01X1725000D01*
G02X1730000Y3975000I0J-5000D01*
G01Y3850000D01*
X1524500D01*
G03X1375500Y3850000I-74500J0D01*
G01X1174500D01*
G03X1025500Y3850000I-74500J0D01*
G01X565000D01*
Y3904105D01*
G02X565000Y3904135I5000J31D01*
G37*
G36*
X565000Y3025000D02*
G01Y3437500D01*
X1307250D01*
G03X1355250Y3437500I24000J0D01*
G01X1730000D01*
Y3025000D01*
G02X1725000Y3020000I-5000J0D01*
G01X570000D01*
G02X568659Y3020183I0J5000D01*
G02X565000Y3025000I1341J4817D01*
G37*
G36*
Y3437500D02*
G01Y3556250D01*
X1269750D01*
G03X1316922Y3550000I24000J0D01*
G01X1525500D01*
G03X1674500Y3550000I74500J0D01*
G01X1730000D01*
Y3437500D01*
X1355250D01*
G03X1307250Y3437500I-24000J0D01*
G01X565000D01*
G37*
G36*
Y3556250D02*
Y3850000D01*
X1025500D01*
G03X1174500Y3850000I74500J0D01*
G01X1375500D01*
G03X1524500Y3850000I74500J0D01*
G01X1730000D01*
Y3550000D01*
X1674500D01*
G03X1525763Y3556250I-74500J0D01*
G01X1317750D01*
G03X1269750Y3556250I-24000J0D01*
G01X565000D01*
G37*
G36*
X1316922Y3550000D02*
G03X1317750Y3556250I-23172J6250D01*
G01X1525763D01*
G03X1525500Y3550000I74237J-6250D01*
G01X1316922D01*
G37*
G36*
X1317956Y3551000D02*
X1524500D01*
G02X1524500Y3549000I0J-1000D01*
G01X1317956D01*
G02X1317956Y3551000I0J1000D01*
G37*
G36*
X1675500D02*
G01X1729000D01*
G02X1729000Y3549000I0J-1000D01*
G01X1675500D01*
G02X1675500Y3551000I0J1000D01*
G37*
G36*
X1175500Y3851000D02*
G01X1374500D01*
G02X1374500Y3849000I0J-1000D01*
G01X1175500D01*
G02X1175500Y3851000I0J1000D01*
G37*
G36*
X1525500D02*
G01X1729000D01*
G02X1729000Y3849000I0J-1000D01*
G01X1525500D01*
G02X1525500Y3851000I0J1000D01*
G37*
G36*
X566000Y3438500D02*
G01X1306250D01*
G02X1306250Y3436500I0J-1000D01*
G01X566000D01*
G02X566000Y3438500I0J1000D01*
G37*
G36*
X1356250D02*
G01X1729000D01*
G02X1729000Y3436500I0J-1000D01*
G01X1356250D01*
G02X1356250Y3438500I0J1000D01*
G37*
G36*
X566000Y3557250D02*
G01X1268750D01*
G02X1268750Y3555250I0J-1000D01*
G01X566000D01*
G02X566000Y3557250I0J1000D01*
G37*
G36*
X1318750D02*
G01X1524759D01*
G02X1524759Y3555250I0J-1000D01*
G01X1318750D01*
G02X1318750Y3557250I0J1000D01*
G37*
G36*
X566000Y3851000D02*
G01X1024500D01*
G02X1024500Y3849000I0J-1000D01*
G01X566000D01*
G02X566000Y3851000I0J1000D01*
G37*
G54D10*
X587500Y3162500D02*
G01X637500D01*
X693750D01*
X781250Y3193750D02*
X743750Y3162500D01*
X693750D01*
G36*
X550000Y3222125D02*
Y3242875D01*
X587500D01*
G02X587500Y3222125I0J-10375D01*
G01X550000D01*
G37*
G54D10*
X587500Y3232500D02*
Y3293750D01*
X781250Y3193750D02*
X787500Y3237500D01*
X775000Y3275000D01*
X737500Y3293750D01*
X687500D02*
X637500D01*
X587500D01*
X687500D02*
X737500D01*
X595000Y3510000D02*
Y3567500D01*
G36*
X550000Y3557125D02*
Y3577875D01*
X595000D01*
G02X595000Y3557125I0J-10375D01*
G01X550000D01*
G37*
G36*
Y3192125D02*
Y3272875D01*
X720000D01*
G02X720000Y3192125I0J-40375D01*
G01X550000D01*
G37*
G36*
Y3527125D02*
Y3607875D01*
X720000D01*
G02X720000Y3527125I0J-40375D01*
G01X550000D01*
G37*
G54D11*
X1100000Y3850000D03*
X1450000D03*
X750000D03*
X1600000Y3550000D03*
G54D12*
X590000Y3040000D03*
Y3090000D03*
X715000Y3040000D03*
X865000D03*
X1015000D03*
X1155000D03*
X1300000D03*
X1440000D03*
X1570000D03*
X1705000D03*
X587500Y3162500D03*
X637500D03*
X693750D03*
X743750D03*
X1675000D03*
X781250Y3193750D03*
X787500Y3237500D03*
X775000Y3275000D03*
X1675000Y3262500D03*
X637500Y3293750D03*
X587500D03*
X737500D03*
X687500D03*
X815000Y3295000D03*
X880000D03*
X1035000D03*
X960000D03*
X1100000Y3305000D03*
X1140000Y3345000D03*
X1700000Y3380000D03*
X1137500Y3450000D03*
X1209500Y3449000D03*
X1172500Y3435000D03*
X1331250Y3437500D03*
X1700000Y3485000D03*
X595000Y3510000D03*
X705000D03*
X650000D03*
X815000Y3505000D03*
X765000Y3520000D03*
X785000Y3565000D03*
X915000Y3505000D03*
X870000D03*
X945000D03*
X1000000D03*
X1055000D03*
X1293750Y3556250D03*
X1443750Y3575000D03*
X590000Y3630000D03*
X695000D03*
X640000D03*
X750000D03*
X920000Y3605000D03*
X1035000Y3620000D03*
X1137500Y3656250D03*
X1068750D03*
X1175000Y3618750D03*
X1285000Y3620000D03*
X1406250Y3618750D03*
X1700000Y3660000D03*
X590000Y3740000D03*
X920000Y3725000D03*
X1285000Y3740000D03*
X590000Y3855000D03*
X920000Y3840000D03*
X1285000Y3860000D03*
X1700000Y3830000D03*
X590000Y3955000D03*
X720000D03*
X845000D03*
X980000D03*
X1145000D03*
X1285000Y3960000D03*
X1395000D03*
X1520000D03*
X1700000D03*
%LPC*%
G75*
X1700000Y3960000D02*
G54D13*
X550000Y3100000D02*
Y3900000D01*
%LPD*%
G75*
X550000Y3900000D02*
G36*
X2254680Y1420680D02*
Y1425220D01*
G02X2265000Y1432270I9760J-3209D01*
G02X2265000Y1427270I0J-2500D01*
G03X2259680Y1424443I-585J-5318D01*
G01Y1421457D01*
G03X2268703Y1419575I5424J3433D01*
G01X2273081Y1421693D01*
X2288517Y1432913D01*
G02X2292500Y1430900I1483J-2013D01*
G01Y1415000D01*
G02X2287500Y1415000I-2500J0D01*
G01Y1425992D01*
X2275459Y1417290D01*
X2267430Y1413786D01*
G02X2255126Y1419254I-2575J10783D01*
G02X2254680Y1420680I2054J1426D01*
G37*
G36*
Y1480900D02*
G02X2254680Y1480901I2500J0D01*
G01X2266542D01*
X2276560Y1478126D01*
X2281560D01*
Y1476742D01*
X2290667Y1474219D01*
G02X2289333Y1469401I-667J-2409D01*
G01X2256533Y1478485D01*
G02X2254680Y1480900I647J2415D01*
G37*
G36*
Y1480901D02*
G02X2256512Y1483309I2500J-1D01*
G01X2289332Y1492409D01*
G02X2290668Y1487591I668J-2409D01*
G01X2281560Y1485065D01*
Y1478126D01*
X2276560D01*
Y1483679D01*
X2266542Y1480901D01*
X2254680D01*
G37*
G36*
X2255680Y1481901D02*
X2265542D01*
G02X2265542Y1479901I0J-1000D01*
G01X2255680D01*
G02X2255680Y1481901I0J1000D01*
G37*
G36*
X2277560Y1479126D02*
G01X2280560D01*
G02X2280560Y1477126I0J-1000D01*
G01X2277560D01*
G02X2277560Y1479126I0J1000D01*
G37*
G36*
X2273430Y1441130D02*
G01Y1461590D01*
G02X2278430Y1461590I2500J0D01*
G01Y1441130D01*
G02X2273430Y1441130I-2500J0D01*
G37*
G36*
X2315000Y1404135D02*
G02X2315124Y1405241I5001J0D01*
G03X2315430Y1407947I-11686J2693D01*
G01Y1475000D01*
G02X2320430Y1480000I5000J0D01*
G01X3475000D01*
G02X3480000Y1475000I0J-5000D01*
G01Y1350000D01*
X3274500D01*
G03X3125500Y1350000I-74500J0D01*
G01X2924500D01*
G03X2775500Y1350000I-74500J0D01*
G01X2315000D01*
Y1404105D01*
G02X2315000Y1404135I5000J31D01*
G37*
G36*
X2315000Y525000D02*
G01Y937500D01*
X3057250D01*
G03X3105250Y937500I24000J0D01*
G01X3480000D01*
Y525000D01*
G02X3475000Y520000I-5000J0D01*
G01X2320000D01*
G02X2318659Y520183I0J5000D01*
G02X2315000Y525000I1341J4817D01*
G37*
G36*
Y937500D02*
G01Y1056250D01*
X3019750D01*
G03X3066922Y1050000I24000J0D01*
G01X3275500D01*
G03X3424500Y1050000I74500J0D01*
G01X3480000D01*
Y937500D01*
X3105250D01*
G03X3057250Y937500I-24000J0D01*
G01X2315000D01*
G37*
G36*
Y1056250D02*
Y1350000D01*
X2775500D01*
G03X2924500Y1350000I74500J0D01*
G01X3125500D01*
G03X3274500Y1350000I74500J0D01*
G01X3480000D01*
Y1050000D01*
X3424500D01*
G03X3275763Y1056250I-74500J0D01*
G01X3067750D01*
G03X3019750Y1056250I-24000J0D01*
G01X2315000D01*
G37*
G36*
X3066922Y1050000D02*
G03X3067750Y1056250I-23172J6250D01*
G01X3275763D01*
G03X3275500Y1050000I74237J-6250D01*
G01X3066922D01*
G37*
G36*
X3067956Y1051000D02*
X3274500D01*
G02X3274500Y1049000I0J-1000D01*
G01X3067956D01*
G02X3067956Y1051000I0J1000D01*
G37*
G36*
X3425500D02*
G01X3479000D01*
G02X3479000Y1049000I0J-1000D01*
G01X3425500D01*
G02X3425500Y1051000I0J1000D01*
G37*
G36*
X2925500Y1351000D02*
G01X3124500D01*
G02X3124500Y1349000I0J-1000D01*
G01X2925500D01*
G02X2925500Y1351000I0J1000D01*
G37*
G36*
X3275500D02*
G01X3479000D01*
G02X3479000Y1349000I0J-1000D01*
G01X3275500D01*
G02X3275500Y1351000I0J1000D01*
G37*
G36*
X2316000Y938500D02*
G01X3056250D01*
G02X3056250Y936500I0J-1000D01*
G01X2316000D01*
G02X2316000Y938500I0J1000D01*
G37*
G36*
X3106250D02*
G01X3479000D01*
G02X3479000Y936500I0J-1000D01*
G01X3106250D01*
G02X3106250Y938500I0J1000D01*
G37*
G36*
X2316000Y1057250D02*
G01X3018750D01*
G02X3018750Y1055250I0J-1000D01*
G01X2316000D01*
G02X2316000Y1057250I0J1000D01*
G37*
G36*
X3068750D02*
G01X3274759D01*
G02X3274759Y1055250I0J-1000D01*
G01X3068750D01*
G02X3068750Y1057250I0J1000D01*
G37*
G36*
X2316000Y1351000D02*
G01X2774500D01*
G02X2774500Y1349000I0J-1000D01*
G01X2316000D01*
G02X2316000Y1351000I0J1000D01*
G37*
G54D10*
X2337500Y662500D02*
G01X2387500D01*
X2443750D01*
X2531250Y693750D02*
X2493750Y662500D01*
X2443750D01*
G36*
X2300000Y722125D02*
Y742875D01*
X2337500D01*
G02X2337500Y722125I0J-10375D01*
G01X2300000D01*
G37*
G54D10*
X2337500Y732500D02*
Y793750D01*
X2531250Y693750D02*
X2537500Y737500D01*
X2525000Y775000D01*
X2487500Y793750D01*
X2437500D02*
X2387500D01*
X2337500D01*
X2437500D02*
X2487500D01*
X2345000Y1010000D02*
Y1067500D01*
G36*
X2300000Y1057125D02*
Y1077875D01*
X2345000D01*
G02X2345000Y1057125I0J-10375D01*
G01X2300000D01*
G37*
G36*
Y692125D02*
Y772875D01*
X2470000D01*
G02X2470000Y692125I0J-40375D01*
G01X2300000D01*
G37*
G36*
Y1027125D02*
Y1107875D01*
X2470000D01*
G02X2470000Y1027125I0J-40375D01*
G01X2300000D01*
G37*
G54D11*
X2850000Y1350000D03*
X3200000D03*
X2500000D03*
X3350000Y1050000D03*
G54D12*
X2340000Y540000D03*
Y590000D03*
X2465000Y540000D03*
X2615000D03*
X2765000D03*
X2905000D03*
X3050000D03*
X3190000D03*
X3320000D03*
X3455000D03*
X2337500Y662500D03*
X2387500D03*
X2443750D03*
X2493750D03*
X3425000D03*
X2531250Y693750D03*
X2537500Y737500D03*
X2525000Y775000D03*
X3425000Y762500D03*
X2387500Y793750D03*
X2337500D03*
X2487500D03*
X2437500D03*
X2565000Y795000D03*
X2630000D03*
X2785000D03*
X2710000D03*
X2850000Y805000D03*
X2890000Y845000D03*
X3450000Y880000D03*
X2887500Y950000D03*
X2959500Y949000D03*
X2922500Y935000D03*
X3081250Y937500D03*
X3450000Y985000D03*
X2345000Y1010000D03*
X2455000D03*
X2400000D03*
X2565000Y1005000D03*
X2515000Y1020000D03*
X2535000Y1065000D03*
X2665000Y1005000D03*
X2620000D03*
X2695000D03*
X2750000D03*
X2805000D03*
X3043750Y1056250D03*
X3193750Y1075000D03*
X2340000Y1130000D03*
X2445000D03*
X2390000D03*
X2500000D03*
X2670000Y1105000D03*
X2785000Y1120000D03*
X2887500Y1156250D03*
X2818750D03*
X2925000Y1118750D03*
X3035000Y1120000D03*
X3156250Y1118750D03*
X3450000Y1160000D03*
X2340000Y1240000D03*
X2670000Y1225000D03*
X3035000Y1240000D03*
X2340000Y1355000D03*
X2670000Y1340000D03*
X3035000Y1360000D03*
X3450000Y1330000D03*
X2340000Y1455000D03*
X2470000D03*
X2595000D03*
X2730000D03*
X2895000D03*
X3035000Y1460000D03*
X3145000D03*
X3270000D03*
X3450000D03*
%LPC*%
G75*
X3450000Y1460000D02*
G54D13*
X2300000Y600000D02*
Y1400000D01*
%LPD*%
G75*
X2300000Y1400000D02*
G36*
X2254680Y2670680D02*
Y2675220D01*
G02X2265000Y2682270I9760J-3209D01*
G02X2265000Y2677270I0J-2500D01*
G03X2259680Y2674443I-585J-5318D01*
G01Y2671457D01*
G03X2268703Y2669575I5424J3433D01*
G01X2273081Y2671693D01*
X2288517Y2682913D01*
G02X2292500Y2680900I1483J-2013D01*
G01Y2665000D01*
G02X2287500Y2665000I-2500J0D01*
G01Y2675992D01*
X2275459Y2667290D01*
X2267430Y2663786D01*
G02X2255126Y2669254I-2575J10783D01*
G02X2254680Y2670680I2054J1426D01*
G37*
G36*
Y2730900D02*
G02X2254680Y2730901I2500J0D01*
G01X2266542D01*
X2276560Y2728126D01*
X2281560D01*
Y2726742D01*
X2290667Y2724219D01*
G02X2289333Y2719401I-667J-2409D01*
G01X2256533Y2728485D01*
G02X2254680Y2730900I647J2415D01*
G37*
G36*
Y2730901D02*
G02X2256512Y2733309I2500J-1D01*
G01X2289332Y2742409D01*
G02X2290668Y2737591I668J-2409D01*
G01X2281560Y2735065D01*
Y2728126D01*
X2276560D01*
Y2733679D01*
X2266542Y2730901D01*
X2254680D01*
G37*
G36*
X2255680Y2731901D02*
X2265542D01*
G02X2265542Y2729901I0J-1000D01*
G01X2255680D01*
G02X2255680Y2731901I0J1000D01*
G37*
G36*
X2277560Y2729126D02*
G01X2280560D01*
G02X2280560Y2727126I0J-1000D01*
G01X2277560D01*
G02X2277560Y2729126I0J1000D01*
G37*
G36*
X2273430Y2691130D02*
G01Y2711590D01*
G02X2278430Y2711590I2500J0D01*
G01Y2691130D01*
G02X2273430Y2691130I-2500J0D01*
G37*
G36*
X2315000Y2654135D02*
G02X2315124Y2655241I5001J0D01*
G03X2315430Y2657947I-11686J2693D01*
G01Y2725000D01*
G02X2320430Y2730000I5000J0D01*
G01X3475000D01*
G02X3480000Y2725000I0J-5000D01*
G01Y2600000D01*
X3274500D01*
G03X3125500Y2600000I-74500J0D01*
G01X2924500D01*
G03X2775500Y2600000I-74500J0D01*
G01X2315000D01*
Y2654105D01*
G02X2315000Y2654135I5000J31D01*
G37*
G36*
X2315000Y1775000D02*
G01Y2187500D01*
X3057250D01*
G03X3105250Y2187500I24000J0D01*
G01X3480000D01*
Y1775000D01*
G02X3475000Y1770000I-5000J0D01*
G01X2320000D01*
G02X2318659Y1770183I0J5000D01*
G02X2315000Y1775000I1341J4817D01*
G37*
G36*
Y2187500D02*
G01Y2306250D01*
X3019750D01*
G03X3066922Y2300000I24000J0D01*
G01X3275500D01*
G03X3424500Y2300000I74500J0D01*
G01X3480000D01*
Y2187500D01*
X3105250D01*
G03X3057250Y2187500I-24000J0D01*
G01X2315000D01*
G37*
G36*
Y2306250D02*
Y2600000D01*
X2775500D01*
G03X2924500Y2600000I74500J0D01*
G01X3125500D01*
G03X3274500Y2600000I74500J0D01*
G01X3480000D01*
Y2300000D01*
X3424500D01*
G03X3275763Y2306250I-74500J0D01*
G01X3067750D01*
G03X3019750Y2306250I-24000J0D01*
G01X2315000D01*
G37*
G36*
X3066922Y2300000D02*
G03X3067750Y2306250I-23172J6250D01*
G01X3275763D01*
G03X3275500Y2300000I74237J-6250D01*
G01X3066922D01*
G37*
G36*
X3067956Y2301000D02*
X3274500D01*
G02X3274500Y2299000I0J-1000D01*
G01X3067956D01*
G02X3067956Y2301000I0J1000D01*
G37*
G36*
X3425500D02*
G01X3479000D01*
G02X3479000Y2299000I0J-1000D01*
G01X3425500D01*
G02X3425500Y2301000I0J1000D01*
G37*
G36*
X2925500Y2601000D02*
G01X3124500D01*
G02X3124500Y2599000I0J-1000D01*
G01X2925500D01*
G02X2925500Y2601000I0J1000D01*
G37*
G36*
X3275500D02*
G01X3479000D01*
G02X3479000Y2599000I0J-1000D01*
G01X3275500D01*
G02X3275500Y2601000I0J1000D01*
G37*
G36*
X2316000Y2188500D02*
G01X3056250D01*
G02X3056250Y2186500I0J-1000D01*
G01X2316000D01*
G02X2316000Y2188500I0J1000D01*
G37*
G36*
X3106250D02*
G01X3479000D01*
G02X3479000Y2186500I0J-1000D01*
G01X3106250D01*
G02X3106250Y2188500I0J1000D01*
G37*
G36*
X2316000Y2307250D02*
G01X3018750D01*
G02X3018750Y2305250I0J-1000D01*
G01X2316000D01*
G02X2316000Y2307250I0J1000D01*
G37*
G36*
X3068750D02*
G01X3274759D01*
G02X3274759Y2305250I0J-1000D01*
G01X3068750D01*
G02X3068750Y2307250I0J1000D01*
G37*
G36*
X2316000Y2601000D02*
G01X2774500D01*
G02X2774500Y2599000I0J-1000D01*
G01X2316000D01*
G02X2316000Y2601000I0J1000D01*
G37*
G54D10*
X2337500Y1912500D02*
G01X2387500D01*
X2443750D01*
X2531250Y1943750D02*
X2493750Y1912500D01*
X2443750D01*
G36*
X2300000Y1972125D02*
Y1992875D01*
X2337500D01*
G02X2337500Y1972125I0J-10375D01*
G01X2300000D01*
G37*
G54D10*
X2337500Y1982500D02*
Y2043750D01*
X2531250Y1943750D02*
X2537500Y1987500D01*
X2525000Y2025000D01*
X2487500Y2043750D01*
X2437500D02*
X2387500D01*
X2337500D01*
X2437500D02*
X2487500D01*
X2345000Y2260000D02*
Y2317500D01*
G36*
X2300000Y2307125D02*
Y2327875D01*
X2345000D01*
G02X2345000Y2307125I0J-10375D01*
G01X2300000D01*
G37*
G36*
Y1942125D02*
Y2022875D01*
X2470000D01*
G02X2470000Y1942125I0J-40375D01*
G01X2300000D01*
G37*
G36*
Y2277125D02*
Y2357875D01*
X2470000D01*
G02X2470000Y2277125I0J-40375D01*
G01X2300000D01*
G37*
G54D11*
X2850000Y2600000D03*
X3200000D03*
X2500000D03*
X3350000Y2300000D03*
G54D12*
X2340000Y1790000D03*
Y1840000D03*
X2465000Y1790000D03*
X2615000D03*
X2765000D03*
X2905000D03*
X3050000D03*
X3190000D03*
X3320000D03*
X3455000D03*
X2337500Y1912500D03*
X2387500D03*
X2443750D03*
X2493750D03*
X3425000D03*
X2531250Y1943750D03*
X2537500Y1987500D03*
X2525000Y2025000D03*
X3425000Y2012500D03*
X2387500Y2043750D03*
X2337500D03*
X2487500D03*
X2437500D03*
X2565000Y2045000D03*
X2630000D03*
X2785000D03*
X2710000D03*
X2850000Y2055000D03*
X2890000Y2095000D03*
X3450000Y2130000D03*
X2887500Y2200000D03*
X2959500Y2199000D03*
X2922500Y2185000D03*
X3081250Y2187500D03*
X3450000Y2235000D03*
X2345000Y2260000D03*
X2455000D03*
X2400000D03*
X2565000Y2255000D03*
X2515000Y2270000D03*
X2535000Y2315000D03*
X2665000Y2255000D03*
X2620000D03*
X2695000D03*
X2750000D03*
X2805000D03*
X3043750Y2306250D03*
X3193750Y2325000D03*
X2340000Y2380000D03*
X2445000D03*
X2390000D03*
X2500000D03*
X2670000Y2355000D03*
X2785000Y2370000D03*
X2887500Y2406250D03*
X2818750D03*
X2925000Y2368750D03*
X3035000Y2370000D03*
X3156250Y2368750D03*
X3450000Y2410000D03*
X2340000Y2490000D03*
X2670000Y2475000D03*
X3035000Y2490000D03*
X2340000Y2605000D03*
X2670000Y2590000D03*
X3035000Y2610000D03*
X3450000Y2580000D03*
X2340000Y2705000D03*
X2470000D03*
X2595000D03*
X2730000D03*
X2895000D03*
X3035000Y2710000D03*
X3145000D03*
X3270000D03*
X3450000D03*
%LPC*%
G75*
X3450000Y2710000D02*
G54D13*
X2300000Y1850000D02*
Y2650000D01*
%LPD*%
G75*
X2300000Y2650000D02*
G36*
X2254680Y3920680D02*
Y3925220D01*
G02X2265000Y3932270I9760J-3209D01*
G02X2265000Y3927270I0J-2500D01*
G03X2259680Y3924443I-585J-5318D01*
G01Y3921457D01*
G03X2268703Y3919575I5424J3433D01*
G01X2273081Y3921693D01*
X2288517Y3932913D01*
G02X2292500Y3930900I1483J-2013D01*
G01Y3915000D01*
G02X2287500Y3915000I-2500J0D01*
G01Y3925992D01*
X2275459Y3917290D01*
X2267430Y3913786D01*
G02X2255126Y3919254I-2575J10783D01*
G02X2254680Y3920680I2054J1426D01*
G37*
G36*
Y3980900D02*
G02X2254680Y3980901I2500J0D01*
G01X2266542D01*
X2276560Y3978126D01*
X2281560D01*
Y3976742D01*
X2290667Y3974219D01*
G02X2289333Y3969401I-667J-2409D01*
G01X2256533Y3978485D01*
G02X2254680Y3980900I647J2415D01*
G37*
G36*
Y3980901D02*
G02X2256512Y3983309I2500J-1D01*
G01X2289332Y3992409D01*
G02X2290668Y3987591I668J-2409D01*
G01X2281560Y3985065D01*
Y3978126D01*
X2276560D01*
Y3983679D01*
X2266542Y3980901D01*
X2254680D01*
G37*
G36*
X2255680Y3981901D02*
X2265542D01*
G02X2265542Y3979901I0J-1000D01*
G01X2255680D01*
G02X2255680Y3981901I0J1000D01*
G37*
G36*
X2277560Y3979126D02*
G01X2280560D01*
G02X2280560Y3977126I0J-1000D01*
G01X2277560D01*
G02X2277560Y3979126I0J1000D01*
G37*
G36*
X2273430Y3941130D02*
G01Y3961590D01*
G02X2278430Y3961590I2500J0D01*
G01Y3941130D01*
G02X2273430Y3941130I-2500J0D01*
G37*
G36*
X2315000Y3904135D02*
G02X2315124Y3905241I5001J0D01*
G03X2315430Y3907947I-11686J2693D01*
G01Y3975000D01*
G02X2320430Y3980000I5000J0D01*
G01X3475000D01*
G02X3480000Y3975000I0J-5000D01*
G01Y3850000D01*
X3274500D01*
G03X3125500Y3850000I-74500J0D01*
G01X2924500D01*
G03X2775500Y3850000I-74500J0D01*
G01X2315000D01*
Y3904105D01*
G02X2315000Y3904135I5000J31D01*
G37*
G36*
X2315000Y3025000D02*
G01Y3437500D01*
X3057250D01*
G03X3105250Y3437500I24000J0D01*
G01X3480000D01*
Y3025000D01*
G02X3475000Y3020000I-5000J0D01*
G01X2320000D01*
G02X2318659Y3020183I0J5000D01*
G02X2315000Y3025000I1341J4817D01*
G37*
G36*
Y3437500D02*
G01Y3556250D01*
X3019750D01*
G03X3066922Y3550000I24000J0D01*
G01X3275500D01*
G03X3424500Y3550000I74500J0D01*
G01X3480000D01*
Y3437500D01*
X3105250D01*
G03X3057250Y3437500I-24000J0D01*
G01X2315000D01*
G37*
G36*
Y3556250D02*
Y3850000D01*
X2775500D01*
G03X2924500Y3850000I74500J0D01*
G01X3125500D01*
G03X3274500Y3850000I74500J0D01*
G01X3480000D01*
Y3550000D01*
X3424500D01*
G03X3275763Y3556250I-74500J0D01*
G01X3067750D01*
G03X3019750Y3556250I-24000J0D01*
G01X2315000D01*
G37*
G36*
X3066922Y3550000D02*
G03X3067750Y3556250I-23172J6250D01*
G01X3275763D01*
G03X3275500Y3550000I74237J-6250D01*
G01X3066922D01*
G37*
G36*
X3067956Y3551000D02*
X3274500D01*
G02X3274500Y3549000I0J-1000D01*
G01X3067956D01*
G02X3067956Y3551000I0J1000D01*
G37*
G36*
X3425500D02*
G01X3479000D01*
G02X3479000Y3549000I0J-1000D01*
G01X3425500D01*
G02X3425500Y3551000I0J1000D01*
G37*
G36*
X2925500Y3851000D02*
G01X3124500D01*
G02X3124500Y3849000I0J-1000D01*
G01X2925500D01*
G02X2925500Y3851000I0J1000D01*
G37*
G36*
X3275500D02*
G01X3479000D01*
G02X3479000Y3849000I0J-1000D01*
G01X3275500D01*
G02X3275500Y3851000I0J1000D01*
G37*
G36*
X2316000Y3438500D02*
G01X3056250D01*
G02X3056250Y3436500I0J-1000D01*
G01X2316000D01*
G02X2316000Y3438500I0J1000D01*
G37*
G36*
X3106250D02*
G01X3479000D01*
G02X3479000Y3436500I0J-1000D01*
G01X3106250D01*
G02X3106250Y3438500I0J1000D01*
G37*
G36*
X2316000Y3557250D02*
G01X3018750D01*
G02X3018750Y3555250I0J-1000D01*
G01X2316000D01*
G02X2316000Y3557250I0J1000D01*
G37*
G36*
X3068750D02*
G01X3274759D01*
G02X3274759Y3555250I0J-1000D01*
G01X3068750D01*
G02X3068750Y3557250I0J1000D01*
G37*
G36*
X2316000Y3851000D02*
G01X2774500D01*
G02X2774500Y3849000I0J-1000D01*
G01X2316000D01*
G02X2316000Y3851000I0J1000D01*
G37*
G54D10*
X2337500Y3162500D02*
G01X2387500D01*
X2443750D01*
X2531250Y3193750D02*
X2493750Y3162500D01*
X2443750D01*
G36*
X2300000Y3222125D02*
Y3242875D01*
X2337500D01*
G02X2337500Y3222125I0J-10375D01*
G01X2300000D01*
G37*
G54D10*
X2337500Y3232500D02*
Y3293750D01*
X2531250Y3193750D02*
X2537500Y3237500D01*
X2525000Y3275000D01*
X2487500Y3293750D01*
X2437500D02*
X2387500D01*
X2337500D01*
X2437500D02*
X2487500D01*
X2345000Y3510000D02*
Y3567500D01*
G36*
X2300000Y3557125D02*
Y3577875D01*
X2345000D01*
G02X2345000Y3557125I0J-10375D01*
G01X2300000D01*
G37*
G36*
Y3192125D02*
Y3272875D01*
X2470000D01*
G02X2470000Y3192125I0J-40375D01*
G01X2300000D01*
G37*
G36*
Y3527125D02*
Y3607875D01*
X2470000D01*
G02X2470000Y3527125I0J-40375D01*
G01X2300000D01*
G37*
G54D11*
X2850000Y3850000D03*
X3200000D03*
X2500000D03*
X3350000Y3550000D03*
G54D12*
X2340000Y3040000D03*
Y3090000D03*
X2465000Y3040000D03*
X2615000D03*
X2765000D03*
X2905000D03*
X3050000D03*
X3190000D03*
X3320000D03*
X3455000D03*
X2337500Y3162500D03*
X2387500D03*
X2443750D03*
X2493750D03*
X3425000D03*
X2531250Y3193750D03*
X2537500Y3237500D03*
X2525000Y3275000D03*
X3425000Y3262500D03*
X2387500Y3293750D03*
X2337500D03*
X2487500D03*
X2437500D03*
X2565000Y3295000D03*
X2630000D03*
X2785000D03*
X2710000D03*
X2850000Y3305000D03*
X2890000Y3345000D03*
X3450000Y3380000D03*
X2887500Y3450000D03*
X2959500Y3449000D03*
X2922500Y3435000D03*
X3081250Y3437500D03*
X3450000Y3485000D03*
X2345000Y3510000D03*
X2455000D03*
X2400000D03*
X2565000Y3505000D03*
X2515000Y3520000D03*
X2535000Y3565000D03*
X2665000Y3505000D03*
X2620000D03*
X2695000D03*
X2750000D03*
X2805000D03*
X3043750Y3556250D03*
X3193750Y3575000D03*
X2340000Y3630000D03*
X2445000D03*
X2390000D03*
X2500000D03*
X2670000Y3605000D03*
X2785000Y3620000D03*
X2887500Y3656250D03*
X2818750D03*
X2925000Y3618750D03*
X3035000Y3620000D03*
X3156250Y3618750D03*
X3450000Y3660000D03*
X2340000Y3740000D03*
X2670000Y3725000D03*
X3035000Y3740000D03*
X2340000Y3855000D03*
X2670000Y3840000D03*
X3035000Y3860000D03*
X3450000Y3830000D03*
X2340000Y3955000D03*
X2470000D03*
X2595000D03*
X2730000D03*
X2895000D03*
X3035000Y3960000D03*
X3145000D03*
X3270000D03*
X3450000D03*
%LPC*%
G75*
X3450000Y3960000D02*
G54D13*
X2300000Y3100000D02*
Y3900000D01*
%LPD*%
G75*
X2300000Y3900000D02*
G54D14*
X250000Y750000D03*
G54D14*
X3750000D03*
G54D14*
X250000Y3750000D03*
X3750000D03*
G36*
X50000Y70000D02*
Y250000D01*
X132500D01*
G03X367500Y250000I117500J0D01*
G01X437799D01*
G03X438042Y248592I62201J10000D01*
G02X438026Y241322I-19675J-3592D01*
G03X438042Y218592I61974J-11322D01*
G02X438026Y211322I-19675J-3592D01*
G03X438042Y188592I61974J-11322D01*
G02X438026Y181322I-19675J-3592D01*
G03X438042Y158592I61974J-11322D01*
G02X438026Y151322I-19675J-3592D01*
G03X438039Y128604I61974J-11322D01*
G02X438035Y121372I-19673J-3603D01*
G03X438046Y98570I61965J-11372D01*
G02X438030Y91347I-19679J-3570D01*
G03X437466Y72351I61970J-11347D01*
G02X417612Y50000I-19861J-2350D01*
G01X69971Y50000D01*
G02X50000Y70000I29J20000D01*
G37*
G36*
Y250000D02*
G01Y4250000D01*
X132500D01*
G03X367500Y4250000I117500J0D01*
G01X437799D01*
G03X438042Y4228591I62201J-10001D01*
G02X438026Y4221321I-19675J-3592D01*
G03X438042Y4198591I61974J-11322D01*
G02X438026Y4191321I-19675J-3592D01*
G03X437556Y4171650I61974J-11322D01*
G02X420357Y4149298I-19840J-2527D01*
G03X350000Y4069000I10643J-80298D01*
G01Y3852448D01*
G02X317719Y3836684I-20000J22D01*
G03X317767Y3663353I-67719J-86684D01*
G02X350000Y3647552I12233J-15823D01*
G01Y2931030D01*
G03X363591Y2886089I81000J-30D01*
G02X363591Y2863911I-16644J-11089D01*
G03X350000Y2819000I67409J-44911D01*
G01Y1681030D01*
G03X363591Y1636089I81000J-30D01*
G02X363591Y1613911I-16644J-11089D01*
G03X350000Y1569000I67409J-44911D01*
G01Y852448D01*
G02X317719Y836684I-20000J22D01*
G03X317767Y663353I-67719J-86684D01*
G02X350000Y647552I12233J-15823D01*
G01Y431000D01*
G03X420424Y350693I81000J0D01*
G02X437546Y328277I-2709J-19816D01*
G03X438042Y308592I62454J-8277D01*
G02X438026Y301322I-19675J-3592D01*
G03X438042Y278592I61974J-11322D01*
G02X438026Y271322I-19675J-3592D01*
G03X437799Y250000I61974J-11322D01*
G01X367500D01*
G03X132500Y250000I-117500J0D01*
G01X50000D01*
G37*
G36*
Y4250000D02*
Y4430000D01*
G02X69971Y4450000I20000J0D01*
G01X417612Y4450000D01*
G02X437460Y4427601I-7J-20000D01*
G03X438042Y4408591I62540J-7601D01*
G02X438035Y4401371I-19675J-3592D01*
G03X438046Y4378567I61965J-11371D01*
G02X438027Y4371328I-19679J-3567D01*
G03X438042Y4348591I61973J-11328D01*
G02X438026Y4341321I-19675J-3592D01*
G03X438042Y4318591I61974J-11322D01*
G02X438026Y4311321I-19675J-3592D01*
G03X438042Y4288591I61974J-11322D01*
G02X438026Y4281321I-19675J-3592D01*
G03X438042Y4258591I61974J-11322D01*
G02X438026Y4251321I-19675J-3592D01*
G03X437799Y4250000I61974J-11322D01*
G01X367500D01*
G03X132500Y4250000I-117500J0D01*
G01X50000D01*
G37*
G36*
X51000Y251000D02*
X131500D01*
G02X131500Y249000I0J-1000D01*
G01X51000D01*
G02X51000Y251000I0J1000D01*
G37*
G36*
X368500D02*
G01X436786D01*
G02X436786Y249000I0J-1000D01*
G01X368500D01*
G02X368500Y251000I0J1000D01*
G37*
G36*
X51000Y4251000D02*
G01X131500D01*
G02X131500Y4249000I0J-1000D01*
G01X51000D01*
G02X51000Y4251000I0J1000D01*
G37*
G36*
X368500D02*
G01X436786D01*
G02X436786Y4249000I0J-1000D01*
G01X368500D01*
G02X368500Y4251000I0J1000D01*
G37*
G36*
X561969Y4198650D02*
G03X561958Y4221408I-61969J11350D01*
G02X561974Y4228678I19675J3592D01*
G03X561958Y4251408I-61974J11322D01*
G02X561974Y4258678I19675J3592D01*
G03X561958Y4281408I-61974J11322D01*
G02X561974Y4288678I19675J3592D01*
G03X561958Y4311408I-61974J11322D01*
G02X561974Y4318678I19675J3592D01*
G03X561958Y4341408I-61974J11322D01*
G02X561974Y4348678I19675J3592D01*
G03X561961Y4371396I-61974J11322D01*
G02X561965Y4378628I19673J3603D01*
G03X561954Y4401430I-61965J11372D01*
G02X561970Y4408653I19679J3570D01*
G03X562534Y4427649I-61970J11347D01*
G02X582366Y4450000I19861J2350D01*
G01X3422530D01*
G02X3442357Y4427601I-29J-20000D01*
G03X3442938Y4408591I62540J-7601D01*
G02X3442931Y4401371I-19675J-3592D01*
G03X3442943Y4378567I61965J-11371D01*
G02X3442923Y4371328I-19679J-3567D01*
G03X3442938Y4348591I61973J-11328D01*
G02X3442922Y4341321I-19675J-3592D01*
G03X3442938Y4318591I61974J-11322D01*
G02X3442922Y4311321I-19675J-3592D01*
G03X3442938Y4288591I61974J-11322D01*
G02X3442922Y4281321I-19675J-3592D01*
G03X3442938Y4258591I61974J-11322D01*
G02X3442922Y4251321I-19675J-3592D01*
G03X3442938Y4228591I61974J-11322D01*
G02X3442922Y4221321I-19675J-3592D01*
G03X3442936Y4198603I61974J-11322D01*
G02X3442931Y4191371I-19673J-3603D01*
G03X3442363Y4172351I61965J-11372D01*
G02X3422520Y4150000I-19861J-2351D01*
G01X2875000D01*
G03X2791667Y4105277I-0J-100000D01*
G02X2758333Y4105277I-16667J11055D01*
G03X2675000Y4150000I-83333J-55277D01*
G01X2181000D01*
G03X2100000Y4069000I0J-81000D01*
G01Y2931000D01*
G03X2113591Y2886089I81000J-0D01*
G02X2113591Y2863911I-16644J-11089D01*
G03X2100000Y2819000I67409J-44911D01*
G01Y1681000D01*
G03X2113591Y1636089I81000J-0D01*
G02X2113591Y1613911I-16644J-11089D01*
G03X2100000Y1569000I67409J-44911D01*
G01Y431000D01*
G03X2181000Y350000I81000J0D01*
G01X2675000D01*
G03X2758333Y394723I0J100000D01*
G02X2791667Y394723I16667J-11055D01*
G03X2875000Y350000I83333J55277D01*
G01X3417624D01*
G02X3437459Y327593I-19J-20000D01*
G03X3438046Y308568I62541J-7593D01*
G02X3438027Y301328I-19679J-3567D01*
G03X3438042Y278592I61973J-11328D01*
G02X3438026Y271322I-19675J-3592D01*
G03X3438042Y248592I61974J-11322D01*
G02X3438026Y241322I-19675J-3592D01*
G03X3438042Y218592I61974J-11322D01*
G02X3438026Y211322I-19675J-3592D01*
G03X3438042Y188592I61974J-11322D01*
G02X3438026Y181322I-19675J-3592D01*
G03X3438042Y158592I61974J-11322D01*
G02X3438026Y151322I-19675J-3592D01*
G03X3438039Y128604I61974J-11322D01*
G02X3438035Y121372I-19673J-3603D01*
G03X3438046Y98570I61965J-11372D01*
G02X3438030Y91347I-19679J-3570D01*
G03X3437466Y72351I61970J-11347D01*
G02X3417634Y50000I-19861J-2350D01*
G01X582366D01*
G02X562540Y72399I29J20000D01*
G03X561958Y91409I-62540J7601D01*
G02X561965Y98629I19675J3592D01*
G03X561954Y121433I-61965J11371D01*
G02X561973Y128672I19679J3567D01*
G03X561958Y151409I-61973J11328D01*
G02X561974Y158679I19675J3592D01*
G03X561958Y181409I-61974J11322D01*
G02X561974Y188679I19675J3592D01*
G03X561958Y211409I-61974J11322D01*
G02X561974Y218679I19675J3592D01*
G03X561958Y241409I-61974J11322D01*
G02X561974Y248679I19675J3592D01*
G03X561958Y271409I-61974J11322D01*
G02X561974Y278679I19675J3592D01*
G03X561961Y301397I-61974J11322D01*
G02X561965Y308629I19673J3603D01*
G03X562534Y327649I-61965J11372D01*
G02X582376Y350000I19861J2351D01*
G01X925000D01*
G03X1008333Y394723I0J100000D01*
G02X1041667Y394723I16667J-11055D01*
G03X1125000Y350000I83333J55277D01*
G01X1819000D01*
G03X1900000Y431000I0J81000D01*
G01Y900000D01*
G03X1855277Y983333I-100000J0D01*
G02X1855277Y1016667I11055J16667D01*
G03X1900000Y1100000I-55277J83333D01*
G01Y1569000D01*
G03X1886409Y1613911I-81000J0D01*
G02X1886409Y1636089I16644J11089D01*
G03X1900000Y1681000I-67410J44911D01*
G01Y2150000D01*
G03X1855277Y2233333I-100000J0D01*
G02X1855277Y2266667I11055J16667D01*
G03X1900000Y2350000I-55277J83333D01*
G01Y2819000D01*
G03X1886409Y2863911I-81000J0D01*
G02X1886409Y2886089I16644J11089D01*
G03X1900000Y2931000I-67410J44911D01*
G01Y3400000D01*
G03X1855277Y3483333I-100000J0D01*
G02X1855277Y3516667I11055J16667D01*
G03X1900000Y3600000I-55277J83333D01*
G01Y4069000D01*
G03X1819000Y4150000I-81000J0D01*
G01X1125000D01*
G03X1041667Y4105277I-0J-100000D01*
G02X1008333Y4105277I-16667J11055D01*
G03X925000Y4150000I-83333J-55277D01*
G01X582376D01*
G02X562541Y4172407I19J20000D01*
G03X561957Y4191415I-62541J7593D01*
G02X561969Y4198650I19676J3585D01*
G37*
G36*
X3561633Y155001D02*
G02X3561974Y158679I20000J0D01*
G03X3561958Y181409I-61974J11322D01*
G02X3561974Y188679I19675J3592D01*
G03X3561958Y211409I-61974J11322D01*
G02X3561974Y218679I19675J3592D01*
G03X3561958Y241409I-61974J11322D01*
G02X3561974Y248679I19675J3592D01*
G03X3562201Y250000I-61974J11322D01*
G01X3632500D01*
G03X3867500Y250000I117500J0D01*
G01X3950000D01*
Y70000D01*
G02X3930029Y50000I-20000J0D01*
G01X3582388Y50000D01*
G02X3562540Y72399I7J20000D01*
G03X3561958Y91409I-62540J7601D01*
G02X3561965Y98629I19675J3592D01*
G03X3561957Y121415I-61965J11371D01*
G02X3561973Y128672I19676J3585D01*
G03X3561958Y151409I-61973J11328D01*
G02X3561633Y155001I19675J3592D01*
G37*
G36*
Y275001D02*
G02X3561974Y278679I20000J0D01*
G03X3561958Y301409I-61974J11322D01*
G02X3561974Y308679I19675J3592D01*
G03X3562444Y328350I-61974J11322D01*
G02X3579643Y350702I19840J2527D01*
G03X3650000Y431000I-10643J80298D01*
G01Y647552D01*
G02X3682281Y663316I20000J-22D01*
G03X3682233Y836647I67719J86684D01*
G02X3650000Y852448I-12233J15823D01*
G01Y900000D01*
G03X3605277Y983333I-100000J0D01*
G02X3605277Y1016667I11055J16667D01*
G03X3650000Y1100000I-55277J83333D01*
G01Y1569000D01*
G03X3636409Y1613911I-81000J0D01*
G02X3636409Y1636089I16644J11089D01*
G03X3650000Y1681000I-67410J44911D01*
G01Y2150000D01*
G03X3605277Y2233333I-100000J0D01*
G02X3605277Y2266667I11055J16667D01*
G03X3650000Y2350000I-55277J83333D01*
G01Y2819000D01*
G03X3636409Y2863911I-81000J0D01*
G02X3636409Y2886089I16644J11089D01*
G03X3650000Y2931000I-67410J44911D01*
G01Y3400000D01*
G03X3605277Y3483333I-100000J0D01*
G02X3605277Y3516667I11055J16667D01*
G03X3650000Y3600000I-55277J83333D01*
G01Y3647552D01*
G02X3682281Y3663316I20000J-22D01*
G03X3682233Y3836647I67719J86684D01*
G02X3650000Y3852448I-12233J15823D01*
G01Y4069000D01*
G03X3583498Y4148699I-81004J4D01*
G02X3567286Y4171249I3580J19677D01*
G03X3566855Y4191408I-62389J8750D01*
G02X3566871Y4198678I19675J3592D01*
G03X3566855Y4221408I-61974J11322D01*
G02X3566871Y4228678I19675J3592D01*
G03X3567098Y4250000I-61974J11322D01*
G01X3632500D01*
G03X3867500Y4250000I117500J0D01*
G01X3950000D01*
Y250000D01*
X3867500D01*
G03X3632500Y250000I-117500J0D01*
G01X3562201D01*
G03X3561958Y271409I-62201J10001D01*
G02X3561633Y275001I19675J3592D01*
G37*
G36*
X3566530Y4255000D02*
G02X3566871Y4258678I20000J0D01*
G03X3566855Y4281408I-61974J11322D01*
G02X3566871Y4288678I19675J3592D01*
G03X3566855Y4311408I-61974J11322D01*
G02X3566871Y4318678I19675J3592D01*
G03X3566855Y4341408I-61974J11322D01*
G02X3566871Y4348678I19675J3592D01*
G03X3566857Y4371396I-61974J11322D01*
G02X3566862Y4378628I19673J3603D01*
G03X3566851Y4401430I-61965J11372D01*
G02X3566866Y4408653I19679J3570D01*
G03X3567430Y4427649I-61970J11347D01*
G02X3587286Y4450000I19861J2350D01*
G01X3930029Y4450000D01*
G02X3950000Y4430000I-29J-20000D01*
G01Y4250000D01*
X3867500D01*
G03X3632500Y4250000I-117500J0D01*
G01X3567098D01*
G03X3566855Y4251408I-62201J-10000D01*
G02X3566530Y4255000I19675J3592D01*
G37*
G36*
X3563214Y251000D02*
G01X3631500D01*
G02X3631500Y249000I0J-1000D01*
G01X3563214D01*
G02X3563214Y251000I0J1000D01*
G37*
G36*
X3868500D02*
G01X3949000D01*
G02X3949000Y249000I0J-1000D01*
G01X3868500D01*
G02X3868500Y251000I0J1000D01*
G37*
G36*
X3568110Y4251000D02*
G01X3631500D01*
G02X3631500Y4249000I0J-1000D01*
G01X3568110D01*
G02X3568110Y4251000I0J1000D01*
G37*
G36*
X3868500D02*
G01X3949000D01*
G02X3949000Y4249000I0J-1000D01*
G01X3868500D01*
G02X3868500Y4251000I0J1000D01*
G37*
M02*
