*
%FSLAX26Y26*%
%MOIN*%
%ADD10C,0.014500*%
%ADD11C,0.068900*%
%ADD12C,0.020000X0.010000*%
%ADD13C,0.125000X0.105000*%
%ADD14C,0.062000*%
%ADD15C,0.042000*%
%IPPOS*%
%LNrout.fa.gbr*%
%LPD*%
G75*
G54D10*
X590000Y540000D03*
X715000D03*
X590000Y590000D03*
X587500Y662500D03*
X637500D03*
X693750D03*
X743750D03*
X781250Y693750D03*
X787500Y737500D03*
X775000Y775000D03*
X637500Y793750D03*
X587500D03*
X737500D03*
X687500D03*
X815000Y795000D03*
Y1005000D03*
X705000Y1010000D03*
X650000D03*
X595000D03*
X765000Y1020000D03*
X785000Y1065000D03*
X590000Y1130000D03*
X695000D03*
X640000D03*
X750000D03*
X590000Y1240000D03*
Y1355000D03*
Y1455000D03*
X720000D03*
X845000D03*
X980000D03*
X920000Y1340000D03*
Y1225000D03*
X1068750Y1156250D03*
X1035000Y1120000D03*
X920000Y1105000D03*
X1055000Y1005000D03*
X1000000D03*
X945000D03*
X870000D03*
X915000D03*
X880000Y795000D03*
X960000D03*
X1035000D03*
X865000Y540000D03*
X1015000D03*
X1155000D03*
X1300000D03*
X1100000Y805000D03*
X1140000Y845000D03*
X1172500Y935000D03*
X1331250Y937500D03*
X1209500Y949000D03*
X1137500Y950000D03*
X1293750Y1056250D03*
X1175000Y1118750D03*
X1285000Y1120000D03*
X1137500Y1156250D03*
X1285000Y1240000D03*
Y1360000D03*
X1145000Y1455000D03*
X1285000Y1460000D03*
X1395000D03*
X1520000D03*
X1406250Y1118750D03*
X1443750Y1075000D03*
X1440000Y540000D03*
X1570000D03*
X1705000D03*
X1675000Y662500D03*
Y762500D03*
X1700000Y880000D03*
Y985000D03*
Y1160000D03*
Y1330000D03*
Y1460000D03*
G54D11*
X750000Y1350000D03*
X1100000D03*
X1450000D03*
X1600000Y1050000D03*
G54D10*
X590000Y1790000D03*
X715000D03*
X590000Y1840000D03*
X587500Y1912500D03*
X637500D03*
X693750D03*
X743750D03*
X781250Y1943750D03*
X787500Y1987500D03*
X775000Y2025000D03*
X637500Y2043750D03*
X587500D03*
X737500D03*
X687500D03*
X815000Y2045000D03*
Y2255000D03*
X705000Y2260000D03*
X650000D03*
X595000D03*
X765000Y2270000D03*
X785000Y2315000D03*
X590000Y2380000D03*
X695000D03*
X640000D03*
X750000D03*
X590000Y2490000D03*
Y2605000D03*
Y2705000D03*
X720000D03*
X845000D03*
X980000D03*
X920000Y2590000D03*
Y2475000D03*
X1068750Y2406250D03*
X1035000Y2370000D03*
X920000Y2355000D03*
X1055000Y2255000D03*
X1000000D03*
X945000D03*
X870000D03*
X915000D03*
X880000Y2045000D03*
X960000D03*
X1035000D03*
X865000Y1790000D03*
X1015000D03*
X1155000D03*
X1300000D03*
X1100000Y2055000D03*
X1140000Y2095000D03*
X1172500Y2185000D03*
X1331250Y2187500D03*
X1209500Y2199000D03*
X1137500Y2200000D03*
X1293750Y2306250D03*
X1175000Y2368750D03*
X1285000Y2370000D03*
X1137500Y2406250D03*
X1285000Y2490000D03*
Y2610000D03*
X1145000Y2705000D03*
X1285000Y2710000D03*
X1395000D03*
X1520000D03*
X1406250Y2368750D03*
X1443750Y2325000D03*
X1440000Y1790000D03*
X1570000D03*
X1705000D03*
X1675000Y1912500D03*
Y2012500D03*
X1700000Y2130000D03*
Y2235000D03*
Y2410000D03*
Y2580000D03*
Y2710000D03*
G54D11*
X750000Y2600000D03*
X1100000D03*
X1450000D03*
X1600000Y2300000D03*
G54D10*
X590000Y3040000D03*
X715000D03*
X590000Y3090000D03*
X587500Y3162500D03*
X637500D03*
X693750D03*
X743750D03*
X781250Y3193750D03*
X787500Y3237500D03*
X775000Y3275000D03*
X637500Y3293750D03*
X587500D03*
X737500D03*
X687500D03*
X815000Y3295000D03*
Y3505000D03*
X705000Y3510000D03*
X650000D03*
X595000D03*
X765000Y3520000D03*
X785000Y3565000D03*
X590000Y3630000D03*
X695000D03*
X640000D03*
X750000D03*
X590000Y3740000D03*
Y3855000D03*
Y3955000D03*
X720000D03*
X845000D03*
X980000D03*
X920000Y3840000D03*
Y3725000D03*
X1068750Y3656250D03*
X1035000Y3620000D03*
X920000Y3605000D03*
X1055000Y3505000D03*
X1000000D03*
X945000D03*
X870000D03*
X915000D03*
X880000Y3295000D03*
X960000D03*
X1035000D03*
X865000Y3040000D03*
X1015000D03*
X1155000D03*
X1300000D03*
X1100000Y3305000D03*
X1140000Y3345000D03*
X1172500Y3435000D03*
X1331250Y3437500D03*
X1209500Y3449000D03*
X1137500Y3450000D03*
X1293750Y3556250D03*
X1175000Y3618750D03*
X1285000Y3620000D03*
X1137500Y3656250D03*
X1285000Y3740000D03*
Y3860000D03*
X1145000Y3955000D03*
X1285000Y3960000D03*
X1395000D03*
X1520000D03*
X1406250Y3618750D03*
X1443750Y3575000D03*
X1440000Y3040000D03*
X1570000D03*
X1705000D03*
X1675000Y3162500D03*
Y3262500D03*
X1700000Y3380000D03*
Y3485000D03*
Y3660000D03*
Y3830000D03*
Y3960000D03*
G54D11*
X750000Y3850000D03*
X1100000D03*
X1450000D03*
X1600000Y3550000D03*
G54D10*
X2340000Y540000D03*
X2465000D03*
X2340000Y590000D03*
X2337500Y662500D03*
X2387500D03*
X2443750D03*
X2493750D03*
X2531250Y693750D03*
X2537500Y737500D03*
X2525000Y775000D03*
X2387500Y793750D03*
X2337500D03*
X2487500D03*
X2437500D03*
X2565000Y795000D03*
Y1005000D03*
X2455000Y1010000D03*
X2400000D03*
X2345000D03*
X2515000Y1020000D03*
X2535000Y1065000D03*
X2340000Y1130000D03*
X2445000D03*
X2390000D03*
X2500000D03*
X2340000Y1240000D03*
Y1355000D03*
Y1455000D03*
X2470000D03*
X2595000D03*
X2730000D03*
X2670000Y1340000D03*
Y1225000D03*
X2818750Y1156250D03*
X2785000Y1120000D03*
X2670000Y1105000D03*
X2805000Y1005000D03*
X2750000D03*
X2695000D03*
X2620000D03*
X2665000D03*
X2630000Y795000D03*
X2710000D03*
X2785000D03*
X2615000Y540000D03*
X2765000D03*
X2905000D03*
X3050000D03*
X2850000Y805000D03*
X2890000Y845000D03*
X2922500Y935000D03*
X3081250Y937500D03*
X2959500Y949000D03*
X2887500Y950000D03*
X3043750Y1056250D03*
X2925000Y1118750D03*
X3035000Y1120000D03*
X2887500Y1156250D03*
X3035000Y1240000D03*
Y1360000D03*
X2895000Y1455000D03*
X3035000Y1460000D03*
X3145000D03*
X3270000D03*
X3156250Y1118750D03*
X3193750Y1075000D03*
X3190000Y540000D03*
X3320000D03*
X3455000D03*
X3425000Y662500D03*
Y762500D03*
X3450000Y880000D03*
Y985000D03*
Y1160000D03*
Y1330000D03*
Y1460000D03*
G54D11*
X2500000Y1350000D03*
X2850000D03*
X3200000D03*
X3350000Y1050000D03*
G54D10*
X2340000Y1790000D03*
X2465000D03*
X2340000Y1840000D03*
X2337500Y1912500D03*
X2387500D03*
X2443750D03*
X2493750D03*
X2531250Y1943750D03*
X2537500Y1987500D03*
X2525000Y2025000D03*
X2387500Y2043750D03*
X2337500D03*
X2487500D03*
X2437500D03*
X2565000Y2045000D03*
Y2255000D03*
X2455000Y2260000D03*
X2400000D03*
X2345000D03*
X2515000Y2270000D03*
X2535000Y2315000D03*
X2340000Y2380000D03*
X2445000D03*
X2390000D03*
X2500000D03*
X2340000Y2490000D03*
Y2605000D03*
Y2705000D03*
X2470000D03*
X2595000D03*
X2730000D03*
X2670000Y2590000D03*
Y2475000D03*
X2818750Y2406250D03*
X2785000Y2370000D03*
X2670000Y2355000D03*
X2805000Y2255000D03*
X2750000D03*
X2695000D03*
X2620000D03*
X2665000D03*
X2630000Y2045000D03*
X2710000D03*
X2785000D03*
X2615000Y1790000D03*
X2765000D03*
X2905000D03*
X3050000D03*
X2850000Y2055000D03*
X2890000Y2095000D03*
X2922500Y2185000D03*
X3081250Y2187500D03*
X2959500Y2199000D03*
X2887500Y2200000D03*
X3043750Y2306250D03*
X2925000Y2368750D03*
X3035000Y2370000D03*
X2887500Y2406250D03*
X3035000Y2490000D03*
Y2610000D03*
X2895000Y2705000D03*
X3035000Y2710000D03*
X3145000D03*
X3270000D03*
X3156250Y2368750D03*
X3193750Y2325000D03*
X3190000Y1790000D03*
X3320000D03*
X3455000D03*
X3425000Y1912500D03*
Y2012500D03*
X3450000Y2130000D03*
Y2235000D03*
Y2410000D03*
Y2580000D03*
Y2710000D03*
G54D11*
X2500000Y2600000D03*
X2850000D03*
X3200000D03*
X3350000Y2300000D03*
G54D10*
X2340000Y3040000D03*
X2465000D03*
X2340000Y3090000D03*
X2337500Y3162500D03*
X2387500D03*
X2443750D03*
X2493750D03*
X2531250Y3193750D03*
X2537500Y3237500D03*
X2525000Y3275000D03*
X2387500Y3293750D03*
X2337500D03*
X2487500D03*
X2437500D03*
X2565000Y3295000D03*
Y3505000D03*
X2455000Y3510000D03*
X2400000D03*
X2345000D03*
X2515000Y3520000D03*
X2535000Y3565000D03*
X2340000Y3630000D03*
X2445000D03*
X2390000D03*
X2500000D03*
X2340000Y3740000D03*
Y3855000D03*
Y3955000D03*
X2470000D03*
X2595000D03*
X2730000D03*
X2670000Y3840000D03*
Y3725000D03*
X2818750Y3656250D03*
X2785000Y3620000D03*
X2670000Y3605000D03*
X2805000Y3505000D03*
X2750000D03*
X2695000D03*
X2620000D03*
X2665000D03*
X2630000Y3295000D03*
X2710000D03*
X2785000D03*
X2615000Y3040000D03*
X2765000D03*
X2905000D03*
X3050000D03*
X2850000Y3305000D03*
X2890000Y3345000D03*
X2922500Y3435000D03*
X3081250Y3437500D03*
X2959500Y3449000D03*
X2887500Y3450000D03*
X3043750Y3556250D03*
X2925000Y3618750D03*
X3035000Y3620000D03*
X2887500Y3656250D03*
X3035000Y3740000D03*
Y3860000D03*
X2895000Y3955000D03*
X3035000Y3960000D03*
X3145000D03*
X3270000D03*
X3156250Y3618750D03*
X3193750Y3575000D03*
X3190000Y3040000D03*
X3320000D03*
X3455000D03*
X3425000Y3162500D03*
Y3262500D03*
X3450000Y3380000D03*
Y3485000D03*
Y3660000D03*
Y3830000D03*
Y3960000D03*
G54D11*
X2500000Y3850000D03*
X2850000D03*
X3200000D03*
X3350000Y3550000D03*
G54D12*
X1025000Y490000D03*
G54D12*
X995000D03*
G54D12*
X965000D03*
G54D12*
X1055000D03*
G54D12*
X1085000D03*
G54D12*
X1025000Y1510000D03*
G54D12*
X1055000D03*
G54D12*
X1085000D03*
G54D12*
X995000D03*
G54D12*
X965000D03*
X1760000Y1000000D03*
Y970000D03*
Y940000D03*
Y1030000D03*
Y1060000D03*
G54D12*
X1025000Y1740000D03*
G54D12*
X995000D03*
G54D12*
X965000D03*
G54D12*
X1055000D03*
G54D12*
X1085000D03*
G54D12*
X1025000Y2760000D03*
G54D12*
X1055000D03*
G54D12*
X1085000D03*
G54D12*
X995000D03*
G54D12*
X965000D03*
X1760000Y2250000D03*
Y2220000D03*
Y2190000D03*
Y2280000D03*
Y2310000D03*
G54D12*
X1025000Y2990000D03*
G54D12*
X995000D03*
G54D12*
X965000D03*
G54D12*
X1055000D03*
G54D12*
X1085000D03*
G54D12*
X1025000Y4010000D03*
G54D12*
X1055000D03*
G54D12*
X1085000D03*
G54D12*
X995000D03*
G54D12*
X965000D03*
X1760000Y3500000D03*
Y3470000D03*
Y3440000D03*
Y3530000D03*
Y3560000D03*
G54D12*
X2775000Y490000D03*
G54D12*
X2745000D03*
G54D12*
X2715000D03*
G54D12*
X2805000D03*
G54D12*
X2835000D03*
G54D12*
X2775000Y1510000D03*
G54D12*
X2805000D03*
G54D12*
X2835000D03*
G54D12*
X2745000D03*
G54D12*
X2715000D03*
X3510000Y1000000D03*
Y970000D03*
Y940000D03*
Y1030000D03*
Y1060000D03*
G54D12*
X2775000Y1740000D03*
G54D12*
X2745000D03*
G54D12*
X2715000D03*
G54D12*
X2805000D03*
G54D12*
X2835000D03*
G54D12*
X2775000Y2760000D03*
G54D12*
X2805000D03*
G54D12*
X2835000D03*
G54D12*
X2745000D03*
G54D12*
X2715000D03*
X3510000Y2250000D03*
Y2220000D03*
Y2190000D03*
Y2280000D03*
Y2310000D03*
G54D12*
X2775000Y2990000D03*
G54D12*
X2745000D03*
G54D12*
X2715000D03*
G54D12*
X2805000D03*
G54D12*
X2835000D03*
G54D12*
X2775000Y4010000D03*
G54D12*
X2805000D03*
G54D12*
X2835000D03*
G54D12*
X2745000D03*
G54D12*
X2715000D03*
X3510000Y3500000D03*
Y3470000D03*
Y3440000D03*
Y3530000D03*
Y3560000D03*
X500000Y380000D03*
Y350000D03*
Y320000D03*
Y290000D03*
Y260000D03*
Y230000D03*
Y200000D03*
Y170000D03*
Y140000D03*
Y110000D03*
Y80000D03*
Y50000D03*
Y20000D03*
Y4120000D03*
Y4150000D03*
Y4180000D03*
Y4210000D03*
Y4240000D03*
Y4270000D03*
Y4300000D03*
Y4330000D03*
Y4360000D03*
Y4390000D03*
Y4420000D03*
Y4450000D03*
Y4480000D03*
X3500000Y380000D03*
Y350000D03*
Y320000D03*
Y290000D03*
Y260000D03*
Y230000D03*
Y200000D03*
Y170000D03*
Y140000D03*
Y110000D03*
Y80000D03*
Y50000D03*
Y20000D03*
X3504896Y4120000D03*
Y4150000D03*
Y4180000D03*
Y4210000D03*
Y4240000D03*
Y4270000D03*
Y4300000D03*
Y4330000D03*
Y4360000D03*
Y4390000D03*
Y4420000D03*
Y4450000D03*
Y4480000D03*
G54D13*
X250000Y250000D03*
G54D13*
X3750000D03*
G54D13*
X250000Y4250000D03*
X3750000D03*
G54D14*
X469000Y630000D02*
Y469000D01*
X925000D01*
G02X925000Y431000I0J-19000D01*
G01X431000D01*
Y1569000D01*
X925000D01*
G02X925000Y1531000I0J-19000D01*
G01X469000D01*
Y1369000D01*
X519000D01*
Y631000D01*
X470000D01*
X1780000Y1531000D02*
X1125000D01*
G02X1125000Y1569000I0J19000D01*
G01X1819000D01*
Y1100000D01*
G02X1781000Y1100000I-19000J0D01*
G01Y1530000D01*
Y470000D02*
Y900000D01*
G02X1819000Y900000I19000J0D01*
G01Y431000D01*
X1125000D01*
G02X1125000Y469000I0J19000D01*
G01X1780000D01*
X469000Y1880000D02*
Y1719000D01*
X925000D01*
G02X925000Y1681000I0J-19000D01*
G01X431000D01*
Y2819000D01*
X925000D01*
G02X925000Y2781000I0J-19000D01*
G01X469000D01*
Y2619000D01*
X519000D01*
Y1881000D01*
X470000D01*
X1780000Y2781000D02*
X1125000D01*
G02X1125000Y2819000I0J19000D01*
G01X1819000D01*
Y2350000D01*
G02X1781000Y2350000I-19000J0D01*
G01Y2780000D01*
Y1720000D02*
Y2150000D01*
G02X1819000Y2150000I19000J0D01*
G01Y1681000D01*
X1125000D01*
G02X1125000Y1719000I0J19000D01*
G01X1780000D01*
X469000Y3130000D02*
Y2969000D01*
X925000D01*
G02X925000Y2931000I0J-19000D01*
G01X431000D01*
Y4069000D01*
X925000D01*
G02X925000Y4031000I0J-19000D01*
G01X469000D01*
Y3869000D01*
X519000D01*
Y3131000D01*
X470000D01*
X1780000Y4031000D02*
X1125000D01*
G02X1125000Y4069000I0J19000D01*
G01X1819000D01*
Y3600000D01*
G02X1781000Y3600000I-19000J0D01*
G01Y4030000D01*
Y2970000D02*
Y3400000D01*
G02X1819000Y3400000I19000J0D01*
G01Y2931000D01*
X1125000D01*
G02X1125000Y2969000I0J19000D01*
G01X1780000D01*
X2219000Y3130000D02*
Y2969000D01*
X2675000D01*
G02X2675000Y2931000I0J-19000D01*
G01X2181000D01*
Y4069000D01*
X2675000D01*
G02X2675000Y4031000I0J-19000D01*
G01X2219000D01*
Y3869000D01*
X2269000D01*
Y3131000D01*
X2220000D01*
X3530000Y4031000D02*
X2875000D01*
G02X2875000Y4069000I0J19000D01*
G01X3569000D01*
Y3600000D01*
G02X3531000Y3600000I-19000J0D01*
G01Y4030000D01*
Y2970000D02*
Y3400000D01*
G02X3569000Y3400000I19000J0D01*
G01Y2931000D01*
X2875000D01*
G02X2875000Y2969000I0J19000D01*
G01X3530000D01*
X2219000Y1880000D02*
Y1719000D01*
X2675000D01*
G02X2675000Y1681000I0J-19000D01*
G01X2181000D01*
Y2819000D01*
X2675000D01*
G02X2675000Y2781000I0J-19000D01*
G01X2219000D01*
Y2619000D01*
X2269000D01*
Y1881000D01*
X2220000D01*
X3530000Y2781000D02*
X2875000D01*
G02X2875000Y2819000I0J19000D01*
G01X3569000D01*
Y2350000D01*
G02X3531000Y2350000I-19000J0D01*
G01Y2780000D01*
Y1720000D02*
Y2150000D01*
G02X3569000Y2150000I19000J0D01*
G01Y1681000D01*
X2875000D01*
G02X2875000Y1719000I0J19000D01*
G01X3530000D01*
X2219000Y630000D02*
Y469000D01*
X2675000D01*
G02X2675000Y431000I0J-19000D01*
G01X2181000D01*
Y1569000D01*
X2675000D01*
G02X2675000Y1531000I0J-19000D01*
G01X2219000D01*
Y1369000D01*
X2269000D01*
Y631000D01*
X2220000D01*
X3530000Y1531000D02*
X2875000D01*
G02X2875000Y1569000I0J19000D01*
G01X3569000D01*
Y1100000D01*
G02X3531000Y1100000I-19000J0D01*
G01Y1530000D01*
Y470000D02*
Y900000D01*
G02X3569000Y900000I19000J0D01*
G01Y431000D01*
X2875000D01*
G02X2875000Y469000I0J19000D01*
G01X3530000D01*
X4050000Y-31000D02*
X-31000D01*
Y4531000D01*
X4031000D01*
Y-50000D01*
%LPC*%
G75*
X4031000Y-50000D02*
G54D15*
X469000Y630000D02*
Y469000D01*
X925000D01*
G02X925000Y431000I0J-19000D01*
G01X431000D01*
Y1569000D01*
X925000D01*
G02X925000Y1531000I0J-19000D01*
G01X469000D01*
Y1369000D01*
X519000D01*
Y631000D01*
X470000D01*
X1780000Y1531000D02*
X1125000D01*
G02X1125000Y1569000I0J19000D01*
G01X1819000D01*
Y1100000D01*
G02X1781000Y1100000I-19000J0D01*
G01Y1530000D01*
Y470000D02*
Y900000D01*
G02X1819000Y900000I19000J0D01*
G01Y431000D01*
X1125000D01*
G02X1125000Y469000I0J19000D01*
G01X1780000D01*
X469000Y1880000D02*
Y1719000D01*
X925000D01*
G02X925000Y1681000I0J-19000D01*
G01X431000D01*
Y2819000D01*
X925000D01*
G02X925000Y2781000I0J-19000D01*
G01X469000D01*
Y2619000D01*
X519000D01*
Y1881000D01*
X470000D01*
X1780000Y2781000D02*
X1125000D01*
G02X1125000Y2819000I0J19000D01*
G01X1819000D01*
Y2350000D01*
G02X1781000Y2350000I-19000J0D01*
G01Y2780000D01*
Y1720000D02*
Y2150000D01*
G02X1819000Y2150000I19000J0D01*
G01Y1681000D01*
X1125000D01*
G02X1125000Y1719000I0J19000D01*
G01X1780000D01*
X469000Y3130000D02*
Y2969000D01*
X925000D01*
G02X925000Y2931000I0J-19000D01*
G01X431000D01*
Y4069000D01*
X925000D01*
G02X925000Y4031000I0J-19000D01*
G01X469000D01*
Y3869000D01*
X519000D01*
Y3131000D01*
X470000D01*
X1780000Y4031000D02*
X1125000D01*
G02X1125000Y4069000I0J19000D01*
G01X1819000D01*
Y3600000D01*
G02X1781000Y3600000I-19000J0D01*
G01Y4030000D01*
Y2970000D02*
Y3400000D01*
G02X1819000Y3400000I19000J0D01*
G01Y2931000D01*
X1125000D01*
G02X1125000Y2969000I0J19000D01*
G01X1780000D01*
X2219000Y3130000D02*
Y2969000D01*
X2675000D01*
G02X2675000Y2931000I0J-19000D01*
G01X2181000D01*
Y4069000D01*
X2675000D01*
G02X2675000Y4031000I0J-19000D01*
G01X2219000D01*
Y3869000D01*
X2269000D01*
Y3131000D01*
X2220000D01*
X3530000Y4031000D02*
X2875000D01*
G02X2875000Y4069000I0J19000D01*
G01X3569000D01*
Y3600000D01*
G02X3531000Y3600000I-19000J0D01*
G01Y4030000D01*
Y2970000D02*
Y3400000D01*
G02X3569000Y3400000I19000J0D01*
G01Y2931000D01*
X2875000D01*
G02X2875000Y2969000I0J19000D01*
G01X3530000D01*
X2219000Y1880000D02*
Y1719000D01*
X2675000D01*
G02X2675000Y1681000I0J-19000D01*
G01X2181000D01*
Y2819000D01*
X2675000D01*
G02X2675000Y2781000I0J-19000D01*
G01X2219000D01*
Y2619000D01*
X2269000D01*
Y1881000D01*
X2220000D01*
X3530000Y2781000D02*
X2875000D01*
G02X2875000Y2819000I0J19000D01*
G01X3569000D01*
Y2350000D01*
G02X3531000Y2350000I-19000J0D01*
G01Y2780000D01*
Y1720000D02*
Y2150000D01*
G02X3569000Y2150000I19000J0D01*
G01Y1681000D01*
X2875000D01*
G02X2875000Y1719000I0J19000D01*
G01X3530000D01*
X2219000Y630000D02*
Y469000D01*
X2675000D01*
G02X2675000Y431000I0J-19000D01*
G01X2181000D01*
Y1569000D01*
X2675000D01*
G02X2675000Y1531000I0J-19000D01*
G01X2219000D01*
Y1369000D01*
X2269000D01*
Y631000D01*
X2220000D01*
X3530000Y1531000D02*
X2875000D01*
G02X2875000Y1569000I0J19000D01*
G01X3569000D01*
Y1100000D01*
G02X3531000Y1100000I-19000J0D01*
G01Y1530000D01*
Y470000D02*
Y900000D01*
G02X3569000Y900000I19000J0D01*
G01Y431000D01*
X2875000D01*
G02X2875000Y469000I0J19000D01*
G01X3530000D01*
X4050000Y-31000D02*
X-31000D01*
Y4531000D01*
X4031000D01*
Y-50000D01*
M02*
