M48
INCH,TZ
T1C0.0157
%
G90
G05
T1
X35799Y-46772
X35827Y-18020
X35827Y-27528
X35827Y-36827
X35843Y-8547
X36783Y-46772
X36811Y-18020
X36811Y-27528
X36811Y-36827
X36827Y-8547
X37768Y-46772
X37795Y-18020
X37795Y-27528
X37795Y-36827
X37811Y-8547
X38031Y-39016
X38031Y-39921
X38031Y-43740
X38031Y-44646
X38358Y-41831
X38583Y-39016
X38583Y-39921
X38583Y-43740
X38583Y-44646
X38752Y-46772
X38780Y-18020
X38780Y-27528
X38780Y-36827
X38795Y-8547
X39134Y-39016
X39134Y-39921
X39134Y-43740
X39134Y-44646
X39343Y-41831
X39685Y-39016
X39685Y-39921
X39685Y-43740
X39685Y-44646
X39736Y-46772
X39764Y-18020
X39764Y-27528
X39764Y-36827
X39780Y-8547
X40236Y-39016
X40236Y-39921
X40236Y-43740
X40236Y-44646
X40327Y-41831
X40720Y-46772
X40748Y-18020
X40748Y-27528
X40748Y-36827
X40764Y-8547
X40787Y-39016
X40787Y-39921
X40787Y-43740
X40787Y-44646
X41311Y-41831
X41339Y-39016
X41339Y-39921
X41339Y-43740
X41339Y-44646
X41705Y-46772
X41732Y-18020
X41732Y-27528
X41732Y-36827
X41748Y-8547
X41890Y-39016
X41890Y-39921
X41890Y-43740
X41890Y-44646
X42295Y-41831
X42441Y-39016
X42441Y-39921
X42441Y-43740
X42441Y-44646
X42689Y-46772
X42717Y-18020
X42717Y-27528
X42717Y-36827
X42732Y-8547
X42992Y-39016
X42992Y-39921
X42992Y-43740
X42992Y-44646
X43280Y-41831
X43543Y-39016
X43543Y-39921
X43543Y-43740
X43543Y-44646
X43673Y-46772
X43701Y-18020
X43701Y-27528
X43701Y-36827
X43717Y-8547
X44094Y-39016
X44094Y-39921
X44094Y-43740
X44094Y-44646
X44264Y-41831
X44646Y-39016
X44646Y-39921
X44646Y-43740
X44646Y-44646
X44657Y-46772
X44685Y-18020
X44685Y-27528
X44685Y-36827
X44701Y-8547
X45197Y-39016
X45197Y-39921
X45197Y-43740
X45197Y-44646
X45248Y-41831
X45642Y-46772
X45669Y-18020
X45669Y-27528
X45669Y-36827
X45685Y-8547
X45748Y-39016
X45748Y-39921
X45748Y-43740
X45748Y-44646
X46232Y-41831
X46299Y-39016
X46299Y-39921
X46299Y-43740
X46299Y-44646
X46626Y-46772
X46654Y-18020
X46654Y-27528
X46654Y-36827
X46669Y-8547
X46850Y-39016
X46850Y-39921
X46850Y-43740
X46850Y-44646
X47217Y-41831
X47402Y-39016
X47402Y-39921
X47402Y-43740
X47402Y-44646
X47610Y-46772
X47638Y-18020
X47638Y-27528
X47638Y-36827
X47654Y-8547
X47953Y-39016
X47953Y-39921
X47953Y-43740
X47953Y-44646
X48201Y-41831
X48504Y-39016
X48504Y-39921
X48504Y-43740
X48504Y-44646
X48594Y-46772
X48622Y-18020
X48622Y-27528
X48622Y-36827
X48638Y-8547
X49055Y-39016
X49055Y-39921
X49055Y-43740
X49055Y-44646
X49185Y-41831
X49579Y-46772
X49606Y-18020
X49606Y-27528
X49606Y-36827
X49606Y-39016
X49606Y-39921
X49606Y-43740
X49606Y-44646
X49622Y-8547
X50157Y-39016
X50157Y-39921
X50157Y-43740
X50157Y-44646
X50169Y-41831
X50563Y-46772
X50591Y-18020
X50591Y-27528
X50591Y-36827
X50606Y-8547
X50709Y-39016
X50709Y-39921
X50709Y-43740
X50709Y-44646
X51154Y-41831
X51260Y-39016
X51260Y-39921
X51260Y-43740
X51260Y-44646
X51547Y-46772
X51575Y-18020
X51575Y-27528
X51575Y-36827
X51591Y-8547
X51811Y-39016
X51811Y-39921
X51811Y-43740
X51811Y-44646
X52138Y-41831
X52362Y-39016
X52362Y-39921
X52362Y-43740
X52362Y-44646
X52531Y-46772
X52559Y-18020
X52559Y-27528
X52559Y-36827
X52575Y-8547
X52913Y-39016
X52913Y-39921
X52913Y-43740
X52913Y-44646
X53122Y-41831
X53465Y-39016
X53465Y-39921
X53465Y-43740
X53465Y-44646
X53516Y-46772
X53543Y-18020
X53543Y-27528
X53543Y-36827
X53559Y-8547
X54016Y-39016
X54016Y-39921
X54016Y-43740
X54016Y-44646
X54106Y-41831
X54500Y-46772
X54528Y-18020
X54528Y-27528
X54528Y-36827
X54543Y-8547
X54567Y-39016
X54567Y-39921
X54567Y-43740
X54567Y-44646
X55091Y-41831
X55118Y-39016
X55118Y-39921
X55118Y-43740
X55118Y-44646
X55484Y-46772
X55512Y-18020
X55512Y-27528
X55512Y-36827
X55528Y-8547
X55669Y-39016
X55669Y-39921
X55669Y-43740
X55669Y-44646
X56075Y-41831
X56220Y-39016
X56220Y-39921
X56220Y-43740
X56220Y-44646
X56469Y-46772
X56496Y-18020
X56496Y-27528
X56496Y-36827
X56512Y-8547
X56772Y-39016
X56772Y-39921
X56772Y-43740
X56772Y-44646
X57059Y-41831
X57323Y-39016
X57323Y-39921
X57323Y-43740
X57323Y-44646
X57453Y-46772
X57480Y-18020
X57480Y-27528
X57480Y-36827
X57496Y-8547
X57874Y-39016
X57874Y-39921
X57874Y-43740
X57874Y-44646
X58043Y-41831
X58425Y-39016
X58425Y-39921
X58425Y-43740
X58425Y-44646
X58437Y-46772
X58465Y-18020
X58465Y-27528
X58465Y-36827
X58480Y-8547
X58976Y-39016
X58976Y-39921
X58976Y-43740
X58976Y-44646
X59028Y-41831
X59421Y-46772
X59449Y-18020
X59449Y-27528
X59449Y-36827
X59465Y-8547
X59528Y-39016
X59528Y-39921
X59528Y-43740
X59528Y-44646
X60012Y-41831
X60079Y-39016
X60079Y-39921
X60079Y-43740
X60079Y-44646
X60406Y-46772
X60433Y-18020
X60433Y-27528
X60433Y-36827
X60449Y-8547
X60630Y-39016
X60630Y-39921
X60630Y-43740
X60630Y-44646
X60996Y-41831
X61181Y-39016
X61181Y-39921
X61181Y-43740
X61181Y-44646
X61390Y-46772
X61417Y-18020
X61417Y-27528
X61417Y-36827
X61433Y-8547
X61732Y-39016
X61732Y-39921
X61732Y-43740
X61732Y-44646
X61980Y-41831
X62283Y-39016
X62283Y-39921
X62283Y-43740
X62283Y-44646
X62374Y-46772
X62402Y-18020
X62402Y-27528
X62402Y-36827
X62417Y-8547
X62835Y-39016
X62835Y-39921
X62835Y-43740
X62835Y-44646
X62965Y-41831
X63358Y-46772
X63386Y-18020
X63386Y-27528
X63386Y-36827
X63386Y-39016
X63386Y-39921
X63386Y-43740
X63386Y-44646
X63402Y-8547
X63937Y-39016
X63937Y-39921
X63937Y-43740
X63937Y-44646
X63949Y-41831
X64343Y-46772
X64370Y-18020
X64370Y-27528
X64370Y-36827
X64386Y-8547
X64488Y-39016
X64488Y-39921
X64488Y-43740
X64488Y-44646
X64933Y-41831
X65039Y-39016
X65039Y-39921
X65039Y-43740
X65039Y-44646
X65327Y-46772
X65354Y-18020
X65354Y-27528
X65354Y-36827
X65370Y-8547
X65591Y-39016
X65591Y-39921
X65591Y-43740
X65591Y-44646
X65917Y-41831
X66142Y-39016
X66142Y-39921
X66142Y-43740
X66142Y-44646
X66311Y-46772
X66339Y-18020
X66339Y-27528
X66339Y-36827
X66354Y-8547
X66693Y-39016
X66693Y-39921
X66693Y-43740
X66693Y-44646
X66902Y-41831
X67244Y-39016
X67244Y-39921
X67244Y-43740
X67244Y-44646
X67295Y-46772
X67323Y-18020
X67323Y-27528
X67323Y-36827
X67339Y-8547
X67795Y-39016
X67795Y-39921
X67795Y-43740
X67795Y-44646
X67886Y-41831
X68280Y-46772
X68307Y-18020
X68307Y-27528
X68307Y-36827
X68323Y-8547
X68346Y-39016
X68346Y-39921
X68346Y-43740
X68346Y-44646
X68870Y-41831
X68898Y-39016
X68898Y-39921
X68898Y-43740
X68898Y-44646
X69264Y-46772
X69291Y-18020
X69291Y-27528
X69291Y-36827
X69307Y-8547
X69449Y-39016
X69449Y-39921
X69449Y-43740
X69449Y-44646
X69854Y-41831
X70000Y-39016
X70000Y-39921
X70000Y-43740
X70000Y-44646
X70248Y-46772
X70276Y-18020
X70276Y-27528
X70276Y-36827
X70291Y-8547
X70551Y-39016
X70551Y-39921
X70551Y-43740
X70551Y-44646
X70839Y-41831
X71102Y-39016
X71102Y-39921
X71102Y-43740
X71102Y-44646
X71232Y-46772
X71260Y-18020
X71260Y-27528
X71260Y-36827
X71276Y-8547
X71654Y-39016
X71654Y-39921
X71654Y-43740
X71654Y-44646
X71823Y-41831
X72205Y-39016
X72205Y-39921
X72205Y-43740
X72205Y-44646
X72217Y-46772
X72244Y-18020
X72244Y-27528
X72244Y-36827
X72260Y-8547
X73201Y-46772
X73228Y-18020
X73228Y-27528
X73228Y-36827
X73244Y-8547
X74185Y-46772
X74213Y-18020
X74213Y-27528
X74213Y-36827
X74228Y-8547
T0
M30
