G04 #@! TF.GenerationSoftware,KiCad,Pcbnew,5.1.6-c6e7f7d~86~ubuntu18.04.1*
G04 #@! TF.CreationDate,2020-05-31T00:28:00-04:00*
G04 #@! TF.ProjectId,microstrip_tests,6d696372-6f73-4747-9269-705f74657374,rev?*
G04 #@! TF.SameCoordinates,Original*
G04 #@! TF.FileFunction,Copper,L1,Top*
G04 #@! TF.FilePolarity,Positive*
%FSLAX46Y46*%
G04 Gerber Fmt 4.6, Leading zero omitted, Abs format (unit mm)*
G04 Created by KiCad (PCBNEW 5.1.6-c6e7f7d~86~ubuntu18.04.1) date 2020-05-31 00:28:00*
%MOMM*%
%LPD*%
G01*
G04 APERTURE LIST*
G04 #@! TA.AperFunction,SMDPad,CuDef*
%ADD10R,5.080000X1.500000*%
G04 #@! TD*
G04 #@! TA.AperFunction,ViaPad*
%ADD11C,0.800000*%
G04 #@! TD*
G04 #@! TA.AperFunction,Conductor*
%ADD12C,2.970000*%
G04 #@! TD*
G04 #@! TA.AperFunction,Conductor*
%ADD13C,0.250000*%
G04 #@! TD*
G04 #@! TA.AperFunction,Conductor*
%ADD14C,0.904300*%
G04 #@! TD*
G04 #@! TA.AperFunction,Conductor*
%ADD15C,0.254000*%
G04 #@! TD*
G04 APERTURE END LIST*
D10*
G04 #@! TO.P,J1,2*
G04 #@! TO.N,GND*
X93000000Y-29513000D03*
X93000000Y-38013000D03*
G04 #@! TO.P,J1,1*
G04 #@! TO.N,Net-(J1-Pad1)*
X93000000Y-33763000D03*
G04 #@! TD*
G04 #@! TO.P,J2,1*
G04 #@! TO.N,Net-(J1-Pad1)*
X187000000Y-33763000D03*
G04 #@! TO.P,J2,2*
G04 #@! TO.N,GND*
X187000000Y-29513000D03*
X187000000Y-38013000D03*
G04 #@! TD*
G04 #@! TO.P,J3,2*
G04 #@! TO.N,GND*
X93000000Y-53671000D03*
X93000000Y-62171000D03*
G04 #@! TO.P,J3,1*
G04 #@! TO.N,Net-(J3-Pad1)*
X93000000Y-57921000D03*
G04 #@! TD*
G04 #@! TO.P,J4,2*
G04 #@! TO.N,GND*
X93000000Y-77829000D03*
X93000000Y-86329000D03*
G04 #@! TO.P,J4,1*
G04 #@! TO.N,Net-(J4-Pad1)*
X93000000Y-82079000D03*
G04 #@! TD*
G04 #@! TO.P,J5,2*
G04 #@! TO.N,GND*
X93000000Y-95987000D03*
X93000000Y-104487000D03*
G04 #@! TO.P,J5,1*
G04 #@! TO.N,Net-(J5-Pad1)*
X93000000Y-100237000D03*
G04 #@! TD*
G04 #@! TO.P,J6,1*
G04 #@! TO.N,Net-(J3-Pad1)*
X187000000Y-57921000D03*
G04 #@! TO.P,J6,2*
G04 #@! TO.N,GND*
X187000000Y-53671000D03*
X187000000Y-62171000D03*
G04 #@! TD*
G04 #@! TO.P,J7,1*
G04 #@! TO.N,Net-(J4-Pad1)*
X187000000Y-82079000D03*
G04 #@! TO.P,J7,2*
G04 #@! TO.N,GND*
X187000000Y-77829000D03*
X187000000Y-86329000D03*
G04 #@! TD*
G04 #@! TO.P,J8,1*
G04 #@! TO.N,Net-(J5-Pad1)*
X187000000Y-100237000D03*
G04 #@! TO.P,J8,2*
G04 #@! TO.N,GND*
X187000000Y-95987000D03*
X187000000Y-104487000D03*
G04 #@! TD*
G04 #@! TO.P,J9,2*
G04 #@! TO.N,GND*
X93000000Y-107987000D03*
X93000000Y-116487000D03*
G04 #@! TO.P,J9,1*
G04 #@! TO.N,Net-(J10-Pad1)*
X93000000Y-112237000D03*
G04 #@! TD*
G04 #@! TO.P,J10,1*
G04 #@! TO.N,Net-(J10-Pad1)*
X187000000Y-112237000D03*
G04 #@! TO.P,J10,2*
G04 #@! TO.N,GND*
X187000000Y-107987000D03*
X187000000Y-116487000D03*
G04 #@! TD*
D11*
G04 #@! TO.N,GND*
X97430000Y-106250000D03*
X99930000Y-106250000D03*
X102430000Y-106250000D03*
X104930000Y-106250000D03*
X107430000Y-106250000D03*
X109930000Y-106250000D03*
X112430000Y-106250000D03*
X114930000Y-106250000D03*
X117430000Y-106250000D03*
X119930000Y-106250000D03*
X122430000Y-106250000D03*
X124930000Y-106250000D03*
X127430000Y-106250000D03*
X129930000Y-106250000D03*
X132430000Y-106250000D03*
X134930000Y-106250000D03*
X137430000Y-106250000D03*
X139930000Y-106250000D03*
X142430000Y-106250000D03*
X144930000Y-106250000D03*
X147430000Y-106250000D03*
X149930000Y-106250000D03*
X152430000Y-106250000D03*
X154930000Y-106250000D03*
X157430000Y-106250000D03*
X159930000Y-106250000D03*
X162430000Y-106250000D03*
X164930000Y-106250000D03*
X167430000Y-106250000D03*
X169930000Y-106250000D03*
X172430000Y-106250000D03*
X174930000Y-106250000D03*
X177430000Y-106250000D03*
X179930000Y-106250000D03*
X91000000Y-93540000D03*
X108500000Y-93540000D03*
X93500000Y-93540000D03*
X111000000Y-93540000D03*
X141000000Y-93540000D03*
X143500000Y-93540000D03*
X188500000Y-93540000D03*
X116000000Y-93540000D03*
X118500000Y-93540000D03*
X173500000Y-93540000D03*
X121000000Y-93540000D03*
X123500000Y-93540000D03*
X146000000Y-93540000D03*
X148500000Y-93540000D03*
X113500000Y-93540000D03*
X106000000Y-93540000D03*
X98500000Y-93540000D03*
X171000000Y-93540000D03*
X176000000Y-93540000D03*
X178500000Y-93540000D03*
X181000000Y-93540000D03*
X183500000Y-93540000D03*
X186000000Y-93540000D03*
X126000000Y-93540000D03*
X128500000Y-93540000D03*
X151000000Y-93540000D03*
X153500000Y-93540000D03*
X156000000Y-93540000D03*
X158500000Y-93540000D03*
X161000000Y-93540000D03*
X163500000Y-93540000D03*
X136000000Y-93540000D03*
X138500000Y-93540000D03*
X166000000Y-93540000D03*
X168500000Y-93540000D03*
X96000000Y-93540000D03*
X101000000Y-93540000D03*
X103500000Y-93540000D03*
X131000000Y-93540000D03*
X133500000Y-93540000D03*
X91040000Y-21710000D03*
X108540000Y-21710000D03*
X93540000Y-21710000D03*
X111040000Y-21710000D03*
X141040000Y-21710000D03*
X143540000Y-21710000D03*
X188540000Y-21710000D03*
X116040000Y-21710000D03*
X118540000Y-21710000D03*
X173540000Y-21710000D03*
X121040000Y-21710000D03*
X123540000Y-21710000D03*
X146040000Y-21710000D03*
X148540000Y-21710000D03*
X113540000Y-21710000D03*
X106040000Y-21710000D03*
X98540000Y-21710000D03*
X171040000Y-21710000D03*
X176040000Y-21710000D03*
X178540000Y-21710000D03*
X181040000Y-21710000D03*
X183540000Y-21710000D03*
X186040000Y-21710000D03*
X126040000Y-21710000D03*
X128540000Y-21710000D03*
X151040000Y-21710000D03*
X153540000Y-21710000D03*
X156040000Y-21710000D03*
X158540000Y-21710000D03*
X161040000Y-21710000D03*
X163540000Y-21710000D03*
X136040000Y-21710000D03*
X138540000Y-21710000D03*
X166040000Y-21710000D03*
X168540000Y-21710000D03*
X96040000Y-21710000D03*
X101040000Y-21710000D03*
X103540000Y-21710000D03*
X131040000Y-21710000D03*
X133540000Y-21710000D03*
X91000000Y-45770000D03*
X108500000Y-45770000D03*
X93500000Y-45770000D03*
X111000000Y-45770000D03*
X141000000Y-45770000D03*
X143500000Y-45770000D03*
X188500000Y-45770000D03*
X116000000Y-45770000D03*
X118500000Y-45770000D03*
X173500000Y-45770000D03*
X121000000Y-45770000D03*
X123500000Y-45770000D03*
X146000000Y-45770000D03*
X148500000Y-45770000D03*
X113500000Y-45770000D03*
X106000000Y-45770000D03*
X98500000Y-45770000D03*
X171000000Y-45770000D03*
X176000000Y-45770000D03*
X178500000Y-45770000D03*
X181000000Y-45770000D03*
X183500000Y-45770000D03*
X186000000Y-45770000D03*
X126000000Y-45770000D03*
X128500000Y-45770000D03*
X151000000Y-45770000D03*
X153500000Y-45770000D03*
X156000000Y-45770000D03*
X158500000Y-45770000D03*
X161000000Y-45770000D03*
X163500000Y-45770000D03*
X136000000Y-45770000D03*
X138500000Y-45770000D03*
X166000000Y-45770000D03*
X168500000Y-45770000D03*
X96000000Y-45770000D03*
X101000000Y-45770000D03*
X103500000Y-45770000D03*
X131000000Y-45770000D03*
X133500000Y-45770000D03*
X91000000Y-69920000D03*
X108500000Y-69920000D03*
X93500000Y-69920000D03*
X111000000Y-69920000D03*
X141000000Y-69920000D03*
X143500000Y-69920000D03*
X188500000Y-69920000D03*
X116000000Y-69920000D03*
X118500000Y-69920000D03*
X173500000Y-69920000D03*
X121000000Y-69920000D03*
X123500000Y-69920000D03*
X146000000Y-69920000D03*
X148500000Y-69920000D03*
X113500000Y-69920000D03*
X106000000Y-69920000D03*
X98500000Y-69920000D03*
X171000000Y-69920000D03*
X176000000Y-69920000D03*
X178500000Y-69920000D03*
X181000000Y-69920000D03*
X183500000Y-69920000D03*
X186000000Y-69920000D03*
X126000000Y-69920000D03*
X128500000Y-69920000D03*
X151000000Y-69920000D03*
X153500000Y-69920000D03*
X156000000Y-69920000D03*
X158500000Y-69920000D03*
X161000000Y-69920000D03*
X163500000Y-69920000D03*
X136000000Y-69920000D03*
X138500000Y-69920000D03*
X166000000Y-69920000D03*
X168500000Y-69920000D03*
X96000000Y-69920000D03*
X101000000Y-69920000D03*
X103500000Y-69920000D03*
X131000000Y-69920000D03*
X133500000Y-69920000D03*
X156800000Y-99100000D03*
X158200000Y-99100000D03*
X159600000Y-99100000D03*
X161000000Y-99100000D03*
X98000000Y-101400000D03*
X165200000Y-101400000D03*
X166600000Y-101400000D03*
X98000000Y-99100000D03*
X140000000Y-99100000D03*
X141400000Y-99100000D03*
X142800000Y-99100000D03*
X135800000Y-101400000D03*
X109200000Y-99100000D03*
X159600000Y-101400000D03*
X112000000Y-99100000D03*
X173600000Y-99100000D03*
X175000000Y-99100000D03*
X176400000Y-99100000D03*
X177800000Y-99100000D03*
X179200000Y-99100000D03*
X180600000Y-99100000D03*
X151200000Y-101400000D03*
X152600000Y-101400000D03*
X149800000Y-101400000D03*
X123200000Y-101400000D03*
X124600000Y-101400000D03*
X127400000Y-101400000D03*
X128800000Y-101400000D03*
X105000000Y-99100000D03*
X130200000Y-101400000D03*
X96600000Y-101400000D03*
X103600000Y-99100000D03*
X107800000Y-101400000D03*
X144200000Y-101400000D03*
X116200000Y-101400000D03*
X117600000Y-101400000D03*
X156800000Y-101400000D03*
X100800000Y-99100000D03*
X158200000Y-101400000D03*
X151200000Y-99100000D03*
X152600000Y-99100000D03*
X154000000Y-99100000D03*
X155400000Y-99100000D03*
X99400000Y-101400000D03*
X168000000Y-101400000D03*
X107800000Y-99100000D03*
X144200000Y-99100000D03*
X109200000Y-101400000D03*
X134400000Y-101400000D03*
X127400000Y-99100000D03*
X128800000Y-99100000D03*
X130200000Y-99100000D03*
X126000000Y-101400000D03*
X114800000Y-101400000D03*
X172200000Y-101400000D03*
X106400000Y-101400000D03*
X169400000Y-101400000D03*
X170800000Y-101400000D03*
X120400000Y-101400000D03*
X121800000Y-101400000D03*
X141400000Y-101400000D03*
X140000000Y-101400000D03*
X103600000Y-101400000D03*
X100800000Y-101400000D03*
X96600000Y-99100000D03*
X154000000Y-101400000D03*
X155400000Y-101400000D03*
X119000000Y-101400000D03*
X145600000Y-101400000D03*
X179200000Y-101400000D03*
X180600000Y-101400000D03*
X131600000Y-101400000D03*
X133000000Y-101400000D03*
X161000000Y-101400000D03*
X102200000Y-101400000D03*
X162400000Y-101400000D03*
X137200000Y-101400000D03*
X138600000Y-101400000D03*
X99400000Y-99100000D03*
X168000000Y-99100000D03*
X169400000Y-99100000D03*
X170800000Y-99100000D03*
X172200000Y-99100000D03*
X106400000Y-99100000D03*
X112000000Y-101400000D03*
X176400000Y-101400000D03*
X177800000Y-101400000D03*
X142800000Y-101400000D03*
X113400000Y-99100000D03*
X110600000Y-99100000D03*
X102200000Y-99100000D03*
X162400000Y-99100000D03*
X163800000Y-99100000D03*
X165200000Y-99100000D03*
X166600000Y-99100000D03*
X173600000Y-101400000D03*
X175000000Y-101400000D03*
X147000000Y-101400000D03*
X148400000Y-101400000D03*
X135800000Y-99100000D03*
X137200000Y-99100000D03*
X138600000Y-99100000D03*
X131600000Y-99100000D03*
X133000000Y-99100000D03*
X134400000Y-99100000D03*
X163800000Y-101400000D03*
X120400000Y-99100000D03*
X121800000Y-99100000D03*
X123200000Y-99100000D03*
X124600000Y-99100000D03*
X126000000Y-99100000D03*
X114800000Y-99100000D03*
X116200000Y-99100000D03*
X117600000Y-99100000D03*
X119000000Y-99100000D03*
X145600000Y-99100000D03*
X147000000Y-99100000D03*
X148400000Y-99100000D03*
X149800000Y-99100000D03*
X113400000Y-101400000D03*
X110600000Y-101400000D03*
X105000000Y-101400000D03*
X156800000Y-113400000D03*
X158200000Y-113400000D03*
X159600000Y-113400000D03*
X161000000Y-113400000D03*
X98000000Y-113400000D03*
X140000000Y-113400000D03*
X141400000Y-113400000D03*
X142800000Y-113400000D03*
X109200000Y-113400000D03*
X112000000Y-113400000D03*
X173600000Y-113400000D03*
X175000000Y-113400000D03*
X176400000Y-113400000D03*
X177800000Y-113400000D03*
X179200000Y-113400000D03*
X180600000Y-113400000D03*
X105000000Y-113400000D03*
X103600000Y-113400000D03*
X100800000Y-113400000D03*
X151200000Y-113400000D03*
X152600000Y-113400000D03*
X154000000Y-113400000D03*
X155400000Y-113400000D03*
X107800000Y-113400000D03*
X144200000Y-113400000D03*
X127400000Y-113400000D03*
X128800000Y-113400000D03*
X130200000Y-113400000D03*
X96600000Y-113400000D03*
X99400000Y-113400000D03*
X168000000Y-113400000D03*
X169400000Y-113400000D03*
X170800000Y-113400000D03*
X172200000Y-113400000D03*
X106400000Y-113400000D03*
X113400000Y-113400000D03*
X110600000Y-113400000D03*
X102200000Y-113400000D03*
X162400000Y-113400000D03*
X163800000Y-113400000D03*
X165200000Y-113400000D03*
X166600000Y-113400000D03*
X135800000Y-113400000D03*
X137200000Y-113400000D03*
X138600000Y-113400000D03*
X131600000Y-113400000D03*
X133000000Y-113400000D03*
X134400000Y-113400000D03*
X120400000Y-113400000D03*
X121800000Y-113400000D03*
X123200000Y-113400000D03*
X124600000Y-113400000D03*
X126000000Y-113400000D03*
X114800000Y-113400000D03*
X116200000Y-113400000D03*
X117600000Y-113400000D03*
X119000000Y-113400000D03*
X145600000Y-113400000D03*
X147000000Y-113400000D03*
X148400000Y-113400000D03*
X149800000Y-113400000D03*
X90930000Y-118800000D03*
X96600000Y-111100000D03*
X98000000Y-111100000D03*
X99400000Y-111100000D03*
X100800000Y-111100000D03*
X102200000Y-111100000D03*
X103600000Y-111100000D03*
X105000000Y-111100000D03*
X106400000Y-111100000D03*
X107800000Y-111100000D03*
X109200000Y-111100000D03*
X110600000Y-111100000D03*
X112000000Y-111100000D03*
X113400000Y-111100000D03*
X114800000Y-111100000D03*
X116200000Y-111100000D03*
X117600000Y-111100000D03*
X119000000Y-111100000D03*
X120400000Y-111100000D03*
X121800000Y-111100000D03*
X123200000Y-111100000D03*
X124600000Y-111100000D03*
X126000000Y-111100000D03*
X127400000Y-111100000D03*
X128800000Y-111100000D03*
X130200000Y-111100000D03*
X131600000Y-111100000D03*
X133000000Y-111100000D03*
X134400000Y-111100000D03*
X135800000Y-111100000D03*
X137200000Y-111100000D03*
X138600000Y-111100000D03*
X140000000Y-111100000D03*
X141400000Y-111100000D03*
X142800000Y-111100000D03*
X144200000Y-111100000D03*
X145600000Y-111100000D03*
X147000000Y-111100000D03*
X148400000Y-111100000D03*
X149800000Y-111100000D03*
X151200000Y-111100000D03*
X152600000Y-111100000D03*
X154000000Y-111100000D03*
X155400000Y-111100000D03*
X156800000Y-111100000D03*
X158200000Y-111100000D03*
X159600000Y-111100000D03*
X161000000Y-111100000D03*
X162400000Y-111100000D03*
X163800000Y-111100000D03*
X165200000Y-111100000D03*
X166600000Y-111100000D03*
X168000000Y-111100000D03*
X169400000Y-111100000D03*
X170800000Y-111100000D03*
X172200000Y-111100000D03*
X173600000Y-111100000D03*
X175000000Y-111100000D03*
X176400000Y-111100000D03*
X177800000Y-111100000D03*
X179200000Y-111100000D03*
X180600000Y-111100000D03*
X93430000Y-118800000D03*
X95930000Y-118800000D03*
X98430000Y-118800000D03*
X100930000Y-118800000D03*
X103430000Y-118800000D03*
X105930000Y-118800000D03*
X108430000Y-118800000D03*
X110930000Y-118800000D03*
X113430000Y-118800000D03*
X115930000Y-118800000D03*
X118430000Y-118800000D03*
X120930000Y-118800000D03*
X123430000Y-118800000D03*
X125930000Y-118800000D03*
X128430000Y-118800000D03*
X130930000Y-118800000D03*
X133430000Y-118800000D03*
X135930000Y-118800000D03*
X138430000Y-118800000D03*
X140930000Y-118800000D03*
X143430000Y-118800000D03*
X145930000Y-118800000D03*
X148430000Y-118800000D03*
X150930000Y-118800000D03*
X153430000Y-118800000D03*
X155930000Y-118800000D03*
X158430000Y-118800000D03*
X160930000Y-118800000D03*
X163430000Y-118800000D03*
X165930000Y-118800000D03*
X168430000Y-118800000D03*
X170930000Y-118800000D03*
X173430000Y-118800000D03*
X175930000Y-118800000D03*
X178430000Y-118800000D03*
X180930000Y-118800000D03*
X183430000Y-118800000D03*
X185930000Y-118800000D03*
X188430000Y-118800000D03*
X182000000Y-111100000D03*
X183400000Y-111100000D03*
X182000000Y-113400000D03*
X183400000Y-113400000D03*
X182000000Y-99100000D03*
X183400000Y-99100000D03*
X182000000Y-101400000D03*
X183400000Y-101400000D03*
X182430000Y-106250000D03*
G04 #@! TD*
D12*
G04 #@! TO.N,Net-(J1-Pad1)*
X96800000Y-33763000D02*
X183200000Y-33763000D01*
D13*
X93000000Y-33763000D02*
X96800000Y-33763000D01*
X187000000Y-33763000D02*
X183200000Y-33763000D01*
D12*
G04 #@! TO.N,Net-(J3-Pad1)*
X96800000Y-57921000D02*
X183200000Y-57921000D01*
D13*
X183200000Y-57921000D02*
X187000000Y-57921000D01*
X96800000Y-57921000D02*
X93000000Y-57921000D01*
G04 #@! TO.N,Net-(J4-Pad1)*
X93000000Y-82079000D02*
X187000000Y-82079000D01*
D14*
G04 #@! TO.N,Net-(J5-Pad1)*
X93000000Y-100237000D02*
X187000000Y-100237000D01*
G04 #@! TO.N,Net-(J10-Pad1)*
X93000000Y-112237000D02*
X187000000Y-112237000D01*
G04 #@! TD*
D15*
G04 #@! TO.N,GND*
G36*
X183743000Y-115250000D02*
G01*
X183745440Y-115274776D01*
X183752667Y-115298601D01*
X183764403Y-115320557D01*
X183780197Y-115339803D01*
X183799443Y-115355597D01*
X183821399Y-115367333D01*
X183845224Y-115374560D01*
X183870000Y-115377000D01*
X183933982Y-115377000D01*
X183929463Y-115382506D01*
X183870498Y-115492820D01*
X183834188Y-115612518D01*
X183821928Y-115737000D01*
X183825000Y-116201250D01*
X183983750Y-116360000D01*
X186873000Y-116360000D01*
X186873000Y-116340000D01*
X187127000Y-116340000D01*
X187127000Y-116360000D01*
X187147000Y-116360000D01*
X187147000Y-116614000D01*
X187127000Y-116614000D01*
X187127000Y-117713250D01*
X187285750Y-117872000D01*
X189540000Y-117875072D01*
X189664482Y-117862812D01*
X189672950Y-117860243D01*
X189672950Y-119672950D01*
X90327050Y-119672950D01*
X90327050Y-117860243D01*
X90335518Y-117862812D01*
X90460000Y-117875072D01*
X92714250Y-117872000D01*
X92873000Y-117713250D01*
X92873000Y-116614000D01*
X93127000Y-116614000D01*
X93127000Y-117713250D01*
X93285750Y-117872000D01*
X95540000Y-117875072D01*
X95664482Y-117862812D01*
X95784180Y-117826502D01*
X95894494Y-117767537D01*
X95991185Y-117688185D01*
X96070537Y-117591494D01*
X96129502Y-117481180D01*
X96165812Y-117361482D01*
X96178072Y-117237000D01*
X183821928Y-117237000D01*
X183834188Y-117361482D01*
X183870498Y-117481180D01*
X183929463Y-117591494D01*
X184008815Y-117688185D01*
X184105506Y-117767537D01*
X184215820Y-117826502D01*
X184335518Y-117862812D01*
X184460000Y-117875072D01*
X186714250Y-117872000D01*
X186873000Y-117713250D01*
X186873000Y-116614000D01*
X183983750Y-116614000D01*
X183825000Y-116772750D01*
X183821928Y-117237000D01*
X96178072Y-117237000D01*
X96175000Y-116772750D01*
X96016250Y-116614000D01*
X93127000Y-116614000D01*
X92873000Y-116614000D01*
X92853000Y-116614000D01*
X92853000Y-116360000D01*
X92873000Y-116360000D01*
X92873000Y-116340000D01*
X93127000Y-116340000D01*
X93127000Y-116360000D01*
X96016250Y-116360000D01*
X96175000Y-116201250D01*
X96178072Y-115737000D01*
X96165812Y-115612518D01*
X96129502Y-115492820D01*
X96072939Y-115387000D01*
X96129000Y-115387000D01*
X96153756Y-115384564D01*
X96177581Y-115377341D01*
X96199540Y-115365608D01*
X96218788Y-115349818D01*
X96234585Y-115330575D01*
X96246325Y-115308620D01*
X96253556Y-115284797D01*
X96256000Y-115260021D01*
X96256373Y-113016150D01*
X183743000Y-113016150D01*
X183743000Y-115250000D01*
G37*
X183743000Y-115250000D02*
X183745440Y-115274776D01*
X183752667Y-115298601D01*
X183764403Y-115320557D01*
X183780197Y-115339803D01*
X183799443Y-115355597D01*
X183821399Y-115367333D01*
X183845224Y-115374560D01*
X183870000Y-115377000D01*
X183933982Y-115377000D01*
X183929463Y-115382506D01*
X183870498Y-115492820D01*
X183834188Y-115612518D01*
X183821928Y-115737000D01*
X183825000Y-116201250D01*
X183983750Y-116360000D01*
X186873000Y-116360000D01*
X186873000Y-116340000D01*
X187127000Y-116340000D01*
X187127000Y-116360000D01*
X187147000Y-116360000D01*
X187147000Y-116614000D01*
X187127000Y-116614000D01*
X187127000Y-117713250D01*
X187285750Y-117872000D01*
X189540000Y-117875072D01*
X189664482Y-117862812D01*
X189672950Y-117860243D01*
X189672950Y-119672950D01*
X90327050Y-119672950D01*
X90327050Y-117860243D01*
X90335518Y-117862812D01*
X90460000Y-117875072D01*
X92714250Y-117872000D01*
X92873000Y-117713250D01*
X92873000Y-116614000D01*
X93127000Y-116614000D01*
X93127000Y-117713250D01*
X93285750Y-117872000D01*
X95540000Y-117875072D01*
X95664482Y-117862812D01*
X95784180Y-117826502D01*
X95894494Y-117767537D01*
X95991185Y-117688185D01*
X96070537Y-117591494D01*
X96129502Y-117481180D01*
X96165812Y-117361482D01*
X96178072Y-117237000D01*
X183821928Y-117237000D01*
X183834188Y-117361482D01*
X183870498Y-117481180D01*
X183929463Y-117591494D01*
X184008815Y-117688185D01*
X184105506Y-117767537D01*
X184215820Y-117826502D01*
X184335518Y-117862812D01*
X184460000Y-117875072D01*
X186714250Y-117872000D01*
X186873000Y-117713250D01*
X186873000Y-116614000D01*
X183983750Y-116614000D01*
X183825000Y-116772750D01*
X183821928Y-117237000D01*
X96178072Y-117237000D01*
X96175000Y-116772750D01*
X96016250Y-116614000D01*
X93127000Y-116614000D01*
X92873000Y-116614000D01*
X92853000Y-116614000D01*
X92853000Y-116360000D01*
X92873000Y-116360000D01*
X92873000Y-116340000D01*
X93127000Y-116340000D01*
X93127000Y-116360000D01*
X96016250Y-116360000D01*
X96175000Y-116201250D01*
X96178072Y-115737000D01*
X96165812Y-115612518D01*
X96129502Y-115492820D01*
X96072939Y-115387000D01*
X96129000Y-115387000D01*
X96153756Y-115384564D01*
X96177581Y-115377341D01*
X96199540Y-115365608D01*
X96218788Y-115349818D01*
X96234585Y-115330575D01*
X96246325Y-115308620D01*
X96253556Y-115284797D01*
X96256000Y-115260021D01*
X96256373Y-113016150D01*
X183743000Y-113016150D01*
X183743000Y-115250000D01*
G36*
X184137732Y-101051103D02*
G01*
X184156430Y-101112743D01*
X184186794Y-101169550D01*
X184227657Y-101219343D01*
X184277450Y-101260206D01*
X184334257Y-101290570D01*
X184395897Y-101309268D01*
X184460000Y-101315582D01*
X189540000Y-101315582D01*
X189604103Y-101309268D01*
X189665743Y-101290570D01*
X189672950Y-101286718D01*
X189672950Y-103113757D01*
X189664482Y-103111188D01*
X189540000Y-103098928D01*
X187285750Y-103102000D01*
X187127000Y-103260750D01*
X187127000Y-104360000D01*
X187147000Y-104360000D01*
X187147000Y-104614000D01*
X187127000Y-104614000D01*
X187127000Y-105713250D01*
X187285750Y-105872000D01*
X189540000Y-105875072D01*
X189664482Y-105862812D01*
X189672950Y-105860243D01*
X189672950Y-106613757D01*
X189664482Y-106611188D01*
X189540000Y-106598928D01*
X187285750Y-106602000D01*
X187127000Y-106760750D01*
X187127000Y-107860000D01*
X187147000Y-107860000D01*
X187147000Y-108114000D01*
X187127000Y-108114000D01*
X187127000Y-108134000D01*
X186873000Y-108134000D01*
X186873000Y-108114000D01*
X183983750Y-108114000D01*
X183825000Y-108272750D01*
X183821928Y-108737000D01*
X183834188Y-108861482D01*
X183870498Y-108981180D01*
X183929463Y-109091494D01*
X183947112Y-109113000D01*
X183870000Y-109113000D01*
X183845224Y-109115440D01*
X183821399Y-109122667D01*
X183799443Y-109134403D01*
X183780197Y-109150197D01*
X183764403Y-109169443D01*
X183752667Y-109191399D01*
X183745440Y-109215224D01*
X183743000Y-109240000D01*
X183743000Y-111457850D01*
X96256633Y-111457850D01*
X96257000Y-109250021D01*
X96254560Y-109225224D01*
X96247333Y-109201399D01*
X96235597Y-109179443D01*
X96219803Y-109160197D01*
X96200557Y-109144403D01*
X96178601Y-109132667D01*
X96154776Y-109125440D01*
X96130000Y-109123000D01*
X96044681Y-109123000D01*
X96070537Y-109091494D01*
X96129502Y-108981180D01*
X96165812Y-108861482D01*
X96178072Y-108737000D01*
X96175000Y-108272750D01*
X96016250Y-108114000D01*
X93127000Y-108114000D01*
X93127000Y-108134000D01*
X92873000Y-108134000D01*
X92873000Y-108114000D01*
X92853000Y-108114000D01*
X92853000Y-107860000D01*
X92873000Y-107860000D01*
X92873000Y-106760750D01*
X93127000Y-106760750D01*
X93127000Y-107860000D01*
X96016250Y-107860000D01*
X96175000Y-107701250D01*
X96178072Y-107237000D01*
X183821928Y-107237000D01*
X183825000Y-107701250D01*
X183983750Y-107860000D01*
X186873000Y-107860000D01*
X186873000Y-106760750D01*
X186714250Y-106602000D01*
X184460000Y-106598928D01*
X184335518Y-106611188D01*
X184215820Y-106647498D01*
X184105506Y-106706463D01*
X184008815Y-106785815D01*
X183929463Y-106882506D01*
X183870498Y-106992820D01*
X183834188Y-107112518D01*
X183821928Y-107237000D01*
X96178072Y-107237000D01*
X96165812Y-107112518D01*
X96129502Y-106992820D01*
X96070537Y-106882506D01*
X95991185Y-106785815D01*
X95894494Y-106706463D01*
X95784180Y-106647498D01*
X95664482Y-106611188D01*
X95540000Y-106598928D01*
X93285750Y-106602000D01*
X93127000Y-106760750D01*
X92873000Y-106760750D01*
X92714250Y-106602000D01*
X90460000Y-106598928D01*
X90335518Y-106611188D01*
X90327050Y-106613757D01*
X90327050Y-105860243D01*
X90335518Y-105862812D01*
X90460000Y-105875072D01*
X92714250Y-105872000D01*
X92873000Y-105713250D01*
X92873000Y-104614000D01*
X93127000Y-104614000D01*
X93127000Y-105713250D01*
X93285750Y-105872000D01*
X95540000Y-105875072D01*
X95664482Y-105862812D01*
X95784180Y-105826502D01*
X95894494Y-105767537D01*
X95991185Y-105688185D01*
X96070537Y-105591494D01*
X96129502Y-105481180D01*
X96165812Y-105361482D01*
X96178072Y-105237000D01*
X183821928Y-105237000D01*
X183834188Y-105361482D01*
X183870498Y-105481180D01*
X183929463Y-105591494D01*
X184008815Y-105688185D01*
X184105506Y-105767537D01*
X184215820Y-105826502D01*
X184335518Y-105862812D01*
X184460000Y-105875072D01*
X186714250Y-105872000D01*
X186873000Y-105713250D01*
X186873000Y-104614000D01*
X183983750Y-104614000D01*
X183825000Y-104772750D01*
X183821928Y-105237000D01*
X96178072Y-105237000D01*
X96175000Y-104772750D01*
X96016250Y-104614000D01*
X93127000Y-104614000D01*
X92873000Y-104614000D01*
X92853000Y-104614000D01*
X92853000Y-104360000D01*
X92873000Y-104360000D01*
X92873000Y-103260750D01*
X93127000Y-103260750D01*
X93127000Y-104360000D01*
X96016250Y-104360000D01*
X96175000Y-104201250D01*
X96178072Y-103737000D01*
X183821928Y-103737000D01*
X183825000Y-104201250D01*
X183983750Y-104360000D01*
X186873000Y-104360000D01*
X186873000Y-103260750D01*
X186714250Y-103102000D01*
X184460000Y-103098928D01*
X184335518Y-103111188D01*
X184215820Y-103147498D01*
X184105506Y-103206463D01*
X184008815Y-103285815D01*
X183929463Y-103382506D01*
X183870498Y-103492820D01*
X183834188Y-103612518D01*
X183821928Y-103737000D01*
X96178072Y-103737000D01*
X96165812Y-103612518D01*
X96129502Y-103492820D01*
X96070537Y-103382506D01*
X95991185Y-103285815D01*
X95894494Y-103206463D01*
X95784180Y-103147498D01*
X95664482Y-103111188D01*
X95540000Y-103098928D01*
X93285750Y-103102000D01*
X93127000Y-103260750D01*
X92873000Y-103260750D01*
X92714250Y-103102000D01*
X90460000Y-103098928D01*
X90335518Y-103111188D01*
X90327050Y-103113757D01*
X90327050Y-101286718D01*
X90334257Y-101290570D01*
X90395897Y-101309268D01*
X90460000Y-101315582D01*
X95540000Y-101315582D01*
X95604103Y-101309268D01*
X95665743Y-101290570D01*
X95722550Y-101260206D01*
X95772343Y-101219343D01*
X95813206Y-101169550D01*
X95843570Y-101112743D01*
X95862268Y-101051103D01*
X95865711Y-101016150D01*
X184134289Y-101016150D01*
X184137732Y-101051103D01*
G37*
X184137732Y-101051103D02*
X184156430Y-101112743D01*
X184186794Y-101169550D01*
X184227657Y-101219343D01*
X184277450Y-101260206D01*
X184334257Y-101290570D01*
X184395897Y-101309268D01*
X184460000Y-101315582D01*
X189540000Y-101315582D01*
X189604103Y-101309268D01*
X189665743Y-101290570D01*
X189672950Y-101286718D01*
X189672950Y-103113757D01*
X189664482Y-103111188D01*
X189540000Y-103098928D01*
X187285750Y-103102000D01*
X187127000Y-103260750D01*
X187127000Y-104360000D01*
X187147000Y-104360000D01*
X187147000Y-104614000D01*
X187127000Y-104614000D01*
X187127000Y-105713250D01*
X187285750Y-105872000D01*
X189540000Y-105875072D01*
X189664482Y-105862812D01*
X189672950Y-105860243D01*
X189672950Y-106613757D01*
X189664482Y-106611188D01*
X189540000Y-106598928D01*
X187285750Y-106602000D01*
X187127000Y-106760750D01*
X187127000Y-107860000D01*
X187147000Y-107860000D01*
X187147000Y-108114000D01*
X187127000Y-108114000D01*
X187127000Y-108134000D01*
X186873000Y-108134000D01*
X186873000Y-108114000D01*
X183983750Y-108114000D01*
X183825000Y-108272750D01*
X183821928Y-108737000D01*
X183834188Y-108861482D01*
X183870498Y-108981180D01*
X183929463Y-109091494D01*
X183947112Y-109113000D01*
X183870000Y-109113000D01*
X183845224Y-109115440D01*
X183821399Y-109122667D01*
X183799443Y-109134403D01*
X183780197Y-109150197D01*
X183764403Y-109169443D01*
X183752667Y-109191399D01*
X183745440Y-109215224D01*
X183743000Y-109240000D01*
X183743000Y-111457850D01*
X96256633Y-111457850D01*
X96257000Y-109250021D01*
X96254560Y-109225224D01*
X96247333Y-109201399D01*
X96235597Y-109179443D01*
X96219803Y-109160197D01*
X96200557Y-109144403D01*
X96178601Y-109132667D01*
X96154776Y-109125440D01*
X96130000Y-109123000D01*
X96044681Y-109123000D01*
X96070537Y-109091494D01*
X96129502Y-108981180D01*
X96165812Y-108861482D01*
X96178072Y-108737000D01*
X96175000Y-108272750D01*
X96016250Y-108114000D01*
X93127000Y-108114000D01*
X93127000Y-108134000D01*
X92873000Y-108134000D01*
X92873000Y-108114000D01*
X92853000Y-108114000D01*
X92853000Y-107860000D01*
X92873000Y-107860000D01*
X92873000Y-106760750D01*
X93127000Y-106760750D01*
X93127000Y-107860000D01*
X96016250Y-107860000D01*
X96175000Y-107701250D01*
X96178072Y-107237000D01*
X183821928Y-107237000D01*
X183825000Y-107701250D01*
X183983750Y-107860000D01*
X186873000Y-107860000D01*
X186873000Y-106760750D01*
X186714250Y-106602000D01*
X184460000Y-106598928D01*
X184335518Y-106611188D01*
X184215820Y-106647498D01*
X184105506Y-106706463D01*
X184008815Y-106785815D01*
X183929463Y-106882506D01*
X183870498Y-106992820D01*
X183834188Y-107112518D01*
X183821928Y-107237000D01*
X96178072Y-107237000D01*
X96165812Y-107112518D01*
X96129502Y-106992820D01*
X96070537Y-106882506D01*
X95991185Y-106785815D01*
X95894494Y-106706463D01*
X95784180Y-106647498D01*
X95664482Y-106611188D01*
X95540000Y-106598928D01*
X93285750Y-106602000D01*
X93127000Y-106760750D01*
X92873000Y-106760750D01*
X92714250Y-106602000D01*
X90460000Y-106598928D01*
X90335518Y-106611188D01*
X90327050Y-106613757D01*
X90327050Y-105860243D01*
X90335518Y-105862812D01*
X90460000Y-105875072D01*
X92714250Y-105872000D01*
X92873000Y-105713250D01*
X92873000Y-104614000D01*
X93127000Y-104614000D01*
X93127000Y-105713250D01*
X93285750Y-105872000D01*
X95540000Y-105875072D01*
X95664482Y-105862812D01*
X95784180Y-105826502D01*
X95894494Y-105767537D01*
X95991185Y-105688185D01*
X96070537Y-105591494D01*
X96129502Y-105481180D01*
X96165812Y-105361482D01*
X96178072Y-105237000D01*
X183821928Y-105237000D01*
X183834188Y-105361482D01*
X183870498Y-105481180D01*
X183929463Y-105591494D01*
X184008815Y-105688185D01*
X184105506Y-105767537D01*
X184215820Y-105826502D01*
X184335518Y-105862812D01*
X184460000Y-105875072D01*
X186714250Y-105872000D01*
X186873000Y-105713250D01*
X186873000Y-104614000D01*
X183983750Y-104614000D01*
X183825000Y-104772750D01*
X183821928Y-105237000D01*
X96178072Y-105237000D01*
X96175000Y-104772750D01*
X96016250Y-104614000D01*
X93127000Y-104614000D01*
X92873000Y-104614000D01*
X92853000Y-104614000D01*
X92853000Y-104360000D01*
X92873000Y-104360000D01*
X92873000Y-103260750D01*
X93127000Y-103260750D01*
X93127000Y-104360000D01*
X96016250Y-104360000D01*
X96175000Y-104201250D01*
X96178072Y-103737000D01*
X183821928Y-103737000D01*
X183825000Y-104201250D01*
X183983750Y-104360000D01*
X186873000Y-104360000D01*
X186873000Y-103260750D01*
X186714250Y-103102000D01*
X184460000Y-103098928D01*
X184335518Y-103111188D01*
X184215820Y-103147498D01*
X184105506Y-103206463D01*
X184008815Y-103285815D01*
X183929463Y-103382506D01*
X183870498Y-103492820D01*
X183834188Y-103612518D01*
X183821928Y-103737000D01*
X96178072Y-103737000D01*
X96165812Y-103612518D01*
X96129502Y-103492820D01*
X96070537Y-103382506D01*
X95991185Y-103285815D01*
X95894494Y-103206463D01*
X95784180Y-103147498D01*
X95664482Y-103111188D01*
X95540000Y-103098928D01*
X93285750Y-103102000D01*
X93127000Y-103260750D01*
X92873000Y-103260750D01*
X92714250Y-103102000D01*
X90460000Y-103098928D01*
X90335518Y-103111188D01*
X90327050Y-103113757D01*
X90327050Y-101286718D01*
X90334257Y-101290570D01*
X90395897Y-101309268D01*
X90460000Y-101315582D01*
X95540000Y-101315582D01*
X95604103Y-101309268D01*
X95665743Y-101290570D01*
X95722550Y-101260206D01*
X95772343Y-101219343D01*
X95813206Y-101169550D01*
X95843570Y-101112743D01*
X95862268Y-101051103D01*
X95865711Y-101016150D01*
X184134289Y-101016150D01*
X184137732Y-101051103D01*
G36*
X189672950Y-94613757D02*
G01*
X189664482Y-94611188D01*
X189540000Y-94598928D01*
X187285750Y-94602000D01*
X187127000Y-94760750D01*
X187127000Y-95860000D01*
X187147000Y-95860000D01*
X187147000Y-96114000D01*
X187127000Y-96114000D01*
X187127000Y-97213250D01*
X187285750Y-97372000D01*
X189540000Y-97375072D01*
X189664482Y-97362812D01*
X189672950Y-97360243D01*
X189672950Y-99187282D01*
X189665743Y-99183430D01*
X189604103Y-99164732D01*
X189540000Y-99158418D01*
X184460000Y-99158418D01*
X184395897Y-99164732D01*
X184334257Y-99183430D01*
X184277450Y-99213794D01*
X184227657Y-99254657D01*
X184186794Y-99304450D01*
X184156430Y-99361257D01*
X184137732Y-99422897D01*
X184134289Y-99457850D01*
X95865711Y-99457850D01*
X95862268Y-99422897D01*
X95843570Y-99361257D01*
X95813206Y-99304450D01*
X95772343Y-99254657D01*
X95722550Y-99213794D01*
X95665743Y-99183430D01*
X95604103Y-99164732D01*
X95540000Y-99158418D01*
X90460000Y-99158418D01*
X90395897Y-99164732D01*
X90334257Y-99183430D01*
X90327050Y-99187282D01*
X90327050Y-97360243D01*
X90335518Y-97362812D01*
X90460000Y-97375072D01*
X92714250Y-97372000D01*
X92873000Y-97213250D01*
X92873000Y-96114000D01*
X93127000Y-96114000D01*
X93127000Y-97213250D01*
X93285750Y-97372000D01*
X95540000Y-97375072D01*
X95664482Y-97362812D01*
X95784180Y-97326502D01*
X95894494Y-97267537D01*
X95991185Y-97188185D01*
X96070537Y-97091494D01*
X96129502Y-96981180D01*
X96165812Y-96861482D01*
X96178072Y-96737000D01*
X183821928Y-96737000D01*
X183834188Y-96861482D01*
X183870498Y-96981180D01*
X183929463Y-97091494D01*
X184008815Y-97188185D01*
X184105506Y-97267537D01*
X184215820Y-97326502D01*
X184335518Y-97362812D01*
X184460000Y-97375072D01*
X186714250Y-97372000D01*
X186873000Y-97213250D01*
X186873000Y-96114000D01*
X183983750Y-96114000D01*
X183825000Y-96272750D01*
X183821928Y-96737000D01*
X96178072Y-96737000D01*
X96175000Y-96272750D01*
X96016250Y-96114000D01*
X93127000Y-96114000D01*
X92873000Y-96114000D01*
X92853000Y-96114000D01*
X92853000Y-95860000D01*
X92873000Y-95860000D01*
X92873000Y-94760750D01*
X93127000Y-94760750D01*
X93127000Y-95860000D01*
X96016250Y-95860000D01*
X96175000Y-95701250D01*
X96178072Y-95237000D01*
X183821928Y-95237000D01*
X183825000Y-95701250D01*
X183983750Y-95860000D01*
X186873000Y-95860000D01*
X186873000Y-94760750D01*
X186714250Y-94602000D01*
X184460000Y-94598928D01*
X184335518Y-94611188D01*
X184215820Y-94647498D01*
X184105506Y-94706463D01*
X184008815Y-94785815D01*
X183929463Y-94882506D01*
X183870498Y-94992820D01*
X183834188Y-95112518D01*
X183821928Y-95237000D01*
X96178072Y-95237000D01*
X96165812Y-95112518D01*
X96129502Y-94992820D01*
X96070537Y-94882506D01*
X95991185Y-94785815D01*
X95894494Y-94706463D01*
X95784180Y-94647498D01*
X95664482Y-94611188D01*
X95540000Y-94598928D01*
X93285750Y-94602000D01*
X93127000Y-94760750D01*
X92873000Y-94760750D01*
X92714250Y-94602000D01*
X90460000Y-94598928D01*
X90335518Y-94611188D01*
X90327050Y-94613757D01*
X90327050Y-92601000D01*
X189672950Y-92601000D01*
X189672950Y-94613757D01*
G37*
X189672950Y-94613757D02*
X189664482Y-94611188D01*
X189540000Y-94598928D01*
X187285750Y-94602000D01*
X187127000Y-94760750D01*
X187127000Y-95860000D01*
X187147000Y-95860000D01*
X187147000Y-96114000D01*
X187127000Y-96114000D01*
X187127000Y-97213250D01*
X187285750Y-97372000D01*
X189540000Y-97375072D01*
X189664482Y-97362812D01*
X189672950Y-97360243D01*
X189672950Y-99187282D01*
X189665743Y-99183430D01*
X189604103Y-99164732D01*
X189540000Y-99158418D01*
X184460000Y-99158418D01*
X184395897Y-99164732D01*
X184334257Y-99183430D01*
X184277450Y-99213794D01*
X184227657Y-99254657D01*
X184186794Y-99304450D01*
X184156430Y-99361257D01*
X184137732Y-99422897D01*
X184134289Y-99457850D01*
X95865711Y-99457850D01*
X95862268Y-99422897D01*
X95843570Y-99361257D01*
X95813206Y-99304450D01*
X95772343Y-99254657D01*
X95722550Y-99213794D01*
X95665743Y-99183430D01*
X95604103Y-99164732D01*
X95540000Y-99158418D01*
X90460000Y-99158418D01*
X90395897Y-99164732D01*
X90334257Y-99183430D01*
X90327050Y-99187282D01*
X90327050Y-97360243D01*
X90335518Y-97362812D01*
X90460000Y-97375072D01*
X92714250Y-97372000D01*
X92873000Y-97213250D01*
X92873000Y-96114000D01*
X93127000Y-96114000D01*
X93127000Y-97213250D01*
X93285750Y-97372000D01*
X95540000Y-97375072D01*
X95664482Y-97362812D01*
X95784180Y-97326502D01*
X95894494Y-97267537D01*
X95991185Y-97188185D01*
X96070537Y-97091494D01*
X96129502Y-96981180D01*
X96165812Y-96861482D01*
X96178072Y-96737000D01*
X183821928Y-96737000D01*
X183834188Y-96861482D01*
X183870498Y-96981180D01*
X183929463Y-97091494D01*
X184008815Y-97188185D01*
X184105506Y-97267537D01*
X184215820Y-97326502D01*
X184335518Y-97362812D01*
X184460000Y-97375072D01*
X186714250Y-97372000D01*
X186873000Y-97213250D01*
X186873000Y-96114000D01*
X183983750Y-96114000D01*
X183825000Y-96272750D01*
X183821928Y-96737000D01*
X96178072Y-96737000D01*
X96175000Y-96272750D01*
X96016250Y-96114000D01*
X93127000Y-96114000D01*
X92873000Y-96114000D01*
X92853000Y-96114000D01*
X92853000Y-95860000D01*
X92873000Y-95860000D01*
X92873000Y-94760750D01*
X93127000Y-94760750D01*
X93127000Y-95860000D01*
X96016250Y-95860000D01*
X96175000Y-95701250D01*
X96178072Y-95237000D01*
X183821928Y-95237000D01*
X183825000Y-95701250D01*
X183983750Y-95860000D01*
X186873000Y-95860000D01*
X186873000Y-94760750D01*
X186714250Y-94602000D01*
X184460000Y-94598928D01*
X184335518Y-94611188D01*
X184215820Y-94647498D01*
X184105506Y-94706463D01*
X184008815Y-94785815D01*
X183929463Y-94882506D01*
X183870498Y-94992820D01*
X183834188Y-95112518D01*
X183821928Y-95237000D01*
X96178072Y-95237000D01*
X96165812Y-95112518D01*
X96129502Y-94992820D01*
X96070537Y-94882506D01*
X95991185Y-94785815D01*
X95894494Y-94706463D01*
X95784180Y-94647498D01*
X95664482Y-94611188D01*
X95540000Y-94598928D01*
X93285750Y-94602000D01*
X93127000Y-94760750D01*
X92873000Y-94760750D01*
X92714250Y-94602000D01*
X90460000Y-94598928D01*
X90335518Y-94611188D01*
X90327050Y-94613757D01*
X90327050Y-92601000D01*
X189672950Y-92601000D01*
X189672950Y-94613757D01*
G36*
X189672950Y-71557000D02*
G01*
X90327050Y-71557000D01*
X90327050Y-68443000D01*
X189672951Y-68443000D01*
X189672950Y-71557000D01*
G37*
X189672950Y-71557000D02*
X90327050Y-71557000D01*
X90327050Y-68443000D01*
X189672951Y-68443000D01*
X189672950Y-71557000D01*
G36*
X189672951Y-47399000D02*
G01*
X90327050Y-47399000D01*
X90327050Y-44285000D01*
X189672951Y-44285000D01*
X189672951Y-47399000D01*
G37*
X189672951Y-47399000D02*
X90327050Y-47399000D01*
X90327050Y-44285000D01*
X189672951Y-44285000D01*
X189672951Y-47399000D01*
G36*
X189672951Y-23241000D02*
G01*
X90327050Y-23241000D01*
X90327050Y-20327050D01*
X189672951Y-20327050D01*
X189672951Y-23241000D01*
G37*
X189672951Y-23241000D02*
X90327050Y-23241000D01*
X90327050Y-20327050D01*
X189672951Y-20327050D01*
X189672951Y-23241000D01*
G04 #@! TD*
M02*
