G04 #@! TF.GenerationSoftware,KiCad,Pcbnew,5.1.6-c6e7f7d~86~ubuntu18.04.1*
G04 #@! TF.CreationDate,2020-05-31T00:28:00-04:00*
G04 #@! TF.ProjectId,microstrip_tests,6d696372-6f73-4747-9269-705f74657374,rev?*
G04 #@! TF.SameCoordinates,Original*
G04 #@! TF.FileFunction,Soldermask,Top*
G04 #@! TF.FilePolarity,Negative*
%FSLAX46Y46*%
G04 Gerber Fmt 4.6, Leading zero omitted, Abs format (unit mm)*
G04 Created by KiCad (PCBNEW 5.1.6-c6e7f7d~86~ubuntu18.04.1) date 2020-05-31 00:28:00*
%MOMM*%
%LPD*%
G01*
G04 APERTURE LIST*
%ADD10C,0.100000*%
%ADD11R,5.180000X1.600000*%
G04 APERTURE END LIST*
D10*
G36*
X183870000Y-115220000D02*
G01*
X96113000Y-115260000D01*
X96130000Y-109250000D01*
X183870000Y-109240000D01*
X183870000Y-115220000D01*
G37*
X183870000Y-115220000D02*
X96113000Y-115260000D01*
X96130000Y-109250000D01*
X183870000Y-109240000D01*
X183870000Y-115220000D01*
G36*
X190000000Y-92474000D02*
G01*
X90000000Y-92474000D01*
X90000000Y-71684000D01*
X190000000Y-71684000D01*
X190000000Y-92474000D01*
G37*
X190000000Y-92474000D02*
X90000000Y-92474000D01*
X90000000Y-71684000D01*
X190000000Y-71684000D01*
X190000000Y-92474000D01*
G36*
X190000000Y-44158000D02*
G01*
X90000000Y-44158000D01*
X90000000Y-23368000D01*
X190000000Y-23368000D01*
X190000000Y-44158000D01*
G37*
X190000000Y-44158000D02*
X90000000Y-44158000D01*
X90000000Y-23368000D01*
X190000000Y-23368000D01*
X190000000Y-44158000D01*
D11*
G04 #@! TO.C,J1*
X93000000Y-29513000D03*
X93000000Y-38013000D03*
X93000000Y-33763000D03*
G04 #@! TD*
G04 #@! TO.C,J2*
X187000000Y-33763000D03*
X187000000Y-29513000D03*
X187000000Y-38013000D03*
G04 #@! TD*
G04 #@! TO.C,J3*
X93000000Y-53671000D03*
X93000000Y-62171000D03*
X93000000Y-57921000D03*
G04 #@! TD*
G04 #@! TO.C,J4*
X93000000Y-77829000D03*
X93000000Y-86329000D03*
X93000000Y-82079000D03*
G04 #@! TD*
G04 #@! TO.C,J5*
X93000000Y-95987000D03*
X93000000Y-104487000D03*
X93000000Y-100237000D03*
G04 #@! TD*
G04 #@! TO.C,J6*
X187000000Y-57921000D03*
X187000000Y-53671000D03*
X187000000Y-62171000D03*
G04 #@! TD*
G04 #@! TO.C,J7*
X187000000Y-82079000D03*
X187000000Y-77829000D03*
X187000000Y-86329000D03*
G04 #@! TD*
G04 #@! TO.C,J8*
X187000000Y-100237000D03*
X187000000Y-95987000D03*
X187000000Y-104487000D03*
G04 #@! TD*
G04 #@! TO.C,J9*
X93000000Y-107987000D03*
X93000000Y-116487000D03*
X93000000Y-112237000D03*
G04 #@! TD*
G04 #@! TO.C,J10*
X187000000Y-112237000D03*
X187000000Y-107987000D03*
X187000000Y-116487000D03*
G04 #@! TD*
M02*
