G04 #@! TF.GenerationSoftware,KiCad,Pcbnew,5.1.6-c6e7f7d~86~ubuntu18.04.1*
G04 #@! TF.CreationDate,2020-05-31T00:28:00-04:00*
G04 #@! TF.ProjectId,microstrip_tests,6d696372-6f73-4747-9269-705f74657374,rev?*
G04 #@! TF.SameCoordinates,Original*
G04 #@! TF.FileFunction,Copper,L2,Bot*
G04 #@! TF.FilePolarity,Positive*
%FSLAX46Y46*%
G04 Gerber Fmt 4.6, Leading zero omitted, Abs format (unit mm)*
G04 Created by KiCad (PCBNEW 5.1.6-c6e7f7d~86~ubuntu18.04.1) date 2020-05-31 00:28:00*
%MOMM*%
%LPD*%
G01*
G04 APERTURE LIST*
G04 #@! TA.AperFunction,SMDPad,CuDef*
%ADD10R,5.080000X1.500000*%
G04 #@! TD*
G04 #@! TA.AperFunction,ViaPad*
%ADD11C,0.800000*%
G04 #@! TD*
G04 #@! TA.AperFunction,Conductor*
%ADD12C,0.254000*%
G04 #@! TD*
G04 APERTURE END LIST*
D10*
G04 #@! TO.P,J1,2*
G04 #@! TO.N,GND*
X93000000Y-29513000D03*
X93000000Y-38013000D03*
G04 #@! TD*
G04 #@! TO.P,J2,2*
G04 #@! TO.N,GND*
X187000000Y-29513000D03*
X187000000Y-38013000D03*
G04 #@! TD*
G04 #@! TO.P,J3,2*
G04 #@! TO.N,GND*
X93000000Y-53671000D03*
X93000000Y-62171000D03*
G04 #@! TD*
G04 #@! TO.P,J4,2*
G04 #@! TO.N,GND*
X93000000Y-77829000D03*
X93000000Y-86329000D03*
G04 #@! TD*
G04 #@! TO.P,J5,2*
G04 #@! TO.N,GND*
X93000000Y-95987000D03*
X93000000Y-104487000D03*
G04 #@! TD*
G04 #@! TO.P,J6,2*
G04 #@! TO.N,GND*
X187000000Y-53671000D03*
X187000000Y-62171000D03*
G04 #@! TD*
G04 #@! TO.P,J7,2*
G04 #@! TO.N,GND*
X187000000Y-77829000D03*
X187000000Y-86329000D03*
G04 #@! TD*
G04 #@! TO.P,J8,2*
G04 #@! TO.N,GND*
X187000000Y-95987000D03*
X187000000Y-104487000D03*
G04 #@! TD*
G04 #@! TO.P,J9,2*
G04 #@! TO.N,GND*
X93000000Y-107987000D03*
X93000000Y-116487000D03*
G04 #@! TD*
G04 #@! TO.P,J10,2*
G04 #@! TO.N,GND*
X187000000Y-107987000D03*
X187000000Y-116487000D03*
G04 #@! TD*
D11*
G04 #@! TO.N,GND*
X97430000Y-106250000D03*
X99930000Y-106250000D03*
X102430000Y-106250000D03*
X104930000Y-106250000D03*
X107430000Y-106250000D03*
X109930000Y-106250000D03*
X112430000Y-106250000D03*
X114930000Y-106250000D03*
X117430000Y-106250000D03*
X119930000Y-106250000D03*
X122430000Y-106250000D03*
X124930000Y-106250000D03*
X127430000Y-106250000D03*
X129930000Y-106250000D03*
X132430000Y-106250000D03*
X134930000Y-106250000D03*
X137430000Y-106250000D03*
X139930000Y-106250000D03*
X142430000Y-106250000D03*
X144930000Y-106250000D03*
X147430000Y-106250000D03*
X149930000Y-106250000D03*
X152430000Y-106250000D03*
X154930000Y-106250000D03*
X157430000Y-106250000D03*
X159930000Y-106250000D03*
X162430000Y-106250000D03*
X164930000Y-106250000D03*
X167430000Y-106250000D03*
X169930000Y-106250000D03*
X172430000Y-106250000D03*
X174930000Y-106250000D03*
X177430000Y-106250000D03*
X179930000Y-106250000D03*
X91000000Y-93540000D03*
X108500000Y-93540000D03*
X93500000Y-93540000D03*
X111000000Y-93540000D03*
X141000000Y-93540000D03*
X143500000Y-93540000D03*
X188500000Y-93540000D03*
X116000000Y-93540000D03*
X118500000Y-93540000D03*
X173500000Y-93540000D03*
X121000000Y-93540000D03*
X123500000Y-93540000D03*
X146000000Y-93540000D03*
X148500000Y-93540000D03*
X113500000Y-93540000D03*
X106000000Y-93540000D03*
X98500000Y-93540000D03*
X171000000Y-93540000D03*
X176000000Y-93540000D03*
X178500000Y-93540000D03*
X181000000Y-93540000D03*
X183500000Y-93540000D03*
X186000000Y-93540000D03*
X126000000Y-93540000D03*
X128500000Y-93540000D03*
X151000000Y-93540000D03*
X153500000Y-93540000D03*
X156000000Y-93540000D03*
X158500000Y-93540000D03*
X161000000Y-93540000D03*
X163500000Y-93540000D03*
X136000000Y-93540000D03*
X138500000Y-93540000D03*
X166000000Y-93540000D03*
X168500000Y-93540000D03*
X96000000Y-93540000D03*
X101000000Y-93540000D03*
X103500000Y-93540000D03*
X131000000Y-93540000D03*
X133500000Y-93540000D03*
X91040000Y-21710000D03*
X108540000Y-21710000D03*
X93540000Y-21710000D03*
X111040000Y-21710000D03*
X141040000Y-21710000D03*
X143540000Y-21710000D03*
X188540000Y-21710000D03*
X116040000Y-21710000D03*
X118540000Y-21710000D03*
X173540000Y-21710000D03*
X121040000Y-21710000D03*
X123540000Y-21710000D03*
X146040000Y-21710000D03*
X148540000Y-21710000D03*
X113540000Y-21710000D03*
X106040000Y-21710000D03*
X98540000Y-21710000D03*
X171040000Y-21710000D03*
X176040000Y-21710000D03*
X178540000Y-21710000D03*
X181040000Y-21710000D03*
X183540000Y-21710000D03*
X186040000Y-21710000D03*
X126040000Y-21710000D03*
X128540000Y-21710000D03*
X151040000Y-21710000D03*
X153540000Y-21710000D03*
X156040000Y-21710000D03*
X158540000Y-21710000D03*
X161040000Y-21710000D03*
X163540000Y-21710000D03*
X136040000Y-21710000D03*
X138540000Y-21710000D03*
X166040000Y-21710000D03*
X168540000Y-21710000D03*
X96040000Y-21710000D03*
X101040000Y-21710000D03*
X103540000Y-21710000D03*
X131040000Y-21710000D03*
X133540000Y-21710000D03*
X91000000Y-45770000D03*
X108500000Y-45770000D03*
X93500000Y-45770000D03*
X111000000Y-45770000D03*
X141000000Y-45770000D03*
X143500000Y-45770000D03*
X188500000Y-45770000D03*
X116000000Y-45770000D03*
X118500000Y-45770000D03*
X173500000Y-45770000D03*
X121000000Y-45770000D03*
X123500000Y-45770000D03*
X146000000Y-45770000D03*
X148500000Y-45770000D03*
X113500000Y-45770000D03*
X106000000Y-45770000D03*
X98500000Y-45770000D03*
X171000000Y-45770000D03*
X176000000Y-45770000D03*
X178500000Y-45770000D03*
X181000000Y-45770000D03*
X183500000Y-45770000D03*
X186000000Y-45770000D03*
X126000000Y-45770000D03*
X128500000Y-45770000D03*
X151000000Y-45770000D03*
X153500000Y-45770000D03*
X156000000Y-45770000D03*
X158500000Y-45770000D03*
X161000000Y-45770000D03*
X163500000Y-45770000D03*
X136000000Y-45770000D03*
X138500000Y-45770000D03*
X166000000Y-45770000D03*
X168500000Y-45770000D03*
X96000000Y-45770000D03*
X101000000Y-45770000D03*
X103500000Y-45770000D03*
X131000000Y-45770000D03*
X133500000Y-45770000D03*
X91000000Y-69920000D03*
X108500000Y-69920000D03*
X93500000Y-69920000D03*
X111000000Y-69920000D03*
X141000000Y-69920000D03*
X143500000Y-69920000D03*
X188500000Y-69920000D03*
X116000000Y-69920000D03*
X118500000Y-69920000D03*
X173500000Y-69920000D03*
X121000000Y-69920000D03*
X123500000Y-69920000D03*
X146000000Y-69920000D03*
X148500000Y-69920000D03*
X113500000Y-69920000D03*
X106000000Y-69920000D03*
X98500000Y-69920000D03*
X171000000Y-69920000D03*
X176000000Y-69920000D03*
X178500000Y-69920000D03*
X181000000Y-69920000D03*
X183500000Y-69920000D03*
X186000000Y-69920000D03*
X126000000Y-69920000D03*
X128500000Y-69920000D03*
X151000000Y-69920000D03*
X153500000Y-69920000D03*
X156000000Y-69920000D03*
X158500000Y-69920000D03*
X161000000Y-69920000D03*
X163500000Y-69920000D03*
X136000000Y-69920000D03*
X138500000Y-69920000D03*
X166000000Y-69920000D03*
X168500000Y-69920000D03*
X96000000Y-69920000D03*
X101000000Y-69920000D03*
X103500000Y-69920000D03*
X131000000Y-69920000D03*
X133500000Y-69920000D03*
X156800000Y-99100000D03*
X158200000Y-99100000D03*
X159600000Y-99100000D03*
X161000000Y-99100000D03*
X98000000Y-101400000D03*
X165200000Y-101400000D03*
X166600000Y-101400000D03*
X98000000Y-99100000D03*
X140000000Y-99100000D03*
X141400000Y-99100000D03*
X142800000Y-99100000D03*
X135800000Y-101400000D03*
X109200000Y-99100000D03*
X159600000Y-101400000D03*
X112000000Y-99100000D03*
X173600000Y-99100000D03*
X175000000Y-99100000D03*
X176400000Y-99100000D03*
X177800000Y-99100000D03*
X179200000Y-99100000D03*
X180600000Y-99100000D03*
X151200000Y-101400000D03*
X152600000Y-101400000D03*
X149800000Y-101400000D03*
X123200000Y-101400000D03*
X124600000Y-101400000D03*
X127400000Y-101400000D03*
X128800000Y-101400000D03*
X105000000Y-99100000D03*
X130200000Y-101400000D03*
X96600000Y-101400000D03*
X103600000Y-99100000D03*
X107800000Y-101400000D03*
X144200000Y-101400000D03*
X116200000Y-101400000D03*
X117600000Y-101400000D03*
X156800000Y-101400000D03*
X100800000Y-99100000D03*
X158200000Y-101400000D03*
X151200000Y-99100000D03*
X152600000Y-99100000D03*
X154000000Y-99100000D03*
X155400000Y-99100000D03*
X99400000Y-101400000D03*
X168000000Y-101400000D03*
X107800000Y-99100000D03*
X144200000Y-99100000D03*
X109200000Y-101400000D03*
X134400000Y-101400000D03*
X127400000Y-99100000D03*
X128800000Y-99100000D03*
X130200000Y-99100000D03*
X126000000Y-101400000D03*
X114800000Y-101400000D03*
X172200000Y-101400000D03*
X106400000Y-101400000D03*
X169400000Y-101400000D03*
X170800000Y-101400000D03*
X120400000Y-101400000D03*
X121800000Y-101400000D03*
X141400000Y-101400000D03*
X140000000Y-101400000D03*
X103600000Y-101400000D03*
X100800000Y-101400000D03*
X96600000Y-99100000D03*
X154000000Y-101400000D03*
X155400000Y-101400000D03*
X119000000Y-101400000D03*
X145600000Y-101400000D03*
X179200000Y-101400000D03*
X180600000Y-101400000D03*
X131600000Y-101400000D03*
X133000000Y-101400000D03*
X161000000Y-101400000D03*
X102200000Y-101400000D03*
X162400000Y-101400000D03*
X137200000Y-101400000D03*
X138600000Y-101400000D03*
X99400000Y-99100000D03*
X168000000Y-99100000D03*
X169400000Y-99100000D03*
X170800000Y-99100000D03*
X172200000Y-99100000D03*
X106400000Y-99100000D03*
X112000000Y-101400000D03*
X176400000Y-101400000D03*
X177800000Y-101400000D03*
X142800000Y-101400000D03*
X113400000Y-99100000D03*
X110600000Y-99100000D03*
X102200000Y-99100000D03*
X162400000Y-99100000D03*
X163800000Y-99100000D03*
X165200000Y-99100000D03*
X166600000Y-99100000D03*
X173600000Y-101400000D03*
X175000000Y-101400000D03*
X147000000Y-101400000D03*
X148400000Y-101400000D03*
X135800000Y-99100000D03*
X137200000Y-99100000D03*
X138600000Y-99100000D03*
X131600000Y-99100000D03*
X133000000Y-99100000D03*
X134400000Y-99100000D03*
X163800000Y-101400000D03*
X120400000Y-99100000D03*
X121800000Y-99100000D03*
X123200000Y-99100000D03*
X124600000Y-99100000D03*
X126000000Y-99100000D03*
X114800000Y-99100000D03*
X116200000Y-99100000D03*
X117600000Y-99100000D03*
X119000000Y-99100000D03*
X145600000Y-99100000D03*
X147000000Y-99100000D03*
X148400000Y-99100000D03*
X149800000Y-99100000D03*
X113400000Y-101400000D03*
X110600000Y-101400000D03*
X105000000Y-101400000D03*
X156800000Y-113400000D03*
X158200000Y-113400000D03*
X159600000Y-113400000D03*
X161000000Y-113400000D03*
X98000000Y-113400000D03*
X140000000Y-113400000D03*
X141400000Y-113400000D03*
X142800000Y-113400000D03*
X109200000Y-113400000D03*
X112000000Y-113400000D03*
X173600000Y-113400000D03*
X175000000Y-113400000D03*
X176400000Y-113400000D03*
X177800000Y-113400000D03*
X179200000Y-113400000D03*
X180600000Y-113400000D03*
X105000000Y-113400000D03*
X103600000Y-113400000D03*
X100800000Y-113400000D03*
X151200000Y-113400000D03*
X152600000Y-113400000D03*
X154000000Y-113400000D03*
X155400000Y-113400000D03*
X107800000Y-113400000D03*
X144200000Y-113400000D03*
X127400000Y-113400000D03*
X128800000Y-113400000D03*
X130200000Y-113400000D03*
X96600000Y-113400000D03*
X99400000Y-113400000D03*
X168000000Y-113400000D03*
X169400000Y-113400000D03*
X170800000Y-113400000D03*
X172200000Y-113400000D03*
X106400000Y-113400000D03*
X113400000Y-113400000D03*
X110600000Y-113400000D03*
X102200000Y-113400000D03*
X162400000Y-113400000D03*
X163800000Y-113400000D03*
X165200000Y-113400000D03*
X166600000Y-113400000D03*
X135800000Y-113400000D03*
X137200000Y-113400000D03*
X138600000Y-113400000D03*
X131600000Y-113400000D03*
X133000000Y-113400000D03*
X134400000Y-113400000D03*
X120400000Y-113400000D03*
X121800000Y-113400000D03*
X123200000Y-113400000D03*
X124600000Y-113400000D03*
X126000000Y-113400000D03*
X114800000Y-113400000D03*
X116200000Y-113400000D03*
X117600000Y-113400000D03*
X119000000Y-113400000D03*
X145600000Y-113400000D03*
X147000000Y-113400000D03*
X148400000Y-113400000D03*
X149800000Y-113400000D03*
X90930000Y-118800000D03*
X96600000Y-111100000D03*
X98000000Y-111100000D03*
X99400000Y-111100000D03*
X100800000Y-111100000D03*
X102200000Y-111100000D03*
X103600000Y-111100000D03*
X105000000Y-111100000D03*
X106400000Y-111100000D03*
X107800000Y-111100000D03*
X109200000Y-111100000D03*
X110600000Y-111100000D03*
X112000000Y-111100000D03*
X113400000Y-111100000D03*
X114800000Y-111100000D03*
X116200000Y-111100000D03*
X117600000Y-111100000D03*
X119000000Y-111100000D03*
X120400000Y-111100000D03*
X121800000Y-111100000D03*
X123200000Y-111100000D03*
X124600000Y-111100000D03*
X126000000Y-111100000D03*
X127400000Y-111100000D03*
X128800000Y-111100000D03*
X130200000Y-111100000D03*
X131600000Y-111100000D03*
X133000000Y-111100000D03*
X134400000Y-111100000D03*
X135800000Y-111100000D03*
X137200000Y-111100000D03*
X138600000Y-111100000D03*
X140000000Y-111100000D03*
X141400000Y-111100000D03*
X142800000Y-111100000D03*
X144200000Y-111100000D03*
X145600000Y-111100000D03*
X147000000Y-111100000D03*
X148400000Y-111100000D03*
X149800000Y-111100000D03*
X151200000Y-111100000D03*
X152600000Y-111100000D03*
X154000000Y-111100000D03*
X155400000Y-111100000D03*
X156800000Y-111100000D03*
X158200000Y-111100000D03*
X159600000Y-111100000D03*
X161000000Y-111100000D03*
X162400000Y-111100000D03*
X163800000Y-111100000D03*
X165200000Y-111100000D03*
X166600000Y-111100000D03*
X168000000Y-111100000D03*
X169400000Y-111100000D03*
X170800000Y-111100000D03*
X172200000Y-111100000D03*
X173600000Y-111100000D03*
X175000000Y-111100000D03*
X176400000Y-111100000D03*
X177800000Y-111100000D03*
X179200000Y-111100000D03*
X180600000Y-111100000D03*
X93430000Y-118800000D03*
X95930000Y-118800000D03*
X98430000Y-118800000D03*
X100930000Y-118800000D03*
X103430000Y-118800000D03*
X105930000Y-118800000D03*
X108430000Y-118800000D03*
X110930000Y-118800000D03*
X113430000Y-118800000D03*
X115930000Y-118800000D03*
X118430000Y-118800000D03*
X120930000Y-118800000D03*
X123430000Y-118800000D03*
X125930000Y-118800000D03*
X128430000Y-118800000D03*
X130930000Y-118800000D03*
X133430000Y-118800000D03*
X135930000Y-118800000D03*
X138430000Y-118800000D03*
X140930000Y-118800000D03*
X143430000Y-118800000D03*
X145930000Y-118800000D03*
X148430000Y-118800000D03*
X150930000Y-118800000D03*
X153430000Y-118800000D03*
X155930000Y-118800000D03*
X158430000Y-118800000D03*
X160930000Y-118800000D03*
X163430000Y-118800000D03*
X165930000Y-118800000D03*
X168430000Y-118800000D03*
X170930000Y-118800000D03*
X173430000Y-118800000D03*
X175930000Y-118800000D03*
X178430000Y-118800000D03*
X180930000Y-118800000D03*
X183430000Y-118800000D03*
X185930000Y-118800000D03*
X188430000Y-118800000D03*
X182000000Y-111100000D03*
X183400000Y-111100000D03*
X182000000Y-113400000D03*
X183400000Y-113400000D03*
X182000000Y-99100000D03*
X183400000Y-99100000D03*
X182000000Y-101400000D03*
X183400000Y-101400000D03*
X182430000Y-106250000D03*
G04 #@! TD*
D12*
G04 #@! TO.N,GND*
G36*
X189364951Y-28125167D02*
G01*
X187285750Y-28128000D01*
X187127000Y-28286750D01*
X187127000Y-29386000D01*
X187147000Y-29386000D01*
X187147000Y-29640000D01*
X187127000Y-29640000D01*
X187127000Y-30739250D01*
X187285750Y-30898000D01*
X189364951Y-30900833D01*
X189364951Y-36625167D01*
X187285750Y-36628000D01*
X187127000Y-36786750D01*
X187127000Y-37886000D01*
X187147000Y-37886000D01*
X187147000Y-38140000D01*
X187127000Y-38140000D01*
X187127000Y-39239250D01*
X187285750Y-39398000D01*
X189364951Y-39400833D01*
X189364951Y-52283167D01*
X187285750Y-52286000D01*
X187127000Y-52444750D01*
X187127000Y-53544000D01*
X187147000Y-53544000D01*
X187147000Y-53798000D01*
X187127000Y-53798000D01*
X187127000Y-54897250D01*
X187285750Y-55056000D01*
X189364951Y-55058833D01*
X189364951Y-60783167D01*
X187285750Y-60786000D01*
X187127000Y-60944750D01*
X187127000Y-62044000D01*
X187147000Y-62044000D01*
X187147000Y-62298000D01*
X187127000Y-62298000D01*
X187127000Y-63397250D01*
X187285750Y-63556000D01*
X189364951Y-63558833D01*
X189364950Y-76441167D01*
X187285750Y-76444000D01*
X187127000Y-76602750D01*
X187127000Y-77702000D01*
X187147000Y-77702000D01*
X187147000Y-77956000D01*
X187127000Y-77956000D01*
X187127000Y-79055250D01*
X187285750Y-79214000D01*
X189364950Y-79216833D01*
X189364950Y-84941167D01*
X187285750Y-84944000D01*
X187127000Y-85102750D01*
X187127000Y-86202000D01*
X187147000Y-86202000D01*
X187147000Y-86456000D01*
X187127000Y-86456000D01*
X187127000Y-87555250D01*
X187285750Y-87714000D01*
X189364950Y-87716833D01*
X189364950Y-94599167D01*
X187285750Y-94602000D01*
X187127000Y-94760750D01*
X187127000Y-95860000D01*
X187147000Y-95860000D01*
X187147000Y-96114000D01*
X187127000Y-96114000D01*
X187127000Y-97213250D01*
X187285750Y-97372000D01*
X189364950Y-97374833D01*
X189364950Y-103099167D01*
X187285750Y-103102000D01*
X187127000Y-103260750D01*
X187127000Y-104360000D01*
X187147000Y-104360000D01*
X187147000Y-104614000D01*
X187127000Y-104614000D01*
X187127000Y-105713250D01*
X187285750Y-105872000D01*
X189364950Y-105874833D01*
X189364950Y-106599167D01*
X187285750Y-106602000D01*
X187127000Y-106760750D01*
X187127000Y-107860000D01*
X187147000Y-107860000D01*
X187147000Y-108114000D01*
X187127000Y-108114000D01*
X187127000Y-109213250D01*
X187285750Y-109372000D01*
X189364950Y-109374833D01*
X189364950Y-115099167D01*
X187285750Y-115102000D01*
X187127000Y-115260750D01*
X187127000Y-116360000D01*
X187147000Y-116360000D01*
X187147000Y-116614000D01*
X187127000Y-116614000D01*
X187127000Y-117713250D01*
X187285750Y-117872000D01*
X189364950Y-117874833D01*
X189364950Y-119364950D01*
X90635050Y-119364950D01*
X90635050Y-117874833D01*
X92714250Y-117872000D01*
X92873000Y-117713250D01*
X92873000Y-116614000D01*
X93127000Y-116614000D01*
X93127000Y-117713250D01*
X93285750Y-117872000D01*
X95540000Y-117875072D01*
X95664482Y-117862812D01*
X95784180Y-117826502D01*
X95894494Y-117767537D01*
X95991185Y-117688185D01*
X96070537Y-117591494D01*
X96129502Y-117481180D01*
X96165812Y-117361482D01*
X96178072Y-117237000D01*
X183821928Y-117237000D01*
X183834188Y-117361482D01*
X183870498Y-117481180D01*
X183929463Y-117591494D01*
X184008815Y-117688185D01*
X184105506Y-117767537D01*
X184215820Y-117826502D01*
X184335518Y-117862812D01*
X184460000Y-117875072D01*
X186714250Y-117872000D01*
X186873000Y-117713250D01*
X186873000Y-116614000D01*
X183983750Y-116614000D01*
X183825000Y-116772750D01*
X183821928Y-117237000D01*
X96178072Y-117237000D01*
X96175000Y-116772750D01*
X96016250Y-116614000D01*
X93127000Y-116614000D01*
X92873000Y-116614000D01*
X92853000Y-116614000D01*
X92853000Y-116360000D01*
X92873000Y-116360000D01*
X92873000Y-115260750D01*
X93127000Y-115260750D01*
X93127000Y-116360000D01*
X96016250Y-116360000D01*
X96175000Y-116201250D01*
X96178072Y-115737000D01*
X183821928Y-115737000D01*
X183825000Y-116201250D01*
X183983750Y-116360000D01*
X186873000Y-116360000D01*
X186873000Y-115260750D01*
X186714250Y-115102000D01*
X184460000Y-115098928D01*
X184335518Y-115111188D01*
X184215820Y-115147498D01*
X184105506Y-115206463D01*
X184008815Y-115285815D01*
X183929463Y-115382506D01*
X183870498Y-115492820D01*
X183834188Y-115612518D01*
X183821928Y-115737000D01*
X96178072Y-115737000D01*
X96165812Y-115612518D01*
X96129502Y-115492820D01*
X96070537Y-115382506D01*
X95991185Y-115285815D01*
X95894494Y-115206463D01*
X95784180Y-115147498D01*
X95664482Y-115111188D01*
X95540000Y-115098928D01*
X93285750Y-115102000D01*
X93127000Y-115260750D01*
X92873000Y-115260750D01*
X92714250Y-115102000D01*
X90635050Y-115099167D01*
X90635050Y-109374833D01*
X92714250Y-109372000D01*
X92873000Y-109213250D01*
X92873000Y-108114000D01*
X93127000Y-108114000D01*
X93127000Y-109213250D01*
X93285750Y-109372000D01*
X95540000Y-109375072D01*
X95664482Y-109362812D01*
X95784180Y-109326502D01*
X95894494Y-109267537D01*
X95991185Y-109188185D01*
X96070537Y-109091494D01*
X96129502Y-108981180D01*
X96165812Y-108861482D01*
X96178072Y-108737000D01*
X183821928Y-108737000D01*
X183834188Y-108861482D01*
X183870498Y-108981180D01*
X183929463Y-109091494D01*
X184008815Y-109188185D01*
X184105506Y-109267537D01*
X184215820Y-109326502D01*
X184335518Y-109362812D01*
X184460000Y-109375072D01*
X186714250Y-109372000D01*
X186873000Y-109213250D01*
X186873000Y-108114000D01*
X183983750Y-108114000D01*
X183825000Y-108272750D01*
X183821928Y-108737000D01*
X96178072Y-108737000D01*
X96175000Y-108272750D01*
X96016250Y-108114000D01*
X93127000Y-108114000D01*
X92873000Y-108114000D01*
X92853000Y-108114000D01*
X92853000Y-107860000D01*
X92873000Y-107860000D01*
X92873000Y-106760750D01*
X93127000Y-106760750D01*
X93127000Y-107860000D01*
X96016250Y-107860000D01*
X96175000Y-107701250D01*
X96178072Y-107237000D01*
X183821928Y-107237000D01*
X183825000Y-107701250D01*
X183983750Y-107860000D01*
X186873000Y-107860000D01*
X186873000Y-106760750D01*
X186714250Y-106602000D01*
X184460000Y-106598928D01*
X184335518Y-106611188D01*
X184215820Y-106647498D01*
X184105506Y-106706463D01*
X184008815Y-106785815D01*
X183929463Y-106882506D01*
X183870498Y-106992820D01*
X183834188Y-107112518D01*
X183821928Y-107237000D01*
X96178072Y-107237000D01*
X96165812Y-107112518D01*
X96129502Y-106992820D01*
X96070537Y-106882506D01*
X95991185Y-106785815D01*
X95894494Y-106706463D01*
X95784180Y-106647498D01*
X95664482Y-106611188D01*
X95540000Y-106598928D01*
X93285750Y-106602000D01*
X93127000Y-106760750D01*
X92873000Y-106760750D01*
X92714250Y-106602000D01*
X90635050Y-106599167D01*
X90635050Y-105874833D01*
X92714250Y-105872000D01*
X92873000Y-105713250D01*
X92873000Y-104614000D01*
X93127000Y-104614000D01*
X93127000Y-105713250D01*
X93285750Y-105872000D01*
X95540000Y-105875072D01*
X95664482Y-105862812D01*
X95784180Y-105826502D01*
X95894494Y-105767537D01*
X95991185Y-105688185D01*
X96070537Y-105591494D01*
X96129502Y-105481180D01*
X96165812Y-105361482D01*
X96178072Y-105237000D01*
X183821928Y-105237000D01*
X183834188Y-105361482D01*
X183870498Y-105481180D01*
X183929463Y-105591494D01*
X184008815Y-105688185D01*
X184105506Y-105767537D01*
X184215820Y-105826502D01*
X184335518Y-105862812D01*
X184460000Y-105875072D01*
X186714250Y-105872000D01*
X186873000Y-105713250D01*
X186873000Y-104614000D01*
X183983750Y-104614000D01*
X183825000Y-104772750D01*
X183821928Y-105237000D01*
X96178072Y-105237000D01*
X96175000Y-104772750D01*
X96016250Y-104614000D01*
X93127000Y-104614000D01*
X92873000Y-104614000D01*
X92853000Y-104614000D01*
X92853000Y-104360000D01*
X92873000Y-104360000D01*
X92873000Y-103260750D01*
X93127000Y-103260750D01*
X93127000Y-104360000D01*
X96016250Y-104360000D01*
X96175000Y-104201250D01*
X96178072Y-103737000D01*
X183821928Y-103737000D01*
X183825000Y-104201250D01*
X183983750Y-104360000D01*
X186873000Y-104360000D01*
X186873000Y-103260750D01*
X186714250Y-103102000D01*
X184460000Y-103098928D01*
X184335518Y-103111188D01*
X184215820Y-103147498D01*
X184105506Y-103206463D01*
X184008815Y-103285815D01*
X183929463Y-103382506D01*
X183870498Y-103492820D01*
X183834188Y-103612518D01*
X183821928Y-103737000D01*
X96178072Y-103737000D01*
X96165812Y-103612518D01*
X96129502Y-103492820D01*
X96070537Y-103382506D01*
X95991185Y-103285815D01*
X95894494Y-103206463D01*
X95784180Y-103147498D01*
X95664482Y-103111188D01*
X95540000Y-103098928D01*
X93285750Y-103102000D01*
X93127000Y-103260750D01*
X92873000Y-103260750D01*
X92714250Y-103102000D01*
X90635050Y-103099167D01*
X90635050Y-97374833D01*
X92714250Y-97372000D01*
X92873000Y-97213250D01*
X92873000Y-96114000D01*
X93127000Y-96114000D01*
X93127000Y-97213250D01*
X93285750Y-97372000D01*
X95540000Y-97375072D01*
X95664482Y-97362812D01*
X95784180Y-97326502D01*
X95894494Y-97267537D01*
X95991185Y-97188185D01*
X96070537Y-97091494D01*
X96129502Y-96981180D01*
X96165812Y-96861482D01*
X96178072Y-96737000D01*
X183821928Y-96737000D01*
X183834188Y-96861482D01*
X183870498Y-96981180D01*
X183929463Y-97091494D01*
X184008815Y-97188185D01*
X184105506Y-97267537D01*
X184215820Y-97326502D01*
X184335518Y-97362812D01*
X184460000Y-97375072D01*
X186714250Y-97372000D01*
X186873000Y-97213250D01*
X186873000Y-96114000D01*
X183983750Y-96114000D01*
X183825000Y-96272750D01*
X183821928Y-96737000D01*
X96178072Y-96737000D01*
X96175000Y-96272750D01*
X96016250Y-96114000D01*
X93127000Y-96114000D01*
X92873000Y-96114000D01*
X92853000Y-96114000D01*
X92853000Y-95860000D01*
X92873000Y-95860000D01*
X92873000Y-94760750D01*
X93127000Y-94760750D01*
X93127000Y-95860000D01*
X96016250Y-95860000D01*
X96175000Y-95701250D01*
X96178072Y-95237000D01*
X183821928Y-95237000D01*
X183825000Y-95701250D01*
X183983750Y-95860000D01*
X186873000Y-95860000D01*
X186873000Y-94760750D01*
X186714250Y-94602000D01*
X184460000Y-94598928D01*
X184335518Y-94611188D01*
X184215820Y-94647498D01*
X184105506Y-94706463D01*
X184008815Y-94785815D01*
X183929463Y-94882506D01*
X183870498Y-94992820D01*
X183834188Y-95112518D01*
X183821928Y-95237000D01*
X96178072Y-95237000D01*
X96165812Y-95112518D01*
X96129502Y-94992820D01*
X96070537Y-94882506D01*
X95991185Y-94785815D01*
X95894494Y-94706463D01*
X95784180Y-94647498D01*
X95664482Y-94611188D01*
X95540000Y-94598928D01*
X93285750Y-94602000D01*
X93127000Y-94760750D01*
X92873000Y-94760750D01*
X92714250Y-94602000D01*
X90635050Y-94599167D01*
X90635050Y-87716833D01*
X92714250Y-87714000D01*
X92873000Y-87555250D01*
X92873000Y-86456000D01*
X93127000Y-86456000D01*
X93127000Y-87555250D01*
X93285750Y-87714000D01*
X95540000Y-87717072D01*
X95664482Y-87704812D01*
X95784180Y-87668502D01*
X95894494Y-87609537D01*
X95991185Y-87530185D01*
X96070537Y-87433494D01*
X96129502Y-87323180D01*
X96165812Y-87203482D01*
X96178072Y-87079000D01*
X183821928Y-87079000D01*
X183834188Y-87203482D01*
X183870498Y-87323180D01*
X183929463Y-87433494D01*
X184008815Y-87530185D01*
X184105506Y-87609537D01*
X184215820Y-87668502D01*
X184335518Y-87704812D01*
X184460000Y-87717072D01*
X186714250Y-87714000D01*
X186873000Y-87555250D01*
X186873000Y-86456000D01*
X183983750Y-86456000D01*
X183825000Y-86614750D01*
X183821928Y-87079000D01*
X96178072Y-87079000D01*
X96175000Y-86614750D01*
X96016250Y-86456000D01*
X93127000Y-86456000D01*
X92873000Y-86456000D01*
X92853000Y-86456000D01*
X92853000Y-86202000D01*
X92873000Y-86202000D01*
X92873000Y-85102750D01*
X93127000Y-85102750D01*
X93127000Y-86202000D01*
X96016250Y-86202000D01*
X96175000Y-86043250D01*
X96178072Y-85579000D01*
X183821928Y-85579000D01*
X183825000Y-86043250D01*
X183983750Y-86202000D01*
X186873000Y-86202000D01*
X186873000Y-85102750D01*
X186714250Y-84944000D01*
X184460000Y-84940928D01*
X184335518Y-84953188D01*
X184215820Y-84989498D01*
X184105506Y-85048463D01*
X184008815Y-85127815D01*
X183929463Y-85224506D01*
X183870498Y-85334820D01*
X183834188Y-85454518D01*
X183821928Y-85579000D01*
X96178072Y-85579000D01*
X96165812Y-85454518D01*
X96129502Y-85334820D01*
X96070537Y-85224506D01*
X95991185Y-85127815D01*
X95894494Y-85048463D01*
X95784180Y-84989498D01*
X95664482Y-84953188D01*
X95540000Y-84940928D01*
X93285750Y-84944000D01*
X93127000Y-85102750D01*
X92873000Y-85102750D01*
X92714250Y-84944000D01*
X90635050Y-84941167D01*
X90635050Y-79216833D01*
X92714250Y-79214000D01*
X92873000Y-79055250D01*
X92873000Y-77956000D01*
X93127000Y-77956000D01*
X93127000Y-79055250D01*
X93285750Y-79214000D01*
X95540000Y-79217072D01*
X95664482Y-79204812D01*
X95784180Y-79168502D01*
X95894494Y-79109537D01*
X95991185Y-79030185D01*
X96070537Y-78933494D01*
X96129502Y-78823180D01*
X96165812Y-78703482D01*
X96178072Y-78579000D01*
X183821928Y-78579000D01*
X183834188Y-78703482D01*
X183870498Y-78823180D01*
X183929463Y-78933494D01*
X184008815Y-79030185D01*
X184105506Y-79109537D01*
X184215820Y-79168502D01*
X184335518Y-79204812D01*
X184460000Y-79217072D01*
X186714250Y-79214000D01*
X186873000Y-79055250D01*
X186873000Y-77956000D01*
X183983750Y-77956000D01*
X183825000Y-78114750D01*
X183821928Y-78579000D01*
X96178072Y-78579000D01*
X96175000Y-78114750D01*
X96016250Y-77956000D01*
X93127000Y-77956000D01*
X92873000Y-77956000D01*
X92853000Y-77956000D01*
X92853000Y-77702000D01*
X92873000Y-77702000D01*
X92873000Y-76602750D01*
X93127000Y-76602750D01*
X93127000Y-77702000D01*
X96016250Y-77702000D01*
X96175000Y-77543250D01*
X96178072Y-77079000D01*
X183821928Y-77079000D01*
X183825000Y-77543250D01*
X183983750Y-77702000D01*
X186873000Y-77702000D01*
X186873000Y-76602750D01*
X186714250Y-76444000D01*
X184460000Y-76440928D01*
X184335518Y-76453188D01*
X184215820Y-76489498D01*
X184105506Y-76548463D01*
X184008815Y-76627815D01*
X183929463Y-76724506D01*
X183870498Y-76834820D01*
X183834188Y-76954518D01*
X183821928Y-77079000D01*
X96178072Y-77079000D01*
X96165812Y-76954518D01*
X96129502Y-76834820D01*
X96070537Y-76724506D01*
X95991185Y-76627815D01*
X95894494Y-76548463D01*
X95784180Y-76489498D01*
X95664482Y-76453188D01*
X95540000Y-76440928D01*
X93285750Y-76444000D01*
X93127000Y-76602750D01*
X92873000Y-76602750D01*
X92714250Y-76444000D01*
X90635050Y-76441167D01*
X90635050Y-63558833D01*
X92714250Y-63556000D01*
X92873000Y-63397250D01*
X92873000Y-62298000D01*
X93127000Y-62298000D01*
X93127000Y-63397250D01*
X93285750Y-63556000D01*
X95540000Y-63559072D01*
X95664482Y-63546812D01*
X95784180Y-63510502D01*
X95894494Y-63451537D01*
X95991185Y-63372185D01*
X96070537Y-63275494D01*
X96129502Y-63165180D01*
X96165812Y-63045482D01*
X96178072Y-62921000D01*
X183821928Y-62921000D01*
X183834188Y-63045482D01*
X183870498Y-63165180D01*
X183929463Y-63275494D01*
X184008815Y-63372185D01*
X184105506Y-63451537D01*
X184215820Y-63510502D01*
X184335518Y-63546812D01*
X184460000Y-63559072D01*
X186714250Y-63556000D01*
X186873000Y-63397250D01*
X186873000Y-62298000D01*
X183983750Y-62298000D01*
X183825000Y-62456750D01*
X183821928Y-62921000D01*
X96178072Y-62921000D01*
X96175000Y-62456750D01*
X96016250Y-62298000D01*
X93127000Y-62298000D01*
X92873000Y-62298000D01*
X92853000Y-62298000D01*
X92853000Y-62044000D01*
X92873000Y-62044000D01*
X92873000Y-60944750D01*
X93127000Y-60944750D01*
X93127000Y-62044000D01*
X96016250Y-62044000D01*
X96175000Y-61885250D01*
X96178072Y-61421000D01*
X183821928Y-61421000D01*
X183825000Y-61885250D01*
X183983750Y-62044000D01*
X186873000Y-62044000D01*
X186873000Y-60944750D01*
X186714250Y-60786000D01*
X184460000Y-60782928D01*
X184335518Y-60795188D01*
X184215820Y-60831498D01*
X184105506Y-60890463D01*
X184008815Y-60969815D01*
X183929463Y-61066506D01*
X183870498Y-61176820D01*
X183834188Y-61296518D01*
X183821928Y-61421000D01*
X96178072Y-61421000D01*
X96165812Y-61296518D01*
X96129502Y-61176820D01*
X96070537Y-61066506D01*
X95991185Y-60969815D01*
X95894494Y-60890463D01*
X95784180Y-60831498D01*
X95664482Y-60795188D01*
X95540000Y-60782928D01*
X93285750Y-60786000D01*
X93127000Y-60944750D01*
X92873000Y-60944750D01*
X92714250Y-60786000D01*
X90635050Y-60783167D01*
X90635050Y-55058833D01*
X92714250Y-55056000D01*
X92873000Y-54897250D01*
X92873000Y-53798000D01*
X93127000Y-53798000D01*
X93127000Y-54897250D01*
X93285750Y-55056000D01*
X95540000Y-55059072D01*
X95664482Y-55046812D01*
X95784180Y-55010502D01*
X95894494Y-54951537D01*
X95991185Y-54872185D01*
X96070537Y-54775494D01*
X96129502Y-54665180D01*
X96165812Y-54545482D01*
X96178072Y-54421000D01*
X183821928Y-54421000D01*
X183834188Y-54545482D01*
X183870498Y-54665180D01*
X183929463Y-54775494D01*
X184008815Y-54872185D01*
X184105506Y-54951537D01*
X184215820Y-55010502D01*
X184335518Y-55046812D01*
X184460000Y-55059072D01*
X186714250Y-55056000D01*
X186873000Y-54897250D01*
X186873000Y-53798000D01*
X183983750Y-53798000D01*
X183825000Y-53956750D01*
X183821928Y-54421000D01*
X96178072Y-54421000D01*
X96175000Y-53956750D01*
X96016250Y-53798000D01*
X93127000Y-53798000D01*
X92873000Y-53798000D01*
X92853000Y-53798000D01*
X92853000Y-53544000D01*
X92873000Y-53544000D01*
X92873000Y-52444750D01*
X93127000Y-52444750D01*
X93127000Y-53544000D01*
X96016250Y-53544000D01*
X96175000Y-53385250D01*
X96178072Y-52921000D01*
X183821928Y-52921000D01*
X183825000Y-53385250D01*
X183983750Y-53544000D01*
X186873000Y-53544000D01*
X186873000Y-52444750D01*
X186714250Y-52286000D01*
X184460000Y-52282928D01*
X184335518Y-52295188D01*
X184215820Y-52331498D01*
X184105506Y-52390463D01*
X184008815Y-52469815D01*
X183929463Y-52566506D01*
X183870498Y-52676820D01*
X183834188Y-52796518D01*
X183821928Y-52921000D01*
X96178072Y-52921000D01*
X96165812Y-52796518D01*
X96129502Y-52676820D01*
X96070537Y-52566506D01*
X95991185Y-52469815D01*
X95894494Y-52390463D01*
X95784180Y-52331498D01*
X95664482Y-52295188D01*
X95540000Y-52282928D01*
X93285750Y-52286000D01*
X93127000Y-52444750D01*
X92873000Y-52444750D01*
X92714250Y-52286000D01*
X90635050Y-52283167D01*
X90635050Y-39400833D01*
X92714250Y-39398000D01*
X92873000Y-39239250D01*
X92873000Y-38140000D01*
X93127000Y-38140000D01*
X93127000Y-39239250D01*
X93285750Y-39398000D01*
X95540000Y-39401072D01*
X95664482Y-39388812D01*
X95784180Y-39352502D01*
X95894494Y-39293537D01*
X95991185Y-39214185D01*
X96070537Y-39117494D01*
X96129502Y-39007180D01*
X96165812Y-38887482D01*
X96178072Y-38763000D01*
X183821928Y-38763000D01*
X183834188Y-38887482D01*
X183870498Y-39007180D01*
X183929463Y-39117494D01*
X184008815Y-39214185D01*
X184105506Y-39293537D01*
X184215820Y-39352502D01*
X184335518Y-39388812D01*
X184460000Y-39401072D01*
X186714250Y-39398000D01*
X186873000Y-39239250D01*
X186873000Y-38140000D01*
X183983750Y-38140000D01*
X183825000Y-38298750D01*
X183821928Y-38763000D01*
X96178072Y-38763000D01*
X96175000Y-38298750D01*
X96016250Y-38140000D01*
X93127000Y-38140000D01*
X92873000Y-38140000D01*
X92853000Y-38140000D01*
X92853000Y-37886000D01*
X92873000Y-37886000D01*
X92873000Y-36786750D01*
X93127000Y-36786750D01*
X93127000Y-37886000D01*
X96016250Y-37886000D01*
X96175000Y-37727250D01*
X96178072Y-37263000D01*
X183821928Y-37263000D01*
X183825000Y-37727250D01*
X183983750Y-37886000D01*
X186873000Y-37886000D01*
X186873000Y-36786750D01*
X186714250Y-36628000D01*
X184460000Y-36624928D01*
X184335518Y-36637188D01*
X184215820Y-36673498D01*
X184105506Y-36732463D01*
X184008815Y-36811815D01*
X183929463Y-36908506D01*
X183870498Y-37018820D01*
X183834188Y-37138518D01*
X183821928Y-37263000D01*
X96178072Y-37263000D01*
X96165812Y-37138518D01*
X96129502Y-37018820D01*
X96070537Y-36908506D01*
X95991185Y-36811815D01*
X95894494Y-36732463D01*
X95784180Y-36673498D01*
X95664482Y-36637188D01*
X95540000Y-36624928D01*
X93285750Y-36628000D01*
X93127000Y-36786750D01*
X92873000Y-36786750D01*
X92714250Y-36628000D01*
X90635050Y-36625167D01*
X90635050Y-30900833D01*
X92714250Y-30898000D01*
X92873000Y-30739250D01*
X92873000Y-29640000D01*
X93127000Y-29640000D01*
X93127000Y-30739250D01*
X93285750Y-30898000D01*
X95540000Y-30901072D01*
X95664482Y-30888812D01*
X95784180Y-30852502D01*
X95894494Y-30793537D01*
X95991185Y-30714185D01*
X96070537Y-30617494D01*
X96129502Y-30507180D01*
X96165812Y-30387482D01*
X96178072Y-30263000D01*
X183821928Y-30263000D01*
X183834188Y-30387482D01*
X183870498Y-30507180D01*
X183929463Y-30617494D01*
X184008815Y-30714185D01*
X184105506Y-30793537D01*
X184215820Y-30852502D01*
X184335518Y-30888812D01*
X184460000Y-30901072D01*
X186714250Y-30898000D01*
X186873000Y-30739250D01*
X186873000Y-29640000D01*
X183983750Y-29640000D01*
X183825000Y-29798750D01*
X183821928Y-30263000D01*
X96178072Y-30263000D01*
X96175000Y-29798750D01*
X96016250Y-29640000D01*
X93127000Y-29640000D01*
X92873000Y-29640000D01*
X92853000Y-29640000D01*
X92853000Y-29386000D01*
X92873000Y-29386000D01*
X92873000Y-28286750D01*
X93127000Y-28286750D01*
X93127000Y-29386000D01*
X96016250Y-29386000D01*
X96175000Y-29227250D01*
X96178072Y-28763000D01*
X183821928Y-28763000D01*
X183825000Y-29227250D01*
X183983750Y-29386000D01*
X186873000Y-29386000D01*
X186873000Y-28286750D01*
X186714250Y-28128000D01*
X184460000Y-28124928D01*
X184335518Y-28137188D01*
X184215820Y-28173498D01*
X184105506Y-28232463D01*
X184008815Y-28311815D01*
X183929463Y-28408506D01*
X183870498Y-28518820D01*
X183834188Y-28638518D01*
X183821928Y-28763000D01*
X96178072Y-28763000D01*
X96165812Y-28638518D01*
X96129502Y-28518820D01*
X96070537Y-28408506D01*
X95991185Y-28311815D01*
X95894494Y-28232463D01*
X95784180Y-28173498D01*
X95664482Y-28137188D01*
X95540000Y-28124928D01*
X93285750Y-28128000D01*
X93127000Y-28286750D01*
X92873000Y-28286750D01*
X92714250Y-28128000D01*
X90635050Y-28125167D01*
X90635050Y-20635050D01*
X189364951Y-20635050D01*
X189364951Y-28125167D01*
G37*
X189364951Y-28125167D02*
X187285750Y-28128000D01*
X187127000Y-28286750D01*
X187127000Y-29386000D01*
X187147000Y-29386000D01*
X187147000Y-29640000D01*
X187127000Y-29640000D01*
X187127000Y-30739250D01*
X187285750Y-30898000D01*
X189364951Y-30900833D01*
X189364951Y-36625167D01*
X187285750Y-36628000D01*
X187127000Y-36786750D01*
X187127000Y-37886000D01*
X187147000Y-37886000D01*
X187147000Y-38140000D01*
X187127000Y-38140000D01*
X187127000Y-39239250D01*
X187285750Y-39398000D01*
X189364951Y-39400833D01*
X189364951Y-52283167D01*
X187285750Y-52286000D01*
X187127000Y-52444750D01*
X187127000Y-53544000D01*
X187147000Y-53544000D01*
X187147000Y-53798000D01*
X187127000Y-53798000D01*
X187127000Y-54897250D01*
X187285750Y-55056000D01*
X189364951Y-55058833D01*
X189364951Y-60783167D01*
X187285750Y-60786000D01*
X187127000Y-60944750D01*
X187127000Y-62044000D01*
X187147000Y-62044000D01*
X187147000Y-62298000D01*
X187127000Y-62298000D01*
X187127000Y-63397250D01*
X187285750Y-63556000D01*
X189364951Y-63558833D01*
X189364950Y-76441167D01*
X187285750Y-76444000D01*
X187127000Y-76602750D01*
X187127000Y-77702000D01*
X187147000Y-77702000D01*
X187147000Y-77956000D01*
X187127000Y-77956000D01*
X187127000Y-79055250D01*
X187285750Y-79214000D01*
X189364950Y-79216833D01*
X189364950Y-84941167D01*
X187285750Y-84944000D01*
X187127000Y-85102750D01*
X187127000Y-86202000D01*
X187147000Y-86202000D01*
X187147000Y-86456000D01*
X187127000Y-86456000D01*
X187127000Y-87555250D01*
X187285750Y-87714000D01*
X189364950Y-87716833D01*
X189364950Y-94599167D01*
X187285750Y-94602000D01*
X187127000Y-94760750D01*
X187127000Y-95860000D01*
X187147000Y-95860000D01*
X187147000Y-96114000D01*
X187127000Y-96114000D01*
X187127000Y-97213250D01*
X187285750Y-97372000D01*
X189364950Y-97374833D01*
X189364950Y-103099167D01*
X187285750Y-103102000D01*
X187127000Y-103260750D01*
X187127000Y-104360000D01*
X187147000Y-104360000D01*
X187147000Y-104614000D01*
X187127000Y-104614000D01*
X187127000Y-105713250D01*
X187285750Y-105872000D01*
X189364950Y-105874833D01*
X189364950Y-106599167D01*
X187285750Y-106602000D01*
X187127000Y-106760750D01*
X187127000Y-107860000D01*
X187147000Y-107860000D01*
X187147000Y-108114000D01*
X187127000Y-108114000D01*
X187127000Y-109213250D01*
X187285750Y-109372000D01*
X189364950Y-109374833D01*
X189364950Y-115099167D01*
X187285750Y-115102000D01*
X187127000Y-115260750D01*
X187127000Y-116360000D01*
X187147000Y-116360000D01*
X187147000Y-116614000D01*
X187127000Y-116614000D01*
X187127000Y-117713250D01*
X187285750Y-117872000D01*
X189364950Y-117874833D01*
X189364950Y-119364950D01*
X90635050Y-119364950D01*
X90635050Y-117874833D01*
X92714250Y-117872000D01*
X92873000Y-117713250D01*
X92873000Y-116614000D01*
X93127000Y-116614000D01*
X93127000Y-117713250D01*
X93285750Y-117872000D01*
X95540000Y-117875072D01*
X95664482Y-117862812D01*
X95784180Y-117826502D01*
X95894494Y-117767537D01*
X95991185Y-117688185D01*
X96070537Y-117591494D01*
X96129502Y-117481180D01*
X96165812Y-117361482D01*
X96178072Y-117237000D01*
X183821928Y-117237000D01*
X183834188Y-117361482D01*
X183870498Y-117481180D01*
X183929463Y-117591494D01*
X184008815Y-117688185D01*
X184105506Y-117767537D01*
X184215820Y-117826502D01*
X184335518Y-117862812D01*
X184460000Y-117875072D01*
X186714250Y-117872000D01*
X186873000Y-117713250D01*
X186873000Y-116614000D01*
X183983750Y-116614000D01*
X183825000Y-116772750D01*
X183821928Y-117237000D01*
X96178072Y-117237000D01*
X96175000Y-116772750D01*
X96016250Y-116614000D01*
X93127000Y-116614000D01*
X92873000Y-116614000D01*
X92853000Y-116614000D01*
X92853000Y-116360000D01*
X92873000Y-116360000D01*
X92873000Y-115260750D01*
X93127000Y-115260750D01*
X93127000Y-116360000D01*
X96016250Y-116360000D01*
X96175000Y-116201250D01*
X96178072Y-115737000D01*
X183821928Y-115737000D01*
X183825000Y-116201250D01*
X183983750Y-116360000D01*
X186873000Y-116360000D01*
X186873000Y-115260750D01*
X186714250Y-115102000D01*
X184460000Y-115098928D01*
X184335518Y-115111188D01*
X184215820Y-115147498D01*
X184105506Y-115206463D01*
X184008815Y-115285815D01*
X183929463Y-115382506D01*
X183870498Y-115492820D01*
X183834188Y-115612518D01*
X183821928Y-115737000D01*
X96178072Y-115737000D01*
X96165812Y-115612518D01*
X96129502Y-115492820D01*
X96070537Y-115382506D01*
X95991185Y-115285815D01*
X95894494Y-115206463D01*
X95784180Y-115147498D01*
X95664482Y-115111188D01*
X95540000Y-115098928D01*
X93285750Y-115102000D01*
X93127000Y-115260750D01*
X92873000Y-115260750D01*
X92714250Y-115102000D01*
X90635050Y-115099167D01*
X90635050Y-109374833D01*
X92714250Y-109372000D01*
X92873000Y-109213250D01*
X92873000Y-108114000D01*
X93127000Y-108114000D01*
X93127000Y-109213250D01*
X93285750Y-109372000D01*
X95540000Y-109375072D01*
X95664482Y-109362812D01*
X95784180Y-109326502D01*
X95894494Y-109267537D01*
X95991185Y-109188185D01*
X96070537Y-109091494D01*
X96129502Y-108981180D01*
X96165812Y-108861482D01*
X96178072Y-108737000D01*
X183821928Y-108737000D01*
X183834188Y-108861482D01*
X183870498Y-108981180D01*
X183929463Y-109091494D01*
X184008815Y-109188185D01*
X184105506Y-109267537D01*
X184215820Y-109326502D01*
X184335518Y-109362812D01*
X184460000Y-109375072D01*
X186714250Y-109372000D01*
X186873000Y-109213250D01*
X186873000Y-108114000D01*
X183983750Y-108114000D01*
X183825000Y-108272750D01*
X183821928Y-108737000D01*
X96178072Y-108737000D01*
X96175000Y-108272750D01*
X96016250Y-108114000D01*
X93127000Y-108114000D01*
X92873000Y-108114000D01*
X92853000Y-108114000D01*
X92853000Y-107860000D01*
X92873000Y-107860000D01*
X92873000Y-106760750D01*
X93127000Y-106760750D01*
X93127000Y-107860000D01*
X96016250Y-107860000D01*
X96175000Y-107701250D01*
X96178072Y-107237000D01*
X183821928Y-107237000D01*
X183825000Y-107701250D01*
X183983750Y-107860000D01*
X186873000Y-107860000D01*
X186873000Y-106760750D01*
X186714250Y-106602000D01*
X184460000Y-106598928D01*
X184335518Y-106611188D01*
X184215820Y-106647498D01*
X184105506Y-106706463D01*
X184008815Y-106785815D01*
X183929463Y-106882506D01*
X183870498Y-106992820D01*
X183834188Y-107112518D01*
X183821928Y-107237000D01*
X96178072Y-107237000D01*
X96165812Y-107112518D01*
X96129502Y-106992820D01*
X96070537Y-106882506D01*
X95991185Y-106785815D01*
X95894494Y-106706463D01*
X95784180Y-106647498D01*
X95664482Y-106611188D01*
X95540000Y-106598928D01*
X93285750Y-106602000D01*
X93127000Y-106760750D01*
X92873000Y-106760750D01*
X92714250Y-106602000D01*
X90635050Y-106599167D01*
X90635050Y-105874833D01*
X92714250Y-105872000D01*
X92873000Y-105713250D01*
X92873000Y-104614000D01*
X93127000Y-104614000D01*
X93127000Y-105713250D01*
X93285750Y-105872000D01*
X95540000Y-105875072D01*
X95664482Y-105862812D01*
X95784180Y-105826502D01*
X95894494Y-105767537D01*
X95991185Y-105688185D01*
X96070537Y-105591494D01*
X96129502Y-105481180D01*
X96165812Y-105361482D01*
X96178072Y-105237000D01*
X183821928Y-105237000D01*
X183834188Y-105361482D01*
X183870498Y-105481180D01*
X183929463Y-105591494D01*
X184008815Y-105688185D01*
X184105506Y-105767537D01*
X184215820Y-105826502D01*
X184335518Y-105862812D01*
X184460000Y-105875072D01*
X186714250Y-105872000D01*
X186873000Y-105713250D01*
X186873000Y-104614000D01*
X183983750Y-104614000D01*
X183825000Y-104772750D01*
X183821928Y-105237000D01*
X96178072Y-105237000D01*
X96175000Y-104772750D01*
X96016250Y-104614000D01*
X93127000Y-104614000D01*
X92873000Y-104614000D01*
X92853000Y-104614000D01*
X92853000Y-104360000D01*
X92873000Y-104360000D01*
X92873000Y-103260750D01*
X93127000Y-103260750D01*
X93127000Y-104360000D01*
X96016250Y-104360000D01*
X96175000Y-104201250D01*
X96178072Y-103737000D01*
X183821928Y-103737000D01*
X183825000Y-104201250D01*
X183983750Y-104360000D01*
X186873000Y-104360000D01*
X186873000Y-103260750D01*
X186714250Y-103102000D01*
X184460000Y-103098928D01*
X184335518Y-103111188D01*
X184215820Y-103147498D01*
X184105506Y-103206463D01*
X184008815Y-103285815D01*
X183929463Y-103382506D01*
X183870498Y-103492820D01*
X183834188Y-103612518D01*
X183821928Y-103737000D01*
X96178072Y-103737000D01*
X96165812Y-103612518D01*
X96129502Y-103492820D01*
X96070537Y-103382506D01*
X95991185Y-103285815D01*
X95894494Y-103206463D01*
X95784180Y-103147498D01*
X95664482Y-103111188D01*
X95540000Y-103098928D01*
X93285750Y-103102000D01*
X93127000Y-103260750D01*
X92873000Y-103260750D01*
X92714250Y-103102000D01*
X90635050Y-103099167D01*
X90635050Y-97374833D01*
X92714250Y-97372000D01*
X92873000Y-97213250D01*
X92873000Y-96114000D01*
X93127000Y-96114000D01*
X93127000Y-97213250D01*
X93285750Y-97372000D01*
X95540000Y-97375072D01*
X95664482Y-97362812D01*
X95784180Y-97326502D01*
X95894494Y-97267537D01*
X95991185Y-97188185D01*
X96070537Y-97091494D01*
X96129502Y-96981180D01*
X96165812Y-96861482D01*
X96178072Y-96737000D01*
X183821928Y-96737000D01*
X183834188Y-96861482D01*
X183870498Y-96981180D01*
X183929463Y-97091494D01*
X184008815Y-97188185D01*
X184105506Y-97267537D01*
X184215820Y-97326502D01*
X184335518Y-97362812D01*
X184460000Y-97375072D01*
X186714250Y-97372000D01*
X186873000Y-97213250D01*
X186873000Y-96114000D01*
X183983750Y-96114000D01*
X183825000Y-96272750D01*
X183821928Y-96737000D01*
X96178072Y-96737000D01*
X96175000Y-96272750D01*
X96016250Y-96114000D01*
X93127000Y-96114000D01*
X92873000Y-96114000D01*
X92853000Y-96114000D01*
X92853000Y-95860000D01*
X92873000Y-95860000D01*
X92873000Y-94760750D01*
X93127000Y-94760750D01*
X93127000Y-95860000D01*
X96016250Y-95860000D01*
X96175000Y-95701250D01*
X96178072Y-95237000D01*
X183821928Y-95237000D01*
X183825000Y-95701250D01*
X183983750Y-95860000D01*
X186873000Y-95860000D01*
X186873000Y-94760750D01*
X186714250Y-94602000D01*
X184460000Y-94598928D01*
X184335518Y-94611188D01*
X184215820Y-94647498D01*
X184105506Y-94706463D01*
X184008815Y-94785815D01*
X183929463Y-94882506D01*
X183870498Y-94992820D01*
X183834188Y-95112518D01*
X183821928Y-95237000D01*
X96178072Y-95237000D01*
X96165812Y-95112518D01*
X96129502Y-94992820D01*
X96070537Y-94882506D01*
X95991185Y-94785815D01*
X95894494Y-94706463D01*
X95784180Y-94647498D01*
X95664482Y-94611188D01*
X95540000Y-94598928D01*
X93285750Y-94602000D01*
X93127000Y-94760750D01*
X92873000Y-94760750D01*
X92714250Y-94602000D01*
X90635050Y-94599167D01*
X90635050Y-87716833D01*
X92714250Y-87714000D01*
X92873000Y-87555250D01*
X92873000Y-86456000D01*
X93127000Y-86456000D01*
X93127000Y-87555250D01*
X93285750Y-87714000D01*
X95540000Y-87717072D01*
X95664482Y-87704812D01*
X95784180Y-87668502D01*
X95894494Y-87609537D01*
X95991185Y-87530185D01*
X96070537Y-87433494D01*
X96129502Y-87323180D01*
X96165812Y-87203482D01*
X96178072Y-87079000D01*
X183821928Y-87079000D01*
X183834188Y-87203482D01*
X183870498Y-87323180D01*
X183929463Y-87433494D01*
X184008815Y-87530185D01*
X184105506Y-87609537D01*
X184215820Y-87668502D01*
X184335518Y-87704812D01*
X184460000Y-87717072D01*
X186714250Y-87714000D01*
X186873000Y-87555250D01*
X186873000Y-86456000D01*
X183983750Y-86456000D01*
X183825000Y-86614750D01*
X183821928Y-87079000D01*
X96178072Y-87079000D01*
X96175000Y-86614750D01*
X96016250Y-86456000D01*
X93127000Y-86456000D01*
X92873000Y-86456000D01*
X92853000Y-86456000D01*
X92853000Y-86202000D01*
X92873000Y-86202000D01*
X92873000Y-85102750D01*
X93127000Y-85102750D01*
X93127000Y-86202000D01*
X96016250Y-86202000D01*
X96175000Y-86043250D01*
X96178072Y-85579000D01*
X183821928Y-85579000D01*
X183825000Y-86043250D01*
X183983750Y-86202000D01*
X186873000Y-86202000D01*
X186873000Y-85102750D01*
X186714250Y-84944000D01*
X184460000Y-84940928D01*
X184335518Y-84953188D01*
X184215820Y-84989498D01*
X184105506Y-85048463D01*
X184008815Y-85127815D01*
X183929463Y-85224506D01*
X183870498Y-85334820D01*
X183834188Y-85454518D01*
X183821928Y-85579000D01*
X96178072Y-85579000D01*
X96165812Y-85454518D01*
X96129502Y-85334820D01*
X96070537Y-85224506D01*
X95991185Y-85127815D01*
X95894494Y-85048463D01*
X95784180Y-84989498D01*
X95664482Y-84953188D01*
X95540000Y-84940928D01*
X93285750Y-84944000D01*
X93127000Y-85102750D01*
X92873000Y-85102750D01*
X92714250Y-84944000D01*
X90635050Y-84941167D01*
X90635050Y-79216833D01*
X92714250Y-79214000D01*
X92873000Y-79055250D01*
X92873000Y-77956000D01*
X93127000Y-77956000D01*
X93127000Y-79055250D01*
X93285750Y-79214000D01*
X95540000Y-79217072D01*
X95664482Y-79204812D01*
X95784180Y-79168502D01*
X95894494Y-79109537D01*
X95991185Y-79030185D01*
X96070537Y-78933494D01*
X96129502Y-78823180D01*
X96165812Y-78703482D01*
X96178072Y-78579000D01*
X183821928Y-78579000D01*
X183834188Y-78703482D01*
X183870498Y-78823180D01*
X183929463Y-78933494D01*
X184008815Y-79030185D01*
X184105506Y-79109537D01*
X184215820Y-79168502D01*
X184335518Y-79204812D01*
X184460000Y-79217072D01*
X186714250Y-79214000D01*
X186873000Y-79055250D01*
X186873000Y-77956000D01*
X183983750Y-77956000D01*
X183825000Y-78114750D01*
X183821928Y-78579000D01*
X96178072Y-78579000D01*
X96175000Y-78114750D01*
X96016250Y-77956000D01*
X93127000Y-77956000D01*
X92873000Y-77956000D01*
X92853000Y-77956000D01*
X92853000Y-77702000D01*
X92873000Y-77702000D01*
X92873000Y-76602750D01*
X93127000Y-76602750D01*
X93127000Y-77702000D01*
X96016250Y-77702000D01*
X96175000Y-77543250D01*
X96178072Y-77079000D01*
X183821928Y-77079000D01*
X183825000Y-77543250D01*
X183983750Y-77702000D01*
X186873000Y-77702000D01*
X186873000Y-76602750D01*
X186714250Y-76444000D01*
X184460000Y-76440928D01*
X184335518Y-76453188D01*
X184215820Y-76489498D01*
X184105506Y-76548463D01*
X184008815Y-76627815D01*
X183929463Y-76724506D01*
X183870498Y-76834820D01*
X183834188Y-76954518D01*
X183821928Y-77079000D01*
X96178072Y-77079000D01*
X96165812Y-76954518D01*
X96129502Y-76834820D01*
X96070537Y-76724506D01*
X95991185Y-76627815D01*
X95894494Y-76548463D01*
X95784180Y-76489498D01*
X95664482Y-76453188D01*
X95540000Y-76440928D01*
X93285750Y-76444000D01*
X93127000Y-76602750D01*
X92873000Y-76602750D01*
X92714250Y-76444000D01*
X90635050Y-76441167D01*
X90635050Y-63558833D01*
X92714250Y-63556000D01*
X92873000Y-63397250D01*
X92873000Y-62298000D01*
X93127000Y-62298000D01*
X93127000Y-63397250D01*
X93285750Y-63556000D01*
X95540000Y-63559072D01*
X95664482Y-63546812D01*
X95784180Y-63510502D01*
X95894494Y-63451537D01*
X95991185Y-63372185D01*
X96070537Y-63275494D01*
X96129502Y-63165180D01*
X96165812Y-63045482D01*
X96178072Y-62921000D01*
X183821928Y-62921000D01*
X183834188Y-63045482D01*
X183870498Y-63165180D01*
X183929463Y-63275494D01*
X184008815Y-63372185D01*
X184105506Y-63451537D01*
X184215820Y-63510502D01*
X184335518Y-63546812D01*
X184460000Y-63559072D01*
X186714250Y-63556000D01*
X186873000Y-63397250D01*
X186873000Y-62298000D01*
X183983750Y-62298000D01*
X183825000Y-62456750D01*
X183821928Y-62921000D01*
X96178072Y-62921000D01*
X96175000Y-62456750D01*
X96016250Y-62298000D01*
X93127000Y-62298000D01*
X92873000Y-62298000D01*
X92853000Y-62298000D01*
X92853000Y-62044000D01*
X92873000Y-62044000D01*
X92873000Y-60944750D01*
X93127000Y-60944750D01*
X93127000Y-62044000D01*
X96016250Y-62044000D01*
X96175000Y-61885250D01*
X96178072Y-61421000D01*
X183821928Y-61421000D01*
X183825000Y-61885250D01*
X183983750Y-62044000D01*
X186873000Y-62044000D01*
X186873000Y-60944750D01*
X186714250Y-60786000D01*
X184460000Y-60782928D01*
X184335518Y-60795188D01*
X184215820Y-60831498D01*
X184105506Y-60890463D01*
X184008815Y-60969815D01*
X183929463Y-61066506D01*
X183870498Y-61176820D01*
X183834188Y-61296518D01*
X183821928Y-61421000D01*
X96178072Y-61421000D01*
X96165812Y-61296518D01*
X96129502Y-61176820D01*
X96070537Y-61066506D01*
X95991185Y-60969815D01*
X95894494Y-60890463D01*
X95784180Y-60831498D01*
X95664482Y-60795188D01*
X95540000Y-60782928D01*
X93285750Y-60786000D01*
X93127000Y-60944750D01*
X92873000Y-60944750D01*
X92714250Y-60786000D01*
X90635050Y-60783167D01*
X90635050Y-55058833D01*
X92714250Y-55056000D01*
X92873000Y-54897250D01*
X92873000Y-53798000D01*
X93127000Y-53798000D01*
X93127000Y-54897250D01*
X93285750Y-55056000D01*
X95540000Y-55059072D01*
X95664482Y-55046812D01*
X95784180Y-55010502D01*
X95894494Y-54951537D01*
X95991185Y-54872185D01*
X96070537Y-54775494D01*
X96129502Y-54665180D01*
X96165812Y-54545482D01*
X96178072Y-54421000D01*
X183821928Y-54421000D01*
X183834188Y-54545482D01*
X183870498Y-54665180D01*
X183929463Y-54775494D01*
X184008815Y-54872185D01*
X184105506Y-54951537D01*
X184215820Y-55010502D01*
X184335518Y-55046812D01*
X184460000Y-55059072D01*
X186714250Y-55056000D01*
X186873000Y-54897250D01*
X186873000Y-53798000D01*
X183983750Y-53798000D01*
X183825000Y-53956750D01*
X183821928Y-54421000D01*
X96178072Y-54421000D01*
X96175000Y-53956750D01*
X96016250Y-53798000D01*
X93127000Y-53798000D01*
X92873000Y-53798000D01*
X92853000Y-53798000D01*
X92853000Y-53544000D01*
X92873000Y-53544000D01*
X92873000Y-52444750D01*
X93127000Y-52444750D01*
X93127000Y-53544000D01*
X96016250Y-53544000D01*
X96175000Y-53385250D01*
X96178072Y-52921000D01*
X183821928Y-52921000D01*
X183825000Y-53385250D01*
X183983750Y-53544000D01*
X186873000Y-53544000D01*
X186873000Y-52444750D01*
X186714250Y-52286000D01*
X184460000Y-52282928D01*
X184335518Y-52295188D01*
X184215820Y-52331498D01*
X184105506Y-52390463D01*
X184008815Y-52469815D01*
X183929463Y-52566506D01*
X183870498Y-52676820D01*
X183834188Y-52796518D01*
X183821928Y-52921000D01*
X96178072Y-52921000D01*
X96165812Y-52796518D01*
X96129502Y-52676820D01*
X96070537Y-52566506D01*
X95991185Y-52469815D01*
X95894494Y-52390463D01*
X95784180Y-52331498D01*
X95664482Y-52295188D01*
X95540000Y-52282928D01*
X93285750Y-52286000D01*
X93127000Y-52444750D01*
X92873000Y-52444750D01*
X92714250Y-52286000D01*
X90635050Y-52283167D01*
X90635050Y-39400833D01*
X92714250Y-39398000D01*
X92873000Y-39239250D01*
X92873000Y-38140000D01*
X93127000Y-38140000D01*
X93127000Y-39239250D01*
X93285750Y-39398000D01*
X95540000Y-39401072D01*
X95664482Y-39388812D01*
X95784180Y-39352502D01*
X95894494Y-39293537D01*
X95991185Y-39214185D01*
X96070537Y-39117494D01*
X96129502Y-39007180D01*
X96165812Y-38887482D01*
X96178072Y-38763000D01*
X183821928Y-38763000D01*
X183834188Y-38887482D01*
X183870498Y-39007180D01*
X183929463Y-39117494D01*
X184008815Y-39214185D01*
X184105506Y-39293537D01*
X184215820Y-39352502D01*
X184335518Y-39388812D01*
X184460000Y-39401072D01*
X186714250Y-39398000D01*
X186873000Y-39239250D01*
X186873000Y-38140000D01*
X183983750Y-38140000D01*
X183825000Y-38298750D01*
X183821928Y-38763000D01*
X96178072Y-38763000D01*
X96175000Y-38298750D01*
X96016250Y-38140000D01*
X93127000Y-38140000D01*
X92873000Y-38140000D01*
X92853000Y-38140000D01*
X92853000Y-37886000D01*
X92873000Y-37886000D01*
X92873000Y-36786750D01*
X93127000Y-36786750D01*
X93127000Y-37886000D01*
X96016250Y-37886000D01*
X96175000Y-37727250D01*
X96178072Y-37263000D01*
X183821928Y-37263000D01*
X183825000Y-37727250D01*
X183983750Y-37886000D01*
X186873000Y-37886000D01*
X186873000Y-36786750D01*
X186714250Y-36628000D01*
X184460000Y-36624928D01*
X184335518Y-36637188D01*
X184215820Y-36673498D01*
X184105506Y-36732463D01*
X184008815Y-36811815D01*
X183929463Y-36908506D01*
X183870498Y-37018820D01*
X183834188Y-37138518D01*
X183821928Y-37263000D01*
X96178072Y-37263000D01*
X96165812Y-37138518D01*
X96129502Y-37018820D01*
X96070537Y-36908506D01*
X95991185Y-36811815D01*
X95894494Y-36732463D01*
X95784180Y-36673498D01*
X95664482Y-36637188D01*
X95540000Y-36624928D01*
X93285750Y-36628000D01*
X93127000Y-36786750D01*
X92873000Y-36786750D01*
X92714250Y-36628000D01*
X90635050Y-36625167D01*
X90635050Y-30900833D01*
X92714250Y-30898000D01*
X92873000Y-30739250D01*
X92873000Y-29640000D01*
X93127000Y-29640000D01*
X93127000Y-30739250D01*
X93285750Y-30898000D01*
X95540000Y-30901072D01*
X95664482Y-30888812D01*
X95784180Y-30852502D01*
X95894494Y-30793537D01*
X95991185Y-30714185D01*
X96070537Y-30617494D01*
X96129502Y-30507180D01*
X96165812Y-30387482D01*
X96178072Y-30263000D01*
X183821928Y-30263000D01*
X183834188Y-30387482D01*
X183870498Y-30507180D01*
X183929463Y-30617494D01*
X184008815Y-30714185D01*
X184105506Y-30793537D01*
X184215820Y-30852502D01*
X184335518Y-30888812D01*
X184460000Y-30901072D01*
X186714250Y-30898000D01*
X186873000Y-30739250D01*
X186873000Y-29640000D01*
X183983750Y-29640000D01*
X183825000Y-29798750D01*
X183821928Y-30263000D01*
X96178072Y-30263000D01*
X96175000Y-29798750D01*
X96016250Y-29640000D01*
X93127000Y-29640000D01*
X92873000Y-29640000D01*
X92853000Y-29640000D01*
X92853000Y-29386000D01*
X92873000Y-29386000D01*
X92873000Y-28286750D01*
X93127000Y-28286750D01*
X93127000Y-29386000D01*
X96016250Y-29386000D01*
X96175000Y-29227250D01*
X96178072Y-28763000D01*
X183821928Y-28763000D01*
X183825000Y-29227250D01*
X183983750Y-29386000D01*
X186873000Y-29386000D01*
X186873000Y-28286750D01*
X186714250Y-28128000D01*
X184460000Y-28124928D01*
X184335518Y-28137188D01*
X184215820Y-28173498D01*
X184105506Y-28232463D01*
X184008815Y-28311815D01*
X183929463Y-28408506D01*
X183870498Y-28518820D01*
X183834188Y-28638518D01*
X183821928Y-28763000D01*
X96178072Y-28763000D01*
X96165812Y-28638518D01*
X96129502Y-28518820D01*
X96070537Y-28408506D01*
X95991185Y-28311815D01*
X95894494Y-28232463D01*
X95784180Y-28173498D01*
X95664482Y-28137188D01*
X95540000Y-28124928D01*
X93285750Y-28128000D01*
X93127000Y-28286750D01*
X92873000Y-28286750D01*
X92714250Y-28128000D01*
X90635050Y-28125167D01*
X90635050Y-20635050D01*
X189364951Y-20635050D01*
X189364951Y-28125167D01*
G04 #@! TD*
M02*
