G04 #@! TF.GenerationSoftware,KiCad,Pcbnew,5.1.6-c6e7f7d~86~ubuntu18.04.1*
G04 #@! TF.CreationDate,2020-05-31T00:28:00-04:00*
G04 #@! TF.ProjectId,microstrip_tests,6d696372-6f73-4747-9269-705f74657374,rev?*
G04 #@! TF.SameCoordinates,Original*
G04 #@! TF.FileFunction,Legend,Bot*
G04 #@! TF.FilePolarity,Positive*
%FSLAX46Y46*%
G04 Gerber Fmt 4.6, Leading zero omitted, Abs format (unit mm)*
G04 Created by KiCad (PCBNEW 5.1.6-c6e7f7d~86~ubuntu18.04.1) date 2020-05-31 00:28:00*
%MOMM*%
%LPD*%
G01*
G04 APERTURE LIST*
%ADD10C,0.150000*%
G04 APERTURE END LIST*
G04 #@! TO.C,J1*
D10*
X92452380Y-33466666D02*
X93166666Y-33466666D01*
X93309523Y-33419047D01*
X93404761Y-33323809D01*
X93452380Y-33180952D01*
X93452380Y-33085714D01*
X93452380Y-34466666D02*
X93452380Y-33895238D01*
X93452380Y-34180952D02*
X92452380Y-34180952D01*
X92595238Y-34085714D01*
X92690476Y-33990476D01*
X92738095Y-33895238D01*
G04 #@! TO.C,J2*
X186392380Y-33346666D02*
X187106666Y-33346666D01*
X187249523Y-33299047D01*
X187344761Y-33203809D01*
X187392380Y-33060952D01*
X187392380Y-32965714D01*
X186487619Y-33775238D02*
X186440000Y-33822857D01*
X186392380Y-33918095D01*
X186392380Y-34156190D01*
X186440000Y-34251428D01*
X186487619Y-34299047D01*
X186582857Y-34346666D01*
X186678095Y-34346666D01*
X186820952Y-34299047D01*
X187392380Y-33727619D01*
X187392380Y-34346666D01*
G04 #@! TO.C,J3*
X92442380Y-57486666D02*
X93156666Y-57486666D01*
X93299523Y-57439047D01*
X93394761Y-57343809D01*
X93442380Y-57200952D01*
X93442380Y-57105714D01*
X92442380Y-57867619D02*
X92442380Y-58486666D01*
X92823333Y-58153333D01*
X92823333Y-58296190D01*
X92870952Y-58391428D01*
X92918571Y-58439047D01*
X93013809Y-58486666D01*
X93251904Y-58486666D01*
X93347142Y-58439047D01*
X93394761Y-58391428D01*
X93442380Y-58296190D01*
X93442380Y-58010476D01*
X93394761Y-57915238D01*
X93347142Y-57867619D01*
G04 #@! TO.C,J4*
X92422380Y-81736666D02*
X93136666Y-81736666D01*
X93279523Y-81689047D01*
X93374761Y-81593809D01*
X93422380Y-81450952D01*
X93422380Y-81355714D01*
X92755714Y-82641428D02*
X93422380Y-82641428D01*
X92374761Y-82403333D02*
X93089047Y-82165238D01*
X93089047Y-82784285D01*
G04 #@! TO.C,J5*
X92492380Y-99916666D02*
X93206666Y-99916666D01*
X93349523Y-99869047D01*
X93444761Y-99773809D01*
X93492380Y-99630952D01*
X93492380Y-99535714D01*
X92492380Y-100869047D02*
X92492380Y-100392857D01*
X92968571Y-100345238D01*
X92920952Y-100392857D01*
X92873333Y-100488095D01*
X92873333Y-100726190D01*
X92920952Y-100821428D01*
X92968571Y-100869047D01*
X93063809Y-100916666D01*
X93301904Y-100916666D01*
X93397142Y-100869047D01*
X93444761Y-100821428D01*
X93492380Y-100726190D01*
X93492380Y-100488095D01*
X93444761Y-100392857D01*
X93397142Y-100345238D01*
G04 #@! TO.C,J6*
X186432380Y-57516666D02*
X187146666Y-57516666D01*
X187289523Y-57469047D01*
X187384761Y-57373809D01*
X187432380Y-57230952D01*
X187432380Y-57135714D01*
X186432380Y-58421428D02*
X186432380Y-58230952D01*
X186480000Y-58135714D01*
X186527619Y-58088095D01*
X186670476Y-57992857D01*
X186860952Y-57945238D01*
X187241904Y-57945238D01*
X187337142Y-57992857D01*
X187384761Y-58040476D01*
X187432380Y-58135714D01*
X187432380Y-58326190D01*
X187384761Y-58421428D01*
X187337142Y-58469047D01*
X187241904Y-58516666D01*
X187003809Y-58516666D01*
X186908571Y-58469047D01*
X186860952Y-58421428D01*
X186813333Y-58326190D01*
X186813333Y-58135714D01*
X186860952Y-58040476D01*
X186908571Y-57992857D01*
X187003809Y-57945238D01*
G04 #@! TO.C,J7*
X186442380Y-81766666D02*
X187156666Y-81766666D01*
X187299523Y-81719047D01*
X187394761Y-81623809D01*
X187442380Y-81480952D01*
X187442380Y-81385714D01*
X186442380Y-82147619D02*
X186442380Y-82814285D01*
X187442380Y-82385714D01*
G04 #@! TO.C,J8*
X186452380Y-99916666D02*
X187166666Y-99916666D01*
X187309523Y-99869047D01*
X187404761Y-99773809D01*
X187452380Y-99630952D01*
X187452380Y-99535714D01*
X186880952Y-100535714D02*
X186833333Y-100440476D01*
X186785714Y-100392857D01*
X186690476Y-100345238D01*
X186642857Y-100345238D01*
X186547619Y-100392857D01*
X186500000Y-100440476D01*
X186452380Y-100535714D01*
X186452380Y-100726190D01*
X186500000Y-100821428D01*
X186547619Y-100869047D01*
X186642857Y-100916666D01*
X186690476Y-100916666D01*
X186785714Y-100869047D01*
X186833333Y-100821428D01*
X186880952Y-100726190D01*
X186880952Y-100535714D01*
X186928571Y-100440476D01*
X186976190Y-100392857D01*
X187071428Y-100345238D01*
X187261904Y-100345238D01*
X187357142Y-100392857D01*
X187404761Y-100440476D01*
X187452380Y-100535714D01*
X187452380Y-100726190D01*
X187404761Y-100821428D01*
X187357142Y-100869047D01*
X187261904Y-100916666D01*
X187071428Y-100916666D01*
X186976190Y-100869047D01*
X186928571Y-100821428D01*
X186880952Y-100726190D01*
G04 #@! TO.C,J9*
X92572380Y-111916666D02*
X93286666Y-111916666D01*
X93429523Y-111869047D01*
X93524761Y-111773809D01*
X93572380Y-111630952D01*
X93572380Y-111535714D01*
X93572380Y-112440476D02*
X93572380Y-112630952D01*
X93524761Y-112726190D01*
X93477142Y-112773809D01*
X93334285Y-112869047D01*
X93143809Y-112916666D01*
X92762857Y-112916666D01*
X92667619Y-112869047D01*
X92620000Y-112821428D01*
X92572380Y-112726190D01*
X92572380Y-112535714D01*
X92620000Y-112440476D01*
X92667619Y-112392857D01*
X92762857Y-112345238D01*
X93000952Y-112345238D01*
X93096190Y-112392857D01*
X93143809Y-112440476D01*
X93191428Y-112535714D01*
X93191428Y-112726190D01*
X93143809Y-112821428D01*
X93096190Y-112869047D01*
X93000952Y-112916666D01*
G04 #@! TO.C,J10*
X186352380Y-111370476D02*
X187066666Y-111370476D01*
X187209523Y-111322857D01*
X187304761Y-111227619D01*
X187352380Y-111084761D01*
X187352380Y-110989523D01*
X187352380Y-112370476D02*
X187352380Y-111799047D01*
X187352380Y-112084761D02*
X186352380Y-112084761D01*
X186495238Y-111989523D01*
X186590476Y-111894285D01*
X186638095Y-111799047D01*
X186352380Y-112989523D02*
X186352380Y-113084761D01*
X186400000Y-113180000D01*
X186447619Y-113227619D01*
X186542857Y-113275238D01*
X186733333Y-113322857D01*
X186971428Y-113322857D01*
X187161904Y-113275238D01*
X187257142Y-113227619D01*
X187304761Y-113180000D01*
X187352380Y-113084761D01*
X187352380Y-112989523D01*
X187304761Y-112894285D01*
X187257142Y-112846666D01*
X187161904Y-112799047D01*
X186971428Y-112751428D01*
X186733333Y-112751428D01*
X186542857Y-112799047D01*
X186447619Y-112846666D01*
X186400000Y-112894285D01*
X186352380Y-112989523D01*
G04 #@! TD*
M02*
