G04 #@! TF.GenerationSoftware,KiCad,Pcbnew,5.1.6-c6e7f7d~86~ubuntu18.04.1*
G04 #@! TF.CreationDate,2020-05-31T00:28:00-04:00*
G04 #@! TF.ProjectId,microstrip_tests,6d696372-6f73-4747-9269-705f74657374,rev?*
G04 #@! TF.SameCoordinates,Original*
G04 #@! TF.FileFunction,Legend,Top*
G04 #@! TF.FilePolarity,Positive*
%FSLAX46Y46*%
G04 Gerber Fmt 4.6, Leading zero omitted, Abs format (unit mm)*
G04 Created by KiCad (PCBNEW 5.1.6-c6e7f7d~86~ubuntu18.04.1) date 2020-05-31 00:28:00*
%MOMM*%
%LPD*%
G01*
G04 APERTURE LIST*
%ADD10C,0.120000*%
G04 APERTURE END LIST*
D10*
G04 #@! TO.C,J1*
X96210000Y-33763000D02*
X96710000Y-34013000D01*
X96710000Y-34013000D02*
X96710000Y-33513000D01*
X96710000Y-33513000D02*
X96210000Y-33763000D01*
G04 #@! TO.C,J2*
X183290000Y-34013000D02*
X183790000Y-33763000D01*
X183290000Y-33513000D02*
X183290000Y-34013000D01*
X183790000Y-33763000D02*
X183290000Y-33513000D01*
G04 #@! TO.C,J3*
X96210000Y-57921000D02*
X96710000Y-58171000D01*
X96710000Y-58171000D02*
X96710000Y-57671000D01*
X96710000Y-57671000D02*
X96210000Y-57921000D01*
G04 #@! TO.C,J4*
X96210000Y-82079000D02*
X96710000Y-82329000D01*
X96710000Y-82329000D02*
X96710000Y-81829000D01*
X96710000Y-81829000D02*
X96210000Y-82079000D01*
G04 #@! TO.C,J5*
X96210000Y-100237000D02*
X96710000Y-100487000D01*
X96710000Y-100487000D02*
X96710000Y-99987000D01*
X96710000Y-99987000D02*
X96210000Y-100237000D01*
G04 #@! TO.C,J6*
X183290000Y-58171000D02*
X183790000Y-57921000D01*
X183290000Y-57671000D02*
X183290000Y-58171000D01*
X183790000Y-57921000D02*
X183290000Y-57671000D01*
G04 #@! TO.C,J7*
X183290000Y-82329000D02*
X183790000Y-82079000D01*
X183290000Y-81829000D02*
X183290000Y-82329000D01*
X183790000Y-82079000D02*
X183290000Y-81829000D01*
G04 #@! TO.C,J8*
X183290000Y-100487000D02*
X183790000Y-100237000D01*
X183290000Y-99987000D02*
X183290000Y-100487000D01*
X183790000Y-100237000D02*
X183290000Y-99987000D01*
G04 #@! TO.C,J9*
X96710000Y-111987000D02*
X96210000Y-112237000D01*
X96710000Y-112487000D02*
X96710000Y-111987000D01*
X96210000Y-112237000D02*
X96710000Y-112487000D01*
G04 #@! TO.C,J10*
X183790000Y-112237000D02*
X183290000Y-111987000D01*
X183290000Y-111987000D02*
X183290000Y-112487000D01*
X183290000Y-112487000D02*
X183790000Y-112237000D01*
G04 #@! TD*
M02*
