G04 #@! TF.GenerationSoftware,KiCad,Pcbnew,5.1.6-c6e7f7d~86~ubuntu18.04.1*
G04 #@! TF.CreationDate,2020-07-08T22:54:29-04:00*
G04 #@! TF.ProjectId,rf-detector,72662d64-6574-4656-9374-6f722e6b6963,rev?*
G04 #@! TF.SameCoordinates,Original*
G04 #@! TF.FileFunction,Copper,L1,Top*
G04 #@! TF.FilePolarity,Positive*
%FSLAX46Y46*%
G04 Gerber Fmt 4.6, Leading zero omitted, Abs format (unit mm)*
G04 Created by KiCad (PCBNEW 5.1.6-c6e7f7d~86~ubuntu18.04.1) date 2020-07-08 22:54:29*
%MOMM*%
%LPD*%
G01*
G04 APERTURE LIST*
G04 #@! TA.AperFunction,NonConductor*
%ADD10C,0.250000*%
G04 #@! TD*
G04 #@! TA.AperFunction,SMDPad,CuDef*
%ADD11R,0.508000X1.219200*%
G04 #@! TD*
G04 #@! TA.AperFunction,ComponentPad*
%ADD12R,1.700000X1.700000*%
G04 #@! TD*
G04 #@! TA.AperFunction,ComponentPad*
%ADD13O,1.700000X1.700000*%
G04 #@! TD*
G04 #@! TA.AperFunction,SMDPad,CuDef*
%ADD14R,0.508000X1.270000*%
G04 #@! TD*
G04 #@! TA.AperFunction,SMDPad,CuDef*
%ADD15R,4.200000X1.350000*%
G04 #@! TD*
G04 #@! TA.AperFunction,SMDPad,CuDef*
%ADD16R,3.600000X1.270000*%
G04 #@! TD*
G04 #@! TA.AperFunction,ViaPad*
%ADD17C,0.800000*%
G04 #@! TD*
G04 #@! TA.AperFunction,Conductor*
%ADD18C,1.140000*%
G04 #@! TD*
G04 #@! TA.AperFunction,Conductor*
%ADD19C,0.904000*%
G04 #@! TD*
G04 #@! TA.AperFunction,Conductor*
%ADD20C,0.400000*%
G04 #@! TD*
G04 #@! TA.AperFunction,Conductor*
%ADD21C,0.250000*%
G04 #@! TD*
G04 #@! TA.AperFunction,Conductor*
%ADD22C,0.900000*%
G04 #@! TD*
G04 #@! TA.AperFunction,Conductor*
%ADD23C,0.600000*%
G04 #@! TD*
G04 #@! TA.AperFunction,Conductor*
%ADD24C,0.200000*%
G04 #@! TD*
G04 APERTURE END LIST*
D10*
X98533333Y-88852380D02*
X98200000Y-88376190D01*
X97961904Y-88852380D02*
X97961904Y-87852380D01*
X98342857Y-87852380D01*
X98438095Y-87900000D01*
X98485714Y-87947619D01*
X98533333Y-88042857D01*
X98533333Y-88185714D01*
X98485714Y-88280952D01*
X98438095Y-88328571D01*
X98342857Y-88376190D01*
X97961904Y-88376190D01*
X99485714Y-88852380D02*
X98914285Y-88852380D01*
X99200000Y-88852380D02*
X99200000Y-87852380D01*
X99104761Y-87995238D01*
X99009523Y-88090476D01*
X98914285Y-88138095D01*
G04 #@! TO.P,C2,1*
G04 #@! TO.N,GND*
G04 #@! TA.AperFunction,SMDPad,CuDef*
G36*
G01*
X109443750Y-93375000D02*
X109956250Y-93375000D01*
G75*
G02*
X110175000Y-93593750I0J-218750D01*
G01*
X110175000Y-94031250D01*
G75*
G02*
X109956250Y-94250000I-218750J0D01*
G01*
X109443750Y-94250000D01*
G75*
G02*
X109225000Y-94031250I0J218750D01*
G01*
X109225000Y-93593750D01*
G75*
G02*
X109443750Y-93375000I218750J0D01*
G01*
G37*
G04 #@! TD.AperFunction*
G04 #@! TO.P,C2,2*
G04 #@! TO.N,ENABLE*
G04 #@! TA.AperFunction,SMDPad,CuDef*
G36*
G01*
X109443750Y-94950000D02*
X109956250Y-94950000D01*
G75*
G02*
X110175000Y-95168750I0J-218750D01*
G01*
X110175000Y-95606250D01*
G75*
G02*
X109956250Y-95825000I-218750J0D01*
G01*
X109443750Y-95825000D01*
G75*
G02*
X109225000Y-95606250I0J218750D01*
G01*
X109225000Y-95168750D01*
G75*
G02*
X109443750Y-94950000I218750J0D01*
G01*
G37*
G04 #@! TD.AperFunction*
G04 #@! TD*
D11*
G04 #@! TO.P,U2,1*
G04 #@! TO.N,Net-(C1-Pad1)*
X108139800Y-92080800D03*
G04 #@! TO.P,U2,2*
G04 #@! TO.N,GND*
X107200000Y-92080800D03*
G04 #@! TO.P,U2,3*
G04 #@! TO.N,ENABLE*
X106260200Y-92080800D03*
G04 #@! TO.P,U2,4*
G04 #@! TO.N,RF_POW*
X106260200Y-94519200D03*
G04 #@! TO.P,U2,5*
G04 #@! TO.N,ENABLE*
X108139800Y-94519200D03*
G04 #@! TD*
D12*
G04 #@! TO.P,J3,1*
G04 #@! TO.N,RF_POW*
X103780000Y-88710000D03*
D13*
G04 #@! TO.P,J3,2*
G04 #@! TO.N,ENABLE*
X106320000Y-88710000D03*
G04 #@! TO.P,J3,3*
X108860000Y-88710000D03*
G04 #@! TO.P,J3,4*
G04 #@! TO.N,GND*
X111400000Y-88710000D03*
G04 #@! TD*
G04 #@! TO.P,C1,1*
G04 #@! TO.N,Net-(C1-Pad1)*
G04 #@! TA.AperFunction,SMDPad,CuDef*
G36*
G01*
X109175000Y-92356250D02*
X109175000Y-91843750D01*
G75*
G02*
X109393750Y-91625000I218750J0D01*
G01*
X109831250Y-91625000D01*
G75*
G02*
X110050000Y-91843750I0J-218750D01*
G01*
X110050000Y-92356250D01*
G75*
G02*
X109831250Y-92575000I-218750J0D01*
G01*
X109393750Y-92575000D01*
G75*
G02*
X109175000Y-92356250I0J218750D01*
G01*
G37*
G04 #@! TD.AperFunction*
G04 #@! TO.P,C1,2*
G04 #@! TO.N,Net-(C1-Pad2)*
G04 #@! TA.AperFunction,SMDPad,CuDef*
G36*
G01*
X110750000Y-92356250D02*
X110750000Y-91843750D01*
G75*
G02*
X110968750Y-91625000I218750J0D01*
G01*
X111406250Y-91625000D01*
G75*
G02*
X111625000Y-91843750I0J-218750D01*
G01*
X111625000Y-92356250D01*
G75*
G02*
X111406250Y-92575000I-218750J0D01*
G01*
X110968750Y-92575000D01*
G75*
G02*
X110750000Y-92356250I0J218750D01*
G01*
G37*
G04 #@! TD.AperFunction*
G04 #@! TD*
G04 #@! TO.P,R1,1*
G04 #@! TO.N,Net-(R1-Pad1)*
G04 #@! TA.AperFunction,SMDPad,CuDef*
G36*
G01*
X115375000Y-93956250D02*
X115375000Y-93443750D01*
G75*
G02*
X115593750Y-93225000I218750J0D01*
G01*
X116031250Y-93225000D01*
G75*
G02*
X116250000Y-93443750I0J-218750D01*
G01*
X116250000Y-93956250D01*
G75*
G02*
X116031250Y-94175000I-218750J0D01*
G01*
X115593750Y-94175000D01*
G75*
G02*
X115375000Y-93956250I0J218750D01*
G01*
G37*
G04 #@! TD.AperFunction*
G04 #@! TO.P,R1,2*
G04 #@! TO.N,GND*
G04 #@! TA.AperFunction,SMDPad,CuDef*
G36*
G01*
X116950000Y-93956250D02*
X116950000Y-93443750D01*
G75*
G02*
X117168750Y-93225000I218750J0D01*
G01*
X117606250Y-93225000D01*
G75*
G02*
X117825000Y-93443750I0J-218750D01*
G01*
X117825000Y-93956250D01*
G75*
G02*
X117606250Y-94175000I-218750J0D01*
G01*
X117168750Y-94175000D01*
G75*
G02*
X116950000Y-93956250I0J218750D01*
G01*
G37*
G04 #@! TD.AperFunction*
G04 #@! TD*
G04 #@! TO.P,R3,1*
G04 #@! TO.N,Net-(C1-Pad2)*
G04 #@! TA.AperFunction,SMDPad,CuDef*
G36*
G01*
X113795000Y-92356250D02*
X113795000Y-91843750D01*
G75*
G02*
X114013750Y-91625000I218750J0D01*
G01*
X114451250Y-91625000D01*
G75*
G02*
X114670000Y-91843750I0J-218750D01*
G01*
X114670000Y-92356250D01*
G75*
G02*
X114451250Y-92575000I-218750J0D01*
G01*
X114013750Y-92575000D01*
G75*
G02*
X113795000Y-92356250I0J218750D01*
G01*
G37*
G04 #@! TD.AperFunction*
G04 #@! TO.P,R3,2*
G04 #@! TO.N,Net-(R1-Pad1)*
G04 #@! TA.AperFunction,SMDPad,CuDef*
G36*
G01*
X115370000Y-92356250D02*
X115370000Y-91843750D01*
G75*
G02*
X115588750Y-91625000I218750J0D01*
G01*
X116026250Y-91625000D01*
G75*
G02*
X116245000Y-91843750I0J-218750D01*
G01*
X116245000Y-92356250D01*
G75*
G02*
X116026250Y-92575000I-218750J0D01*
G01*
X115588750Y-92575000D01*
G75*
G02*
X115370000Y-92356250I0J218750D01*
G01*
G37*
G04 #@! TD.AperFunction*
G04 #@! TD*
G04 #@! TO.P,R4,2*
G04 #@! TO.N,Net-(C1-Pad2)*
G04 #@! TA.AperFunction,SMDPad,CuDef*
G36*
G01*
X112956250Y-92550000D02*
X112443750Y-92550000D01*
G75*
G02*
X112225000Y-92331250I0J218750D01*
G01*
X112225000Y-91893750D01*
G75*
G02*
X112443750Y-91675000I218750J0D01*
G01*
X112956250Y-91675000D01*
G75*
G02*
X113175000Y-91893750I0J-218750D01*
G01*
X113175000Y-92331250D01*
G75*
G02*
X112956250Y-92550000I-218750J0D01*
G01*
G37*
G04 #@! TD.AperFunction*
G04 #@! TO.P,R4,1*
G04 #@! TO.N,GND*
G04 #@! TA.AperFunction,SMDPad,CuDef*
G36*
G01*
X112956250Y-94125000D02*
X112443750Y-94125000D01*
G75*
G02*
X112225000Y-93906250I0J218750D01*
G01*
X112225000Y-93468750D01*
G75*
G02*
X112443750Y-93250000I218750J0D01*
G01*
X112956250Y-93250000D01*
G75*
G02*
X113175000Y-93468750I0J-218750D01*
G01*
X113175000Y-93906250D01*
G75*
G02*
X112956250Y-94125000I-218750J0D01*
G01*
G37*
G04 #@! TD.AperFunction*
G04 #@! TD*
D14*
G04 #@! TO.P,U1,5*
G04 #@! TO.N,GND*
X116760200Y-98000000D03*
G04 #@! TO.P,U1,4*
G04 #@! TO.N,Net-(J1-Pad1)*
X115820400Y-98000000D03*
G04 #@! TO.P,U1,6*
G04 #@! TO.N,Net-(J2-Pad1)*
X117700000Y-98000000D03*
G04 #@! TO.P,U1,1*
G04 #@! TO.N,GND*
X117700000Y-95714000D03*
G04 #@! TO.P,U1,2*
X116760200Y-95714000D03*
G04 #@! TO.P,U1,3*
G04 #@! TO.N,Net-(R1-Pad1)*
X115820400Y-95714000D03*
G04 #@! TD*
D15*
G04 #@! TO.P,J1,2*
G04 #@! TO.N,GND*
X99100000Y-92175000D03*
X99100000Y-97825000D03*
D16*
G04 #@! TO.P,J1,1*
G04 #@! TO.N,Net-(J1-Pad1)*
X98900000Y-95000000D03*
G04 #@! TD*
G04 #@! TO.P,J2,1*
G04 #@! TO.N,Net-(J2-Pad1)*
X125100000Y-95000000D03*
D15*
G04 #@! TO.P,J2,2*
G04 #@! TO.N,GND*
X124900000Y-92175000D03*
X124900000Y-97825000D03*
G04 #@! TD*
D17*
G04 #@! TO.N,GND*
X116750000Y-96850000D03*
X114880000Y-96800000D03*
X118610000Y-96690000D03*
X118710000Y-93720000D03*
X117370000Y-92330000D03*
X114510000Y-93410000D03*
X114500000Y-94680000D03*
X112730000Y-95000000D03*
X111320000Y-93610000D03*
X99100000Y-90700000D03*
X102000000Y-92100000D03*
X99100000Y-93590000D03*
X99190000Y-96400000D03*
X102110000Y-96840000D03*
X99140000Y-99270000D03*
X124890000Y-90550000D03*
X121930000Y-92090000D03*
X124900000Y-93600000D03*
X124890000Y-96380000D03*
X122100000Y-97800000D03*
X124850000Y-99200000D03*
X123510000Y-96430000D03*
X122200000Y-96500000D03*
X120570000Y-98150000D03*
X119560000Y-99110000D03*
X118330000Y-99320000D03*
X123540000Y-93610000D03*
X122010000Y-93750000D03*
X120690000Y-94560000D03*
X119690000Y-95570000D03*
X116770000Y-99300000D03*
X115210000Y-99300000D03*
X113910000Y-99290000D03*
X112570000Y-99290000D03*
X111170000Y-99310000D03*
X109600000Y-99300000D03*
X108040000Y-99300000D03*
X106430000Y-99330000D03*
X105020000Y-99310000D03*
X103870000Y-98580000D03*
X103060000Y-97790000D03*
X101380000Y-96230000D03*
X101410000Y-93770000D03*
X102690000Y-93930000D03*
X103530000Y-94820000D03*
X104390000Y-95670000D03*
X105300000Y-96580000D03*
X106590000Y-96870000D03*
X108190000Y-96860000D03*
X109720000Y-96870000D03*
X111490000Y-96860000D03*
X113270000Y-96850000D03*
X100570000Y-99280000D03*
X101920000Y-98940000D03*
X100400000Y-90700000D03*
X101600000Y-90900000D03*
X126110000Y-90520000D03*
X122300000Y-90700000D03*
X123590000Y-90550000D03*
X122200000Y-99000000D03*
X123400000Y-99200000D03*
X126100000Y-99200000D03*
X126110000Y-96390000D03*
X126110000Y-93590000D03*
X97870000Y-93620000D03*
X97840000Y-96390000D03*
X97930000Y-99310000D03*
X100290000Y-96360000D03*
X100260000Y-93590000D03*
X97900000Y-90700000D03*
X108160000Y-90760000D03*
X110410000Y-90780000D03*
X111750000Y-90760000D03*
X112990000Y-90760000D03*
X114340000Y-90810000D03*
X115460000Y-90800000D03*
X116710000Y-91040000D03*
X107190000Y-90780000D03*
X107200000Y-93500000D03*
X102000000Y-97800000D03*
X121440000Y-97300000D03*
X126200000Y-87900000D03*
X119500000Y-91100000D03*
X123300000Y-88700000D03*
X119400000Y-88100000D03*
X113900000Y-88200000D03*
X118200000Y-89000000D03*
X101500000Y-87800000D03*
X105000000Y-90700000D03*
X121000000Y-99900000D03*
X103200000Y-99800000D03*
G04 #@! TO.N,RF_POW*
X105200000Y-93800000D03*
G04 #@! TO.N,ENABLE*
X110900000Y-95400000D03*
G04 #@! TD*
D18*
G04 #@! TO.N,Net-(C1-Pad1)*
X109612500Y-92100000D02*
X108400000Y-92100000D01*
D19*
G04 #@! TO.N,Net-(C1-Pad2)*
X112712500Y-92100000D02*
X112700000Y-92112500D01*
D18*
X114232500Y-92100000D02*
X112712500Y-92100000D01*
D19*
X112687500Y-92100000D02*
X112700000Y-92112500D01*
D18*
X111187500Y-92100000D02*
X112687500Y-92100000D01*
G04 #@! TO.N,Net-(J1-Pad1)*
X101980001Y-95000000D02*
X101220000Y-95000000D01*
X105040001Y-98060000D02*
X101980001Y-95000000D01*
X115500000Y-98060000D02*
X105040001Y-98060000D01*
X101220000Y-95000000D02*
X98900000Y-95000000D01*
G04 #@! TO.N,Net-(J2-Pad1)*
X118900000Y-98100000D02*
X118000000Y-98100000D01*
X122000000Y-95000000D02*
X125100000Y-95000000D01*
X118900000Y-98100000D02*
X122000000Y-95000000D01*
D20*
G04 #@! TO.N,RF_POW*
X105200000Y-93800000D02*
X105800000Y-93800000D01*
X106260200Y-94260200D02*
X106260200Y-94519200D01*
X105800000Y-93800000D02*
X106260200Y-94260200D01*
G04 #@! TO.N,ENABLE*
X108139800Y-94519200D02*
X108139800Y-94819800D01*
X108707500Y-95387500D02*
X109700000Y-95387500D01*
X108139800Y-94819800D02*
X108707500Y-95387500D01*
D21*
X106260200Y-88769800D02*
X106320000Y-88710000D01*
X106260200Y-92080800D02*
X106260200Y-88769800D01*
X106320000Y-88710000D02*
X108860000Y-88710000D01*
D20*
X109712500Y-95400000D02*
X109700000Y-95387500D01*
X110900000Y-95400000D02*
X109712500Y-95400000D01*
D18*
G04 #@! TO.N,Net-(R1-Pad1)*
X115807500Y-92100000D02*
X115807500Y-93695000D01*
D22*
X115812500Y-94842500D02*
X115820400Y-94850400D01*
D23*
X115820400Y-95714000D02*
X115820400Y-94850400D01*
D18*
X115812500Y-94386698D02*
X115812500Y-94052500D01*
X115812500Y-93700000D02*
X115812500Y-94386698D01*
D22*
X115812500Y-94052500D02*
X115812500Y-94842500D01*
G04 #@! TD*
D24*
G04 #@! TO.N,GND*
G36*
X126650000Y-91198820D02*
G01*
X125129000Y-91200000D01*
X125054000Y-91275000D01*
X125054000Y-92021000D01*
X125074000Y-92021000D01*
X125074000Y-92329000D01*
X125054000Y-92329000D01*
X125054000Y-93075000D01*
X125129000Y-93150000D01*
X126650000Y-93151180D01*
X126650001Y-94063549D01*
X123300000Y-94063549D01*
X123241190Y-94069341D01*
X123184640Y-94086496D01*
X123132523Y-94114353D01*
X123113457Y-94130000D01*
X122042723Y-94130000D01*
X121999999Y-94125792D01*
X121957275Y-94130000D01*
X121957266Y-94130000D01*
X121829450Y-94142589D01*
X121665455Y-94192336D01*
X121621404Y-94215882D01*
X121514315Y-94273122D01*
X121415034Y-94354600D01*
X121381841Y-94381841D01*
X121354602Y-94415032D01*
X118539635Y-97230000D01*
X118222006Y-97230000D01*
X118204647Y-97197523D01*
X118167158Y-97151842D01*
X118121477Y-97114353D01*
X118069360Y-97086496D01*
X118012810Y-97069341D01*
X117954000Y-97063549D01*
X117446000Y-97063549D01*
X117387190Y-97069341D01*
X117330640Y-97086496D01*
X117278523Y-97114353D01*
X117232842Y-97151842D01*
X117230101Y-97155182D01*
X117227359Y-97151841D01*
X117181678Y-97114352D01*
X117129561Y-97086495D01*
X117073010Y-97069340D01*
X117014200Y-97063548D01*
X116989200Y-97065000D01*
X116914200Y-97140000D01*
X116914200Y-97846000D01*
X116934200Y-97846000D01*
X116934200Y-98154000D01*
X116914200Y-98154000D01*
X116914200Y-98860000D01*
X116989200Y-98935000D01*
X117014200Y-98936452D01*
X117073010Y-98930660D01*
X117129561Y-98913505D01*
X117181678Y-98885648D01*
X117227359Y-98848159D01*
X117230101Y-98844818D01*
X117232842Y-98848158D01*
X117278523Y-98885647D01*
X117330640Y-98913504D01*
X117387190Y-98930659D01*
X117446000Y-98936451D01*
X117760354Y-98936451D01*
X117829450Y-98957411D01*
X117957266Y-98970000D01*
X118857276Y-98970000D01*
X118900000Y-98974208D01*
X118942724Y-98970000D01*
X118942734Y-98970000D01*
X119070550Y-98957411D01*
X119234545Y-98907664D01*
X119385684Y-98826878D01*
X119518159Y-98718159D01*
X119545403Y-98684962D01*
X119730365Y-98500000D01*
X122498548Y-98500000D01*
X122504340Y-98558810D01*
X122521495Y-98615361D01*
X122549352Y-98667478D01*
X122586841Y-98713159D01*
X122632522Y-98750648D01*
X122684639Y-98778505D01*
X122741190Y-98795660D01*
X122800000Y-98801452D01*
X124671000Y-98800000D01*
X124746000Y-98725000D01*
X124746000Y-97979000D01*
X122575000Y-97979000D01*
X122500000Y-98054000D01*
X122498548Y-98500000D01*
X119730365Y-98500000D01*
X121080365Y-97150000D01*
X122498548Y-97150000D01*
X122500000Y-97596000D01*
X122575000Y-97671000D01*
X124746000Y-97671000D01*
X124746000Y-96925000D01*
X124671000Y-96850000D01*
X122800000Y-96848548D01*
X122741190Y-96854340D01*
X122684639Y-96871495D01*
X122632522Y-96899352D01*
X122586841Y-96936841D01*
X122549352Y-96982522D01*
X122521495Y-97034639D01*
X122504340Y-97091190D01*
X122498548Y-97150000D01*
X121080365Y-97150000D01*
X122360366Y-95870000D01*
X123113457Y-95870000D01*
X123132523Y-95885647D01*
X123184640Y-95913504D01*
X123241190Y-95930659D01*
X123300000Y-95936451D01*
X126650001Y-95936451D01*
X126650001Y-96848820D01*
X125129000Y-96850000D01*
X125054000Y-96925000D01*
X125054000Y-97671000D01*
X125074000Y-97671000D01*
X125074000Y-97979000D01*
X125054000Y-97979000D01*
X125054000Y-98725000D01*
X125129000Y-98800000D01*
X126650001Y-98801180D01*
X126650001Y-100650000D01*
X97350000Y-100650000D01*
X97350000Y-98801180D01*
X98871000Y-98800000D01*
X98946000Y-98725000D01*
X98946000Y-97979000D01*
X99254000Y-97979000D01*
X99254000Y-98725000D01*
X99329000Y-98800000D01*
X101200000Y-98801452D01*
X101258810Y-98795660D01*
X101315361Y-98778505D01*
X101367478Y-98750648D01*
X101413159Y-98713159D01*
X101450648Y-98667478D01*
X101478505Y-98615361D01*
X101495660Y-98558810D01*
X101501452Y-98500000D01*
X101500000Y-98054000D01*
X101425000Y-97979000D01*
X99254000Y-97979000D01*
X98946000Y-97979000D01*
X98926000Y-97979000D01*
X98926000Y-97671000D01*
X98946000Y-97671000D01*
X98946000Y-96925000D01*
X99254000Y-96925000D01*
X99254000Y-97671000D01*
X101425000Y-97671000D01*
X101500000Y-97596000D01*
X101501452Y-97150000D01*
X101495660Y-97091190D01*
X101478505Y-97034639D01*
X101450648Y-96982522D01*
X101413159Y-96936841D01*
X101367478Y-96899352D01*
X101315361Y-96871495D01*
X101258810Y-96854340D01*
X101200000Y-96848548D01*
X99329000Y-96850000D01*
X99254000Y-96925000D01*
X98946000Y-96925000D01*
X98871000Y-96850000D01*
X97350000Y-96848820D01*
X97350000Y-95936451D01*
X100700000Y-95936451D01*
X100758810Y-95930659D01*
X100815360Y-95913504D01*
X100867477Y-95885647D01*
X100886543Y-95870000D01*
X101619636Y-95870000D01*
X104394603Y-98644968D01*
X104421842Y-98678159D01*
X104455033Y-98705398D01*
X104455035Y-98705400D01*
X104554317Y-98786878D01*
X104705455Y-98867664D01*
X104869451Y-98917411D01*
X105040001Y-98934209D01*
X105082735Y-98930000D01*
X115505418Y-98930000D01*
X115507590Y-98930659D01*
X115566400Y-98936451D01*
X116074400Y-98936451D01*
X116133210Y-98930659D01*
X116189760Y-98913504D01*
X116241877Y-98885647D01*
X116287558Y-98848158D01*
X116290299Y-98844818D01*
X116293041Y-98848159D01*
X116338722Y-98885648D01*
X116390839Y-98913505D01*
X116447390Y-98930660D01*
X116506200Y-98936452D01*
X116531200Y-98935000D01*
X116606200Y-98860000D01*
X116606200Y-98154000D01*
X116586200Y-98154000D01*
X116586200Y-97846000D01*
X116606200Y-97846000D01*
X116606200Y-97140000D01*
X116531200Y-97065000D01*
X116506200Y-97063548D01*
X116447390Y-97069340D01*
X116390839Y-97086495D01*
X116338722Y-97114352D01*
X116293041Y-97151841D01*
X116290299Y-97155182D01*
X116287558Y-97151842D01*
X116241877Y-97114353D01*
X116189760Y-97086496D01*
X116133210Y-97069341D01*
X116074400Y-97063549D01*
X115566400Y-97063549D01*
X115507590Y-97069341D01*
X115451040Y-97086496D01*
X115398923Y-97114353D01*
X115353242Y-97151842D01*
X115321927Y-97190000D01*
X105400367Y-97190000D01*
X102625404Y-94415038D01*
X102598160Y-94381841D01*
X102465685Y-94273122D01*
X102314546Y-94192336D01*
X102150551Y-94142589D01*
X102022735Y-94130000D01*
X102022725Y-94130000D01*
X101980001Y-94125792D01*
X101937277Y-94130000D01*
X100886543Y-94130000D01*
X100867477Y-94114353D01*
X100815360Y-94086496D01*
X100758810Y-94069341D01*
X100700000Y-94063549D01*
X97350000Y-94063549D01*
X97350000Y-93731056D01*
X104500000Y-93731056D01*
X104500000Y-93868944D01*
X104526901Y-94004182D01*
X104579668Y-94131574D01*
X104656274Y-94246224D01*
X104753776Y-94343726D01*
X104868426Y-94420332D01*
X104995818Y-94473099D01*
X105131056Y-94500000D01*
X105268944Y-94500000D01*
X105404182Y-94473099D01*
X105531574Y-94420332D01*
X105640467Y-94347573D01*
X105704749Y-94411855D01*
X105704749Y-95128800D01*
X105710541Y-95187610D01*
X105727696Y-95244160D01*
X105755553Y-95296277D01*
X105793042Y-95341958D01*
X105838723Y-95379447D01*
X105890840Y-95407304D01*
X105947390Y-95424459D01*
X106006200Y-95430251D01*
X106514200Y-95430251D01*
X106573010Y-95424459D01*
X106629560Y-95407304D01*
X106681677Y-95379447D01*
X106727358Y-95341958D01*
X106764847Y-95296277D01*
X106792704Y-95244160D01*
X106809859Y-95187610D01*
X106815651Y-95128800D01*
X106815651Y-93909600D01*
X107584349Y-93909600D01*
X107584349Y-95128800D01*
X107590141Y-95187610D01*
X107607296Y-95244160D01*
X107635153Y-95296277D01*
X107672642Y-95341958D01*
X107718323Y-95379447D01*
X107770440Y-95407304D01*
X107826990Y-95424459D01*
X107885800Y-95430251D01*
X108043146Y-95430251D01*
X108336575Y-95723681D01*
X108352236Y-95742764D01*
X108428371Y-95805246D01*
X108515233Y-95851675D01*
X108556441Y-95864175D01*
X108609482Y-95880265D01*
X108707499Y-95889919D01*
X108732059Y-95887500D01*
X109007072Y-95887500D01*
X109011219Y-95895258D01*
X109075912Y-95974088D01*
X109154742Y-96038781D01*
X109244678Y-96086853D01*
X109342264Y-96116455D01*
X109443750Y-96126451D01*
X109956250Y-96126451D01*
X110057736Y-96116455D01*
X110155322Y-96086853D01*
X110245258Y-96038781D01*
X110324088Y-95974088D01*
X110384889Y-95900000D01*
X110410050Y-95900000D01*
X110453776Y-95943726D01*
X110568426Y-96020332D01*
X110695818Y-96073099D01*
X110831056Y-96100000D01*
X110968944Y-96100000D01*
X111104182Y-96073099D01*
X111231574Y-96020332D01*
X111346224Y-95943726D01*
X111443726Y-95846224D01*
X111520332Y-95731574D01*
X111573099Y-95604182D01*
X111600000Y-95468944D01*
X111600000Y-95331056D01*
X111573099Y-95195818D01*
X111520332Y-95068426D01*
X111443726Y-94953776D01*
X111346224Y-94856274D01*
X111231574Y-94779668D01*
X111104182Y-94726901D01*
X110968944Y-94700000D01*
X110831056Y-94700000D01*
X110695818Y-94726901D01*
X110568426Y-94779668D01*
X110453776Y-94856274D01*
X110410050Y-94900000D01*
X110399609Y-94900000D01*
X110388781Y-94879742D01*
X110324088Y-94800912D01*
X110245258Y-94736219D01*
X110155322Y-94688147D01*
X110057736Y-94658545D01*
X109956250Y-94648549D01*
X109443750Y-94648549D01*
X109342264Y-94658545D01*
X109244678Y-94688147D01*
X109154742Y-94736219D01*
X109075912Y-94800912D01*
X109011219Y-94879742D01*
X109007072Y-94887500D01*
X108914606Y-94887500D01*
X108695251Y-94668146D01*
X108695251Y-94250000D01*
X108923548Y-94250000D01*
X108929340Y-94308810D01*
X108946495Y-94365361D01*
X108974352Y-94417478D01*
X109011841Y-94463159D01*
X109057522Y-94500648D01*
X109109639Y-94528505D01*
X109166190Y-94545660D01*
X109225000Y-94551452D01*
X109471000Y-94550000D01*
X109546000Y-94475000D01*
X109546000Y-93966500D01*
X109854000Y-93966500D01*
X109854000Y-94475000D01*
X109929000Y-94550000D01*
X110175000Y-94551452D01*
X110233810Y-94545660D01*
X110290361Y-94528505D01*
X110342478Y-94500648D01*
X110388159Y-94463159D01*
X110425648Y-94417478D01*
X110453505Y-94365361D01*
X110470660Y-94308810D01*
X110476452Y-94250000D01*
X110475582Y-94125000D01*
X111923548Y-94125000D01*
X111929340Y-94183810D01*
X111946495Y-94240361D01*
X111974352Y-94292478D01*
X112011841Y-94338159D01*
X112057522Y-94375648D01*
X112109639Y-94403505D01*
X112166190Y-94420660D01*
X112225000Y-94426452D01*
X112471000Y-94425000D01*
X112546000Y-94350000D01*
X112546000Y-93841500D01*
X112854000Y-93841500D01*
X112854000Y-94350000D01*
X112929000Y-94425000D01*
X113175000Y-94426452D01*
X113233810Y-94420660D01*
X113290361Y-94403505D01*
X113342478Y-94375648D01*
X113388159Y-94338159D01*
X113425648Y-94292478D01*
X113453505Y-94240361D01*
X113470660Y-94183810D01*
X113476452Y-94125000D01*
X113475000Y-93916500D01*
X113400000Y-93841500D01*
X112854000Y-93841500D01*
X112546000Y-93841500D01*
X112000000Y-93841500D01*
X111925000Y-93916500D01*
X111923548Y-94125000D01*
X110475582Y-94125000D01*
X110475000Y-94041500D01*
X110400000Y-93966500D01*
X109854000Y-93966500D01*
X109546000Y-93966500D01*
X109000000Y-93966500D01*
X108925000Y-94041500D01*
X108923548Y-94250000D01*
X108695251Y-94250000D01*
X108695251Y-93909600D01*
X108689459Y-93850790D01*
X108672304Y-93794240D01*
X108644447Y-93742123D01*
X108606958Y-93696442D01*
X108561277Y-93658953D01*
X108509160Y-93631096D01*
X108452610Y-93613941D01*
X108393800Y-93608149D01*
X107885800Y-93608149D01*
X107826990Y-93613941D01*
X107770440Y-93631096D01*
X107718323Y-93658953D01*
X107672642Y-93696442D01*
X107635153Y-93742123D01*
X107607296Y-93794240D01*
X107590141Y-93850790D01*
X107584349Y-93909600D01*
X106815651Y-93909600D01*
X106809859Y-93850790D01*
X106792704Y-93794240D01*
X106764847Y-93742123D01*
X106727358Y-93696442D01*
X106681677Y-93658953D01*
X106629560Y-93631096D01*
X106573010Y-93613941D01*
X106514200Y-93608149D01*
X106315254Y-93608149D01*
X106170929Y-93463824D01*
X106155264Y-93444736D01*
X106079129Y-93382254D01*
X106065558Y-93375000D01*
X108923548Y-93375000D01*
X108925000Y-93583500D01*
X109000000Y-93658500D01*
X109546000Y-93658500D01*
X109546000Y-93150000D01*
X109854000Y-93150000D01*
X109854000Y-93658500D01*
X110400000Y-93658500D01*
X110475000Y-93583500D01*
X110476452Y-93375000D01*
X110470660Y-93316190D01*
X110453505Y-93259639D01*
X110425648Y-93207522D01*
X110388159Y-93161841D01*
X110342478Y-93124352D01*
X110290361Y-93096495D01*
X110233810Y-93079340D01*
X110175000Y-93073548D01*
X109929000Y-93075000D01*
X109854000Y-93150000D01*
X109546000Y-93150000D01*
X109471000Y-93075000D01*
X109225000Y-93073548D01*
X109166190Y-93079340D01*
X109109639Y-93096495D01*
X109057522Y-93124352D01*
X109011841Y-93161841D01*
X108974352Y-93207522D01*
X108946495Y-93259639D01*
X108929340Y-93316190D01*
X108923548Y-93375000D01*
X106065558Y-93375000D01*
X105992267Y-93335825D01*
X105898017Y-93307235D01*
X105824560Y-93300000D01*
X105800000Y-93297581D01*
X105775440Y-93300000D01*
X105689950Y-93300000D01*
X105646224Y-93256274D01*
X105531574Y-93179668D01*
X105404182Y-93126901D01*
X105268944Y-93100000D01*
X105131056Y-93100000D01*
X104995818Y-93126901D01*
X104868426Y-93179668D01*
X104753776Y-93256274D01*
X104656274Y-93353776D01*
X104579668Y-93468426D01*
X104526901Y-93595818D01*
X104500000Y-93731056D01*
X97350000Y-93731056D01*
X97350000Y-93151180D01*
X98871000Y-93150000D01*
X98946000Y-93075000D01*
X98946000Y-92329000D01*
X99254000Y-92329000D01*
X99254000Y-93075000D01*
X99329000Y-93150000D01*
X101200000Y-93151452D01*
X101258810Y-93145660D01*
X101315361Y-93128505D01*
X101367478Y-93100648D01*
X101413159Y-93063159D01*
X101450648Y-93017478D01*
X101478505Y-92965361D01*
X101495660Y-92908810D01*
X101501452Y-92850000D01*
X101500000Y-92404000D01*
X101425000Y-92329000D01*
X99254000Y-92329000D01*
X98946000Y-92329000D01*
X98926000Y-92329000D01*
X98926000Y-92021000D01*
X98946000Y-92021000D01*
X98946000Y-91275000D01*
X99254000Y-91275000D01*
X99254000Y-92021000D01*
X101425000Y-92021000D01*
X101500000Y-91946000D01*
X101501452Y-91500000D01*
X101495660Y-91441190D01*
X101478505Y-91384639D01*
X101450648Y-91332522D01*
X101413159Y-91286841D01*
X101367478Y-91249352D01*
X101315361Y-91221495D01*
X101258810Y-91204340D01*
X101200000Y-91198548D01*
X99329000Y-91200000D01*
X99254000Y-91275000D01*
X98946000Y-91275000D01*
X98871000Y-91200000D01*
X97350000Y-91198820D01*
X97350000Y-89667500D01*
X100101191Y-89667500D01*
X100101191Y-87860000D01*
X102628549Y-87860000D01*
X102628549Y-89560000D01*
X102634341Y-89618810D01*
X102651496Y-89675360D01*
X102679353Y-89727477D01*
X102716842Y-89773158D01*
X102762523Y-89810647D01*
X102814640Y-89838504D01*
X102871190Y-89855659D01*
X102930000Y-89861451D01*
X104630000Y-89861451D01*
X104688810Y-89855659D01*
X104745360Y-89838504D01*
X104797477Y-89810647D01*
X104843158Y-89773158D01*
X104880647Y-89727477D01*
X104908504Y-89675360D01*
X104925659Y-89618810D01*
X104931451Y-89560000D01*
X104931451Y-88596735D01*
X105170000Y-88596735D01*
X105170000Y-88823265D01*
X105214194Y-89045443D01*
X105300884Y-89254729D01*
X105426737Y-89443082D01*
X105586918Y-89603263D01*
X105775271Y-89729116D01*
X105835201Y-89753940D01*
X105835200Y-91223444D01*
X105793042Y-91258042D01*
X105755553Y-91303723D01*
X105727696Y-91355840D01*
X105710541Y-91412390D01*
X105704749Y-91471200D01*
X105704749Y-92690400D01*
X105710541Y-92749210D01*
X105727696Y-92805760D01*
X105755553Y-92857877D01*
X105793042Y-92903558D01*
X105838723Y-92941047D01*
X105890840Y-92968904D01*
X105947390Y-92986059D01*
X106006200Y-92991851D01*
X106514200Y-92991851D01*
X106573010Y-92986059D01*
X106629560Y-92968904D01*
X106681677Y-92941047D01*
X106727358Y-92903558D01*
X106730099Y-92900218D01*
X106732841Y-92903559D01*
X106778522Y-92941048D01*
X106830639Y-92968905D01*
X106887190Y-92986060D01*
X106946000Y-92991852D01*
X106971000Y-92990400D01*
X107046000Y-92915400D01*
X107046000Y-92234800D01*
X107026000Y-92234800D01*
X107026000Y-91926800D01*
X107046000Y-91926800D01*
X107046000Y-91246200D01*
X107354000Y-91246200D01*
X107354000Y-91926800D01*
X107374000Y-91926800D01*
X107374000Y-92234800D01*
X107354000Y-92234800D01*
X107354000Y-92915400D01*
X107429000Y-92990400D01*
X107454000Y-92991852D01*
X107512810Y-92986060D01*
X107569361Y-92968905D01*
X107621478Y-92941048D01*
X107667159Y-92903559D01*
X107669901Y-92900218D01*
X107672642Y-92903558D01*
X107718323Y-92941047D01*
X107770440Y-92968904D01*
X107826990Y-92986059D01*
X107885800Y-92991851D01*
X108393800Y-92991851D01*
X108452610Y-92986059D01*
X108505547Y-92970000D01*
X109655234Y-92970000D01*
X109783050Y-92957411D01*
X109947045Y-92907664D01*
X110098184Y-92826878D01*
X110230659Y-92718159D01*
X110339378Y-92585684D01*
X110400000Y-92472269D01*
X110460622Y-92585684D01*
X110569341Y-92718159D01*
X110701816Y-92826878D01*
X110852955Y-92907664D01*
X111016950Y-92957411D01*
X111144766Y-92970000D01*
X112114567Y-92970000D01*
X112109639Y-92971495D01*
X112057522Y-92999352D01*
X112011841Y-93036841D01*
X111974352Y-93082522D01*
X111946495Y-93134639D01*
X111929340Y-93191190D01*
X111923548Y-93250000D01*
X111925000Y-93458500D01*
X112000000Y-93533500D01*
X112546000Y-93533500D01*
X112546000Y-93513500D01*
X112854000Y-93513500D01*
X112854000Y-93533500D01*
X113400000Y-93533500D01*
X113475000Y-93458500D01*
X113476452Y-93250000D01*
X113470660Y-93191190D01*
X113453505Y-93134639D01*
X113425648Y-93082522D01*
X113388159Y-93036841D01*
X113342478Y-92999352D01*
X113290361Y-92971495D01*
X113285433Y-92970000D01*
X114275234Y-92970000D01*
X114403050Y-92957411D01*
X114567045Y-92907664D01*
X114718184Y-92826878D01*
X114850659Y-92718159D01*
X114937500Y-92612342D01*
X114937501Y-93737734D01*
X114942500Y-93788489D01*
X114942500Y-94429432D01*
X114955089Y-94557248D01*
X114970180Y-94606995D01*
X115004836Y-94721242D01*
X115060550Y-94825474D01*
X115058873Y-94842500D01*
X115062500Y-94879327D01*
X115062500Y-94879335D01*
X115073353Y-94989526D01*
X115076531Y-95000001D01*
X115116239Y-95130900D01*
X115137432Y-95170549D01*
X115185882Y-95261193D01*
X115214675Y-95296277D01*
X115220400Y-95303253D01*
X115220400Y-95743473D01*
X115229082Y-95831620D01*
X115263390Y-95944720D01*
X115264949Y-95947637D01*
X115264949Y-96349000D01*
X115270741Y-96407810D01*
X115287896Y-96464360D01*
X115315753Y-96516477D01*
X115353242Y-96562158D01*
X115398923Y-96599647D01*
X115451040Y-96627504D01*
X115507590Y-96644659D01*
X115566400Y-96650451D01*
X116074400Y-96650451D01*
X116133210Y-96644659D01*
X116189760Y-96627504D01*
X116241877Y-96599647D01*
X116287558Y-96562158D01*
X116290299Y-96558818D01*
X116293041Y-96562159D01*
X116338722Y-96599648D01*
X116390839Y-96627505D01*
X116447390Y-96644660D01*
X116506200Y-96650452D01*
X116531200Y-96649000D01*
X116606200Y-96574000D01*
X116606200Y-95868000D01*
X116914200Y-95868000D01*
X116914200Y-96574000D01*
X116989200Y-96649000D01*
X117014200Y-96650452D01*
X117073010Y-96644660D01*
X117129561Y-96627505D01*
X117181678Y-96599648D01*
X117227359Y-96562159D01*
X117230100Y-96558819D01*
X117232841Y-96562159D01*
X117278522Y-96599648D01*
X117330639Y-96627505D01*
X117387190Y-96644660D01*
X117446000Y-96650452D01*
X117471000Y-96649000D01*
X117546000Y-96574000D01*
X117546000Y-95868000D01*
X117854000Y-95868000D01*
X117854000Y-96574000D01*
X117929000Y-96649000D01*
X117954000Y-96650452D01*
X118012810Y-96644660D01*
X118069361Y-96627505D01*
X118121478Y-96599648D01*
X118167159Y-96562159D01*
X118204648Y-96516478D01*
X118232505Y-96464361D01*
X118249660Y-96407810D01*
X118255452Y-96349000D01*
X118254000Y-95943000D01*
X118179000Y-95868000D01*
X117854000Y-95868000D01*
X117546000Y-95868000D01*
X116914200Y-95868000D01*
X116606200Y-95868000D01*
X116586200Y-95868000D01*
X116586200Y-95560000D01*
X116606200Y-95560000D01*
X116606200Y-94854000D01*
X116914200Y-94854000D01*
X116914200Y-95560000D01*
X117546000Y-95560000D01*
X117546000Y-94854000D01*
X117854000Y-94854000D01*
X117854000Y-95560000D01*
X118179000Y-95560000D01*
X118254000Y-95485000D01*
X118255452Y-95079000D01*
X118249660Y-95020190D01*
X118232505Y-94963639D01*
X118204648Y-94911522D01*
X118167159Y-94865841D01*
X118121478Y-94828352D01*
X118069361Y-94800495D01*
X118012810Y-94783340D01*
X117954000Y-94777548D01*
X117929000Y-94779000D01*
X117854000Y-94854000D01*
X117546000Y-94854000D01*
X117471000Y-94779000D01*
X117446000Y-94777548D01*
X117387190Y-94783340D01*
X117330639Y-94800495D01*
X117278522Y-94828352D01*
X117232841Y-94865841D01*
X117230100Y-94869181D01*
X117227359Y-94865841D01*
X117181678Y-94828352D01*
X117129561Y-94800495D01*
X117073010Y-94783340D01*
X117014200Y-94777548D01*
X116989200Y-94779000D01*
X116914200Y-94854000D01*
X116606200Y-94854000D01*
X116570906Y-94818706D01*
X116570464Y-94814224D01*
X116620164Y-94721243D01*
X116669911Y-94557248D01*
X116682500Y-94429432D01*
X116682500Y-94310950D01*
X116699352Y-94342478D01*
X116736841Y-94388159D01*
X116782522Y-94425648D01*
X116834639Y-94453505D01*
X116891190Y-94470660D01*
X116950000Y-94476452D01*
X117158500Y-94475000D01*
X117233500Y-94400000D01*
X117233500Y-93854000D01*
X117541500Y-93854000D01*
X117541500Y-94400000D01*
X117616500Y-94475000D01*
X117825000Y-94476452D01*
X117883810Y-94470660D01*
X117940361Y-94453505D01*
X117992478Y-94425648D01*
X118038159Y-94388159D01*
X118075648Y-94342478D01*
X118103505Y-94290361D01*
X118120660Y-94233810D01*
X118126452Y-94175000D01*
X118125000Y-93929000D01*
X118050000Y-93854000D01*
X117541500Y-93854000D01*
X117233500Y-93854000D01*
X117213500Y-93854000D01*
X117213500Y-93546000D01*
X117233500Y-93546000D01*
X117233500Y-93000000D01*
X117541500Y-93000000D01*
X117541500Y-93546000D01*
X118050000Y-93546000D01*
X118125000Y-93471000D01*
X118126452Y-93225000D01*
X118120660Y-93166190D01*
X118103505Y-93109639D01*
X118075648Y-93057522D01*
X118038159Y-93011841D01*
X117992478Y-92974352D01*
X117940361Y-92946495D01*
X117883810Y-92929340D01*
X117825000Y-92923548D01*
X117616500Y-92925000D01*
X117541500Y-93000000D01*
X117233500Y-93000000D01*
X117158500Y-92925000D01*
X116950000Y-92923548D01*
X116891190Y-92929340D01*
X116834639Y-92946495D01*
X116782522Y-92974352D01*
X116736841Y-93011841D01*
X116699352Y-93057522D01*
X116677500Y-93098404D01*
X116677500Y-92850000D01*
X122498548Y-92850000D01*
X122504340Y-92908810D01*
X122521495Y-92965361D01*
X122549352Y-93017478D01*
X122586841Y-93063159D01*
X122632522Y-93100648D01*
X122684639Y-93128505D01*
X122741190Y-93145660D01*
X122800000Y-93151452D01*
X124671000Y-93150000D01*
X124746000Y-93075000D01*
X124746000Y-92329000D01*
X122575000Y-92329000D01*
X122500000Y-92404000D01*
X122498548Y-92850000D01*
X116677500Y-92850000D01*
X116677500Y-92057266D01*
X116664911Y-91929450D01*
X116615164Y-91765455D01*
X116534378Y-91614316D01*
X116440562Y-91500000D01*
X122498548Y-91500000D01*
X122500000Y-91946000D01*
X122575000Y-92021000D01*
X124746000Y-92021000D01*
X124746000Y-91275000D01*
X124671000Y-91200000D01*
X122800000Y-91198548D01*
X122741190Y-91204340D01*
X122684639Y-91221495D01*
X122632522Y-91249352D01*
X122586841Y-91286841D01*
X122549352Y-91332522D01*
X122521495Y-91384639D01*
X122504340Y-91441190D01*
X122498548Y-91500000D01*
X116440562Y-91500000D01*
X116425659Y-91481841D01*
X116293183Y-91373122D01*
X116142044Y-91292336D01*
X115978049Y-91242589D01*
X115807500Y-91225791D01*
X115636950Y-91242589D01*
X115472955Y-91292336D01*
X115321816Y-91373122D01*
X115189341Y-91481841D01*
X115080622Y-91614317D01*
X115020000Y-91727732D01*
X114959378Y-91614316D01*
X114850659Y-91481841D01*
X114718184Y-91373122D01*
X114567045Y-91292336D01*
X114403050Y-91242589D01*
X114275234Y-91230000D01*
X111144766Y-91230000D01*
X111016950Y-91242589D01*
X110852955Y-91292336D01*
X110701816Y-91373122D01*
X110569341Y-91481841D01*
X110460622Y-91614316D01*
X110400000Y-91727731D01*
X110339378Y-91614316D01*
X110230659Y-91481841D01*
X110098184Y-91373122D01*
X109947045Y-91292336D01*
X109783050Y-91242589D01*
X109655234Y-91230000D01*
X108572788Y-91230000D01*
X108561277Y-91220553D01*
X108509160Y-91192696D01*
X108452610Y-91175541D01*
X108393800Y-91169749D01*
X107885800Y-91169749D01*
X107826990Y-91175541D01*
X107770440Y-91192696D01*
X107718323Y-91220553D01*
X107672642Y-91258042D01*
X107669901Y-91261382D01*
X107667159Y-91258041D01*
X107621478Y-91220552D01*
X107569361Y-91192695D01*
X107512810Y-91175540D01*
X107454000Y-91169748D01*
X107429000Y-91171200D01*
X107354000Y-91246200D01*
X107046000Y-91246200D01*
X106971000Y-91171200D01*
X106946000Y-91169748D01*
X106887190Y-91175540D01*
X106830639Y-91192695D01*
X106778522Y-91220552D01*
X106732841Y-91258041D01*
X106730099Y-91261382D01*
X106727358Y-91258042D01*
X106685200Y-91223444D01*
X106685200Y-89803480D01*
X106864729Y-89729116D01*
X107053082Y-89603263D01*
X107213263Y-89443082D01*
X107339116Y-89254729D01*
X107388710Y-89135000D01*
X107791290Y-89135000D01*
X107840884Y-89254729D01*
X107966737Y-89443082D01*
X108126918Y-89603263D01*
X108315271Y-89729116D01*
X108524557Y-89815806D01*
X108746735Y-89860000D01*
X108973265Y-89860000D01*
X109195443Y-89815806D01*
X109404729Y-89729116D01*
X109593082Y-89603263D01*
X109753263Y-89443082D01*
X109879116Y-89254729D01*
X109965806Y-89045443D01*
X109966812Y-89040385D01*
X110298472Y-89040385D01*
X110384092Y-89248934D01*
X110508753Y-89436772D01*
X110667664Y-89596681D01*
X110854719Y-89722515D01*
X111062728Y-89809439D01*
X111069617Y-89811520D01*
X111246000Y-89773912D01*
X111246000Y-88864000D01*
X111554000Y-88864000D01*
X111554000Y-89773912D01*
X111730383Y-89811520D01*
X111737272Y-89809439D01*
X111945281Y-89722515D01*
X112132336Y-89596681D01*
X112291247Y-89436772D01*
X112415908Y-89248934D01*
X112501528Y-89040385D01*
X112464650Y-88864000D01*
X111554000Y-88864000D01*
X111246000Y-88864000D01*
X110335350Y-88864000D01*
X110298472Y-89040385D01*
X109966812Y-89040385D01*
X110010000Y-88823265D01*
X110010000Y-88596735D01*
X109966813Y-88379615D01*
X110298472Y-88379615D01*
X110335350Y-88556000D01*
X111246000Y-88556000D01*
X111246000Y-87646088D01*
X111554000Y-87646088D01*
X111554000Y-88556000D01*
X112464650Y-88556000D01*
X112501528Y-88379615D01*
X112415908Y-88171066D01*
X112291247Y-87983228D01*
X112132336Y-87823319D01*
X111945281Y-87697485D01*
X111737272Y-87610561D01*
X111730383Y-87608480D01*
X111554000Y-87646088D01*
X111246000Y-87646088D01*
X111069617Y-87608480D01*
X111062728Y-87610561D01*
X110854719Y-87697485D01*
X110667664Y-87823319D01*
X110508753Y-87983228D01*
X110384092Y-88171066D01*
X110298472Y-88379615D01*
X109966813Y-88379615D01*
X109965806Y-88374557D01*
X109879116Y-88165271D01*
X109753263Y-87976918D01*
X109593082Y-87816737D01*
X109404729Y-87690884D01*
X109195443Y-87604194D01*
X108973265Y-87560000D01*
X108746735Y-87560000D01*
X108524557Y-87604194D01*
X108315271Y-87690884D01*
X108126918Y-87816737D01*
X107966737Y-87976918D01*
X107840884Y-88165271D01*
X107791290Y-88285000D01*
X107388710Y-88285000D01*
X107339116Y-88165271D01*
X107213263Y-87976918D01*
X107053082Y-87816737D01*
X106864729Y-87690884D01*
X106655443Y-87604194D01*
X106433265Y-87560000D01*
X106206735Y-87560000D01*
X105984557Y-87604194D01*
X105775271Y-87690884D01*
X105586918Y-87816737D01*
X105426737Y-87976918D01*
X105300884Y-88165271D01*
X105214194Y-88374557D01*
X105170000Y-88596735D01*
X104931451Y-88596735D01*
X104931451Y-87860000D01*
X104925659Y-87801190D01*
X104908504Y-87744640D01*
X104880647Y-87692523D01*
X104843158Y-87646842D01*
X104797477Y-87609353D01*
X104745360Y-87581496D01*
X104688810Y-87564341D01*
X104630000Y-87558549D01*
X102930000Y-87558549D01*
X102871190Y-87564341D01*
X102814640Y-87581496D01*
X102762523Y-87609353D01*
X102716842Y-87646842D01*
X102679353Y-87692523D01*
X102651496Y-87744640D01*
X102634341Y-87801190D01*
X102628549Y-87860000D01*
X100101191Y-87860000D01*
X100101191Y-87350000D01*
X126650000Y-87350000D01*
X126650000Y-91198820D01*
G37*
X126650000Y-91198820D02*
X125129000Y-91200000D01*
X125054000Y-91275000D01*
X125054000Y-92021000D01*
X125074000Y-92021000D01*
X125074000Y-92329000D01*
X125054000Y-92329000D01*
X125054000Y-93075000D01*
X125129000Y-93150000D01*
X126650000Y-93151180D01*
X126650001Y-94063549D01*
X123300000Y-94063549D01*
X123241190Y-94069341D01*
X123184640Y-94086496D01*
X123132523Y-94114353D01*
X123113457Y-94130000D01*
X122042723Y-94130000D01*
X121999999Y-94125792D01*
X121957275Y-94130000D01*
X121957266Y-94130000D01*
X121829450Y-94142589D01*
X121665455Y-94192336D01*
X121621404Y-94215882D01*
X121514315Y-94273122D01*
X121415034Y-94354600D01*
X121381841Y-94381841D01*
X121354602Y-94415032D01*
X118539635Y-97230000D01*
X118222006Y-97230000D01*
X118204647Y-97197523D01*
X118167158Y-97151842D01*
X118121477Y-97114353D01*
X118069360Y-97086496D01*
X118012810Y-97069341D01*
X117954000Y-97063549D01*
X117446000Y-97063549D01*
X117387190Y-97069341D01*
X117330640Y-97086496D01*
X117278523Y-97114353D01*
X117232842Y-97151842D01*
X117230101Y-97155182D01*
X117227359Y-97151841D01*
X117181678Y-97114352D01*
X117129561Y-97086495D01*
X117073010Y-97069340D01*
X117014200Y-97063548D01*
X116989200Y-97065000D01*
X116914200Y-97140000D01*
X116914200Y-97846000D01*
X116934200Y-97846000D01*
X116934200Y-98154000D01*
X116914200Y-98154000D01*
X116914200Y-98860000D01*
X116989200Y-98935000D01*
X117014200Y-98936452D01*
X117073010Y-98930660D01*
X117129561Y-98913505D01*
X117181678Y-98885648D01*
X117227359Y-98848159D01*
X117230101Y-98844818D01*
X117232842Y-98848158D01*
X117278523Y-98885647D01*
X117330640Y-98913504D01*
X117387190Y-98930659D01*
X117446000Y-98936451D01*
X117760354Y-98936451D01*
X117829450Y-98957411D01*
X117957266Y-98970000D01*
X118857276Y-98970000D01*
X118900000Y-98974208D01*
X118942724Y-98970000D01*
X118942734Y-98970000D01*
X119070550Y-98957411D01*
X119234545Y-98907664D01*
X119385684Y-98826878D01*
X119518159Y-98718159D01*
X119545403Y-98684962D01*
X119730365Y-98500000D01*
X122498548Y-98500000D01*
X122504340Y-98558810D01*
X122521495Y-98615361D01*
X122549352Y-98667478D01*
X122586841Y-98713159D01*
X122632522Y-98750648D01*
X122684639Y-98778505D01*
X122741190Y-98795660D01*
X122800000Y-98801452D01*
X124671000Y-98800000D01*
X124746000Y-98725000D01*
X124746000Y-97979000D01*
X122575000Y-97979000D01*
X122500000Y-98054000D01*
X122498548Y-98500000D01*
X119730365Y-98500000D01*
X121080365Y-97150000D01*
X122498548Y-97150000D01*
X122500000Y-97596000D01*
X122575000Y-97671000D01*
X124746000Y-97671000D01*
X124746000Y-96925000D01*
X124671000Y-96850000D01*
X122800000Y-96848548D01*
X122741190Y-96854340D01*
X122684639Y-96871495D01*
X122632522Y-96899352D01*
X122586841Y-96936841D01*
X122549352Y-96982522D01*
X122521495Y-97034639D01*
X122504340Y-97091190D01*
X122498548Y-97150000D01*
X121080365Y-97150000D01*
X122360366Y-95870000D01*
X123113457Y-95870000D01*
X123132523Y-95885647D01*
X123184640Y-95913504D01*
X123241190Y-95930659D01*
X123300000Y-95936451D01*
X126650001Y-95936451D01*
X126650001Y-96848820D01*
X125129000Y-96850000D01*
X125054000Y-96925000D01*
X125054000Y-97671000D01*
X125074000Y-97671000D01*
X125074000Y-97979000D01*
X125054000Y-97979000D01*
X125054000Y-98725000D01*
X125129000Y-98800000D01*
X126650001Y-98801180D01*
X126650001Y-100650000D01*
X97350000Y-100650000D01*
X97350000Y-98801180D01*
X98871000Y-98800000D01*
X98946000Y-98725000D01*
X98946000Y-97979000D01*
X99254000Y-97979000D01*
X99254000Y-98725000D01*
X99329000Y-98800000D01*
X101200000Y-98801452D01*
X101258810Y-98795660D01*
X101315361Y-98778505D01*
X101367478Y-98750648D01*
X101413159Y-98713159D01*
X101450648Y-98667478D01*
X101478505Y-98615361D01*
X101495660Y-98558810D01*
X101501452Y-98500000D01*
X101500000Y-98054000D01*
X101425000Y-97979000D01*
X99254000Y-97979000D01*
X98946000Y-97979000D01*
X98926000Y-97979000D01*
X98926000Y-97671000D01*
X98946000Y-97671000D01*
X98946000Y-96925000D01*
X99254000Y-96925000D01*
X99254000Y-97671000D01*
X101425000Y-97671000D01*
X101500000Y-97596000D01*
X101501452Y-97150000D01*
X101495660Y-97091190D01*
X101478505Y-97034639D01*
X101450648Y-96982522D01*
X101413159Y-96936841D01*
X101367478Y-96899352D01*
X101315361Y-96871495D01*
X101258810Y-96854340D01*
X101200000Y-96848548D01*
X99329000Y-96850000D01*
X99254000Y-96925000D01*
X98946000Y-96925000D01*
X98871000Y-96850000D01*
X97350000Y-96848820D01*
X97350000Y-95936451D01*
X100700000Y-95936451D01*
X100758810Y-95930659D01*
X100815360Y-95913504D01*
X100867477Y-95885647D01*
X100886543Y-95870000D01*
X101619636Y-95870000D01*
X104394603Y-98644968D01*
X104421842Y-98678159D01*
X104455033Y-98705398D01*
X104455035Y-98705400D01*
X104554317Y-98786878D01*
X104705455Y-98867664D01*
X104869451Y-98917411D01*
X105040001Y-98934209D01*
X105082735Y-98930000D01*
X115505418Y-98930000D01*
X115507590Y-98930659D01*
X115566400Y-98936451D01*
X116074400Y-98936451D01*
X116133210Y-98930659D01*
X116189760Y-98913504D01*
X116241877Y-98885647D01*
X116287558Y-98848158D01*
X116290299Y-98844818D01*
X116293041Y-98848159D01*
X116338722Y-98885648D01*
X116390839Y-98913505D01*
X116447390Y-98930660D01*
X116506200Y-98936452D01*
X116531200Y-98935000D01*
X116606200Y-98860000D01*
X116606200Y-98154000D01*
X116586200Y-98154000D01*
X116586200Y-97846000D01*
X116606200Y-97846000D01*
X116606200Y-97140000D01*
X116531200Y-97065000D01*
X116506200Y-97063548D01*
X116447390Y-97069340D01*
X116390839Y-97086495D01*
X116338722Y-97114352D01*
X116293041Y-97151841D01*
X116290299Y-97155182D01*
X116287558Y-97151842D01*
X116241877Y-97114353D01*
X116189760Y-97086496D01*
X116133210Y-97069341D01*
X116074400Y-97063549D01*
X115566400Y-97063549D01*
X115507590Y-97069341D01*
X115451040Y-97086496D01*
X115398923Y-97114353D01*
X115353242Y-97151842D01*
X115321927Y-97190000D01*
X105400367Y-97190000D01*
X102625404Y-94415038D01*
X102598160Y-94381841D01*
X102465685Y-94273122D01*
X102314546Y-94192336D01*
X102150551Y-94142589D01*
X102022735Y-94130000D01*
X102022725Y-94130000D01*
X101980001Y-94125792D01*
X101937277Y-94130000D01*
X100886543Y-94130000D01*
X100867477Y-94114353D01*
X100815360Y-94086496D01*
X100758810Y-94069341D01*
X100700000Y-94063549D01*
X97350000Y-94063549D01*
X97350000Y-93731056D01*
X104500000Y-93731056D01*
X104500000Y-93868944D01*
X104526901Y-94004182D01*
X104579668Y-94131574D01*
X104656274Y-94246224D01*
X104753776Y-94343726D01*
X104868426Y-94420332D01*
X104995818Y-94473099D01*
X105131056Y-94500000D01*
X105268944Y-94500000D01*
X105404182Y-94473099D01*
X105531574Y-94420332D01*
X105640467Y-94347573D01*
X105704749Y-94411855D01*
X105704749Y-95128800D01*
X105710541Y-95187610D01*
X105727696Y-95244160D01*
X105755553Y-95296277D01*
X105793042Y-95341958D01*
X105838723Y-95379447D01*
X105890840Y-95407304D01*
X105947390Y-95424459D01*
X106006200Y-95430251D01*
X106514200Y-95430251D01*
X106573010Y-95424459D01*
X106629560Y-95407304D01*
X106681677Y-95379447D01*
X106727358Y-95341958D01*
X106764847Y-95296277D01*
X106792704Y-95244160D01*
X106809859Y-95187610D01*
X106815651Y-95128800D01*
X106815651Y-93909600D01*
X107584349Y-93909600D01*
X107584349Y-95128800D01*
X107590141Y-95187610D01*
X107607296Y-95244160D01*
X107635153Y-95296277D01*
X107672642Y-95341958D01*
X107718323Y-95379447D01*
X107770440Y-95407304D01*
X107826990Y-95424459D01*
X107885800Y-95430251D01*
X108043146Y-95430251D01*
X108336575Y-95723681D01*
X108352236Y-95742764D01*
X108428371Y-95805246D01*
X108515233Y-95851675D01*
X108556441Y-95864175D01*
X108609482Y-95880265D01*
X108707499Y-95889919D01*
X108732059Y-95887500D01*
X109007072Y-95887500D01*
X109011219Y-95895258D01*
X109075912Y-95974088D01*
X109154742Y-96038781D01*
X109244678Y-96086853D01*
X109342264Y-96116455D01*
X109443750Y-96126451D01*
X109956250Y-96126451D01*
X110057736Y-96116455D01*
X110155322Y-96086853D01*
X110245258Y-96038781D01*
X110324088Y-95974088D01*
X110384889Y-95900000D01*
X110410050Y-95900000D01*
X110453776Y-95943726D01*
X110568426Y-96020332D01*
X110695818Y-96073099D01*
X110831056Y-96100000D01*
X110968944Y-96100000D01*
X111104182Y-96073099D01*
X111231574Y-96020332D01*
X111346224Y-95943726D01*
X111443726Y-95846224D01*
X111520332Y-95731574D01*
X111573099Y-95604182D01*
X111600000Y-95468944D01*
X111600000Y-95331056D01*
X111573099Y-95195818D01*
X111520332Y-95068426D01*
X111443726Y-94953776D01*
X111346224Y-94856274D01*
X111231574Y-94779668D01*
X111104182Y-94726901D01*
X110968944Y-94700000D01*
X110831056Y-94700000D01*
X110695818Y-94726901D01*
X110568426Y-94779668D01*
X110453776Y-94856274D01*
X110410050Y-94900000D01*
X110399609Y-94900000D01*
X110388781Y-94879742D01*
X110324088Y-94800912D01*
X110245258Y-94736219D01*
X110155322Y-94688147D01*
X110057736Y-94658545D01*
X109956250Y-94648549D01*
X109443750Y-94648549D01*
X109342264Y-94658545D01*
X109244678Y-94688147D01*
X109154742Y-94736219D01*
X109075912Y-94800912D01*
X109011219Y-94879742D01*
X109007072Y-94887500D01*
X108914606Y-94887500D01*
X108695251Y-94668146D01*
X108695251Y-94250000D01*
X108923548Y-94250000D01*
X108929340Y-94308810D01*
X108946495Y-94365361D01*
X108974352Y-94417478D01*
X109011841Y-94463159D01*
X109057522Y-94500648D01*
X109109639Y-94528505D01*
X109166190Y-94545660D01*
X109225000Y-94551452D01*
X109471000Y-94550000D01*
X109546000Y-94475000D01*
X109546000Y-93966500D01*
X109854000Y-93966500D01*
X109854000Y-94475000D01*
X109929000Y-94550000D01*
X110175000Y-94551452D01*
X110233810Y-94545660D01*
X110290361Y-94528505D01*
X110342478Y-94500648D01*
X110388159Y-94463159D01*
X110425648Y-94417478D01*
X110453505Y-94365361D01*
X110470660Y-94308810D01*
X110476452Y-94250000D01*
X110475582Y-94125000D01*
X111923548Y-94125000D01*
X111929340Y-94183810D01*
X111946495Y-94240361D01*
X111974352Y-94292478D01*
X112011841Y-94338159D01*
X112057522Y-94375648D01*
X112109639Y-94403505D01*
X112166190Y-94420660D01*
X112225000Y-94426452D01*
X112471000Y-94425000D01*
X112546000Y-94350000D01*
X112546000Y-93841500D01*
X112854000Y-93841500D01*
X112854000Y-94350000D01*
X112929000Y-94425000D01*
X113175000Y-94426452D01*
X113233810Y-94420660D01*
X113290361Y-94403505D01*
X113342478Y-94375648D01*
X113388159Y-94338159D01*
X113425648Y-94292478D01*
X113453505Y-94240361D01*
X113470660Y-94183810D01*
X113476452Y-94125000D01*
X113475000Y-93916500D01*
X113400000Y-93841500D01*
X112854000Y-93841500D01*
X112546000Y-93841500D01*
X112000000Y-93841500D01*
X111925000Y-93916500D01*
X111923548Y-94125000D01*
X110475582Y-94125000D01*
X110475000Y-94041500D01*
X110400000Y-93966500D01*
X109854000Y-93966500D01*
X109546000Y-93966500D01*
X109000000Y-93966500D01*
X108925000Y-94041500D01*
X108923548Y-94250000D01*
X108695251Y-94250000D01*
X108695251Y-93909600D01*
X108689459Y-93850790D01*
X108672304Y-93794240D01*
X108644447Y-93742123D01*
X108606958Y-93696442D01*
X108561277Y-93658953D01*
X108509160Y-93631096D01*
X108452610Y-93613941D01*
X108393800Y-93608149D01*
X107885800Y-93608149D01*
X107826990Y-93613941D01*
X107770440Y-93631096D01*
X107718323Y-93658953D01*
X107672642Y-93696442D01*
X107635153Y-93742123D01*
X107607296Y-93794240D01*
X107590141Y-93850790D01*
X107584349Y-93909600D01*
X106815651Y-93909600D01*
X106809859Y-93850790D01*
X106792704Y-93794240D01*
X106764847Y-93742123D01*
X106727358Y-93696442D01*
X106681677Y-93658953D01*
X106629560Y-93631096D01*
X106573010Y-93613941D01*
X106514200Y-93608149D01*
X106315254Y-93608149D01*
X106170929Y-93463824D01*
X106155264Y-93444736D01*
X106079129Y-93382254D01*
X106065558Y-93375000D01*
X108923548Y-93375000D01*
X108925000Y-93583500D01*
X109000000Y-93658500D01*
X109546000Y-93658500D01*
X109546000Y-93150000D01*
X109854000Y-93150000D01*
X109854000Y-93658500D01*
X110400000Y-93658500D01*
X110475000Y-93583500D01*
X110476452Y-93375000D01*
X110470660Y-93316190D01*
X110453505Y-93259639D01*
X110425648Y-93207522D01*
X110388159Y-93161841D01*
X110342478Y-93124352D01*
X110290361Y-93096495D01*
X110233810Y-93079340D01*
X110175000Y-93073548D01*
X109929000Y-93075000D01*
X109854000Y-93150000D01*
X109546000Y-93150000D01*
X109471000Y-93075000D01*
X109225000Y-93073548D01*
X109166190Y-93079340D01*
X109109639Y-93096495D01*
X109057522Y-93124352D01*
X109011841Y-93161841D01*
X108974352Y-93207522D01*
X108946495Y-93259639D01*
X108929340Y-93316190D01*
X108923548Y-93375000D01*
X106065558Y-93375000D01*
X105992267Y-93335825D01*
X105898017Y-93307235D01*
X105824560Y-93300000D01*
X105800000Y-93297581D01*
X105775440Y-93300000D01*
X105689950Y-93300000D01*
X105646224Y-93256274D01*
X105531574Y-93179668D01*
X105404182Y-93126901D01*
X105268944Y-93100000D01*
X105131056Y-93100000D01*
X104995818Y-93126901D01*
X104868426Y-93179668D01*
X104753776Y-93256274D01*
X104656274Y-93353776D01*
X104579668Y-93468426D01*
X104526901Y-93595818D01*
X104500000Y-93731056D01*
X97350000Y-93731056D01*
X97350000Y-93151180D01*
X98871000Y-93150000D01*
X98946000Y-93075000D01*
X98946000Y-92329000D01*
X99254000Y-92329000D01*
X99254000Y-93075000D01*
X99329000Y-93150000D01*
X101200000Y-93151452D01*
X101258810Y-93145660D01*
X101315361Y-93128505D01*
X101367478Y-93100648D01*
X101413159Y-93063159D01*
X101450648Y-93017478D01*
X101478505Y-92965361D01*
X101495660Y-92908810D01*
X101501452Y-92850000D01*
X101500000Y-92404000D01*
X101425000Y-92329000D01*
X99254000Y-92329000D01*
X98946000Y-92329000D01*
X98926000Y-92329000D01*
X98926000Y-92021000D01*
X98946000Y-92021000D01*
X98946000Y-91275000D01*
X99254000Y-91275000D01*
X99254000Y-92021000D01*
X101425000Y-92021000D01*
X101500000Y-91946000D01*
X101501452Y-91500000D01*
X101495660Y-91441190D01*
X101478505Y-91384639D01*
X101450648Y-91332522D01*
X101413159Y-91286841D01*
X101367478Y-91249352D01*
X101315361Y-91221495D01*
X101258810Y-91204340D01*
X101200000Y-91198548D01*
X99329000Y-91200000D01*
X99254000Y-91275000D01*
X98946000Y-91275000D01*
X98871000Y-91200000D01*
X97350000Y-91198820D01*
X97350000Y-89667500D01*
X100101191Y-89667500D01*
X100101191Y-87860000D01*
X102628549Y-87860000D01*
X102628549Y-89560000D01*
X102634341Y-89618810D01*
X102651496Y-89675360D01*
X102679353Y-89727477D01*
X102716842Y-89773158D01*
X102762523Y-89810647D01*
X102814640Y-89838504D01*
X102871190Y-89855659D01*
X102930000Y-89861451D01*
X104630000Y-89861451D01*
X104688810Y-89855659D01*
X104745360Y-89838504D01*
X104797477Y-89810647D01*
X104843158Y-89773158D01*
X104880647Y-89727477D01*
X104908504Y-89675360D01*
X104925659Y-89618810D01*
X104931451Y-89560000D01*
X104931451Y-88596735D01*
X105170000Y-88596735D01*
X105170000Y-88823265D01*
X105214194Y-89045443D01*
X105300884Y-89254729D01*
X105426737Y-89443082D01*
X105586918Y-89603263D01*
X105775271Y-89729116D01*
X105835201Y-89753940D01*
X105835200Y-91223444D01*
X105793042Y-91258042D01*
X105755553Y-91303723D01*
X105727696Y-91355840D01*
X105710541Y-91412390D01*
X105704749Y-91471200D01*
X105704749Y-92690400D01*
X105710541Y-92749210D01*
X105727696Y-92805760D01*
X105755553Y-92857877D01*
X105793042Y-92903558D01*
X105838723Y-92941047D01*
X105890840Y-92968904D01*
X105947390Y-92986059D01*
X106006200Y-92991851D01*
X106514200Y-92991851D01*
X106573010Y-92986059D01*
X106629560Y-92968904D01*
X106681677Y-92941047D01*
X106727358Y-92903558D01*
X106730099Y-92900218D01*
X106732841Y-92903559D01*
X106778522Y-92941048D01*
X106830639Y-92968905D01*
X106887190Y-92986060D01*
X106946000Y-92991852D01*
X106971000Y-92990400D01*
X107046000Y-92915400D01*
X107046000Y-92234800D01*
X107026000Y-92234800D01*
X107026000Y-91926800D01*
X107046000Y-91926800D01*
X107046000Y-91246200D01*
X107354000Y-91246200D01*
X107354000Y-91926800D01*
X107374000Y-91926800D01*
X107374000Y-92234800D01*
X107354000Y-92234800D01*
X107354000Y-92915400D01*
X107429000Y-92990400D01*
X107454000Y-92991852D01*
X107512810Y-92986060D01*
X107569361Y-92968905D01*
X107621478Y-92941048D01*
X107667159Y-92903559D01*
X107669901Y-92900218D01*
X107672642Y-92903558D01*
X107718323Y-92941047D01*
X107770440Y-92968904D01*
X107826990Y-92986059D01*
X107885800Y-92991851D01*
X108393800Y-92991851D01*
X108452610Y-92986059D01*
X108505547Y-92970000D01*
X109655234Y-92970000D01*
X109783050Y-92957411D01*
X109947045Y-92907664D01*
X110098184Y-92826878D01*
X110230659Y-92718159D01*
X110339378Y-92585684D01*
X110400000Y-92472269D01*
X110460622Y-92585684D01*
X110569341Y-92718159D01*
X110701816Y-92826878D01*
X110852955Y-92907664D01*
X111016950Y-92957411D01*
X111144766Y-92970000D01*
X112114567Y-92970000D01*
X112109639Y-92971495D01*
X112057522Y-92999352D01*
X112011841Y-93036841D01*
X111974352Y-93082522D01*
X111946495Y-93134639D01*
X111929340Y-93191190D01*
X111923548Y-93250000D01*
X111925000Y-93458500D01*
X112000000Y-93533500D01*
X112546000Y-93533500D01*
X112546000Y-93513500D01*
X112854000Y-93513500D01*
X112854000Y-93533500D01*
X113400000Y-93533500D01*
X113475000Y-93458500D01*
X113476452Y-93250000D01*
X113470660Y-93191190D01*
X113453505Y-93134639D01*
X113425648Y-93082522D01*
X113388159Y-93036841D01*
X113342478Y-92999352D01*
X113290361Y-92971495D01*
X113285433Y-92970000D01*
X114275234Y-92970000D01*
X114403050Y-92957411D01*
X114567045Y-92907664D01*
X114718184Y-92826878D01*
X114850659Y-92718159D01*
X114937500Y-92612342D01*
X114937501Y-93737734D01*
X114942500Y-93788489D01*
X114942500Y-94429432D01*
X114955089Y-94557248D01*
X114970180Y-94606995D01*
X115004836Y-94721242D01*
X115060550Y-94825474D01*
X115058873Y-94842500D01*
X115062500Y-94879327D01*
X115062500Y-94879335D01*
X115073353Y-94989526D01*
X115076531Y-95000001D01*
X115116239Y-95130900D01*
X115137432Y-95170549D01*
X115185882Y-95261193D01*
X115214675Y-95296277D01*
X115220400Y-95303253D01*
X115220400Y-95743473D01*
X115229082Y-95831620D01*
X115263390Y-95944720D01*
X115264949Y-95947637D01*
X115264949Y-96349000D01*
X115270741Y-96407810D01*
X115287896Y-96464360D01*
X115315753Y-96516477D01*
X115353242Y-96562158D01*
X115398923Y-96599647D01*
X115451040Y-96627504D01*
X115507590Y-96644659D01*
X115566400Y-96650451D01*
X116074400Y-96650451D01*
X116133210Y-96644659D01*
X116189760Y-96627504D01*
X116241877Y-96599647D01*
X116287558Y-96562158D01*
X116290299Y-96558818D01*
X116293041Y-96562159D01*
X116338722Y-96599648D01*
X116390839Y-96627505D01*
X116447390Y-96644660D01*
X116506200Y-96650452D01*
X116531200Y-96649000D01*
X116606200Y-96574000D01*
X116606200Y-95868000D01*
X116914200Y-95868000D01*
X116914200Y-96574000D01*
X116989200Y-96649000D01*
X117014200Y-96650452D01*
X117073010Y-96644660D01*
X117129561Y-96627505D01*
X117181678Y-96599648D01*
X117227359Y-96562159D01*
X117230100Y-96558819D01*
X117232841Y-96562159D01*
X117278522Y-96599648D01*
X117330639Y-96627505D01*
X117387190Y-96644660D01*
X117446000Y-96650452D01*
X117471000Y-96649000D01*
X117546000Y-96574000D01*
X117546000Y-95868000D01*
X117854000Y-95868000D01*
X117854000Y-96574000D01*
X117929000Y-96649000D01*
X117954000Y-96650452D01*
X118012810Y-96644660D01*
X118069361Y-96627505D01*
X118121478Y-96599648D01*
X118167159Y-96562159D01*
X118204648Y-96516478D01*
X118232505Y-96464361D01*
X118249660Y-96407810D01*
X118255452Y-96349000D01*
X118254000Y-95943000D01*
X118179000Y-95868000D01*
X117854000Y-95868000D01*
X117546000Y-95868000D01*
X116914200Y-95868000D01*
X116606200Y-95868000D01*
X116586200Y-95868000D01*
X116586200Y-95560000D01*
X116606200Y-95560000D01*
X116606200Y-94854000D01*
X116914200Y-94854000D01*
X116914200Y-95560000D01*
X117546000Y-95560000D01*
X117546000Y-94854000D01*
X117854000Y-94854000D01*
X117854000Y-95560000D01*
X118179000Y-95560000D01*
X118254000Y-95485000D01*
X118255452Y-95079000D01*
X118249660Y-95020190D01*
X118232505Y-94963639D01*
X118204648Y-94911522D01*
X118167159Y-94865841D01*
X118121478Y-94828352D01*
X118069361Y-94800495D01*
X118012810Y-94783340D01*
X117954000Y-94777548D01*
X117929000Y-94779000D01*
X117854000Y-94854000D01*
X117546000Y-94854000D01*
X117471000Y-94779000D01*
X117446000Y-94777548D01*
X117387190Y-94783340D01*
X117330639Y-94800495D01*
X117278522Y-94828352D01*
X117232841Y-94865841D01*
X117230100Y-94869181D01*
X117227359Y-94865841D01*
X117181678Y-94828352D01*
X117129561Y-94800495D01*
X117073010Y-94783340D01*
X117014200Y-94777548D01*
X116989200Y-94779000D01*
X116914200Y-94854000D01*
X116606200Y-94854000D01*
X116570906Y-94818706D01*
X116570464Y-94814224D01*
X116620164Y-94721243D01*
X116669911Y-94557248D01*
X116682500Y-94429432D01*
X116682500Y-94310950D01*
X116699352Y-94342478D01*
X116736841Y-94388159D01*
X116782522Y-94425648D01*
X116834639Y-94453505D01*
X116891190Y-94470660D01*
X116950000Y-94476452D01*
X117158500Y-94475000D01*
X117233500Y-94400000D01*
X117233500Y-93854000D01*
X117541500Y-93854000D01*
X117541500Y-94400000D01*
X117616500Y-94475000D01*
X117825000Y-94476452D01*
X117883810Y-94470660D01*
X117940361Y-94453505D01*
X117992478Y-94425648D01*
X118038159Y-94388159D01*
X118075648Y-94342478D01*
X118103505Y-94290361D01*
X118120660Y-94233810D01*
X118126452Y-94175000D01*
X118125000Y-93929000D01*
X118050000Y-93854000D01*
X117541500Y-93854000D01*
X117233500Y-93854000D01*
X117213500Y-93854000D01*
X117213500Y-93546000D01*
X117233500Y-93546000D01*
X117233500Y-93000000D01*
X117541500Y-93000000D01*
X117541500Y-93546000D01*
X118050000Y-93546000D01*
X118125000Y-93471000D01*
X118126452Y-93225000D01*
X118120660Y-93166190D01*
X118103505Y-93109639D01*
X118075648Y-93057522D01*
X118038159Y-93011841D01*
X117992478Y-92974352D01*
X117940361Y-92946495D01*
X117883810Y-92929340D01*
X117825000Y-92923548D01*
X117616500Y-92925000D01*
X117541500Y-93000000D01*
X117233500Y-93000000D01*
X117158500Y-92925000D01*
X116950000Y-92923548D01*
X116891190Y-92929340D01*
X116834639Y-92946495D01*
X116782522Y-92974352D01*
X116736841Y-93011841D01*
X116699352Y-93057522D01*
X116677500Y-93098404D01*
X116677500Y-92850000D01*
X122498548Y-92850000D01*
X122504340Y-92908810D01*
X122521495Y-92965361D01*
X122549352Y-93017478D01*
X122586841Y-93063159D01*
X122632522Y-93100648D01*
X122684639Y-93128505D01*
X122741190Y-93145660D01*
X122800000Y-93151452D01*
X124671000Y-93150000D01*
X124746000Y-93075000D01*
X124746000Y-92329000D01*
X122575000Y-92329000D01*
X122500000Y-92404000D01*
X122498548Y-92850000D01*
X116677500Y-92850000D01*
X116677500Y-92057266D01*
X116664911Y-91929450D01*
X116615164Y-91765455D01*
X116534378Y-91614316D01*
X116440562Y-91500000D01*
X122498548Y-91500000D01*
X122500000Y-91946000D01*
X122575000Y-92021000D01*
X124746000Y-92021000D01*
X124746000Y-91275000D01*
X124671000Y-91200000D01*
X122800000Y-91198548D01*
X122741190Y-91204340D01*
X122684639Y-91221495D01*
X122632522Y-91249352D01*
X122586841Y-91286841D01*
X122549352Y-91332522D01*
X122521495Y-91384639D01*
X122504340Y-91441190D01*
X122498548Y-91500000D01*
X116440562Y-91500000D01*
X116425659Y-91481841D01*
X116293183Y-91373122D01*
X116142044Y-91292336D01*
X115978049Y-91242589D01*
X115807500Y-91225791D01*
X115636950Y-91242589D01*
X115472955Y-91292336D01*
X115321816Y-91373122D01*
X115189341Y-91481841D01*
X115080622Y-91614317D01*
X115020000Y-91727732D01*
X114959378Y-91614316D01*
X114850659Y-91481841D01*
X114718184Y-91373122D01*
X114567045Y-91292336D01*
X114403050Y-91242589D01*
X114275234Y-91230000D01*
X111144766Y-91230000D01*
X111016950Y-91242589D01*
X110852955Y-91292336D01*
X110701816Y-91373122D01*
X110569341Y-91481841D01*
X110460622Y-91614316D01*
X110400000Y-91727731D01*
X110339378Y-91614316D01*
X110230659Y-91481841D01*
X110098184Y-91373122D01*
X109947045Y-91292336D01*
X109783050Y-91242589D01*
X109655234Y-91230000D01*
X108572788Y-91230000D01*
X108561277Y-91220553D01*
X108509160Y-91192696D01*
X108452610Y-91175541D01*
X108393800Y-91169749D01*
X107885800Y-91169749D01*
X107826990Y-91175541D01*
X107770440Y-91192696D01*
X107718323Y-91220553D01*
X107672642Y-91258042D01*
X107669901Y-91261382D01*
X107667159Y-91258041D01*
X107621478Y-91220552D01*
X107569361Y-91192695D01*
X107512810Y-91175540D01*
X107454000Y-91169748D01*
X107429000Y-91171200D01*
X107354000Y-91246200D01*
X107046000Y-91246200D01*
X106971000Y-91171200D01*
X106946000Y-91169748D01*
X106887190Y-91175540D01*
X106830639Y-91192695D01*
X106778522Y-91220552D01*
X106732841Y-91258041D01*
X106730099Y-91261382D01*
X106727358Y-91258042D01*
X106685200Y-91223444D01*
X106685200Y-89803480D01*
X106864729Y-89729116D01*
X107053082Y-89603263D01*
X107213263Y-89443082D01*
X107339116Y-89254729D01*
X107388710Y-89135000D01*
X107791290Y-89135000D01*
X107840884Y-89254729D01*
X107966737Y-89443082D01*
X108126918Y-89603263D01*
X108315271Y-89729116D01*
X108524557Y-89815806D01*
X108746735Y-89860000D01*
X108973265Y-89860000D01*
X109195443Y-89815806D01*
X109404729Y-89729116D01*
X109593082Y-89603263D01*
X109753263Y-89443082D01*
X109879116Y-89254729D01*
X109965806Y-89045443D01*
X109966812Y-89040385D01*
X110298472Y-89040385D01*
X110384092Y-89248934D01*
X110508753Y-89436772D01*
X110667664Y-89596681D01*
X110854719Y-89722515D01*
X111062728Y-89809439D01*
X111069617Y-89811520D01*
X111246000Y-89773912D01*
X111246000Y-88864000D01*
X111554000Y-88864000D01*
X111554000Y-89773912D01*
X111730383Y-89811520D01*
X111737272Y-89809439D01*
X111945281Y-89722515D01*
X112132336Y-89596681D01*
X112291247Y-89436772D01*
X112415908Y-89248934D01*
X112501528Y-89040385D01*
X112464650Y-88864000D01*
X111554000Y-88864000D01*
X111246000Y-88864000D01*
X110335350Y-88864000D01*
X110298472Y-89040385D01*
X109966812Y-89040385D01*
X110010000Y-88823265D01*
X110010000Y-88596735D01*
X109966813Y-88379615D01*
X110298472Y-88379615D01*
X110335350Y-88556000D01*
X111246000Y-88556000D01*
X111246000Y-87646088D01*
X111554000Y-87646088D01*
X111554000Y-88556000D01*
X112464650Y-88556000D01*
X112501528Y-88379615D01*
X112415908Y-88171066D01*
X112291247Y-87983228D01*
X112132336Y-87823319D01*
X111945281Y-87697485D01*
X111737272Y-87610561D01*
X111730383Y-87608480D01*
X111554000Y-87646088D01*
X111246000Y-87646088D01*
X111069617Y-87608480D01*
X111062728Y-87610561D01*
X110854719Y-87697485D01*
X110667664Y-87823319D01*
X110508753Y-87983228D01*
X110384092Y-88171066D01*
X110298472Y-88379615D01*
X109966813Y-88379615D01*
X109965806Y-88374557D01*
X109879116Y-88165271D01*
X109753263Y-87976918D01*
X109593082Y-87816737D01*
X109404729Y-87690884D01*
X109195443Y-87604194D01*
X108973265Y-87560000D01*
X108746735Y-87560000D01*
X108524557Y-87604194D01*
X108315271Y-87690884D01*
X108126918Y-87816737D01*
X107966737Y-87976918D01*
X107840884Y-88165271D01*
X107791290Y-88285000D01*
X107388710Y-88285000D01*
X107339116Y-88165271D01*
X107213263Y-87976918D01*
X107053082Y-87816737D01*
X106864729Y-87690884D01*
X106655443Y-87604194D01*
X106433265Y-87560000D01*
X106206735Y-87560000D01*
X105984557Y-87604194D01*
X105775271Y-87690884D01*
X105586918Y-87816737D01*
X105426737Y-87976918D01*
X105300884Y-88165271D01*
X105214194Y-88374557D01*
X105170000Y-88596735D01*
X104931451Y-88596735D01*
X104931451Y-87860000D01*
X104925659Y-87801190D01*
X104908504Y-87744640D01*
X104880647Y-87692523D01*
X104843158Y-87646842D01*
X104797477Y-87609353D01*
X104745360Y-87581496D01*
X104688810Y-87564341D01*
X104630000Y-87558549D01*
X102930000Y-87558549D01*
X102871190Y-87564341D01*
X102814640Y-87581496D01*
X102762523Y-87609353D01*
X102716842Y-87646842D01*
X102679353Y-87692523D01*
X102651496Y-87744640D01*
X102634341Y-87801190D01*
X102628549Y-87860000D01*
X100101191Y-87860000D01*
X100101191Y-87350000D01*
X126650000Y-87350000D01*
X126650000Y-91198820D01*
G04 #@! TD*
M02*
