M48
INCH,TZ
T1C0.0157
T2C0.0394
%
G90
G05
T1
X38520Y-37949
X38531Y-36858
X38543Y-35709
X38555Y-39098
X39016Y-35709
X39016Y-36846
X39031Y-39083
X39051Y-37953
X39472Y-36846
X39484Y-37937
X39528Y-35709
X39594Y-39087
X39913Y-37886
X39925Y-36917
X39961Y-34567
X40000Y-35787
X40126Y-38953
X40157Y-36260
X40157Y-38504
X40201Y-38126
X40429Y-36980
X40575Y-38500
X40630Y-39291
X40760Y-37331
X40894Y-38811
X41098Y-37665
X41339Y-35709
X41346Y-39098
X41417Y-36929
X41457Y-38024
X41902Y-39106
X41965Y-38138
X42201Y-35740
X42205Y-36811
X42535Y-39094
X42583Y-35732
X42594Y-38134
X43150Y-39094
X43197Y-38138
X43469Y-35740
X43661Y-37559
X43768Y-39098
X43827Y-36854
X43894Y-38134
X43996Y-35732
X44319Y-39091
X44382Y-37402
X44484Y-35732
X44594Y-38130
X44843Y-34724
X44846Y-39091
X45016Y-35752
X45079Y-37276
X45083Y-36776
X45228Y-38110
X45358Y-39094
X45457Y-35748
X45949Y-35843
X45965Y-38130
X45972Y-39094
X46209Y-36350
X46535Y-35039
X46587Y-39102
X46697Y-38067
X46736Y-36898
X47008Y-34685
X47047Y-35866
X47071Y-39020
X47122Y-37626
X47469Y-38642
X47516Y-37228
X47638Y-39331
X47811Y-38307
X48004Y-36256
X48035Y-36909
X48071Y-38504
X48110Y-37992
X48110Y-38976
X48150Y-35709
X48543Y-34921
X48583Y-39055
X48626Y-37965
X48638Y-36854
X48657Y-35650
X49154Y-39055
X49169Y-35650
X49169Y-37945
X49173Y-36850
X49646Y-39055
X49650Y-35638
X49650Y-36846
X49650Y-37949
X49685Y-34606
T2
X40858Y-34925
X41858Y-34925
X42858Y-34925
X43858Y-34925
T0
M30
