G04 #@! TF.GenerationSoftware,KiCad,Pcbnew,5.1.6-c6e7f7d~86~ubuntu18.04.1*
G04 #@! TF.CreationDate,2020-07-08T22:54:29-04:00*
G04 #@! TF.ProjectId,rf-detector,72662d64-6574-4656-9374-6f722e6b6963,rev?*
G04 #@! TF.SameCoordinates,Original*
G04 #@! TF.FileFunction,Soldermask,Top*
G04 #@! TF.FilePolarity,Negative*
%FSLAX46Y46*%
G04 Gerber Fmt 4.6, Leading zero omitted, Abs format (unit mm)*
G04 Created by KiCad (PCBNEW 5.1.6-c6e7f7d~86~ubuntu18.04.1) date 2020-07-08 22:54:29*
%MOMM*%
%LPD*%
G01*
G04 APERTURE LIST*
%ADD10C,0.100000*%
%ADD11R,0.608000X1.319200*%
%ADD12R,1.800000X1.800000*%
%ADD13O,1.800000X1.800000*%
%ADD14R,0.608000X1.370000*%
%ADD15R,4.300000X1.450000*%
%ADD16R,3.700000X1.370000*%
G04 APERTURE END LIST*
D10*
G36*
X99950000Y-89517000D02*
G01*
X97300000Y-89517000D01*
X97300000Y-87307000D01*
X99950000Y-87307000D01*
X99950000Y-89517000D01*
G37*
X99950000Y-89517000D02*
X97300000Y-89517000D01*
X97300000Y-87307000D01*
X99950000Y-87307000D01*
X99950000Y-89517000D01*
G36*
X122800000Y-96500000D02*
G01*
X122600000Y-96500000D01*
X119500000Y-99600000D01*
X118400000Y-99600000D01*
X118400000Y-96700000D01*
X121600000Y-93500000D01*
X122800000Y-93500000D01*
X122800000Y-96500000D01*
G37*
X122800000Y-96500000D02*
X122600000Y-96500000D01*
X119500000Y-99600000D01*
X118400000Y-99600000D01*
X118400000Y-96700000D01*
X121600000Y-93500000D01*
X122800000Y-93500000D01*
X122800000Y-96500000D01*
G36*
X105800000Y-96600000D02*
G01*
X105400000Y-99600000D01*
X104700000Y-99600000D01*
X104600000Y-99500000D01*
X102000000Y-97100000D01*
X101400000Y-96500000D01*
X101200000Y-96500000D01*
X101200000Y-93500000D01*
X102600000Y-93500000D01*
X105800000Y-96600000D01*
G37*
X105800000Y-96600000D02*
X105400000Y-99600000D01*
X104700000Y-99600000D01*
X104600000Y-99500000D01*
X102000000Y-97100000D01*
X101400000Y-96500000D01*
X101200000Y-96500000D01*
X101200000Y-93500000D01*
X102600000Y-93500000D01*
X105800000Y-96600000D01*
G36*
X115100000Y-99600000D02*
G01*
X105400000Y-99600000D01*
X105400000Y-96600000D01*
X115100000Y-96600000D01*
X115100000Y-99600000D01*
G37*
X115100000Y-99600000D02*
X105400000Y-99600000D01*
X105400000Y-96600000D01*
X115100000Y-96600000D01*
X115100000Y-99600000D01*
G04 #@! TO.C,C2*
G36*
G01*
X109418750Y-93325000D02*
X109981250Y-93325000D01*
G75*
G02*
X110225000Y-93568750I0J-243750D01*
G01*
X110225000Y-94056250D01*
G75*
G02*
X109981250Y-94300000I-243750J0D01*
G01*
X109418750Y-94300000D01*
G75*
G02*
X109175000Y-94056250I0J243750D01*
G01*
X109175000Y-93568750D01*
G75*
G02*
X109418750Y-93325000I243750J0D01*
G01*
G37*
G36*
G01*
X109418750Y-94900000D02*
X109981250Y-94900000D01*
G75*
G02*
X110225000Y-95143750I0J-243750D01*
G01*
X110225000Y-95631250D01*
G75*
G02*
X109981250Y-95875000I-243750J0D01*
G01*
X109418750Y-95875000D01*
G75*
G02*
X109175000Y-95631250I0J243750D01*
G01*
X109175000Y-95143750D01*
G75*
G02*
X109418750Y-94900000I243750J0D01*
G01*
G37*
G04 #@! TD*
D11*
G04 #@! TO.C,U2*
X108139800Y-92080800D03*
X107200000Y-92080800D03*
X106260200Y-92080800D03*
X106260200Y-94519200D03*
X108139800Y-94519200D03*
G04 #@! TD*
D12*
G04 #@! TO.C,J3*
X103780000Y-88710000D03*
D13*
X106320000Y-88710000D03*
X108860000Y-88710000D03*
X111400000Y-88710000D03*
G04 #@! TD*
G04 #@! TO.C,C1*
G36*
G01*
X109125000Y-92381250D02*
X109125000Y-91818750D01*
G75*
G02*
X109368750Y-91575000I243750J0D01*
G01*
X109856250Y-91575000D01*
G75*
G02*
X110100000Y-91818750I0J-243750D01*
G01*
X110100000Y-92381250D01*
G75*
G02*
X109856250Y-92625000I-243750J0D01*
G01*
X109368750Y-92625000D01*
G75*
G02*
X109125000Y-92381250I0J243750D01*
G01*
G37*
G36*
G01*
X110700000Y-92381250D02*
X110700000Y-91818750D01*
G75*
G02*
X110943750Y-91575000I243750J0D01*
G01*
X111431250Y-91575000D01*
G75*
G02*
X111675000Y-91818750I0J-243750D01*
G01*
X111675000Y-92381250D01*
G75*
G02*
X111431250Y-92625000I-243750J0D01*
G01*
X110943750Y-92625000D01*
G75*
G02*
X110700000Y-92381250I0J243750D01*
G01*
G37*
G04 #@! TD*
G04 #@! TO.C,R1*
G36*
G01*
X115325000Y-93981250D02*
X115325000Y-93418750D01*
G75*
G02*
X115568750Y-93175000I243750J0D01*
G01*
X116056250Y-93175000D01*
G75*
G02*
X116300000Y-93418750I0J-243750D01*
G01*
X116300000Y-93981250D01*
G75*
G02*
X116056250Y-94225000I-243750J0D01*
G01*
X115568750Y-94225000D01*
G75*
G02*
X115325000Y-93981250I0J243750D01*
G01*
G37*
G36*
G01*
X116900000Y-93981250D02*
X116900000Y-93418750D01*
G75*
G02*
X117143750Y-93175000I243750J0D01*
G01*
X117631250Y-93175000D01*
G75*
G02*
X117875000Y-93418750I0J-243750D01*
G01*
X117875000Y-93981250D01*
G75*
G02*
X117631250Y-94225000I-243750J0D01*
G01*
X117143750Y-94225000D01*
G75*
G02*
X116900000Y-93981250I0J243750D01*
G01*
G37*
G04 #@! TD*
G04 #@! TO.C,R3*
G36*
G01*
X113745000Y-92381250D02*
X113745000Y-91818750D01*
G75*
G02*
X113988750Y-91575000I243750J0D01*
G01*
X114476250Y-91575000D01*
G75*
G02*
X114720000Y-91818750I0J-243750D01*
G01*
X114720000Y-92381250D01*
G75*
G02*
X114476250Y-92625000I-243750J0D01*
G01*
X113988750Y-92625000D01*
G75*
G02*
X113745000Y-92381250I0J243750D01*
G01*
G37*
G36*
G01*
X115320000Y-92381250D02*
X115320000Y-91818750D01*
G75*
G02*
X115563750Y-91575000I243750J0D01*
G01*
X116051250Y-91575000D01*
G75*
G02*
X116295000Y-91818750I0J-243750D01*
G01*
X116295000Y-92381250D01*
G75*
G02*
X116051250Y-92625000I-243750J0D01*
G01*
X115563750Y-92625000D01*
G75*
G02*
X115320000Y-92381250I0J243750D01*
G01*
G37*
G04 #@! TD*
G04 #@! TO.C,R4*
G36*
G01*
X112981250Y-92600000D02*
X112418750Y-92600000D01*
G75*
G02*
X112175000Y-92356250I0J243750D01*
G01*
X112175000Y-91868750D01*
G75*
G02*
X112418750Y-91625000I243750J0D01*
G01*
X112981250Y-91625000D01*
G75*
G02*
X113225000Y-91868750I0J-243750D01*
G01*
X113225000Y-92356250D01*
G75*
G02*
X112981250Y-92600000I-243750J0D01*
G01*
G37*
G36*
G01*
X112981250Y-94175000D02*
X112418750Y-94175000D01*
G75*
G02*
X112175000Y-93931250I0J243750D01*
G01*
X112175000Y-93443750D01*
G75*
G02*
X112418750Y-93200000I243750J0D01*
G01*
X112981250Y-93200000D01*
G75*
G02*
X113225000Y-93443750I0J-243750D01*
G01*
X113225000Y-93931250D01*
G75*
G02*
X112981250Y-94175000I-243750J0D01*
G01*
G37*
G04 #@! TD*
D14*
G04 #@! TO.C,U1*
X116760200Y-98000000D03*
X115820400Y-98000000D03*
X117700000Y-98000000D03*
X117700000Y-95714000D03*
X116760200Y-95714000D03*
X115820400Y-95714000D03*
G04 #@! TD*
D15*
G04 #@! TO.C,J1*
X99100000Y-92175000D03*
X99100000Y-97825000D03*
D16*
X98900000Y-95000000D03*
G04 #@! TD*
G04 #@! TO.C,J2*
X125100000Y-95000000D03*
D15*
X124900000Y-92175000D03*
X124900000Y-97825000D03*
G04 #@! TD*
M02*
