G04 #@! TF.GenerationSoftware,KiCad,Pcbnew,5.1.6-c6e7f7d~86~ubuntu18.04.1*
G04 #@! TF.CreationDate,2020-07-08T22:54:29-04:00*
G04 #@! TF.ProjectId,rf-detector,72662d64-6574-4656-9374-6f722e6b6963,rev?*
G04 #@! TF.SameCoordinates,Original*
G04 #@! TF.FileFunction,Legend,Top*
G04 #@! TF.FilePolarity,Positive*
%FSLAX46Y46*%
G04 Gerber Fmt 4.6, Leading zero omitted, Abs format (unit mm)*
G04 Created by KiCad (PCBNEW 5.1.6-c6e7f7d~86~ubuntu18.04.1) date 2020-07-08 22:54:29*
%MOMM*%
%LPD*%
G01*
G04 APERTURE LIST*
%ADD10C,0.120000*%
%ADD11C,0.152400*%
%ADD12C,0.125000*%
%ADD13C,0.150000*%
G04 APERTURE END LIST*
D10*
G04 #@! TO.C,C2*
X110210000Y-94437221D02*
X110210000Y-94762779D01*
X109190000Y-94437221D02*
X109190000Y-94762779D01*
D11*
G04 #@! TO.C,U2*
X108647800Y-93706400D02*
X108647800Y-93604800D01*
X108647800Y-93604800D02*
X108647800Y-92995200D01*
X108647800Y-92995200D02*
X108647800Y-92893600D01*
X108647800Y-93604800D02*
G75*
G02*
X108647800Y-92995200I0J304800D01*
G01*
D10*
G04 #@! TO.C,J3*
X102450000Y-87270000D02*
X112730000Y-87270000D01*
X112730000Y-87270000D02*
X112730000Y-84610000D01*
X112730000Y-84610000D02*
X102450000Y-84610000D01*
X102450000Y-84610000D02*
X102450000Y-87270000D01*
X103400000Y-84610000D02*
X103400000Y-78610000D01*
X103400000Y-78610000D02*
X104160000Y-78610000D01*
X104160000Y-78610000D02*
X104160000Y-84610000D01*
X103460000Y-84610000D02*
X103460000Y-78610000D01*
X103580000Y-84610000D02*
X103580000Y-78610000D01*
X103700000Y-84610000D02*
X103700000Y-78610000D01*
X103820000Y-84610000D02*
X103820000Y-78610000D01*
X103940000Y-84610000D02*
X103940000Y-78610000D01*
X104060000Y-84610000D02*
X104060000Y-78610000D01*
X103400000Y-87600000D02*
X103400000Y-87270000D01*
X104160000Y-87600000D02*
X104160000Y-87270000D01*
X105050000Y-87270000D02*
X105050000Y-84610000D01*
X105940000Y-84610000D02*
X105940000Y-78610000D01*
X105940000Y-78610000D02*
X106700000Y-78610000D01*
X106700000Y-78610000D02*
X106700000Y-84610000D01*
X105940000Y-87667071D02*
X105940000Y-87270000D01*
X106700000Y-87667071D02*
X106700000Y-87270000D01*
X107590000Y-87270000D02*
X107590000Y-84610000D01*
X108480000Y-84610000D02*
X108480000Y-78610000D01*
X108480000Y-78610000D02*
X109240000Y-78610000D01*
X109240000Y-78610000D02*
X109240000Y-84610000D01*
X108480000Y-87667071D02*
X108480000Y-87270000D01*
X109240000Y-87667071D02*
X109240000Y-87270000D01*
X110130000Y-87270000D02*
X110130000Y-84610000D01*
X111020000Y-84610000D02*
X111020000Y-78610000D01*
X111020000Y-78610000D02*
X111780000Y-78610000D01*
X111780000Y-78610000D02*
X111780000Y-84610000D01*
X111020000Y-87667071D02*
X111020000Y-87270000D01*
X111780000Y-87667071D02*
X111780000Y-87270000D01*
X103780000Y-89980000D02*
X102510000Y-89980000D01*
X102510000Y-89980000D02*
X102510000Y-88710000D01*
G04 #@! TO.C,C1*
X110237221Y-92610000D02*
X110562779Y-92610000D01*
X110237221Y-91590000D02*
X110562779Y-91590000D01*
G04 #@! TO.C,R1*
X116437221Y-94210000D02*
X116762779Y-94210000D01*
X116437221Y-93190000D02*
X116762779Y-93190000D01*
G04 #@! TO.C,R3*
X114857221Y-92610000D02*
X115182779Y-92610000D01*
X114857221Y-91590000D02*
X115182779Y-91590000D01*
G04 #@! TO.C,R4*
X112190000Y-93062779D02*
X112190000Y-92737221D01*
X113210000Y-93062779D02*
X113210000Y-92737221D01*
G04 #@! TO.C,U1*
X118313722Y-94710700D02*
G75*
G03*
X118313722Y-94710700I-80322J0D01*
G01*
G04 #@! TO.C,J1*
X100810000Y-95840000D02*
X100810000Y-96950000D01*
X100810000Y-93050000D02*
X100810000Y-94160000D01*
X97100000Y-95840000D02*
X97100000Y-96950000D01*
X97100000Y-93050000D02*
X97100000Y-94160000D01*
X101360000Y-95000000D02*
X101860000Y-95250000D01*
X101860000Y-95250000D02*
X101860000Y-94750000D01*
X101860000Y-94750000D02*
X101360000Y-95000000D01*
G04 #@! TO.C,J2*
X122140000Y-95250000D02*
X122640000Y-95000000D01*
X122140000Y-94750000D02*
X122140000Y-95250000D01*
X122640000Y-95000000D02*
X122140000Y-94750000D01*
X126900000Y-96950000D02*
X126900000Y-95840000D01*
X126900000Y-94160000D02*
X126900000Y-93050000D01*
X123190000Y-96950000D02*
X123190000Y-95840000D01*
X123190000Y-94160000D02*
X123190000Y-93050000D01*
G04 #@! TO.C,C2*
D12*
X111116666Y-94578571D02*
X111092857Y-94602380D01*
X111021428Y-94626190D01*
X110973809Y-94626190D01*
X110902380Y-94602380D01*
X110854761Y-94554761D01*
X110830952Y-94507142D01*
X110807142Y-94411904D01*
X110807142Y-94340476D01*
X110830952Y-94245238D01*
X110854761Y-94197619D01*
X110902380Y-94150000D01*
X110973809Y-94126190D01*
X111021428Y-94126190D01*
X111092857Y-94150000D01*
X111116666Y-94173809D01*
X111307142Y-94173809D02*
X111330952Y-94150000D01*
X111378571Y-94126190D01*
X111497619Y-94126190D01*
X111545238Y-94150000D01*
X111569047Y-94173809D01*
X111592857Y-94221428D01*
X111592857Y-94269047D01*
X111569047Y-94340476D01*
X111283333Y-94626190D01*
X111592857Y-94626190D01*
G04 #@! TO.C,U2*
X104719047Y-91826190D02*
X104719047Y-92230952D01*
X104742857Y-92278571D01*
X104766666Y-92302380D01*
X104814285Y-92326190D01*
X104909523Y-92326190D01*
X104957142Y-92302380D01*
X104980952Y-92278571D01*
X105004761Y-92230952D01*
X105004761Y-91826190D01*
X105219047Y-91873809D02*
X105242857Y-91850000D01*
X105290476Y-91826190D01*
X105409523Y-91826190D01*
X105457142Y-91850000D01*
X105480952Y-91873809D01*
X105504761Y-91921428D01*
X105504761Y-91969047D01*
X105480952Y-92040476D01*
X105195238Y-92326190D01*
X105504761Y-92326190D01*
G04 #@! TO.C,J3*
D13*
X100962380Y-84658333D02*
X101676666Y-84658333D01*
X101819523Y-84705952D01*
X101914761Y-84801190D01*
X101962380Y-84944047D01*
X101962380Y-85039285D01*
X100962380Y-84277380D02*
X100962380Y-83658333D01*
X101343333Y-83991666D01*
X101343333Y-83848809D01*
X101390952Y-83753571D01*
X101438571Y-83705952D01*
X101533809Y-83658333D01*
X101771904Y-83658333D01*
X101867142Y-83705952D01*
X101914761Y-83753571D01*
X101962380Y-83848809D01*
X101962380Y-84134523D01*
X101914761Y-84229761D01*
X101867142Y-84277380D01*
G04 #@! TO.C,C1*
D12*
X110316666Y-90178571D02*
X110292857Y-90202380D01*
X110221428Y-90226190D01*
X110173809Y-90226190D01*
X110102380Y-90202380D01*
X110054761Y-90154761D01*
X110030952Y-90107142D01*
X110007142Y-90011904D01*
X110007142Y-89940476D01*
X110030952Y-89845238D01*
X110054761Y-89797619D01*
X110102380Y-89750000D01*
X110173809Y-89726190D01*
X110221428Y-89726190D01*
X110292857Y-89750000D01*
X110316666Y-89773809D01*
X110792857Y-90226190D02*
X110507142Y-90226190D01*
X110650000Y-90226190D02*
X110650000Y-89726190D01*
X110602380Y-89797619D01*
X110554761Y-89845238D01*
X110507142Y-89869047D01*
G04 #@! TO.C,R1*
X118616666Y-93126190D02*
X118450000Y-92888095D01*
X118330952Y-93126190D02*
X118330952Y-92626190D01*
X118521428Y-92626190D01*
X118569047Y-92650000D01*
X118592857Y-92673809D01*
X118616666Y-92721428D01*
X118616666Y-92792857D01*
X118592857Y-92840476D01*
X118569047Y-92864285D01*
X118521428Y-92888095D01*
X118330952Y-92888095D01*
X119092857Y-93126190D02*
X118807142Y-93126190D01*
X118950000Y-93126190D02*
X118950000Y-92626190D01*
X118902380Y-92697619D01*
X118854761Y-92745238D01*
X118807142Y-92769047D01*
G04 #@! TO.C,R3*
X114916666Y-90226190D02*
X114750000Y-89988095D01*
X114630952Y-90226190D02*
X114630952Y-89726190D01*
X114821428Y-89726190D01*
X114869047Y-89750000D01*
X114892857Y-89773809D01*
X114916666Y-89821428D01*
X114916666Y-89892857D01*
X114892857Y-89940476D01*
X114869047Y-89964285D01*
X114821428Y-89988095D01*
X114630952Y-89988095D01*
X115083333Y-89726190D02*
X115392857Y-89726190D01*
X115226190Y-89916666D01*
X115297619Y-89916666D01*
X115345238Y-89940476D01*
X115369047Y-89964285D01*
X115392857Y-90011904D01*
X115392857Y-90130952D01*
X115369047Y-90178571D01*
X115345238Y-90202380D01*
X115297619Y-90226190D01*
X115154761Y-90226190D01*
X115107142Y-90202380D01*
X115083333Y-90178571D01*
G04 #@! TO.C,R4*
X112616666Y-90226190D02*
X112450000Y-89988095D01*
X112330952Y-90226190D02*
X112330952Y-89726190D01*
X112521428Y-89726190D01*
X112569047Y-89750000D01*
X112592857Y-89773809D01*
X112616666Y-89821428D01*
X112616666Y-89892857D01*
X112592857Y-89940476D01*
X112569047Y-89964285D01*
X112521428Y-89988095D01*
X112330952Y-89988095D01*
X113045238Y-89892857D02*
X113045238Y-90226190D01*
X112926190Y-89702380D02*
X112807142Y-90059523D01*
X113116666Y-90059523D01*
G04 #@! TO.C,U1*
X114219047Y-95426190D02*
X114219047Y-95830952D01*
X114242857Y-95878571D01*
X114266666Y-95902380D01*
X114314285Y-95926190D01*
X114409523Y-95926190D01*
X114457142Y-95902380D01*
X114480952Y-95878571D01*
X114504761Y-95830952D01*
X114504761Y-95426190D01*
X115004761Y-95926190D02*
X114719047Y-95926190D01*
X114861904Y-95926190D02*
X114861904Y-95426190D01*
X114814285Y-95497619D01*
X114766666Y-95545238D01*
X114719047Y-95569047D01*
G04 #@! TO.C,J1*
D13*
X94052380Y-95633333D02*
X94766666Y-95633333D01*
X94909523Y-95680952D01*
X95004761Y-95776190D01*
X95052380Y-95919047D01*
X95052380Y-96014285D01*
X95052380Y-94633333D02*
X95052380Y-95204761D01*
X95052380Y-94919047D02*
X94052380Y-94919047D01*
X94195238Y-95014285D01*
X94290476Y-95109523D01*
X94338095Y-95204761D01*
G04 #@! TO.C,J2*
X130752380Y-95533333D02*
X131466666Y-95533333D01*
X131609523Y-95580952D01*
X131704761Y-95676190D01*
X131752380Y-95819047D01*
X131752380Y-95914285D01*
X130847619Y-95104761D02*
X130800000Y-95057142D01*
X130752380Y-94961904D01*
X130752380Y-94723809D01*
X130800000Y-94628571D01*
X130847619Y-94580952D01*
X130942857Y-94533333D01*
X131038095Y-94533333D01*
X131180952Y-94580952D01*
X131752380Y-95152380D01*
X131752380Y-94533333D01*
G04 #@! TD*
M02*
