M48
INCH,TZ
T1C0.0157
T2C0.0394
%
G90
G05
T1
X38520Y-37949
X38531Y-36858
X38543Y-35709
X38555Y-39098
X39016Y-35709
X39016Y-36846
X39031Y-39083
X39051Y-37953
X39472Y-36846
X39484Y-37937
X39528Y-35709
X39594Y-39087
X39921Y-36969
X39921Y-37835
X39961Y-34567
X40000Y-35787
X40126Y-38953
X40157Y-36260
X40157Y-38504
X40276Y-38110
X40394Y-37047
X40630Y-38465
X40630Y-39291
X40748Y-37402
X40984Y-38819
X41063Y-37717
X41339Y-35709
X41358Y-39055
X41417Y-36929
X41417Y-38071
X41902Y-39055
X41969Y-38189
X42201Y-35740
X42205Y-36811
X42535Y-39055
X42583Y-35732
X42598Y-38189
X43150Y-39055
X43205Y-38189
X43469Y-35740
X43661Y-37559
X43764Y-39055
X43827Y-36854
X43890Y-38189
X43996Y-35732
X44311Y-39055
X44382Y-37402
X44484Y-35732
X44587Y-38189
X44843Y-34724
X44846Y-39055
X45016Y-35752
X45079Y-37276
X45083Y-36776
X45256Y-38189
X45354Y-39055
X45457Y-35748
X45949Y-35843
X45965Y-38130
X45972Y-39094
X46209Y-36350
X46535Y-35039
X46587Y-39055
X46732Y-38110
X46736Y-36898
X47008Y-34685
X47047Y-35866
X47047Y-38976
X47165Y-37677
X47441Y-38583
X47559Y-37283
X47638Y-39331
X47756Y-38268
X48004Y-36256
X48031Y-36969
X48071Y-37953
X48071Y-38504
X48110Y-38976
X48150Y-35709
X48543Y-34921
X48583Y-39055
X48626Y-37965
X48638Y-36854
X48657Y-35650
X49154Y-39055
X49169Y-35650
X49169Y-37945
X49173Y-36850
X49646Y-39055
X49650Y-35638
X49650Y-36846
X49650Y-37949
X49685Y-34606
T2
X40858Y-34925
X41858Y-34925
X42858Y-34925
X43858Y-34925
T0
M30
