G04 #@! TF.GenerationSoftware,KiCad,Pcbnew,5.1.6-c6e7f7d~86~ubuntu18.04.1*
G04 #@! TF.CreationDate,2020-07-08T19:00:52-04:00*
G04 #@! TF.ProjectId,rf-detector,72662d64-6574-4656-9374-6f722e6b6963,rev?*
G04 #@! TF.SameCoordinates,Original*
G04 #@! TF.FileFunction,Copper,L2,Bot*
G04 #@! TF.FilePolarity,Positive*
%FSLAX46Y46*%
G04 Gerber Fmt 4.6, Leading zero omitted, Abs format (unit mm)*
G04 Created by KiCad (PCBNEW 5.1.6-c6e7f7d~86~ubuntu18.04.1) date 2020-07-08 19:00:52*
%MOMM*%
%LPD*%
G01*
G04 APERTURE LIST*
G04 #@! TA.AperFunction,ComponentPad*
%ADD10R,1.700000X1.700000*%
G04 #@! TD*
G04 #@! TA.AperFunction,ComponentPad*
%ADD11O,1.700000X1.700000*%
G04 #@! TD*
G04 #@! TA.AperFunction,SMDPad,CuDef*
%ADD12R,4.200000X1.350000*%
G04 #@! TD*
G04 #@! TA.AperFunction,ViaPad*
%ADD13C,0.800000*%
G04 #@! TD*
G04 #@! TA.AperFunction,Conductor*
%ADD14C,0.400000*%
G04 #@! TD*
G04 #@! TA.AperFunction,Conductor*
%ADD15C,0.200000*%
G04 #@! TD*
G04 APERTURE END LIST*
D10*
G04 #@! TO.P,J3,1*
G04 #@! TO.N,RF_POW*
X103780000Y-88710000D03*
D11*
G04 #@! TO.P,J3,2*
G04 #@! TO.N,ENABLE*
X106320000Y-88710000D03*
G04 #@! TO.P,J3,3*
X108860000Y-88710000D03*
G04 #@! TO.P,J3,4*
G04 #@! TO.N,GND*
X111400000Y-88710000D03*
G04 #@! TD*
D12*
G04 #@! TO.P,J1,2*
G04 #@! TO.N,GND*
X99100000Y-92175000D03*
X99100000Y-97825000D03*
G04 #@! TD*
G04 #@! TO.P,J2,2*
G04 #@! TO.N,GND*
X124900000Y-92175000D03*
X124900000Y-97825000D03*
G04 #@! TD*
D13*
G04 #@! TO.N,GND*
X116750000Y-96850000D03*
X114950000Y-97000000D03*
X118700000Y-96800000D03*
X118710000Y-93720000D03*
X117370000Y-92330000D03*
X114510000Y-93410000D03*
X114500000Y-94680000D03*
X112730000Y-95000000D03*
X111320000Y-93610000D03*
X99100000Y-90700000D03*
X102000000Y-92100000D03*
X99100000Y-93590000D03*
X99190000Y-96400000D03*
X102300000Y-96800000D03*
X99140000Y-99270000D03*
X124890000Y-90550000D03*
X121930000Y-92090000D03*
X124900000Y-93600000D03*
X124890000Y-96380000D03*
X122100000Y-97800000D03*
X124850000Y-99200000D03*
X123510000Y-96430000D03*
X122100000Y-96400000D03*
X120500000Y-98000000D03*
X119500000Y-99000000D03*
X118330000Y-99200000D03*
X123540000Y-93610000D03*
X122000000Y-93900000D03*
X120800000Y-94700000D03*
X119800000Y-95700000D03*
X116770000Y-99300000D03*
X115200000Y-99200000D03*
X113910000Y-99200000D03*
X112550000Y-99200000D03*
X111160000Y-99200000D03*
X109600000Y-99200000D03*
X108040000Y-99200000D03*
X106430000Y-99200000D03*
X105050000Y-99200000D03*
X104100000Y-98600000D03*
X103200000Y-97700000D03*
X101400000Y-96100000D03*
X101400000Y-93900000D03*
X102600000Y-94100000D03*
X103500000Y-95000000D03*
X104300000Y-95800000D03*
X105200000Y-96700000D03*
X106600000Y-97000000D03*
X108200000Y-97000000D03*
X109740000Y-97000000D03*
X111480000Y-97000000D03*
X113250000Y-97000000D03*
X100570000Y-99280000D03*
X101920000Y-98940000D03*
X100400000Y-90700000D03*
X101600000Y-90900000D03*
X126110000Y-90520000D03*
X122300000Y-90700000D03*
X123590000Y-90550000D03*
X122200000Y-99000000D03*
X123400000Y-99200000D03*
X126100000Y-99200000D03*
X126110000Y-96390000D03*
X126110000Y-93590000D03*
X97870000Y-93620000D03*
X97840000Y-96390000D03*
X97930000Y-99310000D03*
X100290000Y-96360000D03*
X100260000Y-93590000D03*
X97900000Y-90700000D03*
X108160000Y-90760000D03*
X110410000Y-90780000D03*
X111750000Y-90760000D03*
X112990000Y-90760000D03*
X114340000Y-90810000D03*
X115460000Y-90800000D03*
X116710000Y-91040000D03*
X107190000Y-90780000D03*
X107200000Y-93500000D03*
X102000000Y-97800000D03*
X121300000Y-97200000D03*
X126200000Y-87900000D03*
X119500000Y-91100000D03*
X123300000Y-88700000D03*
X119400000Y-88100000D03*
X113900000Y-88200000D03*
X118200000Y-89000000D03*
X101500000Y-87800000D03*
X105000000Y-90700000D03*
X121000000Y-99900000D03*
X103200000Y-99800000D03*
G04 #@! TO.N,RF_POW*
X105200000Y-93800000D03*
G04 #@! TO.N,ENABLE*
X110900000Y-95400000D03*
G04 #@! TD*
D14*
G04 #@! TO.N,RF_POW*
X105200000Y-93800000D02*
X103800000Y-92400000D01*
X103800000Y-88730000D02*
X103780000Y-88710000D01*
X103800000Y-92400000D02*
X103800000Y-88730000D01*
G04 #@! TO.N,ENABLE*
X108860000Y-88710000D02*
X108860000Y-89260000D01*
X108860000Y-89260000D02*
X109300000Y-89700000D01*
X109300000Y-89700000D02*
X109300000Y-93800000D01*
X109300000Y-93800000D02*
X110900000Y-95400000D01*
X110900000Y-95400000D02*
X110900000Y-95400000D01*
G04 #@! TD*
D15*
G04 #@! TO.N,GND*
G36*
X126650000Y-91198820D02*
G01*
X125129000Y-91200000D01*
X125054000Y-91275000D01*
X125054000Y-92021000D01*
X125074000Y-92021000D01*
X125074000Y-92329000D01*
X125054000Y-92329000D01*
X125054000Y-93075000D01*
X125129000Y-93150000D01*
X126650000Y-93151180D01*
X126650001Y-96848820D01*
X125129000Y-96850000D01*
X125054000Y-96925000D01*
X125054000Y-97671000D01*
X125074000Y-97671000D01*
X125074000Y-97979000D01*
X125054000Y-97979000D01*
X125054000Y-98725000D01*
X125129000Y-98800000D01*
X126650001Y-98801180D01*
X126650001Y-100650000D01*
X97350000Y-100650000D01*
X97350000Y-98801180D01*
X98871000Y-98800000D01*
X98946000Y-98725000D01*
X98946000Y-97979000D01*
X99254000Y-97979000D01*
X99254000Y-98725000D01*
X99329000Y-98800000D01*
X101200000Y-98801452D01*
X101258810Y-98795660D01*
X101315361Y-98778505D01*
X101367478Y-98750648D01*
X101413159Y-98713159D01*
X101450648Y-98667478D01*
X101478505Y-98615361D01*
X101495660Y-98558810D01*
X101501452Y-98500000D01*
X122498548Y-98500000D01*
X122504340Y-98558810D01*
X122521495Y-98615361D01*
X122549352Y-98667478D01*
X122586841Y-98713159D01*
X122632522Y-98750648D01*
X122684639Y-98778505D01*
X122741190Y-98795660D01*
X122800000Y-98801452D01*
X124671000Y-98800000D01*
X124746000Y-98725000D01*
X124746000Y-97979000D01*
X122575000Y-97979000D01*
X122500000Y-98054000D01*
X122498548Y-98500000D01*
X101501452Y-98500000D01*
X101500000Y-98054000D01*
X101425000Y-97979000D01*
X99254000Y-97979000D01*
X98946000Y-97979000D01*
X98926000Y-97979000D01*
X98926000Y-97671000D01*
X98946000Y-97671000D01*
X98946000Y-96925000D01*
X99254000Y-96925000D01*
X99254000Y-97671000D01*
X101425000Y-97671000D01*
X101500000Y-97596000D01*
X101501452Y-97150000D01*
X122498548Y-97150000D01*
X122500000Y-97596000D01*
X122575000Y-97671000D01*
X124746000Y-97671000D01*
X124746000Y-96925000D01*
X124671000Y-96850000D01*
X122800000Y-96848548D01*
X122741190Y-96854340D01*
X122684639Y-96871495D01*
X122632522Y-96899352D01*
X122586841Y-96936841D01*
X122549352Y-96982522D01*
X122521495Y-97034639D01*
X122504340Y-97091190D01*
X122498548Y-97150000D01*
X101501452Y-97150000D01*
X101495660Y-97091190D01*
X101478505Y-97034639D01*
X101450648Y-96982522D01*
X101413159Y-96936841D01*
X101367478Y-96899352D01*
X101315361Y-96871495D01*
X101258810Y-96854340D01*
X101200000Y-96848548D01*
X99329000Y-96850000D01*
X99254000Y-96925000D01*
X98946000Y-96925000D01*
X98871000Y-96850000D01*
X97350000Y-96848820D01*
X97350000Y-93151180D01*
X98871000Y-93150000D01*
X98946000Y-93075000D01*
X98946000Y-92329000D01*
X99254000Y-92329000D01*
X99254000Y-93075000D01*
X99329000Y-93150000D01*
X101200000Y-93151452D01*
X101258810Y-93145660D01*
X101315361Y-93128505D01*
X101367478Y-93100648D01*
X101413159Y-93063159D01*
X101450648Y-93017478D01*
X101478505Y-92965361D01*
X101495660Y-92908810D01*
X101501452Y-92850000D01*
X101500000Y-92404000D01*
X101425000Y-92329000D01*
X99254000Y-92329000D01*
X98946000Y-92329000D01*
X98926000Y-92329000D01*
X98926000Y-92021000D01*
X98946000Y-92021000D01*
X98946000Y-91275000D01*
X99254000Y-91275000D01*
X99254000Y-92021000D01*
X101425000Y-92021000D01*
X101500000Y-91946000D01*
X101501452Y-91500000D01*
X101495660Y-91441190D01*
X101478505Y-91384639D01*
X101450648Y-91332522D01*
X101413159Y-91286841D01*
X101367478Y-91249352D01*
X101315361Y-91221495D01*
X101258810Y-91204340D01*
X101200000Y-91198548D01*
X99329000Y-91200000D01*
X99254000Y-91275000D01*
X98946000Y-91275000D01*
X98871000Y-91200000D01*
X97350000Y-91198820D01*
X97350000Y-87860000D01*
X102628549Y-87860000D01*
X102628549Y-89560000D01*
X102634341Y-89618810D01*
X102651496Y-89675360D01*
X102679353Y-89727477D01*
X102716842Y-89773158D01*
X102762523Y-89810647D01*
X102814640Y-89838504D01*
X102871190Y-89855659D01*
X102930000Y-89861451D01*
X103300001Y-89861451D01*
X103300000Y-92375440D01*
X103297581Y-92400000D01*
X103300000Y-92424559D01*
X103307235Y-92498016D01*
X103335825Y-92592266D01*
X103382254Y-92679129D01*
X103444736Y-92755264D01*
X103463824Y-92770929D01*
X104500000Y-93807106D01*
X104500000Y-93868944D01*
X104526901Y-94004182D01*
X104579668Y-94131574D01*
X104656274Y-94246224D01*
X104753776Y-94343726D01*
X104868426Y-94420332D01*
X104995818Y-94473099D01*
X105131056Y-94500000D01*
X105268944Y-94500000D01*
X105404182Y-94473099D01*
X105531574Y-94420332D01*
X105646224Y-94343726D01*
X105743726Y-94246224D01*
X105820332Y-94131574D01*
X105873099Y-94004182D01*
X105900000Y-93868944D01*
X105900000Y-93731056D01*
X105873099Y-93595818D01*
X105820332Y-93468426D01*
X105743726Y-93353776D01*
X105646224Y-93256274D01*
X105531574Y-93179668D01*
X105404182Y-93126901D01*
X105268944Y-93100000D01*
X105207106Y-93100000D01*
X104300000Y-92192895D01*
X104300000Y-89861451D01*
X104630000Y-89861451D01*
X104688810Y-89855659D01*
X104745360Y-89838504D01*
X104797477Y-89810647D01*
X104843158Y-89773158D01*
X104880647Y-89727477D01*
X104908504Y-89675360D01*
X104925659Y-89618810D01*
X104931451Y-89560000D01*
X104931451Y-88596735D01*
X105170000Y-88596735D01*
X105170000Y-88823265D01*
X105214194Y-89045443D01*
X105300884Y-89254729D01*
X105426737Y-89443082D01*
X105586918Y-89603263D01*
X105775271Y-89729116D01*
X105984557Y-89815806D01*
X106206735Y-89860000D01*
X106433265Y-89860000D01*
X106655443Y-89815806D01*
X106864729Y-89729116D01*
X107053082Y-89603263D01*
X107213263Y-89443082D01*
X107339116Y-89254729D01*
X107425806Y-89045443D01*
X107470000Y-88823265D01*
X107470000Y-88596735D01*
X107710000Y-88596735D01*
X107710000Y-88823265D01*
X107754194Y-89045443D01*
X107840884Y-89254729D01*
X107966737Y-89443082D01*
X108126918Y-89603263D01*
X108315271Y-89729116D01*
X108524557Y-89815806D01*
X108746735Y-89860000D01*
X108752894Y-89860000D01*
X108800000Y-89907106D01*
X108800001Y-93775430D01*
X108797581Y-93800000D01*
X108807235Y-93898017D01*
X108835826Y-93992267D01*
X108882255Y-94079129D01*
X108944737Y-94155264D01*
X108963819Y-94170924D01*
X110200000Y-95407107D01*
X110200000Y-95468944D01*
X110226901Y-95604182D01*
X110279668Y-95731574D01*
X110356274Y-95846224D01*
X110453776Y-95943726D01*
X110568426Y-96020332D01*
X110695818Y-96073099D01*
X110831056Y-96100000D01*
X110968944Y-96100000D01*
X111104182Y-96073099D01*
X111231574Y-96020332D01*
X111346224Y-95943726D01*
X111443726Y-95846224D01*
X111520332Y-95731574D01*
X111573099Y-95604182D01*
X111600000Y-95468944D01*
X111600000Y-95331056D01*
X111573099Y-95195818D01*
X111520332Y-95068426D01*
X111443726Y-94953776D01*
X111346224Y-94856274D01*
X111231574Y-94779668D01*
X111104182Y-94726901D01*
X110968944Y-94700000D01*
X110907107Y-94700000D01*
X109800000Y-93592895D01*
X109800000Y-92850000D01*
X122498548Y-92850000D01*
X122504340Y-92908810D01*
X122521495Y-92965361D01*
X122549352Y-93017478D01*
X122586841Y-93063159D01*
X122632522Y-93100648D01*
X122684639Y-93128505D01*
X122741190Y-93145660D01*
X122800000Y-93151452D01*
X124671000Y-93150000D01*
X124746000Y-93075000D01*
X124746000Y-92329000D01*
X122575000Y-92329000D01*
X122500000Y-92404000D01*
X122498548Y-92850000D01*
X109800000Y-92850000D01*
X109800000Y-91500000D01*
X122498548Y-91500000D01*
X122500000Y-91946000D01*
X122575000Y-92021000D01*
X124746000Y-92021000D01*
X124746000Y-91275000D01*
X124671000Y-91200000D01*
X122800000Y-91198548D01*
X122741190Y-91204340D01*
X122684639Y-91221495D01*
X122632522Y-91249352D01*
X122586841Y-91286841D01*
X122549352Y-91332522D01*
X122521495Y-91384639D01*
X122504340Y-91441190D01*
X122498548Y-91500000D01*
X109800000Y-91500000D01*
X109800000Y-89724560D01*
X109802419Y-89700000D01*
X109792765Y-89601983D01*
X109791157Y-89596681D01*
X109764175Y-89507733D01*
X109737854Y-89458491D01*
X109753263Y-89443082D01*
X109879116Y-89254729D01*
X109965806Y-89045443D01*
X109966812Y-89040385D01*
X110298472Y-89040385D01*
X110384092Y-89248934D01*
X110508753Y-89436772D01*
X110667664Y-89596681D01*
X110854719Y-89722515D01*
X111062728Y-89809439D01*
X111069617Y-89811520D01*
X111246000Y-89773912D01*
X111246000Y-88864000D01*
X111554000Y-88864000D01*
X111554000Y-89773912D01*
X111730383Y-89811520D01*
X111737272Y-89809439D01*
X111945281Y-89722515D01*
X112132336Y-89596681D01*
X112291247Y-89436772D01*
X112415908Y-89248934D01*
X112501528Y-89040385D01*
X112464650Y-88864000D01*
X111554000Y-88864000D01*
X111246000Y-88864000D01*
X110335350Y-88864000D01*
X110298472Y-89040385D01*
X109966812Y-89040385D01*
X110010000Y-88823265D01*
X110010000Y-88596735D01*
X109966813Y-88379615D01*
X110298472Y-88379615D01*
X110335350Y-88556000D01*
X111246000Y-88556000D01*
X111246000Y-87646088D01*
X111554000Y-87646088D01*
X111554000Y-88556000D01*
X112464650Y-88556000D01*
X112501528Y-88379615D01*
X112415908Y-88171066D01*
X112291247Y-87983228D01*
X112132336Y-87823319D01*
X111945281Y-87697485D01*
X111737272Y-87610561D01*
X111730383Y-87608480D01*
X111554000Y-87646088D01*
X111246000Y-87646088D01*
X111069617Y-87608480D01*
X111062728Y-87610561D01*
X110854719Y-87697485D01*
X110667664Y-87823319D01*
X110508753Y-87983228D01*
X110384092Y-88171066D01*
X110298472Y-88379615D01*
X109966813Y-88379615D01*
X109965806Y-88374557D01*
X109879116Y-88165271D01*
X109753263Y-87976918D01*
X109593082Y-87816737D01*
X109404729Y-87690884D01*
X109195443Y-87604194D01*
X108973265Y-87560000D01*
X108746735Y-87560000D01*
X108524557Y-87604194D01*
X108315271Y-87690884D01*
X108126918Y-87816737D01*
X107966737Y-87976918D01*
X107840884Y-88165271D01*
X107754194Y-88374557D01*
X107710000Y-88596735D01*
X107470000Y-88596735D01*
X107425806Y-88374557D01*
X107339116Y-88165271D01*
X107213263Y-87976918D01*
X107053082Y-87816737D01*
X106864729Y-87690884D01*
X106655443Y-87604194D01*
X106433265Y-87560000D01*
X106206735Y-87560000D01*
X105984557Y-87604194D01*
X105775271Y-87690884D01*
X105586918Y-87816737D01*
X105426737Y-87976918D01*
X105300884Y-88165271D01*
X105214194Y-88374557D01*
X105170000Y-88596735D01*
X104931451Y-88596735D01*
X104931451Y-87860000D01*
X104925659Y-87801190D01*
X104908504Y-87744640D01*
X104880647Y-87692523D01*
X104843158Y-87646842D01*
X104797477Y-87609353D01*
X104745360Y-87581496D01*
X104688810Y-87564341D01*
X104630000Y-87558549D01*
X102930000Y-87558549D01*
X102871190Y-87564341D01*
X102814640Y-87581496D01*
X102762523Y-87609353D01*
X102716842Y-87646842D01*
X102679353Y-87692523D01*
X102651496Y-87744640D01*
X102634341Y-87801190D01*
X102628549Y-87860000D01*
X97350000Y-87860000D01*
X97350000Y-87350000D01*
X126650000Y-87350000D01*
X126650000Y-91198820D01*
G37*
X126650000Y-91198820D02*
X125129000Y-91200000D01*
X125054000Y-91275000D01*
X125054000Y-92021000D01*
X125074000Y-92021000D01*
X125074000Y-92329000D01*
X125054000Y-92329000D01*
X125054000Y-93075000D01*
X125129000Y-93150000D01*
X126650000Y-93151180D01*
X126650001Y-96848820D01*
X125129000Y-96850000D01*
X125054000Y-96925000D01*
X125054000Y-97671000D01*
X125074000Y-97671000D01*
X125074000Y-97979000D01*
X125054000Y-97979000D01*
X125054000Y-98725000D01*
X125129000Y-98800000D01*
X126650001Y-98801180D01*
X126650001Y-100650000D01*
X97350000Y-100650000D01*
X97350000Y-98801180D01*
X98871000Y-98800000D01*
X98946000Y-98725000D01*
X98946000Y-97979000D01*
X99254000Y-97979000D01*
X99254000Y-98725000D01*
X99329000Y-98800000D01*
X101200000Y-98801452D01*
X101258810Y-98795660D01*
X101315361Y-98778505D01*
X101367478Y-98750648D01*
X101413159Y-98713159D01*
X101450648Y-98667478D01*
X101478505Y-98615361D01*
X101495660Y-98558810D01*
X101501452Y-98500000D01*
X122498548Y-98500000D01*
X122504340Y-98558810D01*
X122521495Y-98615361D01*
X122549352Y-98667478D01*
X122586841Y-98713159D01*
X122632522Y-98750648D01*
X122684639Y-98778505D01*
X122741190Y-98795660D01*
X122800000Y-98801452D01*
X124671000Y-98800000D01*
X124746000Y-98725000D01*
X124746000Y-97979000D01*
X122575000Y-97979000D01*
X122500000Y-98054000D01*
X122498548Y-98500000D01*
X101501452Y-98500000D01*
X101500000Y-98054000D01*
X101425000Y-97979000D01*
X99254000Y-97979000D01*
X98946000Y-97979000D01*
X98926000Y-97979000D01*
X98926000Y-97671000D01*
X98946000Y-97671000D01*
X98946000Y-96925000D01*
X99254000Y-96925000D01*
X99254000Y-97671000D01*
X101425000Y-97671000D01*
X101500000Y-97596000D01*
X101501452Y-97150000D01*
X122498548Y-97150000D01*
X122500000Y-97596000D01*
X122575000Y-97671000D01*
X124746000Y-97671000D01*
X124746000Y-96925000D01*
X124671000Y-96850000D01*
X122800000Y-96848548D01*
X122741190Y-96854340D01*
X122684639Y-96871495D01*
X122632522Y-96899352D01*
X122586841Y-96936841D01*
X122549352Y-96982522D01*
X122521495Y-97034639D01*
X122504340Y-97091190D01*
X122498548Y-97150000D01*
X101501452Y-97150000D01*
X101495660Y-97091190D01*
X101478505Y-97034639D01*
X101450648Y-96982522D01*
X101413159Y-96936841D01*
X101367478Y-96899352D01*
X101315361Y-96871495D01*
X101258810Y-96854340D01*
X101200000Y-96848548D01*
X99329000Y-96850000D01*
X99254000Y-96925000D01*
X98946000Y-96925000D01*
X98871000Y-96850000D01*
X97350000Y-96848820D01*
X97350000Y-93151180D01*
X98871000Y-93150000D01*
X98946000Y-93075000D01*
X98946000Y-92329000D01*
X99254000Y-92329000D01*
X99254000Y-93075000D01*
X99329000Y-93150000D01*
X101200000Y-93151452D01*
X101258810Y-93145660D01*
X101315361Y-93128505D01*
X101367478Y-93100648D01*
X101413159Y-93063159D01*
X101450648Y-93017478D01*
X101478505Y-92965361D01*
X101495660Y-92908810D01*
X101501452Y-92850000D01*
X101500000Y-92404000D01*
X101425000Y-92329000D01*
X99254000Y-92329000D01*
X98946000Y-92329000D01*
X98926000Y-92329000D01*
X98926000Y-92021000D01*
X98946000Y-92021000D01*
X98946000Y-91275000D01*
X99254000Y-91275000D01*
X99254000Y-92021000D01*
X101425000Y-92021000D01*
X101500000Y-91946000D01*
X101501452Y-91500000D01*
X101495660Y-91441190D01*
X101478505Y-91384639D01*
X101450648Y-91332522D01*
X101413159Y-91286841D01*
X101367478Y-91249352D01*
X101315361Y-91221495D01*
X101258810Y-91204340D01*
X101200000Y-91198548D01*
X99329000Y-91200000D01*
X99254000Y-91275000D01*
X98946000Y-91275000D01*
X98871000Y-91200000D01*
X97350000Y-91198820D01*
X97350000Y-87860000D01*
X102628549Y-87860000D01*
X102628549Y-89560000D01*
X102634341Y-89618810D01*
X102651496Y-89675360D01*
X102679353Y-89727477D01*
X102716842Y-89773158D01*
X102762523Y-89810647D01*
X102814640Y-89838504D01*
X102871190Y-89855659D01*
X102930000Y-89861451D01*
X103300001Y-89861451D01*
X103300000Y-92375440D01*
X103297581Y-92400000D01*
X103300000Y-92424559D01*
X103307235Y-92498016D01*
X103335825Y-92592266D01*
X103382254Y-92679129D01*
X103444736Y-92755264D01*
X103463824Y-92770929D01*
X104500000Y-93807106D01*
X104500000Y-93868944D01*
X104526901Y-94004182D01*
X104579668Y-94131574D01*
X104656274Y-94246224D01*
X104753776Y-94343726D01*
X104868426Y-94420332D01*
X104995818Y-94473099D01*
X105131056Y-94500000D01*
X105268944Y-94500000D01*
X105404182Y-94473099D01*
X105531574Y-94420332D01*
X105646224Y-94343726D01*
X105743726Y-94246224D01*
X105820332Y-94131574D01*
X105873099Y-94004182D01*
X105900000Y-93868944D01*
X105900000Y-93731056D01*
X105873099Y-93595818D01*
X105820332Y-93468426D01*
X105743726Y-93353776D01*
X105646224Y-93256274D01*
X105531574Y-93179668D01*
X105404182Y-93126901D01*
X105268944Y-93100000D01*
X105207106Y-93100000D01*
X104300000Y-92192895D01*
X104300000Y-89861451D01*
X104630000Y-89861451D01*
X104688810Y-89855659D01*
X104745360Y-89838504D01*
X104797477Y-89810647D01*
X104843158Y-89773158D01*
X104880647Y-89727477D01*
X104908504Y-89675360D01*
X104925659Y-89618810D01*
X104931451Y-89560000D01*
X104931451Y-88596735D01*
X105170000Y-88596735D01*
X105170000Y-88823265D01*
X105214194Y-89045443D01*
X105300884Y-89254729D01*
X105426737Y-89443082D01*
X105586918Y-89603263D01*
X105775271Y-89729116D01*
X105984557Y-89815806D01*
X106206735Y-89860000D01*
X106433265Y-89860000D01*
X106655443Y-89815806D01*
X106864729Y-89729116D01*
X107053082Y-89603263D01*
X107213263Y-89443082D01*
X107339116Y-89254729D01*
X107425806Y-89045443D01*
X107470000Y-88823265D01*
X107470000Y-88596735D01*
X107710000Y-88596735D01*
X107710000Y-88823265D01*
X107754194Y-89045443D01*
X107840884Y-89254729D01*
X107966737Y-89443082D01*
X108126918Y-89603263D01*
X108315271Y-89729116D01*
X108524557Y-89815806D01*
X108746735Y-89860000D01*
X108752894Y-89860000D01*
X108800000Y-89907106D01*
X108800001Y-93775430D01*
X108797581Y-93800000D01*
X108807235Y-93898017D01*
X108835826Y-93992267D01*
X108882255Y-94079129D01*
X108944737Y-94155264D01*
X108963819Y-94170924D01*
X110200000Y-95407107D01*
X110200000Y-95468944D01*
X110226901Y-95604182D01*
X110279668Y-95731574D01*
X110356274Y-95846224D01*
X110453776Y-95943726D01*
X110568426Y-96020332D01*
X110695818Y-96073099D01*
X110831056Y-96100000D01*
X110968944Y-96100000D01*
X111104182Y-96073099D01*
X111231574Y-96020332D01*
X111346224Y-95943726D01*
X111443726Y-95846224D01*
X111520332Y-95731574D01*
X111573099Y-95604182D01*
X111600000Y-95468944D01*
X111600000Y-95331056D01*
X111573099Y-95195818D01*
X111520332Y-95068426D01*
X111443726Y-94953776D01*
X111346224Y-94856274D01*
X111231574Y-94779668D01*
X111104182Y-94726901D01*
X110968944Y-94700000D01*
X110907107Y-94700000D01*
X109800000Y-93592895D01*
X109800000Y-92850000D01*
X122498548Y-92850000D01*
X122504340Y-92908810D01*
X122521495Y-92965361D01*
X122549352Y-93017478D01*
X122586841Y-93063159D01*
X122632522Y-93100648D01*
X122684639Y-93128505D01*
X122741190Y-93145660D01*
X122800000Y-93151452D01*
X124671000Y-93150000D01*
X124746000Y-93075000D01*
X124746000Y-92329000D01*
X122575000Y-92329000D01*
X122500000Y-92404000D01*
X122498548Y-92850000D01*
X109800000Y-92850000D01*
X109800000Y-91500000D01*
X122498548Y-91500000D01*
X122500000Y-91946000D01*
X122575000Y-92021000D01*
X124746000Y-92021000D01*
X124746000Y-91275000D01*
X124671000Y-91200000D01*
X122800000Y-91198548D01*
X122741190Y-91204340D01*
X122684639Y-91221495D01*
X122632522Y-91249352D01*
X122586841Y-91286841D01*
X122549352Y-91332522D01*
X122521495Y-91384639D01*
X122504340Y-91441190D01*
X122498548Y-91500000D01*
X109800000Y-91500000D01*
X109800000Y-89724560D01*
X109802419Y-89700000D01*
X109792765Y-89601983D01*
X109791157Y-89596681D01*
X109764175Y-89507733D01*
X109737854Y-89458491D01*
X109753263Y-89443082D01*
X109879116Y-89254729D01*
X109965806Y-89045443D01*
X109966812Y-89040385D01*
X110298472Y-89040385D01*
X110384092Y-89248934D01*
X110508753Y-89436772D01*
X110667664Y-89596681D01*
X110854719Y-89722515D01*
X111062728Y-89809439D01*
X111069617Y-89811520D01*
X111246000Y-89773912D01*
X111246000Y-88864000D01*
X111554000Y-88864000D01*
X111554000Y-89773912D01*
X111730383Y-89811520D01*
X111737272Y-89809439D01*
X111945281Y-89722515D01*
X112132336Y-89596681D01*
X112291247Y-89436772D01*
X112415908Y-89248934D01*
X112501528Y-89040385D01*
X112464650Y-88864000D01*
X111554000Y-88864000D01*
X111246000Y-88864000D01*
X110335350Y-88864000D01*
X110298472Y-89040385D01*
X109966812Y-89040385D01*
X110010000Y-88823265D01*
X110010000Y-88596735D01*
X109966813Y-88379615D01*
X110298472Y-88379615D01*
X110335350Y-88556000D01*
X111246000Y-88556000D01*
X111246000Y-87646088D01*
X111554000Y-87646088D01*
X111554000Y-88556000D01*
X112464650Y-88556000D01*
X112501528Y-88379615D01*
X112415908Y-88171066D01*
X112291247Y-87983228D01*
X112132336Y-87823319D01*
X111945281Y-87697485D01*
X111737272Y-87610561D01*
X111730383Y-87608480D01*
X111554000Y-87646088D01*
X111246000Y-87646088D01*
X111069617Y-87608480D01*
X111062728Y-87610561D01*
X110854719Y-87697485D01*
X110667664Y-87823319D01*
X110508753Y-87983228D01*
X110384092Y-88171066D01*
X110298472Y-88379615D01*
X109966813Y-88379615D01*
X109965806Y-88374557D01*
X109879116Y-88165271D01*
X109753263Y-87976918D01*
X109593082Y-87816737D01*
X109404729Y-87690884D01*
X109195443Y-87604194D01*
X108973265Y-87560000D01*
X108746735Y-87560000D01*
X108524557Y-87604194D01*
X108315271Y-87690884D01*
X108126918Y-87816737D01*
X107966737Y-87976918D01*
X107840884Y-88165271D01*
X107754194Y-88374557D01*
X107710000Y-88596735D01*
X107470000Y-88596735D01*
X107425806Y-88374557D01*
X107339116Y-88165271D01*
X107213263Y-87976918D01*
X107053082Y-87816737D01*
X106864729Y-87690884D01*
X106655443Y-87604194D01*
X106433265Y-87560000D01*
X106206735Y-87560000D01*
X105984557Y-87604194D01*
X105775271Y-87690884D01*
X105586918Y-87816737D01*
X105426737Y-87976918D01*
X105300884Y-88165271D01*
X105214194Y-88374557D01*
X105170000Y-88596735D01*
X104931451Y-88596735D01*
X104931451Y-87860000D01*
X104925659Y-87801190D01*
X104908504Y-87744640D01*
X104880647Y-87692523D01*
X104843158Y-87646842D01*
X104797477Y-87609353D01*
X104745360Y-87581496D01*
X104688810Y-87564341D01*
X104630000Y-87558549D01*
X102930000Y-87558549D01*
X102871190Y-87564341D01*
X102814640Y-87581496D01*
X102762523Y-87609353D01*
X102716842Y-87646842D01*
X102679353Y-87692523D01*
X102651496Y-87744640D01*
X102634341Y-87801190D01*
X102628549Y-87860000D01*
X97350000Y-87860000D01*
X97350000Y-87350000D01*
X126650000Y-87350000D01*
X126650000Y-91198820D01*
G04 #@! TD*
M02*
