G04 #@! TF.GenerationSoftware,KiCad,Pcbnew,5.1.6-c6e7f7d~86~ubuntu18.04.1*
G04 #@! TF.CreationDate,2020-07-08T22:14:40-04:00*
G04 #@! TF.ProjectId,microstrip_tests,6d696372-6f73-4747-9269-705f74657374,rev?*
G04 #@! TF.SameCoordinates,Original*
G04 #@! TF.FileFunction,Copper,L1,Top*
G04 #@! TF.FilePolarity,Positive*
%FSLAX46Y46*%
G04 Gerber Fmt 4.6, Leading zero omitted, Abs format (unit mm)*
G04 Created by KiCad (PCBNEW 5.1.6-c6e7f7d~86~ubuntu18.04.1) date 2020-07-08 22:14:40*
%MOMM*%
%LPD*%
G01*
G04 APERTURE LIST*
G04 #@! TA.AperFunction,SMDPad,CuDef*
%ADD10R,3.600000X1.270000*%
G04 #@! TD*
G04 #@! TA.AperFunction,SMDPad,CuDef*
%ADD11R,4.200000X1.350000*%
G04 #@! TD*
G04 #@! TA.AperFunction,ViaPad*
%ADD12C,0.800000*%
G04 #@! TD*
G04 #@! TA.AperFunction,Conductor*
%ADD13C,1.114000*%
G04 #@! TD*
G04 #@! TA.AperFunction,Conductor*
%ADD14C,1.200000*%
G04 #@! TD*
G04 #@! TA.AperFunction,Conductor*
%ADD15C,0.254000*%
G04 #@! TD*
G04 APERTURE END LIST*
D10*
G04 #@! TO.P,J5,1*
G04 #@! TO.N,Net-(J3-Pad1)*
X91900000Y-100237000D03*
D11*
G04 #@! TO.P,J5,2*
G04 #@! TO.N,GND*
X92100000Y-103062000D03*
X92100000Y-97412000D03*
G04 #@! TD*
D10*
G04 #@! TO.P,J1,1*
G04 #@! TO.N,Net-(J1-Pad1)*
X188100000Y-88237000D03*
D11*
G04 #@! TO.P,J1,2*
G04 #@! TO.N,GND*
X187900000Y-85412000D03*
X187900000Y-91062000D03*
G04 #@! TD*
G04 #@! TO.P,J2,2*
G04 #@! TO.N,GND*
X92100000Y-109411000D03*
X92100000Y-115061000D03*
D10*
G04 #@! TO.P,J2,1*
G04 #@! TO.N,Net-(J2-Pad1)*
X91900000Y-112236000D03*
G04 #@! TD*
D11*
G04 #@! TO.P,J3,2*
G04 #@! TO.N,GND*
X187900000Y-103062000D03*
X187900000Y-97412000D03*
D10*
G04 #@! TO.P,J3,1*
G04 #@! TO.N,Net-(J3-Pad1)*
X188100000Y-100237000D03*
G04 #@! TD*
G04 #@! TO.P,J4,1*
G04 #@! TO.N,Net-(J2-Pad1)*
X188100000Y-112236000D03*
D11*
G04 #@! TO.P,J4,2*
G04 #@! TO.N,GND*
X187900000Y-109411000D03*
X187900000Y-115061000D03*
G04 #@! TD*
G04 #@! TO.P,J6,2*
G04 #@! TO.N,GND*
X92100000Y-85412000D03*
X92100000Y-91062000D03*
D10*
G04 #@! TO.P,J6,1*
G04 #@! TO.N,Net-(J1-Pad1)*
X91900000Y-88237000D03*
G04 #@! TD*
D12*
G04 #@! TO.N,GND*
X182430000Y-94250000D03*
X137430000Y-94250000D03*
X139930000Y-94250000D03*
X142430000Y-94250000D03*
X144930000Y-94250000D03*
X147430000Y-94250000D03*
X177430000Y-94250000D03*
X179930000Y-94250000D03*
X159930000Y-94250000D03*
X162430000Y-94250000D03*
X164930000Y-94250000D03*
X167430000Y-94250000D03*
X172430000Y-94250000D03*
X124930000Y-94250000D03*
X127430000Y-94250000D03*
X129930000Y-94250000D03*
X132430000Y-94250000D03*
X134930000Y-94250000D03*
X97430000Y-94250000D03*
X112430000Y-94250000D03*
X114930000Y-94250000D03*
X117430000Y-94250000D03*
X119930000Y-94250000D03*
X122430000Y-94250000D03*
X102430000Y-94250000D03*
X104930000Y-94250000D03*
X107430000Y-94250000D03*
X109930000Y-94250000D03*
X149930000Y-94250000D03*
X152430000Y-94250000D03*
X154930000Y-94250000D03*
X157430000Y-94250000D03*
X99930000Y-94250000D03*
X169930000Y-94250000D03*
X174930000Y-94250000D03*
X93430000Y-81900000D03*
X95930000Y-81900000D03*
X115930000Y-81900000D03*
X118430000Y-81900000D03*
X120930000Y-81900000D03*
X123430000Y-81900000D03*
X125930000Y-81900000D03*
X128430000Y-81900000D03*
X130930000Y-81900000D03*
X133430000Y-81900000D03*
X135930000Y-81900000D03*
X175930000Y-81900000D03*
X178430000Y-81900000D03*
X180930000Y-81900000D03*
X183430000Y-81900000D03*
X185930000Y-81900000D03*
X188430000Y-81900000D03*
X90930000Y-81900000D03*
X160930000Y-81900000D03*
X163430000Y-81900000D03*
X165930000Y-81900000D03*
X168430000Y-81900000D03*
X170930000Y-81900000D03*
X173430000Y-81900000D03*
X145930000Y-81900000D03*
X98430000Y-81900000D03*
X100930000Y-81900000D03*
X103430000Y-81900000D03*
X105930000Y-81900000D03*
X108430000Y-81900000D03*
X110930000Y-81900000D03*
X113430000Y-81900000D03*
X138430000Y-81900000D03*
X140930000Y-81900000D03*
X143430000Y-81900000D03*
X148430000Y-81900000D03*
X150930000Y-81900000D03*
X153430000Y-81900000D03*
X155930000Y-81900000D03*
X158430000Y-81900000D03*
X94739876Y-86937000D03*
X94739876Y-89537000D03*
X183797521Y-86937000D03*
X185210813Y-86937000D03*
X182384229Y-86937000D03*
X183797521Y-89537000D03*
X185210813Y-89537000D03*
X182384229Y-89537000D03*
X96139876Y-89537000D03*
X97553168Y-89537000D03*
X98966460Y-89537000D03*
X100379752Y-89537000D03*
X101793044Y-89537000D03*
X103206336Y-89537000D03*
X104619628Y-89537000D03*
X106032920Y-89537000D03*
X107446212Y-89537000D03*
X108859504Y-89537000D03*
X110272796Y-89537000D03*
X111686088Y-89537000D03*
X113099380Y-89537000D03*
X114512672Y-89537000D03*
X115925964Y-89537000D03*
X117339256Y-89537000D03*
X118752548Y-89537000D03*
X120165840Y-89537000D03*
X121579132Y-89537000D03*
X122992424Y-89537000D03*
X124405716Y-89537000D03*
X125819008Y-89537000D03*
X127232300Y-89537000D03*
X128645592Y-89537000D03*
X130058884Y-89537000D03*
X131472176Y-89537000D03*
X132885468Y-89537000D03*
X134298760Y-89537000D03*
X135712052Y-89537000D03*
X137125345Y-89537000D03*
X138538637Y-89537000D03*
X139951929Y-89537000D03*
X141365221Y-89537000D03*
X142778513Y-89537000D03*
X144191805Y-89537000D03*
X145605097Y-89537000D03*
X147018389Y-89537000D03*
X148431681Y-89537000D03*
X149844973Y-89537000D03*
X151258265Y-89537000D03*
X152671557Y-89537000D03*
X154084849Y-89537000D03*
X155498141Y-89537000D03*
X156911433Y-89537000D03*
X158324725Y-89537000D03*
X159738017Y-89537000D03*
X161151309Y-89537000D03*
X162564601Y-89537000D03*
X163977893Y-89537000D03*
X165391185Y-89537000D03*
X166804477Y-89537000D03*
X168217769Y-89537000D03*
X169631061Y-89537000D03*
X171044353Y-89537000D03*
X172457645Y-89537000D03*
X173870937Y-89537000D03*
X175284229Y-89537000D03*
X176697521Y-89537000D03*
X178110813Y-89537000D03*
X179524105Y-89537000D03*
X180937398Y-89537000D03*
X179524105Y-86937000D03*
X178110813Y-86937000D03*
X176697521Y-86937000D03*
X175284229Y-86937000D03*
X173870937Y-86937000D03*
X172457645Y-86937000D03*
X171044353Y-86937000D03*
X169631061Y-86937000D03*
X168217769Y-86937000D03*
X166804477Y-86937000D03*
X165391185Y-86937000D03*
X163977893Y-86937000D03*
X162564601Y-86937000D03*
X161151309Y-86937000D03*
X159738017Y-86937000D03*
X158324725Y-86937000D03*
X156911433Y-86937000D03*
X155498141Y-86937000D03*
X154084849Y-86937000D03*
X152671557Y-86937000D03*
X151258265Y-86937000D03*
X149844973Y-86937000D03*
X148431681Y-86937000D03*
X147018389Y-86937000D03*
X145605097Y-86937000D03*
X144191805Y-86937000D03*
X142778513Y-86937000D03*
X141365221Y-86937000D03*
X139951929Y-86937000D03*
X138538637Y-86937000D03*
X137125345Y-86937000D03*
X135712052Y-86937000D03*
X134298760Y-86937000D03*
X132885468Y-86937000D03*
X131472176Y-86937000D03*
X130058884Y-86937000D03*
X128645592Y-86937000D03*
X127232300Y-86937000D03*
X125819008Y-86937000D03*
X124405716Y-86937000D03*
X122992424Y-86937000D03*
X121579132Y-86937000D03*
X120165840Y-86937000D03*
X118752548Y-86937000D03*
X117339256Y-86937000D03*
X115925964Y-86937000D03*
X114512672Y-86937000D03*
X113099380Y-86937000D03*
X111686088Y-86937000D03*
X110272796Y-86937000D03*
X108859504Y-86937000D03*
X107446212Y-86937000D03*
X106032920Y-86937000D03*
X104619628Y-86937000D03*
X103206336Y-86937000D03*
X101793044Y-86937000D03*
X100379752Y-86937000D03*
X98966460Y-86937000D03*
X97553168Y-86937000D03*
X96139876Y-86937000D03*
X180937398Y-86937000D03*
X94693002Y-98937000D03*
X94693002Y-101537000D03*
X179449083Y-101537000D03*
X180863723Y-101537000D03*
X183693002Y-101537000D03*
X182278362Y-101537000D03*
X185193002Y-101537000D03*
X182334444Y-98937000D03*
X185163723Y-98937000D03*
X180919805Y-98937000D03*
X179505165Y-98937000D03*
X183749083Y-98937000D03*
X96143918Y-101537000D03*
X97558557Y-101537000D03*
X98973196Y-101537000D03*
X100387836Y-101537000D03*
X101802475Y-101537000D03*
X103217115Y-101537000D03*
X104631754Y-101537000D03*
X106046393Y-101537000D03*
X107461033Y-101537000D03*
X108875672Y-101537000D03*
X110290311Y-101537000D03*
X111704951Y-101537000D03*
X113119590Y-101537000D03*
X114534230Y-101537000D03*
X115948869Y-101537000D03*
X117363508Y-101537000D03*
X118778148Y-101537000D03*
X120192787Y-101537000D03*
X121607426Y-101537000D03*
X123022066Y-101537000D03*
X124436705Y-101537000D03*
X125851345Y-101537000D03*
X127265984Y-101537000D03*
X128680623Y-101537000D03*
X130095263Y-101537000D03*
X131509902Y-101537000D03*
X132924541Y-101537000D03*
X134339181Y-101537000D03*
X135753820Y-101537000D03*
X137168460Y-101537000D03*
X138583099Y-101537000D03*
X139997738Y-101537000D03*
X141412378Y-101537000D03*
X142827017Y-101537000D03*
X144241656Y-101537000D03*
X145656296Y-101537000D03*
X147070935Y-101537000D03*
X148485575Y-101537000D03*
X149900214Y-101537000D03*
X151314853Y-101537000D03*
X152729493Y-101537000D03*
X154144132Y-101537000D03*
X155558771Y-101537000D03*
X156973411Y-101537000D03*
X158388050Y-101537000D03*
X159802690Y-101537000D03*
X161217329Y-101537000D03*
X162631968Y-101537000D03*
X164046608Y-101537000D03*
X165461247Y-101537000D03*
X166875886Y-101537000D03*
X168290526Y-101537000D03*
X169705165Y-101537000D03*
X171119805Y-101537000D03*
X172534444Y-101537000D03*
X173949083Y-101537000D03*
X175363723Y-101537000D03*
X176778362Y-101537000D03*
X178193002Y-101537000D03*
X176778362Y-98937000D03*
X175363723Y-98937000D03*
X173949083Y-98937000D03*
X172534444Y-98937000D03*
X171119805Y-98937000D03*
X169705165Y-98937000D03*
X168290526Y-98937000D03*
X166875886Y-98937000D03*
X165461247Y-98937000D03*
X164046608Y-98937000D03*
X162631968Y-98937000D03*
X161217329Y-98937000D03*
X159802690Y-98937000D03*
X158388050Y-98937000D03*
X156973411Y-98937000D03*
X155558771Y-98937000D03*
X154144132Y-98937000D03*
X152729493Y-98937000D03*
X151314853Y-98937000D03*
X149900214Y-98937000D03*
X148485575Y-98937000D03*
X147070935Y-98937000D03*
X145656296Y-98937000D03*
X144241656Y-98937000D03*
X142827017Y-98937000D03*
X141412378Y-98937000D03*
X139997738Y-98937000D03*
X138583099Y-98937000D03*
X137168460Y-98937000D03*
X135753820Y-98937000D03*
X134339181Y-98937000D03*
X132924541Y-98937000D03*
X131509902Y-98937000D03*
X130095263Y-98937000D03*
X128680623Y-98937000D03*
X127265984Y-98937000D03*
X125851345Y-98937000D03*
X124436705Y-98937000D03*
X123022066Y-98937000D03*
X121607426Y-98937000D03*
X120192787Y-98937000D03*
X118778148Y-98937000D03*
X117363508Y-98937000D03*
X115948869Y-98937000D03*
X114534230Y-98937000D03*
X113119590Y-98937000D03*
X111704951Y-98937000D03*
X110290311Y-98937000D03*
X108875672Y-98937000D03*
X107461033Y-98937000D03*
X106046393Y-98937000D03*
X104631754Y-98937000D03*
X103217115Y-98937000D03*
X101802475Y-98937000D03*
X100387836Y-98937000D03*
X98973196Y-98937000D03*
X97558557Y-98937000D03*
X96143918Y-98937000D03*
X178193002Y-98937000D03*
X95200000Y-111000000D03*
X95200000Y-113500000D03*
X184800000Y-113500000D03*
X184800000Y-111000000D03*
X97430000Y-106250000D03*
X99930000Y-106250000D03*
X102430000Y-106250000D03*
X104930000Y-106250000D03*
X107430000Y-106250000D03*
X109930000Y-106250000D03*
X112430000Y-106250000D03*
X114930000Y-106250000D03*
X117430000Y-106250000D03*
X119930000Y-106250000D03*
X122430000Y-106250000D03*
X124930000Y-106250000D03*
X127430000Y-106250000D03*
X129930000Y-106250000D03*
X132430000Y-106250000D03*
X134930000Y-106250000D03*
X137430000Y-106250000D03*
X139930000Y-106250000D03*
X142430000Y-106250000D03*
X144930000Y-106250000D03*
X147430000Y-106250000D03*
X149930000Y-106250000D03*
X152430000Y-106250000D03*
X154930000Y-106250000D03*
X157430000Y-106250000D03*
X159930000Y-106250000D03*
X162430000Y-106250000D03*
X164930000Y-106250000D03*
X167430000Y-106250000D03*
X169930000Y-106250000D03*
X172430000Y-106250000D03*
X174930000Y-106250000D03*
X177430000Y-106250000D03*
X179930000Y-106250000D03*
X156800000Y-113500000D03*
X158200000Y-113500000D03*
X159600000Y-113500000D03*
X161000000Y-113500000D03*
X98000000Y-113500000D03*
X140000000Y-113500000D03*
X141400000Y-113500000D03*
X142800000Y-113500000D03*
X109200000Y-113500000D03*
X112000000Y-113500000D03*
X173600000Y-113500000D03*
X175000000Y-113500000D03*
X176400000Y-113500000D03*
X177800000Y-113500000D03*
X179200000Y-113500000D03*
X180600000Y-113500000D03*
X105000000Y-113500000D03*
X103600000Y-113500000D03*
X100800000Y-113500000D03*
X151200000Y-113500000D03*
X152600000Y-113500000D03*
X154000000Y-113500000D03*
X155400000Y-113500000D03*
X107800000Y-113500000D03*
X144200000Y-113500000D03*
X127400000Y-113500000D03*
X128800000Y-113500000D03*
X130200000Y-113500000D03*
X96600000Y-113500000D03*
X99400000Y-113500000D03*
X168000000Y-113500000D03*
X169400000Y-113500000D03*
X170800000Y-113500000D03*
X172200000Y-113500000D03*
X106400000Y-113500000D03*
X113400000Y-113500000D03*
X110600000Y-113500000D03*
X102200000Y-113500000D03*
X162400000Y-113500000D03*
X163800000Y-113500000D03*
X165200000Y-113500000D03*
X166600000Y-113500000D03*
X135800000Y-113500000D03*
X137200000Y-113500000D03*
X138600000Y-113500000D03*
X131600000Y-113500000D03*
X133000000Y-113500000D03*
X134400000Y-113500000D03*
X120400000Y-113500000D03*
X121800000Y-113500000D03*
X123200000Y-113500000D03*
X124600000Y-113500000D03*
X126000000Y-113500000D03*
X114800000Y-113500000D03*
X116200000Y-113500000D03*
X117600000Y-113500000D03*
X119000000Y-113500000D03*
X145600000Y-113500000D03*
X147000000Y-113500000D03*
X148400000Y-113500000D03*
X149800000Y-113500000D03*
X90930000Y-118800000D03*
X96600000Y-111000000D03*
X98000000Y-111000000D03*
X99400000Y-111000000D03*
X100800000Y-111000000D03*
X102200000Y-111000000D03*
X103600000Y-111000000D03*
X105000000Y-111000000D03*
X106400000Y-111000000D03*
X107800000Y-111000000D03*
X109200000Y-111000000D03*
X110600000Y-111000000D03*
X112000000Y-111000000D03*
X113400000Y-111000000D03*
X114800000Y-111000000D03*
X116200000Y-111000000D03*
X117600000Y-111000000D03*
X119000000Y-111000000D03*
X120400000Y-111000000D03*
X121800000Y-111000000D03*
X123200000Y-111000000D03*
X124600000Y-111000000D03*
X126000000Y-111000000D03*
X127400000Y-111000000D03*
X128800000Y-111000000D03*
X130200000Y-111000000D03*
X131600000Y-111000000D03*
X133000000Y-111000000D03*
X134400000Y-111000000D03*
X135800000Y-111000000D03*
X137200000Y-111000000D03*
X138600000Y-111000000D03*
X140000000Y-111000000D03*
X141400000Y-111000000D03*
X142800000Y-111000000D03*
X144200000Y-111000000D03*
X145600000Y-111000000D03*
X147000000Y-111000000D03*
X148400000Y-111000000D03*
X149800000Y-111000000D03*
X151200000Y-111000000D03*
X152600000Y-111000000D03*
X154000000Y-111000000D03*
X155400000Y-111000000D03*
X156800000Y-111000000D03*
X158200000Y-111000000D03*
X159600000Y-111000000D03*
X161000000Y-111000000D03*
X162400000Y-111000000D03*
X163800000Y-111000000D03*
X165200000Y-111000000D03*
X166600000Y-111000000D03*
X168000000Y-111000000D03*
X169400000Y-111000000D03*
X170800000Y-111000000D03*
X172200000Y-111000000D03*
X173600000Y-111000000D03*
X175000000Y-111000000D03*
X176400000Y-111000000D03*
X177800000Y-111000000D03*
X179200000Y-111000000D03*
X180600000Y-111000000D03*
X93430000Y-118800000D03*
X95930000Y-118800000D03*
X98430000Y-118800000D03*
X100930000Y-118800000D03*
X103430000Y-118800000D03*
X105930000Y-118800000D03*
X108430000Y-118800000D03*
X110930000Y-118800000D03*
X113430000Y-118800000D03*
X115930000Y-118800000D03*
X118430000Y-118800000D03*
X120930000Y-118800000D03*
X123430000Y-118800000D03*
X125930000Y-118800000D03*
X128430000Y-118800000D03*
X130930000Y-118800000D03*
X133430000Y-118800000D03*
X135930000Y-118800000D03*
X138430000Y-118800000D03*
X140930000Y-118800000D03*
X143430000Y-118800000D03*
X145930000Y-118800000D03*
X148430000Y-118800000D03*
X150930000Y-118800000D03*
X153430000Y-118800000D03*
X155930000Y-118800000D03*
X158430000Y-118800000D03*
X160930000Y-118800000D03*
X163430000Y-118800000D03*
X165930000Y-118800000D03*
X168430000Y-118800000D03*
X170930000Y-118800000D03*
X173430000Y-118800000D03*
X175930000Y-118800000D03*
X178430000Y-118800000D03*
X180930000Y-118800000D03*
X183430000Y-118800000D03*
X185930000Y-118800000D03*
X188430000Y-118800000D03*
X182000000Y-111000000D03*
X183400000Y-111000000D03*
X182000000Y-113500000D03*
X183400000Y-113500000D03*
X182430000Y-106250000D03*
X90900000Y-83600000D03*
X92100000Y-83600000D03*
X94600000Y-83600000D03*
X95400000Y-85400000D03*
X90900000Y-92800000D03*
X92100000Y-92900000D03*
X93500000Y-92900000D03*
X95000000Y-92600000D03*
X95400000Y-91100000D03*
X93400000Y-83600000D03*
X90800000Y-95700000D03*
X92100000Y-95600000D03*
X93600000Y-95600000D03*
X95300000Y-96200000D03*
X95400000Y-97500000D03*
X90800000Y-104900000D03*
X92100000Y-105000000D03*
X93700000Y-105000000D03*
X95200000Y-104700000D03*
X95300000Y-103000000D03*
X90900000Y-107600000D03*
X92200000Y-107600000D03*
X93700000Y-107500000D03*
X95300000Y-107900000D03*
X95300000Y-109300000D03*
X90800000Y-116900000D03*
X92100000Y-117000000D03*
X93600000Y-117000000D03*
X95100000Y-116700000D03*
X95400000Y-115100000D03*
X189200000Y-83600000D03*
X187800000Y-83600000D03*
X186400000Y-83600000D03*
X184900000Y-83900000D03*
X184700000Y-85400000D03*
X189200000Y-92900000D03*
X187700000Y-92900000D03*
X186000000Y-92900000D03*
X184400000Y-92200000D03*
X184300000Y-90800000D03*
X189100000Y-95600000D03*
X187800000Y-95500000D03*
X186200000Y-95500000D03*
X184600000Y-96000000D03*
X184500000Y-97500000D03*
X184500000Y-102900000D03*
X184800000Y-104600000D03*
X186500000Y-105000000D03*
X188000000Y-104900000D03*
X189200000Y-104900000D03*
X189100000Y-107700000D03*
X187800000Y-107600000D03*
X186100000Y-107600000D03*
X184800000Y-108100000D03*
X184700000Y-109500000D03*
X189200000Y-116900000D03*
X187700000Y-117000000D03*
X186400000Y-117000000D03*
X184900000Y-116500000D03*
X184600000Y-115000000D03*
G04 #@! TD*
D13*
G04 #@! TO.N,Net-(J1-Pad1)*
X180937398Y-88237000D02*
X188100000Y-88237000D01*
X91900000Y-88237000D02*
X180937398Y-88237000D01*
D14*
G04 #@! TO.N,Net-(J3-Pad1)*
X178193002Y-100237000D02*
X188100000Y-100237000D01*
X91900000Y-100237000D02*
X178193002Y-100237000D01*
D13*
G04 #@! TO.N,Net-(J2-Pad1)*
X183875362Y-112237000D02*
X188100000Y-112237000D01*
X91900000Y-112237000D02*
X183875362Y-112237000D01*
G04 #@! TD*
D15*
G04 #@! TO.N,GND*
G36*
X186117450Y-113144206D02*
G01*
X186174257Y-113174570D01*
X186235897Y-113193268D01*
X186300000Y-113199582D01*
X189623001Y-113199582D01*
X189623001Y-113748566D01*
X188185750Y-113751000D01*
X188027000Y-113909750D01*
X188027000Y-114934000D01*
X188047000Y-114934000D01*
X188047000Y-115188000D01*
X188027000Y-115188000D01*
X188027000Y-116212250D01*
X188185750Y-116371000D01*
X189623001Y-116373434D01*
X189623001Y-119623000D01*
X90377000Y-119623000D01*
X90377000Y-116373434D01*
X91814250Y-116371000D01*
X91973000Y-116212250D01*
X91973000Y-115188000D01*
X92227000Y-115188000D01*
X92227000Y-116212250D01*
X92385750Y-116371000D01*
X94200000Y-116374072D01*
X94324482Y-116361812D01*
X94444180Y-116325502D01*
X94554494Y-116266537D01*
X94651185Y-116187185D01*
X94730537Y-116090494D01*
X94789502Y-115980180D01*
X94825812Y-115860482D01*
X94838072Y-115736000D01*
X185161928Y-115736000D01*
X185174188Y-115860482D01*
X185210498Y-115980180D01*
X185269463Y-116090494D01*
X185348815Y-116187185D01*
X185445506Y-116266537D01*
X185555820Y-116325502D01*
X185675518Y-116361812D01*
X185800000Y-116374072D01*
X187614250Y-116371000D01*
X187773000Y-116212250D01*
X187773000Y-115188000D01*
X185323750Y-115188000D01*
X185165000Y-115346750D01*
X185161928Y-115736000D01*
X94838072Y-115736000D01*
X94835000Y-115346750D01*
X94676250Y-115188000D01*
X92227000Y-115188000D01*
X91973000Y-115188000D01*
X91953000Y-115188000D01*
X91953000Y-114934000D01*
X91973000Y-114934000D01*
X91973000Y-113909750D01*
X92227000Y-113909750D01*
X92227000Y-114934000D01*
X94676250Y-114934000D01*
X94835000Y-114775250D01*
X94838072Y-114386000D01*
X185161928Y-114386000D01*
X185165000Y-114775250D01*
X185323750Y-114934000D01*
X187773000Y-114934000D01*
X187773000Y-113909750D01*
X187614250Y-113751000D01*
X185800000Y-113747928D01*
X185675518Y-113760188D01*
X185555820Y-113796498D01*
X185445506Y-113855463D01*
X185348815Y-113934815D01*
X185269463Y-114031506D01*
X185210498Y-114141820D01*
X185174188Y-114261518D01*
X185161928Y-114386000D01*
X94838072Y-114386000D01*
X94825812Y-114261518D01*
X94789502Y-114141820D01*
X94730537Y-114031506D01*
X94651185Y-113934815D01*
X94554494Y-113855463D01*
X94444180Y-113796498D01*
X94324482Y-113760188D01*
X94200000Y-113747928D01*
X92385750Y-113751000D01*
X92227000Y-113909750D01*
X91973000Y-113909750D01*
X91814250Y-113751000D01*
X90377000Y-113748566D01*
X90377000Y-113199582D01*
X93700000Y-113199582D01*
X93764103Y-113193268D01*
X93825743Y-113174570D01*
X93882550Y-113144206D01*
X93910827Y-113121000D01*
X186089173Y-113121000D01*
X186117450Y-113144206D01*
G37*
X186117450Y-113144206D02*
X186174257Y-113174570D01*
X186235897Y-113193268D01*
X186300000Y-113199582D01*
X189623001Y-113199582D01*
X189623001Y-113748566D01*
X188185750Y-113751000D01*
X188027000Y-113909750D01*
X188027000Y-114934000D01*
X188047000Y-114934000D01*
X188047000Y-115188000D01*
X188027000Y-115188000D01*
X188027000Y-116212250D01*
X188185750Y-116371000D01*
X189623001Y-116373434D01*
X189623001Y-119623000D01*
X90377000Y-119623000D01*
X90377000Y-116373434D01*
X91814250Y-116371000D01*
X91973000Y-116212250D01*
X91973000Y-115188000D01*
X92227000Y-115188000D01*
X92227000Y-116212250D01*
X92385750Y-116371000D01*
X94200000Y-116374072D01*
X94324482Y-116361812D01*
X94444180Y-116325502D01*
X94554494Y-116266537D01*
X94651185Y-116187185D01*
X94730537Y-116090494D01*
X94789502Y-115980180D01*
X94825812Y-115860482D01*
X94838072Y-115736000D01*
X185161928Y-115736000D01*
X185174188Y-115860482D01*
X185210498Y-115980180D01*
X185269463Y-116090494D01*
X185348815Y-116187185D01*
X185445506Y-116266537D01*
X185555820Y-116325502D01*
X185675518Y-116361812D01*
X185800000Y-116374072D01*
X187614250Y-116371000D01*
X187773000Y-116212250D01*
X187773000Y-115188000D01*
X185323750Y-115188000D01*
X185165000Y-115346750D01*
X185161928Y-115736000D01*
X94838072Y-115736000D01*
X94835000Y-115346750D01*
X94676250Y-115188000D01*
X92227000Y-115188000D01*
X91973000Y-115188000D01*
X91953000Y-115188000D01*
X91953000Y-114934000D01*
X91973000Y-114934000D01*
X91973000Y-113909750D01*
X92227000Y-113909750D01*
X92227000Y-114934000D01*
X94676250Y-114934000D01*
X94835000Y-114775250D01*
X94838072Y-114386000D01*
X185161928Y-114386000D01*
X185165000Y-114775250D01*
X185323750Y-114934000D01*
X187773000Y-114934000D01*
X187773000Y-113909750D01*
X187614250Y-113751000D01*
X185800000Y-113747928D01*
X185675518Y-113760188D01*
X185555820Y-113796498D01*
X185445506Y-113855463D01*
X185348815Y-113934815D01*
X185269463Y-114031506D01*
X185210498Y-114141820D01*
X185174188Y-114261518D01*
X185161928Y-114386000D01*
X94838072Y-114386000D01*
X94825812Y-114261518D01*
X94789502Y-114141820D01*
X94730537Y-114031506D01*
X94651185Y-113934815D01*
X94554494Y-113855463D01*
X94444180Y-113796498D01*
X94324482Y-113760188D01*
X94200000Y-113747928D01*
X92385750Y-113751000D01*
X92227000Y-113909750D01*
X91973000Y-113909750D01*
X91814250Y-113751000D01*
X90377000Y-113748566D01*
X90377000Y-113199582D01*
X93700000Y-113199582D01*
X93764103Y-113193268D01*
X93825743Y-113174570D01*
X93882550Y-113144206D01*
X93910827Y-113121000D01*
X186089173Y-113121000D01*
X186117450Y-113144206D01*
G36*
X186174257Y-101175570D02*
G01*
X186235897Y-101194268D01*
X186300000Y-101200582D01*
X189623000Y-101200582D01*
X189623000Y-101749566D01*
X188185750Y-101752000D01*
X188027000Y-101910750D01*
X188027000Y-102935000D01*
X188047000Y-102935000D01*
X188047000Y-103189000D01*
X188027000Y-103189000D01*
X188027000Y-104213250D01*
X188185750Y-104372000D01*
X189623000Y-104374434D01*
X189623001Y-108098566D01*
X188185750Y-108101000D01*
X188027000Y-108259750D01*
X188027000Y-109284000D01*
X188047000Y-109284000D01*
X188047000Y-109538000D01*
X188027000Y-109538000D01*
X188027000Y-110562250D01*
X188185750Y-110721000D01*
X189623001Y-110723434D01*
X189623001Y-111272418D01*
X186300000Y-111272418D01*
X186235897Y-111278732D01*
X186174257Y-111297430D01*
X186117450Y-111327794D01*
X186086736Y-111353000D01*
X93913264Y-111353000D01*
X93882550Y-111327794D01*
X93825743Y-111297430D01*
X93764103Y-111278732D01*
X93700000Y-111272418D01*
X90377000Y-111272418D01*
X90377000Y-110723434D01*
X91814250Y-110721000D01*
X91973000Y-110562250D01*
X91973000Y-109538000D01*
X92227000Y-109538000D01*
X92227000Y-110562250D01*
X92385750Y-110721000D01*
X94200000Y-110724072D01*
X94324482Y-110711812D01*
X94444180Y-110675502D01*
X94554494Y-110616537D01*
X94651185Y-110537185D01*
X94730537Y-110440494D01*
X94789502Y-110330180D01*
X94825812Y-110210482D01*
X94838072Y-110086000D01*
X185161928Y-110086000D01*
X185174188Y-110210482D01*
X185210498Y-110330180D01*
X185269463Y-110440494D01*
X185348815Y-110537185D01*
X185445506Y-110616537D01*
X185555820Y-110675502D01*
X185675518Y-110711812D01*
X185800000Y-110724072D01*
X187614250Y-110721000D01*
X187773000Y-110562250D01*
X187773000Y-109538000D01*
X185323750Y-109538000D01*
X185165000Y-109696750D01*
X185161928Y-110086000D01*
X94838072Y-110086000D01*
X94835000Y-109696750D01*
X94676250Y-109538000D01*
X92227000Y-109538000D01*
X91973000Y-109538000D01*
X91953000Y-109538000D01*
X91953000Y-109284000D01*
X91973000Y-109284000D01*
X91973000Y-108259750D01*
X92227000Y-108259750D01*
X92227000Y-109284000D01*
X94676250Y-109284000D01*
X94835000Y-109125250D01*
X94838072Y-108736000D01*
X185161928Y-108736000D01*
X185165000Y-109125250D01*
X185323750Y-109284000D01*
X187773000Y-109284000D01*
X187773000Y-108259750D01*
X187614250Y-108101000D01*
X185800000Y-108097928D01*
X185675518Y-108110188D01*
X185555820Y-108146498D01*
X185445506Y-108205463D01*
X185348815Y-108284815D01*
X185269463Y-108381506D01*
X185210498Y-108491820D01*
X185174188Y-108611518D01*
X185161928Y-108736000D01*
X94838072Y-108736000D01*
X94825812Y-108611518D01*
X94789502Y-108491820D01*
X94730537Y-108381506D01*
X94651185Y-108284815D01*
X94554494Y-108205463D01*
X94444180Y-108146498D01*
X94324482Y-108110188D01*
X94200000Y-108097928D01*
X92385750Y-108101000D01*
X92227000Y-108259750D01*
X91973000Y-108259750D01*
X91814250Y-108101000D01*
X90377000Y-108098566D01*
X90377000Y-104374434D01*
X91814250Y-104372000D01*
X91973000Y-104213250D01*
X91973000Y-103189000D01*
X92227000Y-103189000D01*
X92227000Y-104213250D01*
X92385750Y-104372000D01*
X94200000Y-104375072D01*
X94324482Y-104362812D01*
X94444180Y-104326502D01*
X94554494Y-104267537D01*
X94651185Y-104188185D01*
X94730537Y-104091494D01*
X94789502Y-103981180D01*
X94825812Y-103861482D01*
X94838072Y-103737000D01*
X185161928Y-103737000D01*
X185174188Y-103861482D01*
X185210498Y-103981180D01*
X185269463Y-104091494D01*
X185348815Y-104188185D01*
X185445506Y-104267537D01*
X185555820Y-104326502D01*
X185675518Y-104362812D01*
X185800000Y-104375072D01*
X187614250Y-104372000D01*
X187773000Y-104213250D01*
X187773000Y-103189000D01*
X185323750Y-103189000D01*
X185165000Y-103347750D01*
X185161928Y-103737000D01*
X94838072Y-103737000D01*
X94835000Y-103347750D01*
X94676250Y-103189000D01*
X92227000Y-103189000D01*
X91973000Y-103189000D01*
X91953000Y-103189000D01*
X91953000Y-102935000D01*
X91973000Y-102935000D01*
X91973000Y-101910750D01*
X92227000Y-101910750D01*
X92227000Y-102935000D01*
X94676250Y-102935000D01*
X94835000Y-102776250D01*
X94838072Y-102387000D01*
X185161928Y-102387000D01*
X185165000Y-102776250D01*
X185323750Y-102935000D01*
X187773000Y-102935000D01*
X187773000Y-101910750D01*
X187614250Y-101752000D01*
X185800000Y-101748928D01*
X185675518Y-101761188D01*
X185555820Y-101797498D01*
X185445506Y-101856463D01*
X185348815Y-101935815D01*
X185269463Y-102032506D01*
X185210498Y-102142820D01*
X185174188Y-102262518D01*
X185161928Y-102387000D01*
X94838072Y-102387000D01*
X94825812Y-102262518D01*
X94789502Y-102142820D01*
X94730537Y-102032506D01*
X94651185Y-101935815D01*
X94554494Y-101856463D01*
X94444180Y-101797498D01*
X94324482Y-101761188D01*
X94200000Y-101748928D01*
X92385750Y-101752000D01*
X92227000Y-101910750D01*
X91973000Y-101910750D01*
X91814250Y-101752000D01*
X90377000Y-101749566D01*
X90377000Y-101200582D01*
X93700000Y-101200582D01*
X93764103Y-101194268D01*
X93825743Y-101175570D01*
X93847389Y-101164000D01*
X186152611Y-101164000D01*
X186174257Y-101175570D01*
G37*
X186174257Y-101175570D02*
X186235897Y-101194268D01*
X186300000Y-101200582D01*
X189623000Y-101200582D01*
X189623000Y-101749566D01*
X188185750Y-101752000D01*
X188027000Y-101910750D01*
X188027000Y-102935000D01*
X188047000Y-102935000D01*
X188047000Y-103189000D01*
X188027000Y-103189000D01*
X188027000Y-104213250D01*
X188185750Y-104372000D01*
X189623000Y-104374434D01*
X189623001Y-108098566D01*
X188185750Y-108101000D01*
X188027000Y-108259750D01*
X188027000Y-109284000D01*
X188047000Y-109284000D01*
X188047000Y-109538000D01*
X188027000Y-109538000D01*
X188027000Y-110562250D01*
X188185750Y-110721000D01*
X189623001Y-110723434D01*
X189623001Y-111272418D01*
X186300000Y-111272418D01*
X186235897Y-111278732D01*
X186174257Y-111297430D01*
X186117450Y-111327794D01*
X186086736Y-111353000D01*
X93913264Y-111353000D01*
X93882550Y-111327794D01*
X93825743Y-111297430D01*
X93764103Y-111278732D01*
X93700000Y-111272418D01*
X90377000Y-111272418D01*
X90377000Y-110723434D01*
X91814250Y-110721000D01*
X91973000Y-110562250D01*
X91973000Y-109538000D01*
X92227000Y-109538000D01*
X92227000Y-110562250D01*
X92385750Y-110721000D01*
X94200000Y-110724072D01*
X94324482Y-110711812D01*
X94444180Y-110675502D01*
X94554494Y-110616537D01*
X94651185Y-110537185D01*
X94730537Y-110440494D01*
X94789502Y-110330180D01*
X94825812Y-110210482D01*
X94838072Y-110086000D01*
X185161928Y-110086000D01*
X185174188Y-110210482D01*
X185210498Y-110330180D01*
X185269463Y-110440494D01*
X185348815Y-110537185D01*
X185445506Y-110616537D01*
X185555820Y-110675502D01*
X185675518Y-110711812D01*
X185800000Y-110724072D01*
X187614250Y-110721000D01*
X187773000Y-110562250D01*
X187773000Y-109538000D01*
X185323750Y-109538000D01*
X185165000Y-109696750D01*
X185161928Y-110086000D01*
X94838072Y-110086000D01*
X94835000Y-109696750D01*
X94676250Y-109538000D01*
X92227000Y-109538000D01*
X91973000Y-109538000D01*
X91953000Y-109538000D01*
X91953000Y-109284000D01*
X91973000Y-109284000D01*
X91973000Y-108259750D01*
X92227000Y-108259750D01*
X92227000Y-109284000D01*
X94676250Y-109284000D01*
X94835000Y-109125250D01*
X94838072Y-108736000D01*
X185161928Y-108736000D01*
X185165000Y-109125250D01*
X185323750Y-109284000D01*
X187773000Y-109284000D01*
X187773000Y-108259750D01*
X187614250Y-108101000D01*
X185800000Y-108097928D01*
X185675518Y-108110188D01*
X185555820Y-108146498D01*
X185445506Y-108205463D01*
X185348815Y-108284815D01*
X185269463Y-108381506D01*
X185210498Y-108491820D01*
X185174188Y-108611518D01*
X185161928Y-108736000D01*
X94838072Y-108736000D01*
X94825812Y-108611518D01*
X94789502Y-108491820D01*
X94730537Y-108381506D01*
X94651185Y-108284815D01*
X94554494Y-108205463D01*
X94444180Y-108146498D01*
X94324482Y-108110188D01*
X94200000Y-108097928D01*
X92385750Y-108101000D01*
X92227000Y-108259750D01*
X91973000Y-108259750D01*
X91814250Y-108101000D01*
X90377000Y-108098566D01*
X90377000Y-104374434D01*
X91814250Y-104372000D01*
X91973000Y-104213250D01*
X91973000Y-103189000D01*
X92227000Y-103189000D01*
X92227000Y-104213250D01*
X92385750Y-104372000D01*
X94200000Y-104375072D01*
X94324482Y-104362812D01*
X94444180Y-104326502D01*
X94554494Y-104267537D01*
X94651185Y-104188185D01*
X94730537Y-104091494D01*
X94789502Y-103981180D01*
X94825812Y-103861482D01*
X94838072Y-103737000D01*
X185161928Y-103737000D01*
X185174188Y-103861482D01*
X185210498Y-103981180D01*
X185269463Y-104091494D01*
X185348815Y-104188185D01*
X185445506Y-104267537D01*
X185555820Y-104326502D01*
X185675518Y-104362812D01*
X185800000Y-104375072D01*
X187614250Y-104372000D01*
X187773000Y-104213250D01*
X187773000Y-103189000D01*
X185323750Y-103189000D01*
X185165000Y-103347750D01*
X185161928Y-103737000D01*
X94838072Y-103737000D01*
X94835000Y-103347750D01*
X94676250Y-103189000D01*
X92227000Y-103189000D01*
X91973000Y-103189000D01*
X91953000Y-103189000D01*
X91953000Y-102935000D01*
X91973000Y-102935000D01*
X91973000Y-101910750D01*
X92227000Y-101910750D01*
X92227000Y-102935000D01*
X94676250Y-102935000D01*
X94835000Y-102776250D01*
X94838072Y-102387000D01*
X185161928Y-102387000D01*
X185165000Y-102776250D01*
X185323750Y-102935000D01*
X187773000Y-102935000D01*
X187773000Y-101910750D01*
X187614250Y-101752000D01*
X185800000Y-101748928D01*
X185675518Y-101761188D01*
X185555820Y-101797498D01*
X185445506Y-101856463D01*
X185348815Y-101935815D01*
X185269463Y-102032506D01*
X185210498Y-102142820D01*
X185174188Y-102262518D01*
X185161928Y-102387000D01*
X94838072Y-102387000D01*
X94825812Y-102262518D01*
X94789502Y-102142820D01*
X94730537Y-102032506D01*
X94651185Y-101935815D01*
X94554494Y-101856463D01*
X94444180Y-101797498D01*
X94324482Y-101761188D01*
X94200000Y-101748928D01*
X92385750Y-101752000D01*
X92227000Y-101910750D01*
X91973000Y-101910750D01*
X91814250Y-101752000D01*
X90377000Y-101749566D01*
X90377000Y-101200582D01*
X93700000Y-101200582D01*
X93764103Y-101194268D01*
X93825743Y-101175570D01*
X93847389Y-101164000D01*
X186152611Y-101164000D01*
X186174257Y-101175570D01*
G36*
X186117450Y-89145206D02*
G01*
X186174257Y-89175570D01*
X186235897Y-89194268D01*
X186300000Y-89200582D01*
X189623001Y-89200582D01*
X189623001Y-89749566D01*
X188185750Y-89752000D01*
X188027000Y-89910750D01*
X188027000Y-90935000D01*
X188047000Y-90935000D01*
X188047000Y-91189000D01*
X188027000Y-91189000D01*
X188027000Y-92213250D01*
X188185750Y-92372000D01*
X189623001Y-92374434D01*
X189623001Y-92381472D01*
X189623000Y-92381482D01*
X189623000Y-96099566D01*
X188185750Y-96102000D01*
X188027000Y-96260750D01*
X188027000Y-97285000D01*
X188047000Y-97285000D01*
X188047000Y-97539000D01*
X188027000Y-97539000D01*
X188027000Y-98563250D01*
X188185750Y-98722000D01*
X189623000Y-98724434D01*
X189623000Y-99273418D01*
X186300000Y-99273418D01*
X186235897Y-99279732D01*
X186174257Y-99298430D01*
X186152611Y-99310000D01*
X93847389Y-99310000D01*
X93825743Y-99298430D01*
X93764103Y-99279732D01*
X93700000Y-99273418D01*
X90377000Y-99273418D01*
X90377000Y-98724434D01*
X91814250Y-98722000D01*
X91973000Y-98563250D01*
X91973000Y-97539000D01*
X92227000Y-97539000D01*
X92227000Y-98563250D01*
X92385750Y-98722000D01*
X94200000Y-98725072D01*
X94324482Y-98712812D01*
X94444180Y-98676502D01*
X94554494Y-98617537D01*
X94651185Y-98538185D01*
X94730537Y-98441494D01*
X94789502Y-98331180D01*
X94825812Y-98211482D01*
X94838072Y-98087000D01*
X185161928Y-98087000D01*
X185174188Y-98211482D01*
X185210498Y-98331180D01*
X185269463Y-98441494D01*
X185348815Y-98538185D01*
X185445506Y-98617537D01*
X185555820Y-98676502D01*
X185675518Y-98712812D01*
X185800000Y-98725072D01*
X187614250Y-98722000D01*
X187773000Y-98563250D01*
X187773000Y-97539000D01*
X185323750Y-97539000D01*
X185165000Y-97697750D01*
X185161928Y-98087000D01*
X94838072Y-98087000D01*
X94835000Y-97697750D01*
X94676250Y-97539000D01*
X92227000Y-97539000D01*
X91973000Y-97539000D01*
X91953000Y-97539000D01*
X91953000Y-97285000D01*
X91973000Y-97285000D01*
X91973000Y-96260750D01*
X92227000Y-96260750D01*
X92227000Y-97285000D01*
X94676250Y-97285000D01*
X94835000Y-97126250D01*
X94838072Y-96737000D01*
X185161928Y-96737000D01*
X185165000Y-97126250D01*
X185323750Y-97285000D01*
X187773000Y-97285000D01*
X187773000Y-96260750D01*
X187614250Y-96102000D01*
X185800000Y-96098928D01*
X185675518Y-96111188D01*
X185555820Y-96147498D01*
X185445506Y-96206463D01*
X185348815Y-96285815D01*
X185269463Y-96382506D01*
X185210498Y-96492820D01*
X185174188Y-96612518D01*
X185161928Y-96737000D01*
X94838072Y-96737000D01*
X94825812Y-96612518D01*
X94789502Y-96492820D01*
X94730537Y-96382506D01*
X94651185Y-96285815D01*
X94554494Y-96206463D01*
X94444180Y-96147498D01*
X94324482Y-96111188D01*
X94200000Y-96098928D01*
X92385750Y-96102000D01*
X92227000Y-96260750D01*
X91973000Y-96260750D01*
X91814250Y-96102000D01*
X90377000Y-96099566D01*
X90377000Y-92374434D01*
X91814250Y-92372000D01*
X91973000Y-92213250D01*
X91973000Y-91189000D01*
X92227000Y-91189000D01*
X92227000Y-92213250D01*
X92385750Y-92372000D01*
X94200000Y-92375072D01*
X94324482Y-92362812D01*
X94444180Y-92326502D01*
X94554494Y-92267537D01*
X94651185Y-92188185D01*
X94730537Y-92091494D01*
X94789502Y-91981180D01*
X94825812Y-91861482D01*
X94838072Y-91737000D01*
X185161928Y-91737000D01*
X185174188Y-91861482D01*
X185210498Y-91981180D01*
X185269463Y-92091494D01*
X185348815Y-92188185D01*
X185445506Y-92267537D01*
X185555820Y-92326502D01*
X185675518Y-92362812D01*
X185800000Y-92375072D01*
X187614250Y-92372000D01*
X187773000Y-92213250D01*
X187773000Y-91189000D01*
X185323750Y-91189000D01*
X185165000Y-91347750D01*
X185161928Y-91737000D01*
X94838072Y-91737000D01*
X94835000Y-91347750D01*
X94676250Y-91189000D01*
X92227000Y-91189000D01*
X91973000Y-91189000D01*
X91953000Y-91189000D01*
X91953000Y-90935000D01*
X91973000Y-90935000D01*
X91973000Y-89910750D01*
X92227000Y-89910750D01*
X92227000Y-90935000D01*
X94676250Y-90935000D01*
X94835000Y-90776250D01*
X94838072Y-90387000D01*
X185161928Y-90387000D01*
X185165000Y-90776250D01*
X185323750Y-90935000D01*
X187773000Y-90935000D01*
X187773000Y-89910750D01*
X187614250Y-89752000D01*
X185800000Y-89748928D01*
X185675518Y-89761188D01*
X185555820Y-89797498D01*
X185445506Y-89856463D01*
X185348815Y-89935815D01*
X185269463Y-90032506D01*
X185210498Y-90142820D01*
X185174188Y-90262518D01*
X185161928Y-90387000D01*
X94838072Y-90387000D01*
X94825812Y-90262518D01*
X94789502Y-90142820D01*
X94730537Y-90032506D01*
X94651185Y-89935815D01*
X94554494Y-89856463D01*
X94444180Y-89797498D01*
X94324482Y-89761188D01*
X94200000Y-89748928D01*
X92385750Y-89752000D01*
X92227000Y-89910750D01*
X91973000Y-89910750D01*
X91814250Y-89752000D01*
X90377000Y-89749566D01*
X90377000Y-89200582D01*
X93700000Y-89200582D01*
X93764103Y-89194268D01*
X93825743Y-89175570D01*
X93882550Y-89145206D01*
X93912046Y-89121000D01*
X186087954Y-89121000D01*
X186117450Y-89145206D01*
G37*
X186117450Y-89145206D02*
X186174257Y-89175570D01*
X186235897Y-89194268D01*
X186300000Y-89200582D01*
X189623001Y-89200582D01*
X189623001Y-89749566D01*
X188185750Y-89752000D01*
X188027000Y-89910750D01*
X188027000Y-90935000D01*
X188047000Y-90935000D01*
X188047000Y-91189000D01*
X188027000Y-91189000D01*
X188027000Y-92213250D01*
X188185750Y-92372000D01*
X189623001Y-92374434D01*
X189623001Y-92381472D01*
X189623000Y-92381482D01*
X189623000Y-96099566D01*
X188185750Y-96102000D01*
X188027000Y-96260750D01*
X188027000Y-97285000D01*
X188047000Y-97285000D01*
X188047000Y-97539000D01*
X188027000Y-97539000D01*
X188027000Y-98563250D01*
X188185750Y-98722000D01*
X189623000Y-98724434D01*
X189623000Y-99273418D01*
X186300000Y-99273418D01*
X186235897Y-99279732D01*
X186174257Y-99298430D01*
X186152611Y-99310000D01*
X93847389Y-99310000D01*
X93825743Y-99298430D01*
X93764103Y-99279732D01*
X93700000Y-99273418D01*
X90377000Y-99273418D01*
X90377000Y-98724434D01*
X91814250Y-98722000D01*
X91973000Y-98563250D01*
X91973000Y-97539000D01*
X92227000Y-97539000D01*
X92227000Y-98563250D01*
X92385750Y-98722000D01*
X94200000Y-98725072D01*
X94324482Y-98712812D01*
X94444180Y-98676502D01*
X94554494Y-98617537D01*
X94651185Y-98538185D01*
X94730537Y-98441494D01*
X94789502Y-98331180D01*
X94825812Y-98211482D01*
X94838072Y-98087000D01*
X185161928Y-98087000D01*
X185174188Y-98211482D01*
X185210498Y-98331180D01*
X185269463Y-98441494D01*
X185348815Y-98538185D01*
X185445506Y-98617537D01*
X185555820Y-98676502D01*
X185675518Y-98712812D01*
X185800000Y-98725072D01*
X187614250Y-98722000D01*
X187773000Y-98563250D01*
X187773000Y-97539000D01*
X185323750Y-97539000D01*
X185165000Y-97697750D01*
X185161928Y-98087000D01*
X94838072Y-98087000D01*
X94835000Y-97697750D01*
X94676250Y-97539000D01*
X92227000Y-97539000D01*
X91973000Y-97539000D01*
X91953000Y-97539000D01*
X91953000Y-97285000D01*
X91973000Y-97285000D01*
X91973000Y-96260750D01*
X92227000Y-96260750D01*
X92227000Y-97285000D01*
X94676250Y-97285000D01*
X94835000Y-97126250D01*
X94838072Y-96737000D01*
X185161928Y-96737000D01*
X185165000Y-97126250D01*
X185323750Y-97285000D01*
X187773000Y-97285000D01*
X187773000Y-96260750D01*
X187614250Y-96102000D01*
X185800000Y-96098928D01*
X185675518Y-96111188D01*
X185555820Y-96147498D01*
X185445506Y-96206463D01*
X185348815Y-96285815D01*
X185269463Y-96382506D01*
X185210498Y-96492820D01*
X185174188Y-96612518D01*
X185161928Y-96737000D01*
X94838072Y-96737000D01*
X94825812Y-96612518D01*
X94789502Y-96492820D01*
X94730537Y-96382506D01*
X94651185Y-96285815D01*
X94554494Y-96206463D01*
X94444180Y-96147498D01*
X94324482Y-96111188D01*
X94200000Y-96098928D01*
X92385750Y-96102000D01*
X92227000Y-96260750D01*
X91973000Y-96260750D01*
X91814250Y-96102000D01*
X90377000Y-96099566D01*
X90377000Y-92374434D01*
X91814250Y-92372000D01*
X91973000Y-92213250D01*
X91973000Y-91189000D01*
X92227000Y-91189000D01*
X92227000Y-92213250D01*
X92385750Y-92372000D01*
X94200000Y-92375072D01*
X94324482Y-92362812D01*
X94444180Y-92326502D01*
X94554494Y-92267537D01*
X94651185Y-92188185D01*
X94730537Y-92091494D01*
X94789502Y-91981180D01*
X94825812Y-91861482D01*
X94838072Y-91737000D01*
X185161928Y-91737000D01*
X185174188Y-91861482D01*
X185210498Y-91981180D01*
X185269463Y-92091494D01*
X185348815Y-92188185D01*
X185445506Y-92267537D01*
X185555820Y-92326502D01*
X185675518Y-92362812D01*
X185800000Y-92375072D01*
X187614250Y-92372000D01*
X187773000Y-92213250D01*
X187773000Y-91189000D01*
X185323750Y-91189000D01*
X185165000Y-91347750D01*
X185161928Y-91737000D01*
X94838072Y-91737000D01*
X94835000Y-91347750D01*
X94676250Y-91189000D01*
X92227000Y-91189000D01*
X91973000Y-91189000D01*
X91953000Y-91189000D01*
X91953000Y-90935000D01*
X91973000Y-90935000D01*
X91973000Y-89910750D01*
X92227000Y-89910750D01*
X92227000Y-90935000D01*
X94676250Y-90935000D01*
X94835000Y-90776250D01*
X94838072Y-90387000D01*
X185161928Y-90387000D01*
X185165000Y-90776250D01*
X185323750Y-90935000D01*
X187773000Y-90935000D01*
X187773000Y-89910750D01*
X187614250Y-89752000D01*
X185800000Y-89748928D01*
X185675518Y-89761188D01*
X185555820Y-89797498D01*
X185445506Y-89856463D01*
X185348815Y-89935815D01*
X185269463Y-90032506D01*
X185210498Y-90142820D01*
X185174188Y-90262518D01*
X185161928Y-90387000D01*
X94838072Y-90387000D01*
X94825812Y-90262518D01*
X94789502Y-90142820D01*
X94730537Y-90032506D01*
X94651185Y-89935815D01*
X94554494Y-89856463D01*
X94444180Y-89797498D01*
X94324482Y-89761188D01*
X94200000Y-89748928D01*
X92385750Y-89752000D01*
X92227000Y-89910750D01*
X91973000Y-89910750D01*
X91814250Y-89752000D01*
X90377000Y-89749566D01*
X90377000Y-89200582D01*
X93700000Y-89200582D01*
X93764103Y-89194268D01*
X93825743Y-89175570D01*
X93882550Y-89145206D01*
X93912046Y-89121000D01*
X186087954Y-89121000D01*
X186117450Y-89145206D01*
G36*
X189623000Y-84099566D02*
G01*
X188185750Y-84102000D01*
X188027000Y-84260750D01*
X188027000Y-85285000D01*
X188047000Y-85285000D01*
X188047000Y-85539000D01*
X188027000Y-85539000D01*
X188027000Y-86563250D01*
X188185750Y-86722000D01*
X189623001Y-86724434D01*
X189623001Y-87273418D01*
X186300000Y-87273418D01*
X186235897Y-87279732D01*
X186174257Y-87298430D01*
X186117450Y-87328794D01*
X186087954Y-87353000D01*
X93912046Y-87353000D01*
X93882550Y-87328794D01*
X93825743Y-87298430D01*
X93764103Y-87279732D01*
X93700000Y-87273418D01*
X90377000Y-87273418D01*
X90377000Y-86724434D01*
X91814250Y-86722000D01*
X91973000Y-86563250D01*
X91973000Y-85539000D01*
X92227000Y-85539000D01*
X92227000Y-86563250D01*
X92385750Y-86722000D01*
X94200000Y-86725072D01*
X94324482Y-86712812D01*
X94444180Y-86676502D01*
X94554494Y-86617537D01*
X94651185Y-86538185D01*
X94730537Y-86441494D01*
X94789502Y-86331180D01*
X94825812Y-86211482D01*
X94838072Y-86087000D01*
X185161928Y-86087000D01*
X185174188Y-86211482D01*
X185210498Y-86331180D01*
X185269463Y-86441494D01*
X185348815Y-86538185D01*
X185445506Y-86617537D01*
X185555820Y-86676502D01*
X185675518Y-86712812D01*
X185800000Y-86725072D01*
X187614250Y-86722000D01*
X187773000Y-86563250D01*
X187773000Y-85539000D01*
X185323750Y-85539000D01*
X185165000Y-85697750D01*
X185161928Y-86087000D01*
X94838072Y-86087000D01*
X94835000Y-85697750D01*
X94676250Y-85539000D01*
X92227000Y-85539000D01*
X91973000Y-85539000D01*
X91953000Y-85539000D01*
X91953000Y-85285000D01*
X91973000Y-85285000D01*
X91973000Y-84260750D01*
X92227000Y-84260750D01*
X92227000Y-85285000D01*
X94676250Y-85285000D01*
X94835000Y-85126250D01*
X94838072Y-84737000D01*
X185161928Y-84737000D01*
X185165000Y-85126250D01*
X185323750Y-85285000D01*
X187773000Y-85285000D01*
X187773000Y-84260750D01*
X187614250Y-84102000D01*
X185800000Y-84098928D01*
X185675518Y-84111188D01*
X185555820Y-84147498D01*
X185445506Y-84206463D01*
X185348815Y-84285815D01*
X185269463Y-84382506D01*
X185210498Y-84492820D01*
X185174188Y-84612518D01*
X185161928Y-84737000D01*
X94838072Y-84737000D01*
X94825812Y-84612518D01*
X94789502Y-84492820D01*
X94730537Y-84382506D01*
X94651185Y-84285815D01*
X94554494Y-84206463D01*
X94444180Y-84147498D01*
X94324482Y-84111188D01*
X94200000Y-84098928D01*
X92385750Y-84102000D01*
X92227000Y-84260750D01*
X91973000Y-84260750D01*
X91814250Y-84102000D01*
X90377000Y-84099566D01*
X90377000Y-80777000D01*
X189623000Y-80777000D01*
X189623000Y-84099566D01*
G37*
X189623000Y-84099566D02*
X188185750Y-84102000D01*
X188027000Y-84260750D01*
X188027000Y-85285000D01*
X188047000Y-85285000D01*
X188047000Y-85539000D01*
X188027000Y-85539000D01*
X188027000Y-86563250D01*
X188185750Y-86722000D01*
X189623001Y-86724434D01*
X189623001Y-87273418D01*
X186300000Y-87273418D01*
X186235897Y-87279732D01*
X186174257Y-87298430D01*
X186117450Y-87328794D01*
X186087954Y-87353000D01*
X93912046Y-87353000D01*
X93882550Y-87328794D01*
X93825743Y-87298430D01*
X93764103Y-87279732D01*
X93700000Y-87273418D01*
X90377000Y-87273418D01*
X90377000Y-86724434D01*
X91814250Y-86722000D01*
X91973000Y-86563250D01*
X91973000Y-85539000D01*
X92227000Y-85539000D01*
X92227000Y-86563250D01*
X92385750Y-86722000D01*
X94200000Y-86725072D01*
X94324482Y-86712812D01*
X94444180Y-86676502D01*
X94554494Y-86617537D01*
X94651185Y-86538185D01*
X94730537Y-86441494D01*
X94789502Y-86331180D01*
X94825812Y-86211482D01*
X94838072Y-86087000D01*
X185161928Y-86087000D01*
X185174188Y-86211482D01*
X185210498Y-86331180D01*
X185269463Y-86441494D01*
X185348815Y-86538185D01*
X185445506Y-86617537D01*
X185555820Y-86676502D01*
X185675518Y-86712812D01*
X185800000Y-86725072D01*
X187614250Y-86722000D01*
X187773000Y-86563250D01*
X187773000Y-85539000D01*
X185323750Y-85539000D01*
X185165000Y-85697750D01*
X185161928Y-86087000D01*
X94838072Y-86087000D01*
X94835000Y-85697750D01*
X94676250Y-85539000D01*
X92227000Y-85539000D01*
X91973000Y-85539000D01*
X91953000Y-85539000D01*
X91953000Y-85285000D01*
X91973000Y-85285000D01*
X91973000Y-84260750D01*
X92227000Y-84260750D01*
X92227000Y-85285000D01*
X94676250Y-85285000D01*
X94835000Y-85126250D01*
X94838072Y-84737000D01*
X185161928Y-84737000D01*
X185165000Y-85126250D01*
X185323750Y-85285000D01*
X187773000Y-85285000D01*
X187773000Y-84260750D01*
X187614250Y-84102000D01*
X185800000Y-84098928D01*
X185675518Y-84111188D01*
X185555820Y-84147498D01*
X185445506Y-84206463D01*
X185348815Y-84285815D01*
X185269463Y-84382506D01*
X185210498Y-84492820D01*
X185174188Y-84612518D01*
X185161928Y-84737000D01*
X94838072Y-84737000D01*
X94825812Y-84612518D01*
X94789502Y-84492820D01*
X94730537Y-84382506D01*
X94651185Y-84285815D01*
X94554494Y-84206463D01*
X94444180Y-84147498D01*
X94324482Y-84111188D01*
X94200000Y-84098928D01*
X92385750Y-84102000D01*
X92227000Y-84260750D01*
X91973000Y-84260750D01*
X91814250Y-84102000D01*
X90377000Y-84099566D01*
X90377000Y-80777000D01*
X189623000Y-80777000D01*
X189623000Y-84099566D01*
G04 #@! TD*
M02*
