M48
INCH,TZ
T1C0.0157
%
G90
G05
T1
X35748Y-37677
X35748Y-41299
X35748Y-46024
X35787Y-32913
X35787Y-36535
X35787Y-42362
X35799Y-32244
X35799Y-46772
X36260Y-32913
X36260Y-36575
X36260Y-37638
X36260Y-41339
X36260Y-46063
X36299Y-42362
X36772Y-32913
X36783Y-32244
X36783Y-46772
X36811Y-36575
X36850Y-37638
X36850Y-46063
X36890Y-41339
X36890Y-42323
X37244Y-32913
X37281Y-38952
X37281Y-39975
X37299Y-34227
X37299Y-35251
X37402Y-36457
X37441Y-45945
X37480Y-41220
X37480Y-43701
X37480Y-44685
X37520Y-37874
X37520Y-40551
X37520Y-42480
X37520Y-43031
X37559Y-33622
X37559Y-35866
X37559Y-38386
X37559Y-45315
X37768Y-32244
X37768Y-46772
X37850Y-34227
X37850Y-35251
X37852Y-38952
X37852Y-39975
X38031Y-43701
X38031Y-44685
X38358Y-37106
X38358Y-41831
X38407Y-34227
X38407Y-35251
X38409Y-38952
X38409Y-39975
X38583Y-43701
X38583Y-44685
X38752Y-32244
X38752Y-46772
X38963Y-34227
X38963Y-35251
X38966Y-38952
X38966Y-39975
X39134Y-43701
X39134Y-44685
X39343Y-37106
X39343Y-41831
X39520Y-34227
X39520Y-35251
X39523Y-38952
X39523Y-39975
X39685Y-43701
X39685Y-44685
X39736Y-32244
X39736Y-46772
X40076Y-34227
X40076Y-35251
X40080Y-38952
X40080Y-39975
X40236Y-43701
X40236Y-44685
X40327Y-37106
X40327Y-41831
X40632Y-34227
X40632Y-35251
X40637Y-38952
X40637Y-39975
X40720Y-32244
X40720Y-46772
X40787Y-43701
X40787Y-44685
X41189Y-34227
X41189Y-35251
X41194Y-38952
X41194Y-39975
X41311Y-37106
X41311Y-41831
X41339Y-43701
X41339Y-44685
X41705Y-32244
X41705Y-46772
X41745Y-34227
X41745Y-35251
X41751Y-38952
X41751Y-39975
X41890Y-43701
X41890Y-44685
X42295Y-37106
X42295Y-41831
X42302Y-34227
X42302Y-35251
X42307Y-38952
X42307Y-39975
X42441Y-43701
X42441Y-44685
X42689Y-32244
X42689Y-46772
X42858Y-34227
X42858Y-35251
X42864Y-38952
X42864Y-39975
X42992Y-43701
X42992Y-44685
X43280Y-37106
X43280Y-41831
X43414Y-34227
X43414Y-35251
X43421Y-38952
X43421Y-39975
X43543Y-43701
X43543Y-44685
X43673Y-32244
X43673Y-46772
X43971Y-34227
X43971Y-35251
X43978Y-38952
X43978Y-39975
X44094Y-43701
X44094Y-44685
X44264Y-37106
X44264Y-41831
X44527Y-34227
X44527Y-35251
X44535Y-38952
X44535Y-39975
X44646Y-43701
X44646Y-44685
X44657Y-32244
X44657Y-46772
X45084Y-34227
X45084Y-35251
X45092Y-38952
X45092Y-39975
X45197Y-43701
X45197Y-44685
X45248Y-37106
X45248Y-41831
X45640Y-34227
X45640Y-35251
X45642Y-32244
X45642Y-46772
X45649Y-38952
X45649Y-39975
X45748Y-43701
X45748Y-44685
X46197Y-34227
X46197Y-35251
X46206Y-38952
X46206Y-39975
X46232Y-37106
X46232Y-41831
X46299Y-43701
X46299Y-44685
X46626Y-32244
X46626Y-46772
X46753Y-34227
X46753Y-35251
X46763Y-38952
X46763Y-39975
X46850Y-43701
X46850Y-44685
X47217Y-37106
X47217Y-41831
X47309Y-34227
X47309Y-35251
X47320Y-38952
X47320Y-39975
X47402Y-43701
X47402Y-44685
X47610Y-32244
X47610Y-46772
X47866Y-34227
X47866Y-35251
X47877Y-38952
X47877Y-39975
X47953Y-43701
X47953Y-44685
X48201Y-37106
X48201Y-41831
X48422Y-34227
X48422Y-35251
X48434Y-38952
X48434Y-39975
X48504Y-43701
X48504Y-44685
X48594Y-32244
X48594Y-46772
X48979Y-34227
X48979Y-35251
X48991Y-38952
X48991Y-39975
X49055Y-43701
X49055Y-44685
X49185Y-37106
X49185Y-41831
X49535Y-34227
X49535Y-35251
X49548Y-38952
X49548Y-39975
X49579Y-32244
X49579Y-46772
X49606Y-43701
X49606Y-44685
X50091Y-34227
X50091Y-35251
X50105Y-38952
X50105Y-39975
X50157Y-43701
X50157Y-44685
X50169Y-37106
X50169Y-41831
X50563Y-32244
X50563Y-46772
X50648Y-34227
X50648Y-35251
X50662Y-38952
X50662Y-39975
X50709Y-43701
X50709Y-44685
X51154Y-37106
X51154Y-41831
X51204Y-34227
X51204Y-35251
X51219Y-38952
X51219Y-39975
X51260Y-43701
X51260Y-44685
X51547Y-32244
X51547Y-46772
X51761Y-34227
X51761Y-35251
X51776Y-38952
X51776Y-39975
X51811Y-43701
X51811Y-44685
X52138Y-37106
X52138Y-41831
X52317Y-34227
X52317Y-35251
X52332Y-38952
X52332Y-39975
X52362Y-43701
X52362Y-44685
X52531Y-32244
X52531Y-46772
X52874Y-34227
X52874Y-35251
X52889Y-38952
X52889Y-39975
X52913Y-43701
X52913Y-44685
X53122Y-37106
X53122Y-41831
X53430Y-34227
X53430Y-35251
X53446Y-38952
X53446Y-39975
X53465Y-43701
X53465Y-44685
X53516Y-32244
X53516Y-46772
X53986Y-34227
X53986Y-35251
X54003Y-38952
X54003Y-39975
X54016Y-43701
X54016Y-44685
X54106Y-37106
X54106Y-41831
X54500Y-32244
X54500Y-46772
X54543Y-34227
X54543Y-35251
X54560Y-38952
X54560Y-39975
X54567Y-43701
X54567Y-44685
X55091Y-37106
X55091Y-41831
X55099Y-34227
X55099Y-35251
X55117Y-38952
X55117Y-39975
X55118Y-43701
X55118Y-44685
X55484Y-32244
X55484Y-46772
X55656Y-34227
X55656Y-35251
X55669Y-43701
X55669Y-44685
X55674Y-38952
X55674Y-39975
X56075Y-37106
X56075Y-41831
X56212Y-34227
X56212Y-35251
X56220Y-43701
X56220Y-44685
X56231Y-38952
X56231Y-39975
X56469Y-32244
X56469Y-46772
X56768Y-34227
X56768Y-35251
X56772Y-43701
X56772Y-44685
X56788Y-38952
X56788Y-39975
X57059Y-37106
X57059Y-41831
X57323Y-43701
X57323Y-44685
X57325Y-34227
X57325Y-35251
X57345Y-38952
X57345Y-39975
X57453Y-32244
X57453Y-46772
X57874Y-43701
X57874Y-44685
X57881Y-34227
X57881Y-35251
X57902Y-38952
X57902Y-39975
X58043Y-37106
X58043Y-41831
X58425Y-43701
X58425Y-44685
X58437Y-32244
X58437Y-46772
X58438Y-34227
X58438Y-35251
X58459Y-38952
X58459Y-39975
X58976Y-43701
X58976Y-44685
X58994Y-34227
X58994Y-35251
X59016Y-38952
X59016Y-39975
X59028Y-37106
X59028Y-41831
X59421Y-32244
X59421Y-46772
X59528Y-43701
X59528Y-44685
X59550Y-34227
X59550Y-35251
X59573Y-38952
X59573Y-39975
X60012Y-37106
X60012Y-41831
X60079Y-43701
X60079Y-44685
X60107Y-34227
X60107Y-35251
X60130Y-38952
X60130Y-39975
X60406Y-32244
X60406Y-46772
X60630Y-43701
X60630Y-44685
X60663Y-34227
X60663Y-35251
X60687Y-38952
X60687Y-39975
X60996Y-37106
X60996Y-41831
X61181Y-43701
X61181Y-44685
X61220Y-34227
X61220Y-35251
X61244Y-38952
X61244Y-39975
X61390Y-32244
X61390Y-46772
X61732Y-43701
X61732Y-44685
X61776Y-34227
X61776Y-35251
X61801Y-38952
X61801Y-39975
X61980Y-37106
X61980Y-41831
X62283Y-43701
X62283Y-44685
X62333Y-34227
X62333Y-35251
X62357Y-38952
X62357Y-39975
X62374Y-32244
X62374Y-46772
X62835Y-43701
X62835Y-44685
X62889Y-34227
X62889Y-35251
X62914Y-38952
X62914Y-39975
X62965Y-37106
X62965Y-41831
X63358Y-32244
X63358Y-46772
X63386Y-43701
X63386Y-44685
X63445Y-34227
X63445Y-35251
X63471Y-38952
X63471Y-39975
X63937Y-43701
X63937Y-44685
X63949Y-37106
X63949Y-41831
X64002Y-34227
X64002Y-35251
X64028Y-38952
X64028Y-39975
X64343Y-32244
X64343Y-46772
X64488Y-43701
X64488Y-44685
X64558Y-34227
X64558Y-35251
X64585Y-38952
X64585Y-39975
X64933Y-37106
X64933Y-41831
X65039Y-43701
X65039Y-44685
X65115Y-34227
X65115Y-35251
X65142Y-38952
X65142Y-39975
X65327Y-32244
X65327Y-46772
X65591Y-43701
X65591Y-44685
X65671Y-34227
X65671Y-35251
X65699Y-38952
X65699Y-39975
X65917Y-37106
X65917Y-41831
X66142Y-43701
X66142Y-44685
X66227Y-34227
X66227Y-35251
X66256Y-38952
X66256Y-39975
X66311Y-32244
X66311Y-46772
X66693Y-43701
X66693Y-44685
X66784Y-34227
X66784Y-35251
X66813Y-38952
X66813Y-39975
X66902Y-37106
X66902Y-41831
X67244Y-43701
X67244Y-44685
X67295Y-32244
X67295Y-46772
X67340Y-34227
X67340Y-35251
X67370Y-38952
X67370Y-39975
X67795Y-43701
X67795Y-44685
X67886Y-37106
X67886Y-41831
X67897Y-34227
X67897Y-35251
X67927Y-38952
X67927Y-39975
X68280Y-32244
X68280Y-46772
X68346Y-43701
X68346Y-44685
X68453Y-34227
X68453Y-35251
X68484Y-38952
X68484Y-39975
X68870Y-37106
X68870Y-41831
X68898Y-43701
X68898Y-44685
X69010Y-34227
X69010Y-35251
X69041Y-38952
X69041Y-39975
X69264Y-32244
X69264Y-46772
X69449Y-43701
X69449Y-44685
X69566Y-34227
X69566Y-35251
X69598Y-38952
X69598Y-39975
X69854Y-37106
X69854Y-41831
X70000Y-43701
X70000Y-44685
X70122Y-34227
X70122Y-35251
X70155Y-38952
X70155Y-39975
X70248Y-32244
X70248Y-46772
X70551Y-43701
X70551Y-44685
X70649Y-39975
X70671Y-38952
X70679Y-34227
X70679Y-35251
X70839Y-37106
X70839Y-41831
X71102Y-43701
X71102Y-44685
X71206Y-39975
X71228Y-38952
X71232Y-32244
X71232Y-46772
X71235Y-34227
X71235Y-35251
X71654Y-43701
X71654Y-44685
X71763Y-39975
X71785Y-38952
X71805Y-34227
X71805Y-35251
X71823Y-37106
X71823Y-41831
X72205Y-43701
X72205Y-44685
X72217Y-32244
X72217Y-46772
X72320Y-39975
X72342Y-38952
X72361Y-34227
X72361Y-35251
X72559Y-35748
X72598Y-36299
X72638Y-38386
X72638Y-40512
X72677Y-37795
X72677Y-45276
X72717Y-33622
X72717Y-43110
X72756Y-41181
X72756Y-42559
X72756Y-43701
X72756Y-44685
X72795Y-33031
X72795Y-45866
X72899Y-38952
X72911Y-39975
X72918Y-34227
X72918Y-35251
X73201Y-32244
X73201Y-46772
X73228Y-36575
X73268Y-42362
X73307Y-37598
X73386Y-32913
X73386Y-46063
X73425Y-41339
X73898Y-36575
X73898Y-46063
X73937Y-32913
X73937Y-37598
X73937Y-42362
X74016Y-41299
X74185Y-32244
X74185Y-46772
X74449Y-37638
X74449Y-42402
X74488Y-32913
X74488Y-36575
X74488Y-41299
X74488Y-46024
T0
M30
