G04 #@! TF.GenerationSoftware,KiCad,Pcbnew,5.1.6-c6e7f7d~86~ubuntu18.04.1*
G04 #@! TF.CreationDate,2020-07-08T22:14:40-04:00*
G04 #@! TF.ProjectId,microstrip_tests,6d696372-6f73-4747-9269-705f74657374,rev?*
G04 #@! TF.SameCoordinates,Original*
G04 #@! TF.FileFunction,Legend,Top*
G04 #@! TF.FilePolarity,Positive*
%FSLAX46Y46*%
G04 Gerber Fmt 4.6, Leading zero omitted, Abs format (unit mm)*
G04 Created by KiCad (PCBNEW 5.1.6-c6e7f7d~86~ubuntu18.04.1) date 2020-07-08 22:14:40*
%MOMM*%
%LPD*%
G01*
G04 APERTURE LIST*
%ADD10C,0.120000*%
%ADD11C,0.150000*%
G04 APERTURE END LIST*
D10*
G04 #@! TO.C,J5*
X94860000Y-99987000D02*
X94360000Y-100237000D01*
X94860000Y-100487000D02*
X94860000Y-99987000D01*
X94360000Y-100237000D02*
X94860000Y-100487000D01*
X90100000Y-98287000D02*
X90100000Y-99397000D01*
X90100000Y-101077000D02*
X90100000Y-102187000D01*
X93810000Y-98287000D02*
X93810000Y-99397000D01*
X93810000Y-101077000D02*
X93810000Y-102187000D01*
G04 #@! TO.C,J1*
X185140000Y-88487000D02*
X185640000Y-88237000D01*
X185140000Y-87987000D02*
X185140000Y-88487000D01*
X185640000Y-88237000D02*
X185140000Y-87987000D01*
X189900000Y-90187000D02*
X189900000Y-89077000D01*
X189900000Y-87397000D02*
X189900000Y-86287000D01*
X186190000Y-90187000D02*
X186190000Y-89077000D01*
X186190000Y-87397000D02*
X186190000Y-86287000D01*
G04 #@! TO.C,J2*
X93810000Y-113076000D02*
X93810000Y-114186000D01*
X93810000Y-110286000D02*
X93810000Y-111396000D01*
X90100000Y-113076000D02*
X90100000Y-114186000D01*
X90100000Y-110286000D02*
X90100000Y-111396000D01*
X94360000Y-112236000D02*
X94860000Y-112486000D01*
X94860000Y-112486000D02*
X94860000Y-111986000D01*
X94860000Y-111986000D02*
X94360000Y-112236000D01*
G04 #@! TO.C,J3*
X186190000Y-99397000D02*
X186190000Y-98287000D01*
X186190000Y-102187000D02*
X186190000Y-101077000D01*
X189900000Y-99397000D02*
X189900000Y-98287000D01*
X189900000Y-102187000D02*
X189900000Y-101077000D01*
X185640000Y-100237000D02*
X185140000Y-99987000D01*
X185140000Y-99987000D02*
X185140000Y-100487000D01*
X185140000Y-100487000D02*
X185640000Y-100237000D01*
G04 #@! TO.C,J4*
X185140000Y-112486000D02*
X185640000Y-112236000D01*
X185140000Y-111986000D02*
X185140000Y-112486000D01*
X185640000Y-112236000D02*
X185140000Y-111986000D01*
X189900000Y-114186000D02*
X189900000Y-113076000D01*
X189900000Y-111396000D02*
X189900000Y-110286000D01*
X186190000Y-114186000D02*
X186190000Y-113076000D01*
X186190000Y-111396000D02*
X186190000Y-110286000D01*
G04 #@! TO.C,J6*
X93810000Y-89077000D02*
X93810000Y-90187000D01*
X93810000Y-86287000D02*
X93810000Y-87397000D01*
X90100000Y-89077000D02*
X90100000Y-90187000D01*
X90100000Y-86287000D02*
X90100000Y-87397000D01*
X94360000Y-88237000D02*
X94860000Y-88487000D01*
X94860000Y-88487000D02*
X94860000Y-87987000D01*
X94860000Y-87987000D02*
X94360000Y-88237000D01*
G04 #@! TO.C,J5*
D11*
X95052380Y-100570333D02*
X95766666Y-100570333D01*
X95909523Y-100617952D01*
X96004761Y-100713190D01*
X96052380Y-100856047D01*
X96052380Y-100951285D01*
X95052380Y-99617952D02*
X95052380Y-100094142D01*
X95528571Y-100141761D01*
X95480952Y-100094142D01*
X95433333Y-99998904D01*
X95433333Y-99760809D01*
X95480952Y-99665571D01*
X95528571Y-99617952D01*
X95623809Y-99570333D01*
X95861904Y-99570333D01*
X95957142Y-99617952D01*
X96004761Y-99665571D01*
X96052380Y-99760809D01*
X96052380Y-99998904D01*
X96004761Y-100094142D01*
X95957142Y-100141761D01*
G04 #@! TO.C,J1*
X183852380Y-88570333D02*
X184566666Y-88570333D01*
X184709523Y-88617952D01*
X184804761Y-88713190D01*
X184852380Y-88856047D01*
X184852380Y-88951285D01*
X184852380Y-87570333D02*
X184852380Y-88141761D01*
X184852380Y-87856047D02*
X183852380Y-87856047D01*
X183995238Y-87951285D01*
X184090476Y-88046523D01*
X184138095Y-88141761D01*
G04 #@! TO.C,J2*
X95052380Y-112569333D02*
X95766666Y-112569333D01*
X95909523Y-112616952D01*
X96004761Y-112712190D01*
X96052380Y-112855047D01*
X96052380Y-112950285D01*
X95147619Y-112140761D02*
X95100000Y-112093142D01*
X95052380Y-111997904D01*
X95052380Y-111759809D01*
X95100000Y-111664571D01*
X95147619Y-111616952D01*
X95242857Y-111569333D01*
X95338095Y-111569333D01*
X95480952Y-111616952D01*
X96052380Y-112188380D01*
X96052380Y-111569333D01*
G04 #@! TO.C,J3*
X183852380Y-100570333D02*
X184566666Y-100570333D01*
X184709523Y-100617952D01*
X184804761Y-100713190D01*
X184852380Y-100856047D01*
X184852380Y-100951285D01*
X183852380Y-100189380D02*
X183852380Y-99570333D01*
X184233333Y-99903666D01*
X184233333Y-99760809D01*
X184280952Y-99665571D01*
X184328571Y-99617952D01*
X184423809Y-99570333D01*
X184661904Y-99570333D01*
X184757142Y-99617952D01*
X184804761Y-99665571D01*
X184852380Y-99760809D01*
X184852380Y-100046523D01*
X184804761Y-100141761D01*
X184757142Y-100189380D01*
G04 #@! TO.C,J4*
X183852380Y-112569333D02*
X184566666Y-112569333D01*
X184709523Y-112616952D01*
X184804761Y-112712190D01*
X184852380Y-112855047D01*
X184852380Y-112950285D01*
X184185714Y-111664571D02*
X184852380Y-111664571D01*
X183804761Y-111902666D02*
X184519047Y-112140761D01*
X184519047Y-111521714D01*
G04 #@! TO.C,J6*
X95052380Y-88570333D02*
X95766666Y-88570333D01*
X95909523Y-88617952D01*
X96004761Y-88713190D01*
X96052380Y-88856047D01*
X96052380Y-88951285D01*
X95052380Y-87665571D02*
X95052380Y-87856047D01*
X95100000Y-87951285D01*
X95147619Y-87998904D01*
X95290476Y-88094142D01*
X95480952Y-88141761D01*
X95861904Y-88141761D01*
X95957142Y-88094142D01*
X96004761Y-88046523D01*
X96052380Y-87951285D01*
X96052380Y-87760809D01*
X96004761Y-87665571D01*
X95957142Y-87617952D01*
X95861904Y-87570333D01*
X95623809Y-87570333D01*
X95528571Y-87617952D01*
X95480952Y-87665571D01*
X95433333Y-87760809D01*
X95433333Y-87951285D01*
X95480952Y-88046523D01*
X95528571Y-88094142D01*
X95623809Y-88141761D01*
G04 #@! TD*
M02*
